<svg xmlns="http://www.w3.org/2000/svg" width="133" height="26"><path d="M128.487 10.683V6.178h-3.223v4.505h-4.642V13.9h4.642v4.634h3.223V13.9H133v-3.218h-4.513zm-23.465-.257v5.15l7.04-.007c-1.103 3.338-2.818 5.155-7.04 5.155-4.272 0-7.607-3.458-7.607-7.723s3.335-7.723 7.607-7.723c2.26 0 3.718.793 5.056 1.897 1.07-1.07.982-1.222 3.707-3.8C111.47 1.28 108.397 0 105.022 0 97.83 0 92 5.82 92 13s5.83 13 13.022 13c10.75 0 13.377-9.345 12.506-15.574h-12.506zM75 3.078a12.36 12.36 0 0 1-3.652 1.033 6.54 6.54 0 0 0 2.797-3.63 12.48 12.48 0 0 1-4.041 1.591C68.946.796 67.292 0 65.462 0c-3.5 0-6.358 2.94-6.358 6.563a6.74 6.74 0 0 0 .164 1.495c-5.286-.274-9.97-2.885-13.1-6.86a6.71 6.71 0 0 0-.86 3.303c0 2.276 1.123 4.285 2.83 5.463-1.04-.032-2.023-.33-2.882-.82v.08c0 3.18 2.193 5.835 5.104 6.436a6.03 6.03 0 0 1-1.676.231 6.14 6.14 0 0 1-1.197-.116c.8 2.607 3.157 4.505 5.94 4.556-2.176 1.762-4.92 2.8-7.9 2.8a12.65 12.65 0 0 1-1.518-.09c2.806 1.862 6.15 2.95 9.74 2.95 11.7 0 18.096-10 18.096-18.674a21.72 21.72 0 0 0-.016-.85C73.07 5.54 74.15 4.385 75 3.07M13.837 26H1.43C.64 26 0 25.357 0 24.565V1.435C0 .642.64 0 1.43 0h23.046c.8 0 1.43.642 1.43 1.435v23.13c0 .793-.64 1.435-1.43 1.435h-6.6V15.93h3.367l.504-3.924h-3.872V9.502c0-1.136.314-1.9 1.938-1.9l2.07-.001V4.1c-.358-.048-1.587-.155-3.017-.155-2.985 0-5.03 1.83-5.03 5.187v2.894H10.46v3.924h3.376V26z" fill="#1BC7DF" fill-rule="evenodd"/></svg>