<?xml version="1.0" standalone="no"?>
<!DOCTYPE svg PUBLIC "-//W3C//DTD SVG 20010904//EN"
 "http://www.w3.org/TR/2001/REC-SVG-20010904/DTD/svg10.dtd">
<svg version="1.0" xmlns="http://www.w3.org/2000/svg"
 width="700.000000pt" height="700.000000pt" viewBox="0 0 700.000000 700.000000"
 preserveAspectRatio="xMidYMid meet">
<metadata>
Created by potrace 1.11, written by Peter Selinger 2001-2013
</metadata>
<g transform="translate(0.000000,700.000000) scale(0.100000,-0.100000)"
fill="#000000" stroke="none">
<path d="M597 6989 c-253 -33 -476 -216 -556 -456 -11 -33 -25 -103 -31 -155
-8 -64 -10 -966 -8 -2943 3 -2688 4 -2854 21 -2915 67 -247 257 -434 503 -497
65 -17 227 -18 2974 -18 2759 0 2909 1 2975 18 248 63 439 254 502 503 17 65
18 227 18 2974 0 2747 -1 2909 -18 2974 -63 246 -250 436 -497 503 -61 17
-225 18 -2940 19 -1606 1 -2905 -2 -2943 -7z m1353 -2018 l0 -768 -30 -113
c-54 -206 -64 -300 -65 -575 0 -276 12 -384 66 -592 l29 -114 0 -775 0 -774
-487 0 -486 0 7 1760 7 1760 -240 0 -241 0 0 82 0 83 397 397 398 398 322 0
323 0 0 -769z m2685 740 c235 -40 399 -92 600 -190 438 -214 825 -603 1040
-1045 191 -394 255 -789 204 -1266 -16 -140 -70 -387 -97 -434 -2 -4 -22 22
-43 58 -164 284 -416 515 -724 668 l-84 42 -6 65 c-25 257 -90 442 -222 629
-26 37 -93 113 -149 169 -266 264 -590 388 -962 370 -307 -16 -553 -116 -773
-313 -218 -195 -347 -408 -411 -677 -30 -126 -32 -429 -5 -555 57 -256 169
-457 362 -646 172 -168 374 -280 593 -330 157 -35 419 -38 567 -5 85 18 234
70 254 87 43 38 75 393 51 578 -23 186 -82 341 -180 474 -106 143 -239 238
-470 338 -20 8 2 11 101 11 415 3 931 -113 1274 -286 351 -176 587 -396 747
-697 l48 -89 -69 -141 c-304 -620 -899 -1089 -1552 -1220 -172 -35 -285 -46
-484 -46 -443 1 -788 96 -1155 318 -340 207 -671 565 -850 921 -234 465 -292
1041 -160 1572 137 552 512 1046 1035 1363 258 156 534 249 865 292 154 19
500 12 655 -15z"/>
</g>
</svg>
