<svg xmlns="http://www.w3.org/2000/svg" xmlns:xlink="http://www.w3.org/1999/xlink" width="101" height="165"><defs><linearGradient x1="-101.25221%" y1="244.937807%" x2="50.9343241%" y2="27.3967829%" id="A"><stop stop-color="#00EAFF" offset="0%"/><stop stop-color="#07DFFC" offset="19%"/><stop stop-color="#1BC0F4" offset="53%"/><stop stop-color="#3A8FE8" offset="97%"/><stop stop-color="#3C8CE7" offset="99%"/></linearGradient><linearGradient x1="-19.1256363%" y1="137.301003%" x2="46.0749211%" y2="53.5732367%" id="B"><stop stop-color="#B3FFAB" offset="1%"/><stop stop-color="#B1FFAC" offset="1%"/><stop stop-color="#6EFFCC" offset="36%"/><stop stop-color="#3CFFE3" offset="65%"/><stop stop-color="#1DFFF2" offset="88%"/><stop stop-color="#12FFF7" offset="100%"/></linearGradient><linearGradient x1="66.9634986%" y1="21.2946026%" x2="19.8571052%" y2="94.2587102%" id="C"><stop stop-color="#00EAFF" offset="0%"/><stop stop-color="#07DFFC" offset="19%"/><stop stop-color="#1BC0F4" offset="53%"/><stop stop-color="#3A8FE8" offset="97%"/><stop stop-color="#3C8CE7" offset="99%"/></linearGradient><linearGradient x1="224.742059%" y1="5.63082109%" x2="152.579405%" y2="24.2758462%" id="D"><stop stop-color="#00EAFF" offset="0%"/><stop stop-color="#07DFFC" offset="19%"/><stop stop-color="#1BC0F4" offset="53%"/><stop stop-color="#3A8FE8" offset="97%"/><stop stop-color="#3C8CE7" offset="99%"/></linearGradient><linearGradient x1="-63.6320384%" y1="-6.29933384%" x2="152.685945%" y2="100.388791%" id="E"><stop stop-color="#00EAFF" offset="0%"/><stop stop-color="#07DFFC" offset="19%"/><stop stop-color="#1BC0F4" offset="53%"/><stop stop-color="#3A8FE8" offset="97%"/><stop stop-color="#3C8CE7" offset="99%"/></linearGradient><linearGradient x1="-34.177977%" y1="-63.5287468%" x2="64.875032%" y2="72.1017591%" id="F"><stop stop-color="#00EAFF" offset="0%"/><stop stop-color="#07DFFC" offset="19%"/><stop stop-color="#1BC0F4" offset="53%"/><stop stop-color="#3A8FE8" offset="97%"/><stop stop-color="#3C8CE7" offset="99%"/></linearGradient><linearGradient x1="15.2315756%" y1="-42.3978796%" x2="75.5069886%" y2="112.307452%" id="G"><stop stop-color="#B3FFAB" offset="1%"/><stop stop-color="#B1FFAC" offset="1%"/><stop stop-color="#6EFFCC" offset="36%"/><stop stop-color="#3CFFE3" offset="65%"/><stop stop-color="#1DFFF2" offset="88%"/><stop stop-color="#12FFF7" offset="100%"/></linearGradient><linearGradient x1="-199.794788%" y1="-220.376705%" x2="-78.7600434%" y2="-90.2233571%" id="H"><stop stop-color="#00EAFF" offset="0%"/><stop stop-color="#07DFFC" offset="19%"/><stop stop-color="#1BC0F4" offset="53%"/><stop stop-color="#3A8FE8" offset="97%"/><stop stop-color="#3C8CE7" offset="99%"/></linearGradient><linearGradient x1="-48.4474886%" y1="-38.0607497%" x2="145.12481%" y2="129.985119%" id="I"><stop stop-color="#00EAFF" offset="0%"/><stop stop-color="#07DFFC" offset="19%"/><stop stop-color="#1BC0F4" offset="53%"/><stop stop-color="#3A8FE8" offset="97%"/><stop stop-color="#3C8CE7" offset="99%"/></linearGradient><linearGradient x1="1.83845127%" y1="-47.6154365%" x2="85.7116155%" y2="118.800195%" id="J"><stop stop-color="#00EAFF" offset="0%"/><stop stop-color="#01E8FF" offset="45%"/><stop stop-color="#06E1FD" offset="61%"/><stop stop-color="#0DD5FA" offset="73%"/><stop stop-color="#18C4F5" offset="83%"/><stop stop-color="#26AEF0" offset="91%"/><stop stop-color="#3794E9" offset="98%"/><stop stop-color="#3C8CE7" offset="99%"/></linearGradient><linearGradient x1="-1512.98527%" y1="1630.03209%" x2="-1461.84739%" y2="1724.66137%" id="K"><stop stop-color="#00EAFF" offset="0%"/><stop stop-color="#01E8FF" offset="45%"/><stop stop-color="#06E1FD" offset="61%"/><stop stop-color="#0DD5FA" offset="73%"/><stop stop-color="#18C4F5" offset="83%"/><stop stop-color="#26AEF0" offset="91%"/><stop stop-color="#3794E9" offset="98%"/><stop stop-color="#3C8CE7" offset="99%"/></linearGradient><linearGradient x1="-1537.61711%" y1="1727.67699%" x2="-1486.34536%" y2="1821.89638%" id="L"><stop stop-color="#00EAFF" offset="0%"/><stop stop-color="#01E8FF" offset="45%"/><stop stop-color="#06E1FD" offset="61%"/><stop stop-color="#0DD5FA" offset="73%"/><stop stop-color="#18C4F5" offset="83%"/><stop stop-color="#26AEF0" offset="91%"/><stop stop-color="#3794E9" offset="98%"/><stop stop-color="#3C8CE7" offset="99%"/></linearGradient><linearGradient x1="-180.991808%" y1="-213.646565%" x2="-69.0813341%" y2="-86.2263245%" id="M"><stop stop-color="#B3FFAB" offset="1%"/><stop stop-color="#B1FFAC" offset="1%"/><stop stop-color="#6EFFCC" offset="36%"/><stop stop-color="#3CFFE3" offset="65%"/><stop stop-color="#1DFFF2" offset="88%"/><stop stop-color="#12FFF7" offset="100%"/></linearGradient><linearGradient x1="-44.591293%" y1="-37.4465632%" x2="142.462638%" y2="132.969152%" id="N"><stop stop-color="#00EAFF" offset="0%"/><stop stop-color="#07DFFC" offset="19%"/><stop stop-color="#1BC0F4" offset="53%"/><stop stop-color="#3A8FE8" offset="97%"/><stop stop-color="#3C8CE7" offset="99%"/></linearGradient><linearGradient x1="170.127884%" y1="-90.7516896%" x2="95.045798%" y2="-18.071033%" id="O"><stop stop-color="#00EAFF" offset="0%"/><stop stop-color="#07DFFC" offset="19%"/><stop stop-color="#1BC0F4" offset="53%"/><stop stop-color="#3A8FE8" offset="97%"/><stop stop-color="#3C8CE7" offset="99%"/></linearGradient><linearGradient x1="75.1593921%" y1="1.19141057%" x2="0.0773061553%" y2="73.8720672%" id="P"><stop stop-color="#00EAFF" offset="0%"/><stop stop-color="#07DFFC" offset="19%"/><stop stop-color="#1BC0F4" offset="53%"/><stop stop-color="#3A8FE8" offset="97%"/><stop stop-color="#3C8CE7" offset="99%"/></linearGradient><linearGradient x1="-158.536254%" y1="137.415777%" x2="37.3863344%" y2="51.771339%" id="Q"><stop stop-color="#00EAFF" offset="0%"/><stop stop-color="#07DFFC" offset="19%"/><stop stop-color="#13CCF7" offset="40%"/><stop stop-color="#27ACEF" offset="71%"/><stop stop-color="#3C8CE7" offset="99%"/></linearGradient><linearGradient x1="148.543775%" y1="15.8015076%" x2="-86.8144781%" y2="90.660489%" id="R"><stop stop-color="#00EAFF" offset="0%"/><stop stop-color="#07DFFC" offset="19%"/><stop stop-color="#1BC0F4" offset="53%"/><stop stop-color="#3A8FE8" offset="97%"/><stop stop-color="#3C8CE7" offset="99%"/></linearGradient><linearGradient x1="-106.229413%" y1="202.132872%" x2="-31.2482436%" y2="128.306066%" id="S"><stop stop-color="#00EAFF" offset="0%"/><stop stop-color="#07DFFC" offset="19%"/><stop stop-color="#1BC0F4" offset="53%"/><stop stop-color="#3A8FE8" offset="97%"/><stop stop-color="#3C8CE7" offset="99%"/></linearGradient><linearGradient x1="119.708183%" y1="22.0220898%" x2="-33.7549237%" y2="83.186055%" id="T"><stop stop-color="#00EAFF" offset="0%"/><stop stop-color="#07DFFC" offset="19%"/><stop stop-color="#1BC0F4" offset="53%"/><stop stop-color="#3A8FE8" offset="97%"/><stop stop-color="#3C8CE7" offset="99%"/></linearGradient><linearGradient x1="187.056069%" y1="334.51783%" x2="112.212789%" y2="195.48441%" id="U"><stop stop-color="#00EAFF" offset="0%"/><stop stop-color="#07DFFC" offset="19%"/><stop stop-color="#1BC0F4" offset="53%"/><stop stop-color="#3A8FE8" offset="97%"/><stop stop-color="#3C8CE7" offset="99%"/></linearGradient><linearGradient x1="138.934012%" y1="18.368457%" x2="-29.3671913%" y2="84.584676%" id="V"><stop stop-color="#00EAFF" offset="0%"/><stop stop-color="#07DFFC" offset="19%"/><stop stop-color="#1BC0F4" offset="53%"/><stop stop-color="#3A8FE8" offset="97%"/><stop stop-color="#3C8CE7" offset="99%"/></linearGradient><linearGradient x1="153.517212%" y1="-43.7989475%" x2="37.6166389%" y2="52.4711749%" id="W"><stop stop-color="#00EAFF" offset="0%"/><stop stop-color="#07DFFC" offset="19%"/><stop stop-color="#1BC0F4" offset="53%"/><stop stop-color="#3A8FE8" offset="97%"/><stop stop-color="#3C8CE7" offset="99%"/></linearGradient><linearGradient x1="81.874269%" y1="15.5001002%" x2="-33.9785575%" y2="111.932955%" id="X"><stop stop-color="#00EAFF" offset="0%"/><stop stop-color="#07DFFC" offset="19%"/><stop stop-color="#1BC0F4" offset="53%"/><stop stop-color="#3A8FE8" offset="97%"/><stop stop-color="#3C8CE7" offset="99%"/></linearGradient><linearGradient x1="153.833333%" y1="-43.8398057%" x2="38.0165692%" y2="52.4711749%" id="Y"><stop stop-color="#00EAFF" offset="0%"/><stop stop-color="#07DFFC" offset="19%"/><stop stop-color="#1BC0F4" offset="53%"/><stop stop-color="#3A8FE8" offset="97%"/><stop stop-color="#3C8CE7" offset="99%"/></linearGradient><linearGradient x1="82.3352827%" y1="15.5696709%" x2="-33.4814815%" y2="111.880652%" id="Z"><stop stop-color="#00EAFF" offset="0%"/><stop stop-color="#07DFFC" offset="19%"/><stop stop-color="#1BC0F4" offset="53%"/><stop stop-color="#3A8FE8" offset="97%"/><stop stop-color="#3C8CE7" offset="99%"/></linearGradient><linearGradient x1="154.469786%" y1="-43.6067729%" x2="38.5682261%" y2="52.5495182%" id="a"><stop stop-color="#00EAFF" offset="0%"/><stop stop-color="#07DFFC" offset="19%"/><stop stop-color="#1BC0F4" offset="53%"/><stop stop-color="#3A8FE8" offset="97%"/><stop stop-color="#3C8CE7" offset="99%"/></linearGradient><linearGradient x1="82.9717349%" y1="15.6072381%" x2="-32.9298246%" y2="111.998347%" id="b"><stop stop-color="#00EAFF" offset="0%"/><stop stop-color="#07DFFC" offset="19%"/><stop stop-color="#1BC0F4" offset="53%"/><stop stop-color="#3A8FE8" offset="97%"/><stop stop-color="#3C8CE7" offset="99%"/></linearGradient><linearGradient x1="153.254056%" y1="-44.1192759%" x2="37.4382778%" y2="52.1917047%" id="c"><stop stop-color="#00EAFF" offset="0%"/><stop stop-color="#07DFFC" offset="19%"/><stop stop-color="#1BC0F4" offset="53%"/><stop stop-color="#3A8FE8" offset="97%"/><stop stop-color="#3C8CE7" offset="99%"/></linearGradient><linearGradient x1="81.6598441%" y1="15.2902007%" x2="-34.1569201%" y2="111.601181%" id="d"><stop stop-color="#00EAFF" offset="0%"/><stop stop-color="#07DFFC" offset="19%"/><stop stop-color="#1BC0F4" offset="53%"/><stop stop-color="#3A8FE8" offset="97%"/><stop stop-color="#3C8CE7" offset="99%"/></linearGradient><linearGradient x1="153.719798%" y1="-43.7032083%" x2="37.8389746%" y2="52.4393252%" id="e"><stop stop-color="#00EAFF" offset="0%"/><stop stop-color="#07DFFC" offset="19%"/><stop stop-color="#1BC0F4" offset="53%"/><stop stop-color="#3A8FE8" offset="97%"/><stop stop-color="#3C8CE7" offset="99%"/></linearGradient><linearGradient x1="82.0721248%" y1="15.2493425%" x2="-33.6959064%" y2="111.677995%" id="f"><stop stop-color="#00EAFF" offset="0%"/><stop stop-color="#07DFFC" offset="19%"/><stop stop-color="#1BC0F4" offset="53%"/><stop stop-color="#3A8FE8" offset="97%"/><stop stop-color="#3C8CE7" offset="99%"/></linearGradient><linearGradient x1="154.255361%" y1="-44.0192249%" x2="38.4385965%" y2="52.2802488%" id="g"><stop stop-color="#00EAFF" offset="0%"/><stop stop-color="#07DFFC" offset="19%"/><stop stop-color="#1BC0F4" offset="53%"/><stop stop-color="#3A8FE8" offset="97%"/><stop stop-color="#3C8CE7" offset="99%"/></linearGradient><linearGradient x1="82.7573099%" y1="15.3831536%" x2="-33.0594542%" y2="111.682627%" id="h"><stop stop-color="#00EAFF" offset="0%"/><stop stop-color="#07DFFC" offset="19%"/><stop stop-color="#1BC0F4" offset="53%"/><stop stop-color="#3A8FE8" offset="97%"/><stop stop-color="#3C8CE7" offset="99%"/></linearGradient><linearGradient x1="152.89961%" y1="-44.3889401%" x2="37.082846%" y2="51.9220405%" id="i"><stop stop-color="#00EAFF" offset="0%"/><stop stop-color="#07DFFC" offset="19%"/><stop stop-color="#1BC0F4" offset="53%"/><stop stop-color="#3A8FE8" offset="97%"/><stop stop-color="#3C8CE7" offset="99%"/></linearGradient><linearGradient x1="81.4863548%" y1="15.0613947%" x2="-34.4152047%" y2="111.331517%" id="j"><stop stop-color="#00EAFF" offset="0%"/><stop stop-color="#07DFFC" offset="19%"/><stop stop-color="#1BC0F4" offset="53%"/><stop stop-color="#3A8FE8" offset="97%"/><stop stop-color="#3C8CE7" offset="99%"/></linearGradient><linearGradient x1="153.396686%" y1="-44.1539442%" x2="37.5438596%" y2="52.077881%" id="k"><stop stop-color="#00EAFF" offset="0%"/><stop stop-color="#07DFFC" offset="19%"/><stop stop-color="#1BC0F4" offset="53%"/><stop stop-color="#3A8FE8" offset="97%"/><stop stop-color="#3C8CE7" offset="99%"/></linearGradient><linearGradient x1="82.2823207%" y1="15.0205365%" x2="-33.4770185%" y2="111.449189%" id="l"><stop stop-color="#00EAFF" offset="0%"/><stop stop-color="#07DFFC" offset="19%"/><stop stop-color="#1BC0F4" offset="53%"/><stop stop-color="#3A8FE8" offset="97%"/><stop stop-color="#3C8CE7" offset="99%"/></linearGradient><linearGradient x1="153.997076%" y1="-44.2888569%" x2="38.1803119%" y2="52.0106168%" id="m"><stop stop-color="#00EAFF" offset="0%"/><stop stop-color="#07DFFC" offset="19%"/><stop stop-color="#1BC0F4" offset="53%"/><stop stop-color="#3A8FE8" offset="97%"/><stop stop-color="#3C8CE7" offset="99%"/></linearGradient><linearGradient x1="82.5964912%" y1="14.8150032%" x2="-33.2202729%" y2="111.298836%" id="n"><stop stop-color="#00EAFF" offset="0%"/><stop stop-color="#07DFFC" offset="19%"/><stop stop-color="#1BC0F4" offset="53%"/><stop stop-color="#3A8FE8" offset="97%"/><stop stop-color="#3C8CE7" offset="99%"/></linearGradient><linearGradient x1="152.623782%" y1="-44.3366171%" x2="36.8070175%" y2="51.7865169%" id="o"><stop stop-color="#00EAFF" offset="0%"/><stop stop-color="#07DFFC" offset="19%"/><stop stop-color="#1BC0F4" offset="53%"/><stop stop-color="#3A8FE8" offset="97%"/><stop stop-color="#3C8CE7" offset="99%"/></linearGradient><linearGradient x1="81.2231969%" y1="14.8227827%" x2="-34.5935673%" y2="111.133763%" id="p"><stop stop-color="#00EAFF" offset="0%"/><stop stop-color="#07DFFC" offset="19%"/><stop stop-color="#1BC0F4" offset="53%"/><stop stop-color="#3A8FE8" offset="97%"/><stop stop-color="#3C8CE7" offset="99%"/></linearGradient><linearGradient x1="153.218324%" y1="-44.5819815%" x2="37.3167641%" y2="51.6779661%" id="q"><stop stop-color="#00EAFF" offset="0%"/><stop stop-color="#07DFFC" offset="19%"/><stop stop-color="#1BC0F4" offset="53%"/><stop stop-color="#3A8FE8" offset="97%"/><stop stop-color="#3C8CE7" offset="99%"/></linearGradient><linearGradient x1="81.7202729%" y1="14.612858%" x2="-34.1812865%" y2="111.115602%" id="r"><stop stop-color="#00EAFF" offset="0%"/><stop stop-color="#07DFFC" offset="19%"/><stop stop-color="#1BC0F4" offset="53%"/><stop stop-color="#3A8FE8" offset="97%"/><stop stop-color="#3C8CE7" offset="99%"/></linearGradient><linearGradient x1="153.818713%" y1="-44.354274%" x2="38.0019493%" y2="51.8354512%" id="s"><stop stop-color="#00EAFF" offset="0%"/><stop stop-color="#07DFFC" offset="19%"/><stop stop-color="#1BC0F4" offset="53%"/><stop stop-color="#3A8FE8" offset="97%"/><stop stop-color="#3C8CE7" offset="99%"/></linearGradient><linearGradient x1="82.3693957%" y1="14.7981339%" x2="-33.3986355%" y2="111.215265%" id="t"><stop stop-color="#00EAFF" offset="0%"/><stop stop-color="#07DFFC" offset="19%"/><stop stop-color="#1BC0F4" offset="53%"/><stop stop-color="#3A8FE8" offset="97%"/><stop stop-color="#3C8CE7" offset="99%"/></linearGradient><path id="u" d="M49.143 89.602l-5.216-3.013a3.7 3.7 0 0 1-1.547-2.948v-2.43c0-1.134.69-1.62 1.547-1.166l5.216 3.013a3.7 3.7 0 0 1 1.547 2.948v2.43c-.008 1.134-.697 1.66-1.547 1.166z"/><path id="v" d="M59.713 103.04l-5.216-3.013a3.7 3.7 0 0 1-1.547-2.948v-2.43c0-1.134.688-1.62 1.547-1.166l5.216 3.013a3.7 3.7 0 0 1 1.547 2.948v2.43c0 1.142-.697 1.66-1.547 1.166z"/></defs><g fill-rule="nonzero"><path d="M.308 113.87s-2.074 22.396 4.552 28.018c6.853 5.832 36.896 22.785 49.993 22.567s39.982-15.204 45.06-22.032c.697-.93 1.62-13.422.494-20.857S.308 113.87.308 113.87z" fill="url(#A)"/><path d="M37.81 89.9S6.836 100.302.8 112.04s44.72 33.6 53.978 33.607c17.188 0 45.58-20.03 45.595-24.08.057-9.12-48.843-33.445-62.573-31.655z" fill="url(#B)"/><path d="M31.363 102.003s-7.144 2.066-7.144 4.965c0 5.476 31.363 21.27 36.88 22.356s11-4.05 11.59-6.707-2.65-5.435-3.84-6.585-33.98-16.28-37.487-14.03z" fill="url(#C)"/><path d="M59.13 125.81l-19.116-14.272c-4.358-2.52-7.898-9.275-7.898-15.1L29.2 14.985c0-11.243 7.873-16.54 12.037-14.58L60.07 10.53c6.4 4.05 9.17 14.702 9.17 25.92v81.405c0 5.84-5.735 10.473-10.11 7.954z" fill="url(#D)"/><path d="M58.377 125.42l-21.31-12.304C32.7 110.597 29.16 103.842 29.16 98V16.62c0-11.243 4.957-16.62 9.113-14.653L57.105 12.15c6.4 4 9.17 14.67 9.17 25.92v81.405c0 5.79-3.54 8.465-7.898 5.945z" fill="url(#E)"/><path d="M63.48 67.797L31.9 49.564V16.767c0-7.72 4.86-11.032 8.86-8.618l15.95 9.194c3.993 2.69 6.82 9.93 6.82 17.65l-.04 32.805z" fill="url(#F)"/><path d="M60.467 54.27l-25.5-14.718v-11.26l25.5 14.718z" fill="url(#G)"/><path d="M49.993 28.715l-4.593-2.65c-.883-.63-1.415-1.644-1.434-2.73V18.63c0-1.053.64-1.54 1.434-1.077l4.593 2.65c.883.63 1.415 1.644 1.434 2.73v4.74c-.008 1.02-.648 1.5-1.434 1.045z" fill="url(#H)"/><path d="M49.36 27.135l-3.28-1.895a2.43 2.43 0 0 1-1.021-1.952v-3.386c0-.753.454-1.102 1.02-.8l3.28 1.968a2.43 2.43 0 0 1 1.021 1.952v3.386c0 .713-.454 1.06-1.02.737z" fill="url(#I)"/><path d="M40.387 50.43L36.15 48a2.17 2.17 0 0 1-.907-1.733c0-.664.405-.972.907-.69l4.236 2.43a2.17 2.17 0 0 1 .923 1.733c0 .672-.42.98-.923.688z" fill="url(#J)"/><path d="M59.56 61.31l-4.236-2.43a2.17 2.17 0 0 1-.907-1.733c0-.664.405-.972.907-.69l4.236 2.43a2.17 2.17 0 0 1 .907 1.733c0 .672-.405.94-.907.69z" fill="url(#K)"/><path d="M50.123 55.9l-4.236-2.43a2.17 2.17 0 0 1-.907-1.733c0-.664.405-.972.907-.688l4.236 2.43a2.17 2.17 0 0 1 .907 1.766c0 .656-.405.972-.907.656z" fill="url(#L)"/><path d="M49.807 78.465l-5.55-3.24c-2.292-1.32-4.147-4.86-4.147-7.93v-4.86c0-3.054 1.855-4.455 4.147-3.135l5.55 3.24c2.292 1.32 4.147 4.86 4.147 7.93v4.86c0 3.054-1.855 4.463-4.147 3.135z" fill="url(#M)"/><path d="M49.928 77.76l-5.792-3.345C42.3 73.337 40.8 70.47 40.8 68.04v-5.42c0-2.43 1.5-3.588 3.337-2.527l5.792 3.345c1.847 1.06 3.337 3.92 3.337 6.383v5.403c0 2.454-1.498 3.588-3.337 2.535z" fill="url(#N)"/><path d="M61.746 68.43l-5.216-3.013c-.688-.397-1.1.194-.8 1.077a18.12 18.12 0 0 1 1.037 5.395 2 2 0 0 0 .899 1.498l4.05 2.35c.494.284.9.057.9-.5v-5.24c-.025-.625-.343-1.2-.86-1.555z" fill="url(#O)"/><path d="M60.936 68.688l-5.216-3.013c-.688-.397-1.1.194-.8 1.077a18.12 18.12 0 0 1 1.037 5.395 2 2 0 0 0 .899 1.499l4.05 2.35c.494.283.9.057.9-.5v-5.24c-.025-.625-.343-1.2-.86-1.555z" fill="url(#P)"/><path d="M33.518 52.294l5.216 3.013c.688.397 1.1 1.482.8 1.993a8.6 8.6 0 0 0-1.037 4.196c0 .535-.42.737-.9.462l-4.05-2.35c-.53-.345-.865-.923-.9-1.555v-5.25c-.05-.567.356-.802.86-.5z" fill="url(#Q)"/><path d="M32.837 52.65l5.233 2.98c.688.397 1.1 1.482.8 1.993a8.6 8.6 0 0 0-1.037 4.196c0 .535-.42.737-.9.462l-4.05-2.35c-.53-.345-.865-.923-.9-1.555v-5.25c-.065-.567.34-.802.842-.478z" fill="url(#R)"/><path d="M33.267 68.947l5.216 3.013c.688.397 1.1-.21.8-1.102-.618-1.755-.968-3.592-1.037-5.45-.052-.616-.383-1.174-.9-1.515l-4.05-2.35c-.494-.283-.9-.05-.9.526v5.306a2 2 0 0 0 .859 1.571z" fill="url(#S)"/><path d="M32.813 69.206l5.216 3.013c.69.397 1.1-.21.8-1.102-.618-1.755-.968-3.592-1.037-5.45-.052-.616-.383-1.174-.9-1.515l-4.05-2.35c-.494-.283-.9-.05-.9.526v5.306a2 2 0 0 0 .859 1.571z" fill="url(#T)"/><path d="M61.47 85.05l-5.216-3.013a1.75 1.75 0 0 1-.81-2.009c.698-1.31 1.054-2.776 1.037-4.26 0-.543.42-.753.9-.478l4.05 2.35a2 2 0 0 1 .94 1.563v5.306c0 .543-.405.818-.9.543z" fill="url(#U)"/><path d="M60.912 85.277l-5.216-3.013a1.75 1.75 0 0 1-.81-2.009c.698-1.31 1.054-2.776 1.037-4.26 0-.543.42-.753.9-.478l4.05 2.35a2 2 0 0 1 .899 1.571v5.306c.05.59-.356.826-.86.535z" fill="url(#V)"/><path d="M39.982 83.973L34.773 81a3.7 3.7 0 0 1-1.563-2.989v-2.43c0-1.134.69-1.62 1.547-1.166l5.216 3.013a3.7 3.7 0 0 1 1.547 2.948v2.43c.008 1.134-.68 1.66-1.54 1.166z" fill="url(#W)"/><path d="M39.56 84.305l-5.216-3.013a3.7 3.7 0 0 1-1.547-2.948v-2.43c0-1.134.69-1.62 1.547-1.166l5.216 3.013a3.7 3.7 0 0 1 1.547 2.948v2.43c0 1.102-.688 1.66-1.547 1.166z" fill="url(#X)"/><path d="M49.564 89.27l-5.216-3.013a3.7 3.7 0 0 1-1.547-2.948v-2.43c0-1.134.688-1.62 1.547-1.166l5.216 3.013a3.7 3.7 0 0 1 1.547 2.948v2.43c-.008 1.134-.697 1.66-1.547 1.166z" fill="url(#Y)"/><use xlink:href="#u" fill="url(#Z)"/><path d="M59.713 94.77l-5.216-3.013a3.7 3.7 0 0 1-1.547-2.948v-2.43c0-1.134.688-1.62 1.547-1.166l5.216 3.013a3.7 3.7 0 0 1 1.547 2.948v2.43c0 1.166-.697 1.677-1.547 1.166z" fill="url(#a)"/><path d="M59.292 95.118l-5.216-3.013a3.7 3.7 0 0 1-1.547-2.948v-2.43c0-1.134.688-1.62 1.547-1.166l5.216 3.013a3.7 3.7 0 0 1 1.547 2.957v2.43c0 1.134-.697 1.62-1.547 1.158z" fill="url(#b)"/><path d="M39.982 92.227l-5.216-3.013a3.7 3.7 0 0 1-1.555-2.948v-2.43c0-1.134.69-1.62 1.547-1.166l5.216 3.013a3.7 3.7 0 0 1 1.547 2.948v2.43c.008 1.134-.68 1.66-1.54 1.166z" fill="url(#c)"/><path d="M39.56 92.56l-5.216-3.013a3.7 3.7 0 0 1-1.547-2.948v-2.43c0-1.134.69-1.62 1.547-1.166l5.216 3.013a3.7 3.7 0 0 1 1.547 2.948v2.43c0 1.134-.688 1.66-1.547 1.166z" fill="url(#d)"/><path d="M49.564 97.524l-5.216-3.013A3.7 3.7 0 0 1 42.8 91.53V89.1c0-1.134.688-1.62 1.547-1.166l5.216 3.013a3.7 3.7 0 0 1 1.539 3.013v2.43c0 1.102-.688 1.62-1.54 1.134z" fill="url(#e)"/><use xlink:href="#u" y="8.254" fill="url(#f)"/><use xlink:href="#v" fill="url(#g)"/><use xlink:href="#v" x="-0.421" y="0.332" fill="url(#h)"/><path d="M39.828 100.602L34.61 97.59a3.7 3.7 0 0 1-1.547-2.948V92.2c0-1.134.69-1.62 1.547-1.166l5.216 3.013a3.7 3.7 0 0 1 1.547 2.948v2.43c0 1.134-.688 1.66-1.547 1.166z" fill="url(#i)"/><path d="M39.407 100.934L34.2 97.92a3.7 3.7 0 0 1-1.547-2.948v-2.43c0-1.134.69-1.62 1.547-1.166l5.216 3.013a3.7 3.7 0 0 1 1.547 2.948v2.43c0 1.134-.697 1.66-1.547 1.166z" fill="url(#j)"/><path d="M49.4 105.9l-5.216-3.03a3.7 3.7 0 0 1-1.547-2.948v-2.43c0-1.134.688-1.62 1.547-1.166l5.216 3.02a3.7 3.7 0 0 1 1.547 2.948v2.43c-.008 1.142-.737 1.67-1.547 1.174z" fill="url(#k)"/><path d="M48.98 106.232l-5.24-3.013a3.7 3.7 0 0 1-1.547-2.948v-2.43c0-1.134.688-1.62 1.547-1.166l5.216 3.013a3.7 3.7 0 0 1 1.547 2.948v2.43c.024 1.134-.664 1.66-1.523 1.166z" fill="url(#l)"/><use xlink:href="#v" x="-0.153" y="8.376" fill="url(#m)"/><path d="M59.13 111.78l-5.216-3.013a3.7 3.7 0 0 1-1.547-2.948v-2.43c0-1.134.688-1.62 1.547-1.166l5.216 2.973a3.7 3.7 0 0 1 1.547 2.948v2.43c0 1.15-.688 1.67-1.547 1.207z" fill="url(#n)"/><path d="M39.828 108.848l-5.216-3.013a3.7 3.7 0 0 1-1.539-2.965v-2.43c0-1.134.688-1.62 1.547-1.166l5.216 3.013a3.7 3.7 0 0 1 1.547 2.948v2.43c-.008 1.15-.697 1.685-1.555 1.183z" fill="url(#o)"/><path d="M39.407 109.18l-5.216-3.013a3.7 3.7 0 0 1-1.547-2.948v-2.43c0-1.134.69-1.62 1.547-1.166l5.216 3.013a3.7 3.7 0 0 1 1.547 2.948v2.43c0 1.134-.697 1.66-1.547 1.166z" fill="url(#p)"/><path d="M49.4 114.145l-5.216-3.013a3.7 3.7 0 0 1-1.547-2.948v-2.43c0-1.134.688-1.62 1.547-1.166l5.216 3.005a3.7 3.7 0 0 1 1.547 2.948v2.43c-.008 1.15-.737 1.67-1.547 1.175z" fill="url(#q)"/><path d="M48.98 114.477l-5.24-3.013a3.7 3.7 0 0 1-1.515-2.924v-2.43c0-1.134.69-1.62 1.547-1.166l5.216 3.013a3.7 3.7 0 0 1 1.547 2.948v2.43c-.008 1.1-.697 1.636-1.555 1.142z" fill="url(#r)"/><path d="M59.56 119.67l-5.216-3.03a3.7 3.7 0 0 1-1.547-2.948v-2.43c0-1.134.688-1.62 1.547-1.166l5.216 3.013a3.7 3.7 0 0 1 1.547 2.948v2.43c0 1.15-.697 1.67-1.547 1.183z" fill="url(#s)"/><path d="M59.13 119.993l-5.216-3.013a3.7 3.7 0 0 1-1.547-2.948v-2.43c0-1.134.688-1.62 1.547-1.166l5.216 3.013a3.7 3.7 0 0 1 1.547 2.948v2.43c0 1.142-.688 1.66-1.547 1.166z" fill="url(#t)"/></g></svg>