<svg xmlns="http://www.w3.org/2000/svg" xmlns:xlink="http://www.w3.org/1999/xlink" width="209" height="165"><defs><linearGradient x1="-36.6691149%" y1="-1.24431909%" x2="54.4656379%" y2="55.5104573%" id="A"><stop stop-color="#00EAFF" offset="0%"/><stop stop-color="#07DFFC" offset="19%"/><stop stop-color="#1BC0F4" offset="53%"/><stop stop-color="#3A8FE8" offset="97%"/><stop stop-color="#3C8CE7" offset="99%"/></linearGradient><linearGradient x1="-25.5586863%" y1="182.324844%" x2="72.5605486%" y2="7.37116293%" id="B"><stop stop-color="#00EAFF" offset="0%"/><stop stop-color="#07DFFC" offset="19%"/><stop stop-color="#1BC0F4" offset="53%"/><stop stop-color="#3A8FE8" offset="97%"/><stop stop-color="#3C8CE7" offset="99%"/></linearGradient><linearGradient x1="13.3546008%" y1="114.941708%" x2="111.465704%" y2="-63.0974465%" id="C"><stop stop-color="#00EAFF" offset="0%"/><stop stop-color="#07DFFC" offset="19%"/><stop stop-color="#1BC0F4" offset="53%"/><stop stop-color="#3A8FE8" offset="97%"/><stop stop-color="#3C8CE7" offset="99%"/></linearGradient><linearGradient x1="-98.9626696%" y1="-212.847665%" x2="-25.8021411%" y2="-83.3471534%" id="D"><stop stop-color="#00EAFF" offset="0%"/><stop stop-color="#07DFFC" offset="19%"/><stop stop-color="#1BC0F4" offset="53%"/><stop stop-color="#3A8FE8" offset="97%"/><stop stop-color="#3C8CE7" offset="99%"/></linearGradient><linearGradient x1="-99.0106407%" y1="-212.955817%" x2="-25.7912477%" y2="-83.4470332%" id="E"><stop stop-color="#B3FFAB" offset="1%"/><stop stop-color="#B1FFAC" offset="1%"/><stop stop-color="#6EFFCC" offset="36%"/><stop stop-color="#3CFFE3" offset="65%"/><stop stop-color="#1DFFF2" offset="88%"/><stop stop-color="#12FFF7" offset="100%"/></linearGradient><radialGradient cx="51.0480223%" cy="52.7922111%" fx="51.0480223%" fy="52.7922111%" r="91.8725331%" gradientTransform="translate(0.510480,0.527922),scale(1.000000,0.817076),rotate(30.256436),translate(-0.510480,-0.527922)" id="F"><stop stop-color="#00EAFF" offset="0%"/><stop stop-color="#07DFFC" offset="19%"/><stop stop-color="#1BC0F4" offset="53%"/><stop stop-color="#3A8FE8" offset="97%"/><stop stop-color="#3C8CE7" offset="99%"/></radialGradient><linearGradient x1="-143.257147%" y1="-37.5533713%" x2="-31.8116777%" y2="15.5723262%" id="G"><stop stop-color="#00EAFF" offset="0%"/><stop stop-color="#07DFFC" offset="19%"/><stop stop-color="#1BC0F4" offset="53%"/><stop stop-color="#3A8FE8" offset="97%"/><stop stop-color="#3C8CE7" offset="99%"/></linearGradient><linearGradient x1="-141.1621%" y1="-32.4494472%" x2="-29.7486746%" y2="20.9693671%" id="H"><stop stop-color="#00EAFF" offset="0%"/><stop stop-color="#07DFFC" offset="19%"/><stop stop-color="#1BC0F4" offset="53%"/><stop stop-color="#3A8FE8" offset="97%"/><stop stop-color="#3C8CE7" offset="99%"/></linearGradient><linearGradient x1="58.4759745%" y1="48.5894164%" x2="-175.684465%" y2="75.9982958%" id="I"><stop stop-color="#00EAFF" offset="0%"/><stop stop-color="#07DFFC" offset="19%"/><stop stop-color="#1BC0F4" offset="53%"/><stop stop-color="#3A8FE8" offset="97%"/><stop stop-color="#3C8CE7" offset="99%"/></linearGradient><linearGradient x1="-141.486236%" y1="-31.8810147%" x2="-29.9163313%" y2="21.5865178%" id="J"><stop stop-color="#00EAFF" offset="0%"/><stop stop-color="#07DFFC" offset="19%"/><stop stop-color="#1BC0F4" offset="53%"/><stop stop-color="#3A8FE8" offset="97%"/><stop stop-color="#3C8CE7" offset="99%"/></linearGradient><linearGradient x1="58.4759745%" y1="49.0865002%" x2="-175.498179%" y2="76.1907485%" id="K"><stop stop-color="#00EAFF" offset="0%"/><stop stop-color="#07DFFC" offset="19%"/><stop stop-color="#1BC0F4" offset="53%"/><stop stop-color="#3A8FE8" offset="97%"/><stop stop-color="#3C8CE7" offset="99%"/></linearGradient><linearGradient x1="-142.056269%" y1="-31.2321817%" x2="-30.6428434%" y2="22.1866326%" id="L"><stop stop-color="#00EAFF" offset="0%"/><stop stop-color="#07DFFC" offset="19%"/><stop stop-color="#1BC0F4" offset="53%"/><stop stop-color="#3A8FE8" offset="97%"/><stop stop-color="#3C8CE7" offset="99%"/></linearGradient><linearGradient x1="58.5531838%" y1="48.8866758%" x2="-175.17186%" y2="76.1180461%" id="M"><stop stop-color="#00EAFF" offset="0%"/><stop stop-color="#07DFFC" offset="19%"/><stop stop-color="#1BC0F4" offset="53%"/><stop stop-color="#3A8FE8" offset="97%"/><stop stop-color="#3C8CE7" offset="99%"/></linearGradient><linearGradient x1="224.629718%" y1="5.63355774%" x2="152.508361%" y2="24.2766288%" id="N"><stop stop-color="#00EAFF" offset="0%"/><stop stop-color="#07DFFC" offset="19%"/><stop stop-color="#1BC0F4" offset="53%"/><stop stop-color="#3A8FE8" offset="97%"/><stop stop-color="#3C8CE7" offset="99%"/></linearGradient><linearGradient x1="-63.4223827%" y1="-6.13200091%" x2="152.931408%" y2="100.557471%" id="O"><stop stop-color="#B3FFAB" offset="1%"/><stop stop-color="#B1FFAC" offset="1%"/><stop stop-color="#6EFFCC" offset="36%"/><stop stop-color="#3CFFE3" offset="65%"/><stop stop-color="#1DFFF2" offset="88%"/><stop stop-color="#12FFF7" offset="100%"/></linearGradient><linearGradient x1="-56.8369697%" y1="-59.8032533%" x2="68.9966667%" y2="71.015164%" id="P"><stop stop-color="#00EAFF" offset="0%"/><stop stop-color="#07DFFC" offset="19%"/><stop stop-color="#1BC0F4" offset="53%"/><stop stop-color="#3A8FE8" offset="97%"/><stop stop-color="#3C8CE7" offset="99%"/></linearGradient><linearGradient x1="-0.189351331%" y1="-33.7482336%" x2="86.5170604%" y2="108.678756%" id="Q"><stop stop-color="#B3FFAB" offset="1%"/><stop stop-color="#B1FFAC" offset="1%"/><stop stop-color="#6EFFCC" offset="36%"/><stop stop-color="#3CFFE3" offset="65%"/><stop stop-color="#1DFFF2" offset="88%"/><stop stop-color="#12FFF7" offset="100%"/></linearGradient><linearGradient x1="-199.258355%" y1="-217.717882%" x2="-77.8894602%" y2="-87.854404%" id="R"><stop stop-color="#00EAFF" offset="0%"/><stop stop-color="#07DFFC" offset="19%"/><stop stop-color="#1BC0F4" offset="53%"/><stop stop-color="#3A8FE8" offset="97%"/><stop stop-color="#3C8CE7" offset="99%"/></linearGradient><linearGradient x1="-46.7181329%" y1="-35.7963144%" x2="146.574506%" y2="132.579438%" id="S"><stop stop-color="#00EAFF" offset="0%"/><stop stop-color="#07DFFC" offset="19%"/><stop stop-color="#1BC0F4" offset="53%"/><stop stop-color="#3A8FE8" offset="97%"/><stop stop-color="#3C8CE7" offset="99%"/></linearGradient><linearGradient x1="-180.25977%" y1="-213.81577%" x2="-68.4260536%" y2="-85.93265%" id="T"><stop stop-color="#B3FFAB" offset="1%"/><stop stop-color="#B1FFAC" offset="1%"/><stop stop-color="#6EFFCC" offset="36%"/><stop stop-color="#3CFFE3" offset="65%"/><stop stop-color="#1DFFF2" offset="88%"/><stop stop-color="#12FFF7" offset="100%"/></linearGradient><radialGradient cx="48.7468305%" cy="48.0472829%" fx="48.7468305%" fy="48.0472829%" r="104.351375%" gradientTransform="translate(0.487468,0.480473),scale(1.000000,0.677086),rotate(29.886538),translate(-0.487468,-0.480473)" id="U"><stop stop-color="#00EAFF" offset="0%"/><stop stop-color="#07DFFC" offset="19%"/><stop stop-color="#1BC0F4" offset="53%"/><stop stop-color="#3A8FE8" offset="97%"/><stop stop-color="#3C8CE7" offset="99%"/></radialGradient><linearGradient x1="184.317892%" y1="-88.6616696%" x2="109.762122%" y2="-15.9007173%" id="V"><stop stop-color="#00EAFF" offset="0%"/><stop stop-color="#07DFFC" offset="19%"/><stop stop-color="#1BC0F4" offset="53%"/><stop stop-color="#3A8FE8" offset="97%"/><stop stop-color="#3C8CE7" offset="99%"/></linearGradient><linearGradient x1="89.9733833%" y1="3.1565615%" x2="15.4176133%" y2="75.9175138%" id="W"><stop stop-color="#00EAFF" offset="0%"/><stop stop-color="#07DFFC" offset="19%"/><stop stop-color="#1BC0F4" offset="53%"/><stop stop-color="#3A8FE8" offset="97%"/><stop stop-color="#3C8CE7" offset="99%"/></linearGradient><linearGradient x1="-156.73201%" y1="136.844813%" x2="38.2383786%" y2="51.552818%" id="X"><stop stop-color="#00EAFF" offset="0%"/><stop stop-color="#07DFFC" offset="19%"/><stop stop-color="#13CCF7" offset="40%"/><stop stop-color="#27ACEF" offset="71%"/><stop stop-color="#3C8CE7" offset="99%"/></linearGradient><linearGradient x1="148.949896%" y1="15.7487357%" x2="-84.8124028%" y2="90.149615%" id="Y"><stop stop-color="#00EAFF" offset="0%"/><stop stop-color="#07DFFC" offset="19%"/><stop stop-color="#1BC0F4" offset="53%"/><stop stop-color="#3A8FE8" offset="97%"/><stop stop-color="#3C8CE7" offset="99%"/></linearGradient><linearGradient x1="-105.605661%" y1="201.387495%" x2="-30.7103012%" y2="127.490449%" id="Z"><stop stop-color="#00EAFF" offset="0%"/><stop stop-color="#07DFFC" offset="19%"/><stop stop-color="#1BC0F4" offset="53%"/><stop stop-color="#3A8FE8" offset="97%"/><stop stop-color="#3C8CE7" offset="99%"/></linearGradient><linearGradient x1="120.15617%" y1="21.6819102%" x2="-32.343925%" y2="83.1240106%" id="a"><stop stop-color="#00EAFF" offset="0%"/><stop stop-color="#07DFFC" offset="19%"/><stop stop-color="#1BC0F4" offset="53%"/><stop stop-color="#3A8FE8" offset="97%"/><stop stop-color="#3C8CE7" offset="99%"/></linearGradient><linearGradient x1="202.347143%" y1="333.664848%" x2="127.59172%" y2="194.732864%" id="b"><stop stop-color="#00EAFF" offset="0%"/><stop stop-color="#07DFFC" offset="19%"/><stop stop-color="#1BC0F4" offset="53%"/><stop stop-color="#3A8FE8" offset="97%"/><stop stop-color="#3C8CE7" offset="99%"/></linearGradient><linearGradient x1="137.583054%" y1="18.3208621%" x2="-29.57061%" y2="84.6383668%" id="c"><stop stop-color="#00EAFF" offset="0%"/><stop stop-color="#07DFFC" offset="19%"/><stop stop-color="#1BC0F4" offset="53%"/><stop stop-color="#3A8FE8" offset="97%"/><stop stop-color="#3C8CE7" offset="99%"/></linearGradient><linearGradient x1="155.222997%" y1="-41.7356656%" x2="38.3774681%" y2="54.5098818%" id="d"><stop stop-color="#00EAFF" offset="0%"/><stop stop-color="#07DFFC" offset="19%"/><stop stop-color="#1BC0F4" offset="53%"/><stop stop-color="#3A8FE8" offset="97%"/><stop stop-color="#3C8CE7" offset="99%"/></linearGradient><linearGradient x1="82.7287356%" y1="17.8376131%" x2="-32.908046%" y2="113.91269%" id="e"><stop stop-color="#00EAFF" offset="0%"/><stop stop-color="#07DFFC" offset="19%"/><stop stop-color="#1BC0F4" offset="53%"/><stop stop-color="#3A8FE8" offset="97%"/><stop stop-color="#3C8CE7" offset="99%"/></linearGradient><linearGradient x1="155.880372%" y1="-41.4922239%" x2="39.0929152%" y2="54.7215505%" id="f"><stop stop-color="#00EAFF" offset="0%"/><stop stop-color="#07DFFC" offset="19%"/><stop stop-color="#1BC0F4" offset="53%"/><stop stop-color="#3A8FE8" offset="97%"/><stop stop-color="#3C8CE7" offset="99%"/></linearGradient><linearGradient x1="83.3793103%" y1="17.8216024%" x2="-32.2574713%" y2="113.935%" id="g"><stop stop-color="#00EAFF" offset="0%"/><stop stop-color="#07DFFC" offset="19%"/><stop stop-color="#1BC0F4" offset="53%"/><stop stop-color="#3A8FE8" offset="97%"/><stop stop-color="#3C8CE7" offset="99%"/></linearGradient><linearGradient x1="156.434206%" y1="-41.5395702%" x2="39.6009504%" y2="54.6138881%" id="h"><stop stop-color="#00EAFF" offset="0%"/><stop stop-color="#07DFFC" offset="19%"/><stop stop-color="#1BC0F4" offset="53%"/><stop stop-color="#3A8FE8" offset="97%"/><stop stop-color="#3C8CE7" offset="99%"/></linearGradient><linearGradient x1="84.1188005%" y1="17.8154077%" x2="-31.9181084%" y2="113.968179%" id="i"><stop stop-color="#00EAFF" offset="0%"/><stop stop-color="#07DFFC" offset="19%"/><stop stop-color="#1BC0F4" offset="53%"/><stop stop-color="#3A8FE8" offset="97%"/><stop stop-color="#3C8CE7" offset="99%"/></linearGradient><linearGradient x1="155.052265%" y1="-41.7573726%" x2="38.2067364%" y2="54.3560249%" id="j"><stop stop-color="#00EAFF" offset="0%"/><stop stop-color="#07DFFC" offset="19%"/><stop stop-color="#1BC0F4" offset="53%"/><stop stop-color="#3A8FE8" offset="97%"/><stop stop-color="#3C8CE7" offset="99%"/></linearGradient><linearGradient x1="82.8652074%" y1="17.2532332%" x2="-33.0380184%" y2="113.733773%" id="k"><stop stop-color="#00EAFF" offset="0%"/><stop stop-color="#07DFFC" offset="19%"/><stop stop-color="#1BC0F4" offset="53%"/><stop stop-color="#3A8FE8" offset="97%"/><stop stop-color="#3C8CE7" offset="99%"/></linearGradient><linearGradient x1="155.70964%" y1="-41.7804981%" x2="38.8211382%" y2="54.4234743%" id="l"><stop stop-color="#00EAFF" offset="0%"/><stop stop-color="#07DFFC" offset="19%"/><stop stop-color="#1BC0F4" offset="53%"/><stop stop-color="#3A8FE8" offset="97%"/><stop stop-color="#3C8CE7" offset="99%"/></linearGradient><linearGradient x1="83.2103448%" y1="17.5584609%" x2="-32.5264368%" y2="113.670663%" id="m"><stop stop-color="#00EAFF" offset="0%"/><stop stop-color="#07DFFC" offset="19%"/><stop stop-color="#1BC0F4" offset="53%"/><stop stop-color="#3A8FE8" offset="97%"/><stop stop-color="#3C8CE7" offset="99%"/></linearGradient><linearGradient x1="156.263492%" y1="-41.8117782%" x2="39.4883025%" y2="54.4813434%" id="n"><stop stop-color="#00EAFF" offset="0%"/><stop stop-color="#07DFFC" offset="19%"/><stop stop-color="#1BC0F4" offset="53%"/><stop stop-color="#3A8FE8" offset="97%"/><stop stop-color="#3C8CE7" offset="99%"/></linearGradient><linearGradient x1="83.9492503%" y1="17.6533867%" x2="-32.0876586%" y2="113.879304%" id="o"><stop stop-color="#00EAFF" offset="0%"/><stop stop-color="#07DFFC" offset="19%"/><stop stop-color="#1BC0F4" offset="53%"/><stop stop-color="#3A8FE8" offset="97%"/><stop stop-color="#3C8CE7" offset="99%"/></linearGradient><linearGradient x1="154.201845%" y1="-41.9718247%" x2="38.2226067%" y2="54.2285623%" id="p"><stop stop-color="#00EAFF" offset="0%"/><stop stop-color="#07DFFC" offset="19%"/><stop stop-color="#1BC0F4" offset="53%"/><stop stop-color="#3A8FE8" offset="97%"/><stop stop-color="#3C8CE7" offset="99%"/></linearGradient><linearGradient x1="82.721048%" y1="17.335967%" x2="-33.3144834%" y2="113.449365%" id="q"><stop stop-color="#00EAFF" offset="0%"/><stop stop-color="#07DFFC" offset="19%"/><stop stop-color="#1BC0F4" offset="53%"/><stop stop-color="#3A8FE8" offset="97%"/><stop stop-color="#3C8CE7" offset="99%"/></linearGradient><linearGradient x1="154.852858%" y1="-42.0175344%" x2="38.7746324%" y2="54.186438%" id="r"><stop stop-color="#00EAFF" offset="0%"/><stop stop-color="#07DFFC" offset="19%"/><stop stop-color="#1BC0F4" offset="53%"/><stop stop-color="#3A8FE8" offset="97%"/><stop stop-color="#3C8CE7" offset="99%"/></linearGradient><linearGradient x1="83.2585406%" y1="17.4836107%" x2="-32.8773543%" y2="113.428412%" id="s"><stop stop-color="#00EAFF" offset="0%"/><stop stop-color="#07DFFC" offset="19%"/><stop stop-color="#1BC0F4" offset="53%"/><stop stop-color="#3A8FE8" offset="97%"/><stop stop-color="#3C8CE7" offset="99%"/></linearGradient><linearGradient x1="155.419147%" y1="-41.9621118%" x2="39.441285%" y2="54.1322274%" id="t"><stop stop-color="#00EAFF" offset="0%"/><stop stop-color="#07DFFC" offset="19%"/><stop stop-color="#1BC0F4" offset="53%"/><stop stop-color="#3A8FE8" offset="97%"/><stop stop-color="#3C8CE7" offset="99%"/></linearGradient><linearGradient x1="84.0615563%" y1="17.4663913%" x2="-32.7839721%" y2="113.438725%" id="u"><stop stop-color="#00EAFF" offset="0%"/><stop stop-color="#07DFFC" offset="19%"/><stop stop-color="#1BC0F4" offset="53%"/><stop stop-color="#3A8FE8" offset="97%"/><stop stop-color="#3C8CE7" offset="99%"/></linearGradient><linearGradient x1="154.032295%" y1="-42.4207354%" x2="37.9953864%" y2="53.824812%" id="v"><stop stop-color="#00EAFF" offset="0%"/><stop stop-color="#07DFFC" offset="19%"/><stop stop-color="#1BC0F4" offset="53%"/><stop stop-color="#3A8FE8" offset="97%"/><stop stop-color="#3C8CE7" offset="99%"/></linearGradient><linearGradient x1="82.4938304%" y1="16.6187711%" x2="-33.4840316%" y2="113.32894%" id="w"><stop stop-color="#00EAFF" offset="0%"/><stop stop-color="#07DFFC" offset="19%"/><stop stop-color="#1BC0F4" offset="53%"/><stop stop-color="#3A8FE8" offset="97%"/><stop stop-color="#3C8CE7" offset="99%"/></linearGradient><linearGradient x1="154.68331%" y1="-42.1929027%" x2="38.5474148%" y2="53.8723167%" id="x"><stop stop-color="#00EAFF" offset="0%"/><stop stop-color="#07DFFC" offset="19%"/><stop stop-color="#1BC0F4" offset="53%"/><stop stop-color="#3A8FE8" offset="97%"/><stop stop-color="#3C8CE7" offset="99%"/></linearGradient><linearGradient x1="83.0313229%" y1="16.9987203%" x2="-33.0469025%" y2="113.202693%" id="y"><stop stop-color="#00EAFF" offset="0%"/><stop stop-color="#07DFFC" offset="19%"/><stop stop-color="#1BC0F4" offset="53%"/><stop stop-color="#3A8FE8" offset="97%"/><stop stop-color="#3C8CE7" offset="99%"/></linearGradient><linearGradient x1="155.249599%" y1="-42.2239845%" x2="39.2140674%" y2="53.9294738%" id="z"><stop stop-color="#00EAFF" offset="0%"/><stop stop-color="#07DFFC" offset="19%"/><stop stop-color="#1BC0F4" offset="53%"/><stop stop-color="#3A8FE8" offset="97%"/><stop stop-color="#3C8CE7" offset="99%"/></linearGradient><linearGradient x1="83.8327526%" y1="16.9924604%" x2="-32.9547038%" y2="113.285582%" id="AA"><stop stop-color="#00EAFF" offset="0%"/><stop stop-color="#07DFFC" offset="19%"/><stop stop-color="#1BC0F4" offset="53%"/><stop stop-color="#3A8FE8" offset="97%"/><stop stop-color="#3C8CE7" offset="99%"/></linearGradient><linearGradient x1="-101.291157%" y1="244.942844%" x2="50.9658058%" y2="27.3982031%" id="AB"><stop stop-color="#00EAFF" offset="0%"/><stop stop-color="#07DFFC" offset="19%"/><stop stop-color="#1BC0F4" offset="53%"/><stop stop-color="#3A8FE8" offset="97%"/><stop stop-color="#3C8CE7" offset="99%"/></linearGradient><linearGradient x1="-19.1191937%" y1="137.241235%" x2="46.07924%" y2="53.5613084%" id="AC"><stop stop-color="#B3FFAB" offset="1%"/><stop stop-color="#B1FFAC" offset="1%"/><stop stop-color="#6EFFCC" offset="36%"/><stop stop-color="#3CFFE3" offset="65%"/><stop stop-color="#1DFFF2" offset="88%"/><stop stop-color="#12FFF7" offset="100%"/></linearGradient><linearGradient x1="67.0475213%" y1="21.2719762%" x2="19.9084562%" y2="94.2693568%" id="AD"><stop stop-color="#00EAFF" offset="0%"/><stop stop-color="#07DFFC" offset="19%"/><stop stop-color="#1BC0F4" offset="53%"/><stop stop-color="#3A8FE8" offset="97%"/><stop stop-color="#3C8CE7" offset="99%"/></linearGradient><linearGradient x1="224.784626%" y1="5.6336331%" x2="152.628881%" y2="24.2769535%" id="AE"><stop stop-color="#00EAFF" offset="0%"/><stop stop-color="#07DFFC" offset="19%"/><stop stop-color="#1BC0F4" offset="53%"/><stop stop-color="#3A8FE8" offset="97%"/><stop stop-color="#3C8CE7" offset="99%"/></linearGradient><linearGradient x1="-61.4409489%" y1="-5.96910294%" x2="154.912842%" y2="100.721667%" id="AF"><stop stop-color="#B3FFAB" offset="1%"/><stop stop-color="#B1FFAC" offset="1%"/><stop stop-color="#6EFFCC" offset="36%"/><stop stop-color="#3CFFE3" offset="65%"/><stop stop-color="#1DFFF2" offset="88%"/><stop stop-color="#12FFF7" offset="100%"/></linearGradient><linearGradient x1="-54.9651358%" y1="-59.461986%" x2="70.9066393%" y2="71.3900197%" id="AG"><stop stop-color="#00EAFF" offset="0%"/><stop stop-color="#07DFFC" offset="19%"/><stop stop-color="#1BC0F4" offset="53%"/><stop stop-color="#3A8FE8" offset="97%"/><stop stop-color="#3C8CE7" offset="99%"/></linearGradient><linearGradient x1="2.14735658%" y1="-33.000471%" x2="88.8537683%" y2="109.426519%" id="AH"><stop stop-color="#B3FFAB" offset="1%"/><stop stop-color="#B1FFAC" offset="1%"/><stop stop-color="#6EFFCC" offset="36%"/><stop stop-color="#3CFFE3" offset="65%"/><stop stop-color="#1DFFF2" offset="88%"/><stop stop-color="#12FFF7" offset="100%"/></linearGradient><linearGradient x1="-189.317481%" y1="-215.791609%" x2="-68.0128535%" y2="-86.0590854%" id="AI"><stop stop-color="#00EAFF" offset="0%"/><stop stop-color="#07DFFC" offset="19%"/><stop stop-color="#1BC0F4" offset="53%"/><stop stop-color="#3A8FE8" offset="97%"/><stop stop-color="#3C8CE7" offset="99%"/></linearGradient><linearGradient x1="-32.9228007%" y1="-33.2895736%" x2="160.526032%" y2="135.109642%" id="AJ"><stop stop-color="#00EAFF" offset="0%"/><stop stop-color="#07DFFC" offset="19%"/><stop stop-color="#1BC0F4" offset="53%"/><stop stop-color="#3A8FE8" offset="97%"/><stop stop-color="#3C8CE7" offset="99%"/></linearGradient><linearGradient x1="-174.266667%" y1="-212.530378%" x2="-62.4329502%" y2="-84.6735144%" id="AK"><stop stop-color="#B3FFAB" offset="1%"/><stop stop-color="#B1FFAC" offset="1%"/><stop stop-color="#6EFFCC" offset="36%"/><stop stop-color="#3CFFE3" offset="65%"/><stop stop-color="#1DFFF2" offset="88%"/><stop stop-color="#12FFF7" offset="100%"/></linearGradient><radialGradient cx="55.4859543%" cy="49.387796%" fx="55.4859543%" fy="49.387796%" r="104.528973%" gradientTransform="translate(0.554860,0.493878),scale(1.000000,0.676568),rotate(29.886518),translate(-0.554860,-0.493878)" id="AL"><stop stop-color="#00EAFF" offset="0%"/><stop stop-color="#07DFFC" offset="19%"/><stop stop-color="#1BC0F4" offset="53%"/><stop stop-color="#3A8FE8" offset="97%"/><stop stop-color="#3C8CE7" offset="99%"/></radialGradient><linearGradient x1="193.736927%" y1="-85.5810952%" x2="119.181157%" y2="-12.7043697%" id="AM"><stop stop-color="#00EAFF" offset="0%"/><stop stop-color="#07DFFC" offset="19%"/><stop stop-color="#1BC0F4" offset="53%"/><stop stop-color="#3A8FE8" offset="97%"/><stop stop-color="#3C8CE7" offset="99%"/></linearGradient><linearGradient x1="99.5239095%" y1="6.48881681%" x2="24.9681396%" y2="79.3655423%" id="AN"><stop stop-color="#00EAFF" offset="0%"/><stop stop-color="#07DFFC" offset="19%"/><stop stop-color="#1BC0F4" offset="53%"/><stop stop-color="#3A8FE8" offset="97%"/><stop stop-color="#3C8CE7" offset="99%"/></linearGradient><linearGradient x1="-157.901386%" y1="136.294274%" x2="37.9570638%" y2="51.2928726%" id="AO"><stop stop-color="#00EAFF" offset="0%"/><stop stop-color="#07DFFC" offset="19%"/><stop stop-color="#13CCF7" offset="40%"/><stop stop-color="#27ACEF" offset="71%"/><stop stop-color="#3C8CE7" offset="99%"/></linearGradient><linearGradient x1="149.175019%" y1="15.8367952%" x2="-84.9405881%" y2="90.2540606%" id="AP"><stop stop-color="#00EAFF" offset="0%"/><stop stop-color="#07DFFC" offset="19%"/><stop stop-color="#1BC0F4" offset="53%"/><stop stop-color="#3A8FE8" offset="97%"/><stop stop-color="#3C8CE7" offset="99%"/></linearGradient><linearGradient x1="-95.2543705%" y1="201.294982%" x2="-20.6986006%" y2="127.219225%" id="AQ"><stop stop-color="#00EAFF" offset="0%"/><stop stop-color="#07DFFC" offset="19%"/><stop stop-color="#1BC0F4" offset="53%"/><stop stop-color="#3A8FE8" offset="97%"/><stop stop-color="#3C8CE7" offset="99%"/></linearGradient><linearGradient x1="120.340627%" y1="21.894478%" x2="-33.5550543%" y2="83.0916219%" id="AR"><stop stop-color="#00EAFF" offset="0%"/><stop stop-color="#07DFFC" offset="19%"/><stop stop-color="#1BC0F4" offset="53%"/><stop stop-color="#3A8FE8" offset="97%"/><stop stop-color="#3C8CE7" offset="99%"/></linearGradient><linearGradient x1="212.735385%" y1="333.615594%" x2="137.646767%" y2="194.23306%" id="AS"><stop stop-color="#00EAFF" offset="0%"/><stop stop-color="#07DFFC" offset="19%"/><stop stop-color="#1BC0F4" offset="53%"/><stop stop-color="#3A8FE8" offset="97%"/><stop stop-color="#3C8CE7" offset="99%"/></linearGradient><linearGradient x1="137.583054%" y1="18.2180192%" x2="-29.57061%" y2="84.548031%" id="AT"><stop stop-color="#00EAFF" offset="0%"/><stop stop-color="#07DFFC" offset="19%"/><stop stop-color="#1BC0F4" offset="53%"/><stop stop-color="#3A8FE8" offset="97%"/><stop stop-color="#3C8CE7" offset="99%"/></linearGradient><linearGradient x1="163.630911%" y1="-39.3659373%" x2="47.5940023%" y2="56.8655413%" id="AU"><stop stop-color="#00EAFF" offset="0%"/><stop stop-color="#07DFFC" offset="19%"/><stop stop-color="#1BC0F4" offset="53%"/><stop stop-color="#3A8FE8" offset="97%"/><stop stop-color="#3C8CE7" offset="99%"/></linearGradient><linearGradient x1="91.9780854%" y1="19.8827663%" x2="-24.0588235%" y2="116.038608%" id="AV"><stop stop-color="#00EAFF" offset="0%"/><stop stop-color="#07DFFC" offset="19%"/><stop stop-color="#1BC0F4" offset="53%"/><stop stop-color="#3A8FE8" offset="97%"/><stop stop-color="#3C8CE7" offset="99%"/></linearGradient><linearGradient x1="164.168397%" y1="-39.4451476%" x2="48.0311419%" y2="56.8749764%" id="AW"><stop stop-color="#00EAFF" offset="0%"/><stop stop-color="#07DFFC" offset="19%"/><stop stop-color="#1BC0F4" offset="53%"/><stop stop-color="#3A8FE8" offset="97%"/><stop stop-color="#3C8CE7" offset="99%"/></linearGradient><linearGradient x1="92.5294668%" y1="19.8911086%" x2="-23.4483952%" y2="116.104883%" id="AX"><stop stop-color="#00EAFF" offset="0%"/><stop stop-color="#07DFFC" offset="19%"/><stop stop-color="#1BC0F4" offset="53%"/><stop stop-color="#3A8FE8" offset="97%"/><stop stop-color="#3C8CE7" offset="99%"/></linearGradient><linearGradient x1="164.734717%" y1="-38.7060177%" x2="48.6978085%" y2="56.9958275%" id="AY"><stop stop-color="#00EAFF" offset="0%"/><stop stop-color="#07DFFC" offset="19%"/><stop stop-color="#1BC0F4" offset="53%"/><stop stop-color="#3A8FE8" offset="97%"/><stop stop-color="#3C8CE7" offset="99%"/></linearGradient><linearGradient x1="93.1961255%" y1="19.9337306%" x2="-22.8394059%" y2="116.047128%" id="AZ"><stop stop-color="#00EAFF" offset="0%"/><stop stop-color="#07DFFC" offset="19%"/><stop stop-color="#1BC0F4" offset="53%"/><stop stop-color="#3A8FE8" offset="97%"/><stop stop-color="#3C8CE7" offset="99%"/></linearGradient><linearGradient x1="163.461361%" y1="-39.6055757%" x2="47.3241061%" y2="56.4989973%" id="Aa"><stop stop-color="#00EAFF" offset="0%"/><stop stop-color="#07DFFC" offset="19%"/><stop stop-color="#1BC0F4" offset="53%"/><stop stop-color="#3A8FE8" offset="97%"/><stop stop-color="#3C8CE7" offset="99%"/></linearGradient><linearGradient x1="91.8085352%" y1="19.6907675%" x2="-24.2710496%" y2="115.856383%" id="Ab"><stop stop-color="#00EAFF" offset="0%"/><stop stop-color="#07DFFC" offset="19%"/><stop stop-color="#1BC0F4" offset="53%"/><stop stop-color="#3A8FE8" offset="97%"/><stop stop-color="#3C8CE7" offset="99%"/></linearGradient><linearGradient x1="163.898501%" y1="-39.5485307%" x2="47.8615917%" y2="56.526546%" id="Ac"><stop stop-color="#00EAFF" offset="0%"/><stop stop-color="#07DFFC" offset="19%"/><stop stop-color="#1BC0F4" offset="53%"/><stop stop-color="#3A8FE8" offset="97%"/><stop stop-color="#3C8CE7" offset="99%"/></linearGradient><linearGradient x1="92.3599186%" y1="19.639827%" x2="-23.6179434%" y2="115.953322%" id="Ad"><stop stop-color="#00EAFF" offset="0%"/><stop stop-color="#07DFFC" offset="19%"/><stop stop-color="#1BC0F4" offset="53%"/><stop stop-color="#3A8FE8" offset="97%"/><stop stop-color="#3C8CE7" offset="99%"/></linearGradient><linearGradient x1="164.464821%" y1="-39.5129048%" x2="48.4279123%" y2="56.4429089%" id="Ae"><stop stop-color="#00EAFF" offset="0%"/><stop stop-color="#07DFFC" offset="19%"/><stop stop-color="#1BC0F4" offset="53%"/><stop stop-color="#3A8FE8" offset="97%"/><stop stop-color="#3C8CE7" offset="99%"/></linearGradient><linearGradient x1="92.8119954%" y1="19.7771573%" x2="-23.1672434%" y2="115.886517%" id="Af"><stop stop-color="#00EAFF" offset="0%"/><stop stop-color="#07DFFC" offset="19%"/><stop stop-color="#1BC0F4" offset="53%"/><stop stop-color="#3A8FE8" offset="97%"/><stop stop-color="#3C8CE7" offset="99%"/></linearGradient><linearGradient x1="163.222607%" y1="-39.826394%" x2="47.0853518%" y2="56.2388254%" id="Ag"><stop stop-color="#00EAFF" offset="0%"/><stop stop-color="#07DFFC" offset="19%"/><stop stop-color="#1BC0F4" offset="53%"/><stop stop-color="#3A8FE8" offset="97%"/><stop stop-color="#3C8CE7" offset="99%"/></linearGradient><linearGradient x1="91.9059524%" y1="19.3737808%" x2="-24.1611939%" y2="115.620238%" id="Ah"><stop stop-color="#00EAFF" offset="0%"/><stop stop-color="#07DFFC" offset="19%"/><stop stop-color="#1BC0F4" offset="53%"/><stop stop-color="#3A8FE8" offset="97%"/><stop stop-color="#3C8CE7" offset="99%"/></linearGradient><linearGradient x1="163.773169%" y1="-39.9140419%" x2="47.7376186%" y2="56.2387289%" id="Ai"><stop stop-color="#00EAFF" offset="0%"/><stop stop-color="#07DFFC" offset="19%"/><stop stop-color="#1BC0F4" offset="53%"/><stop stop-color="#3A8FE8" offset="97%"/><stop stop-color="#3C8CE7" offset="99%"/></linearGradient><linearGradient x1="92.121152%" y1="19.3825506%" x2="-23.856691%" y2="115.596325%" id="Aj"><stop stop-color="#00EAFF" offset="0%"/><stop stop-color="#07DFFC" offset="19%"/><stop stop-color="#1BC0F4" offset="53%"/><stop stop-color="#3A8FE8" offset="97%"/><stop stop-color="#3C8CE7" offset="99%"/></linearGradient><linearGradient x1="164.339557%" y1="-39.2605719%" x2="48.3039546%" y2="56.4412733%" id="Ak"><stop stop-color="#00EAFF" offset="0%"/><stop stop-color="#07DFFC" offset="19%"/><stop stop-color="#1BC0F4" offset="53%"/><stop stop-color="#3A8FE8" offset="97%"/><stop stop-color="#3C8CE7" offset="99%"/></linearGradient><linearGradient x1="92.6874959%" y1="19.3767917%" x2="-23.2903847%" y2="115.628942%" id="Al"><stop stop-color="#00EAFF" offset="0%"/><stop stop-color="#07DFFC" offset="19%"/><stop stop-color="#1BC0F4" offset="53%"/><stop stop-color="#3A8FE8" offset="97%"/><stop stop-color="#3C8CE7" offset="99%"/></linearGradient><linearGradient x1="162.995386%" y1="-40.1898303%" x2="46.9158016%" y2="56.1323344%" id="Am"><stop stop-color="#00EAFF" offset="0%"/><stop stop-color="#07DFFC" offset="19%"/><stop stop-color="#1BC0F4" offset="53%"/><stop stop-color="#3A8FE8" offset="97%"/><stop stop-color="#3C8CE7" offset="99%"/></linearGradient><linearGradient x1="91.5144541%" y1="19.1977219%" x2="-24.6213835%" y2="115.302295%" id="An"><stop stop-color="#00EAFF" offset="0%"/><stop stop-color="#07DFFC" offset="19%"/><stop stop-color="#1BC0F4" offset="53%"/><stop stop-color="#3A8FE8" offset="97%"/><stop stop-color="#3C8CE7" offset="99%"/></linearGradient><linearGradient x1="163.545951%" y1="-39.6475122%" x2="47.5680704%" y2="56.4047072%" id="Ao"><stop stop-color="#00EAFF" offset="0%"/><stop stop-color="#07DFFC" offset="19%"/><stop stop-color="#1BC0F4" offset="53%"/><stop stop-color="#3A8FE8" offset="97%"/><stop stop-color="#3C8CE7" offset="99%"/></linearGradient><linearGradient x1="91.9516039%" y1="19.1290591%" x2="-24.0839085%" y2="115.295253%" id="Ap"><stop stop-color="#00EAFF" offset="0%"/><stop stop-color="#07DFFC" offset="19%"/><stop stop-color="#1BC0F4" offset="53%"/><stop stop-color="#3A8FE8" offset="97%"/><stop stop-color="#3C8CE7" offset="99%"/></linearGradient><linearGradient x1="164.11234%" y1="-39.5776583%" x2="48.1344063%" y2="56.2727844%" id="Aq"><stop stop-color="#00EAFF" offset="0%"/><stop stop-color="#07DFFC" offset="19%"/><stop stop-color="#1BC0F4" offset="53%"/><stop stop-color="#3A8FE8" offset="97%"/><stop stop-color="#3C8CE7" offset="99%"/></linearGradient><linearGradient x1="92.5179477%" y1="19.2795143%" x2="-23.5176023%" y2="115.301941%" id="Ar"><stop stop-color="#00EAFF" offset="0%"/><stop stop-color="#07DFFC" offset="19%"/><stop stop-color="#1BC0F4" offset="53%"/><stop stop-color="#3A8FE8" offset="97%"/><stop stop-color="#3C8CE7" offset="99%"/></linearGradient><path id="As" d="M39.91 69.465l-4.766-2.756c-.63-.36-.97.175-.718.97a16.57 16.57 0 0 1 .971 4.931c.05.558.355 1.062.825 1.37l3.717 2.145c.456.262.825.05.825-.466v-4.804c-.05-.572-.366-1.086-.854-1.388z"/><path id="At" d="M13.452 70.174l4.766 2.756c.63.36.97-.184.718-.97a16.89 16.89 0 0 1-.971-4.989c-.05-.56-.354-1.07-.825-1.378l-3.717-2.145c-.456-.262-.825 0-.825.485v4.853c.05.57.367 1.085.854 1.388z"/><path id="Au" d="M39.65 84.645l-4.766-2.756a1.6 1.6 0 0 1-.718-1.834c.644-1.192.978-2.527.97-3.882 0-.495.38-.69.825-.437l3.717 2.145c.49.32.796.853.825 1.436v4.853c-.03.524-.398.738-.854.476z"/><path id="Av" d="M28.4 107.415l-5.3-3.057c-.965-.692-1.545-1.802-1.563-2.99v-2.465c0-1.155.7-1.68 1.563-1.184l5.3 3.057c.965.692 1.545 1.802 1.563 2.99v2.465c.01 1.155-.7 1.69-1.563 1.184z"/><path id="Aw" d="M151.11 87.848l-5.3-3.057c-.965-.692-1.545-1.802-1.563-2.99v-2.465c0-1.155.7-1.68 1.563-1.184l5.3 3.057c.965.692 1.545 1.802 1.563 2.99v2.465c0 1.155-.7 1.66-1.563 1.184z"/></defs><g fill-rule="nonzero"><path d="M100.32 136.193s8.483 8.483 8.638 9.813c.194 1.69-2.3 4.523-3.882 4.203-1.427-.29-7.833-7.25-7.833-7.25l3.077-6.765z" fill="url(#A)"/><path d="M79.84 159.254L10.502 115.5c-4.845-3.072-7.104-8.956-5.56-14.48l12.744-41.066c1.64-5.28 6.794-7.357 11.492-4.63l73.085 42.182c4.845 3.072 7.104 8.956 5.56 14.48l-12.705 41.066c-1.67 5.27-7.765 10.27-15.277 6.202z" fill="url(#B)"/><path d="M79.15 158.895L6.066 116.723c-4.845-3.072-7.104-8.956-5.56-14.48L13.25 61.147c1.64-5.28 6.794-7.357 11.492-4.63L97.826 98.7c4.845 3.072 7.104 8.956 5.56 14.48l-12.734 41.085c-1.64 5.28-6.784 7.347-11.5 4.63z" fill="url(#C)"/><path d="M73.474 144.064l-8.056-4.65c-3.33-1.94-5.134-6.794-4.038-10.85l1.708-6.435c1.097-4.076 4.698-5.824 8.017-3.882l8.056 4.65c3.33 1.94 5.134 6.794 4.038 10.85l-1.67 6.416c-1.136 4.076-4.727 5.824-8.056 3.902z" fill="url(#D)"/><path d="M72.513 144.336l-8.056-4.65c-3.33-1.94-5.134-6.794-4.038-10.85l1.7-6.425c1.097-4.076 4.698-5.824 8.017-3.882l8.056 4.65c3.33 1.94 5.134 6.794 4.038 10.85l-1.67 6.416c-1.126 4.076-4.717 5.814-8.046 3.892z" fill="url(#E)"/><path d="M72.98 143.385l-8.415-4.853c-2.68-1.543-4.135-5.455-3.242-8.735l1.94-7.202c.883-3.28 3.776-4.678 6.454-3.135l8.415 4.853c2.68 1.543 4.135 5.455 3.242 8.735l-1.94 7.202c-.883 3.28-3.776 4.688-6.454 3.135z" fill="url(#F)"/><path d="M73.027 123.012l-.98 1.03 1.96 1.33zM77.9 134.97l-.534 1.95 1.553.068zm-13.142-7.833l-.476 1.766-1.145-1.378zM68.3 137.94l2 1.213-1.106.922z" fill="#fff"/><path d="M79.87 111.88l-4.97-2.912c-1.68-1.134-2.457-3.205-1.94-5.164l1.155-4.25c.524-1.94 2.232-2.766 3.814-1.854l4.97 2.912c1.68 1.134 2.457 3.205 1.94 5.164l-1.155 4.25c-.524 1.94-2.232 2.766-3.814 1.854z" fill="url(#G)"/><path d="M69.727 114.694L67.6 113.47a2.04 2.04 0 0 1-.825-2.203l.495-1.815c.047-.362.273-.676.6-.837s.715-.145 1.03.04l2.126 1.223a2.04 2.04 0 0 1 .825 2.203l-.495 1.815c-.047.362-.273.676-.6.837s-.715.145-1.03-.04z" fill="url(#H)"/><path d="M69.426 114.743L67.3 113.56a2.04 2.04 0 0 1-.825-2.203l.495-1.815c.047-.362.273-.676.6-.837s.715-.145 1.03.04l2.126 1.223a2.04 2.04 0 0 1 .825 2.203l-.495 1.815c-.058.355-.29.658-.615.8s-.707.132-1.016-.053z" fill="url(#I)"/><path d="M76.482 118.198l-2.126-1.223a2.04 2.04 0 0 1-.825-2.203l.495-1.815c.047-.362.273-.676.6-.837s.715-.145 1.03.04l2.126 1.223a2.04 2.04 0 0 1 .825 2.203l-.495 1.854c-.058.355-.29.658-.615.8s-.707.132-1.016-.053z" fill="url(#J)"/><path d="M76.172 118.247l-2.126-1.223a2.04 2.04 0 0 1-.825-2.203l.495-1.815c.047-.362.273-.676.6-.837s.715-.145 1.03.04l2.126 1.223a2.04 2.04 0 0 1 .825 2.203l-.495 1.805c-.044.364-.27.68-.598.843s-.717.148-1.033-.038z" fill="url(#K)"/><path d="M83.47 121.916l-2.126-1.223a2.04 2.04 0 0 1-.825-2.203l.495-1.815c.047-.362.273-.676.6-.837s.715-.145 1.03.04l2.126 1.223a2.04 2.04 0 0 1 .825 2.203l-.495 1.815c-.047.362-.273.676-.6.837s-.715.145-1.03-.04z" fill="url(#L)"/><path d="M83.13 121.964l-2.126-1.223a2.04 2.04 0 0 1-.825-2.203l.495-1.815c.047-.362.273-.676.6-.837s.715-.145 1.03.04l2.135 1.223a2.04 2.04 0 0 1 .825 2.203l-.495 1.815c-.046.365-.273.682-.604.843s-.72.143-1.036-.047z" fill="url(#M)"/><path d="M38.27 127.623L18.86 113.15c-4.426-2.553-8.007-9.405-8.007-15.306L7.9 15.2C7.9 3.795 15.89-1.582 20.1.408l19.11 10.27C45.705 14.772 48.53 25.594 48.53 37v82.578c0 5.89-5.824 10.6-10.26 8.046z" fill="url(#N)"/><path d="M37.494 127.225l-21.625-12.49c-4.426-2.553-8.007-9.405-8.007-15.306V16.86C7.862 5.455 12.88 0 17.102 2l19.1 10.308c6.503 4.057 9.298 14.87 9.298 26.284v82.578c0 5.89-3.58 8.61-8.007 6.056z" fill="url(#O)"/><path d="M37.57 87.596l-22.838-13.2c-2.51-1.45-4.055-4.13-4.057-7.027V17.005c0-7.833 4.94-11.19 8.988-8.735l16.112 9.327c4.018 2.718 6.93 10.075 6.93 17.907v49.14c-.001 1.222-.655 2.35-1.714 2.96s-2.364.605-3.42-.01z" fill="url(#P)"/><path d="M39.6 65.738L13.724 50.8l.03-26.274L39.6 39.454z" fill="url(#Q)"/><path d="M28.99 29.118l-4.66-2.69c-.895-.643-1.432-1.674-1.446-2.776v-4.785c0-1.068.65-1.563 1.446-1.097l4.66 2.69c.895.643 1.432 1.674 1.446 2.776v4.804c0 1.077-.65 1.553-1.446 1.077z" fill="url(#R)"/><path d="M28.35 27.526l-3.33-1.94c-.63-.45-1.014-1.168-1.04-1.94v-3.455c0-.767.466-1.116 1.04-.786l3.33 1.94c.63.45 1.014 1.168 1.04 1.94v3.436c-.01.776-.466 1.136-1.04.806z" fill="url(#S)"/><path d="M28.99 78.618l-5.076-2.912c-2.096-1.213-3.795-4.455-3.795-7.25V64.06c0-2.795 1.7-4.076 3.795-2.912l5.076 2.912c2.096 1.213 3.795 4.455 3.795 7.25v4.406c0 2.854-1.728 4.135-3.795 2.902z" fill="url(#T)"/><path d="M29.118 77.987l-5.31-3.057a7.31 7.31 0 0 1-3.057-5.824v-4.95c0-2.252 1.37-3.28 3.057-2.3l5.31 3.057a7.31 7.31 0 0 1 3.057 5.824v4.98c-.02 2.223-1.388 3.25-3.057 2.28z" fill="url(#U)"/><use xlink:href="#As" fill="url(#V)"/><path d="M39.163 69.708l-4.766-2.737c-.63-.36-.97.175-.718.97a16.57 16.57 0 0 1 .971 4.931c.05.558.355 1.062.825 1.37l3.717 2.145c.456.262.825.05.825-.466v-4.795c-.04-.582-.358-1.11-.854-1.417z" fill="url(#W)"/><path d="M14.103 54.712l4.766 2.756c.63.36.97 1.35.718 1.815a7.86 7.86 0 0 0-.971 3.882c0 .485-.38.68-.825.427l-3.717-2.145c-.485-.314-.79-.84-.825-1.417v-4.843c.03-.524.398-.738.854-.476z" fill="url(#X)"/><path d="M13.48 55.013l4.766 2.756c.63.36.97 1.35.718 1.815a7.86 7.86 0 0 0-.971 3.882c0 .485-.38.68-.825.427l-3.717-2.145c-.505-.324-.817-.876-.835-1.475V55.48c0-.524.408-.728.864-.466z" fill="url(#Y)"/><path d="M13.88 69.94l4.766 2.756c.63.36.97-.184.718-.97a16.89 16.89 0 0 1-.971-4.989c-.05-.56-.354-1.07-.825-1.378l-3.688-2.184c-.456-.262-.825 0-.825.485v4.853c.032.58.34 1.1.825 1.427z" fill="url(#Z)"/><use xlink:href="#At" fill="url(#a)"/><use xlink:href="#Au" fill="url(#b)"/><use xlink:href="#Au" x="-0.506" y="0.223" fill="url(#c)"/><path d="M18.84 85.18l-5.25-3.057c-.965-.692-1.545-1.802-1.563-2.99v-2.456c0-1.155.7-1.68 1.563-1.184l5.3 3.057c.94.703 1.498 1.806 1.504 2.98v2.465c0 1.155-.68 1.68-1.543 1.184z" fill="url(#d)"/><path d="M18.44 85.52l-5.32-3.02c-.965-.692-1.545-1.802-1.563-2.99v-2.514c0-1.155.7-1.68 1.563-1.184l5.32 3.057c.965.692 1.545 1.802 1.563 2.99v2.465c-.03 1.155-.728 1.69-1.563 1.194z" fill="url(#e)"/><path d="M28.555 90.556l-5.26-3.057c-.965-.692-1.545-1.802-1.563-2.99v-2.475c0-1.155.7-1.68 1.563-1.184l5.3 3.057c.943.705 1.5 1.812 1.504 2.99v2.465c0 1.155-.67 1.69-1.534 1.194z" fill="url(#f)"/><path d="M28.147 90.886l-5.32-3.048c-.965-.692-1.545-1.802-1.563-2.99v-2.475c0-1.155.7-1.68 1.563-1.184l5.32 3.057c.965.692 1.545 1.802 1.563 2.99v2.465c-.02 1.155-.718 1.69-1.563 1.184z" fill="url(#g)"/><path d="M38.824 96.146l-5.3-3.057c-.943-.705-1.5-1.812-1.504-2.99v-2.465c0-1.155.7-1.68 1.563-1.184l5.23 3.057c.965.692 1.545 1.802 1.563 2.99v2.465c.03 1.126-.67 1.69-1.563 1.184z" fill="url(#h)"/><path d="M38.426 96.486l-5.3-3.057c-.965-.692-1.545-1.802-1.563-2.99v-2.465c0-1.155.7-1.68 1.563-1.184l5.3 3.057c.965.692 1.545 1.802 1.563 2.99v2.465c0 1.155-.7 1.68-1.563 1.184z" fill="url(#i)"/><path d="M18.84 93.545l-5.25-3.048c-.965-.692-1.545-1.802-1.563-2.99v-2.475c0-1.155.7-1.68 1.563-1.184l5.3 3.057c.943.705 1.5 1.812 1.504 2.99v2.465c0 1.155-.68 1.69-1.543 1.184z" fill="url(#j)"/><path d="M18.44 93.885l-5.3-3.057c-.98-.684-1.575-1.795-1.6-2.99v-2.426c0-1.155.7-1.68 1.563-1.184l5.33 3.02c.963.705 1.532 1.826 1.534 3.02v2.465c0 1.126-.7 1.66-1.534 1.155z" fill="url(#k)"/><path d="M28.555 98.922l-5.26-3.048c-.965-.692-1.545-1.802-1.563-2.99V90.4c0-1.155.7-1.68 1.563-1.184l5.3 3.057c.943.705 1.5 1.812 1.504 2.99v2.465c0 1.155-.67 1.69-1.534 1.184z" fill="url(#l)"/><path d="M28.147 99.262l-5.3-3.057c-.987-.694-1.58-1.82-1.592-3.028V90.75c0-1.155.7-1.68 1.563-1.184l5.32 3.048c.965.692 1.545 1.802 1.563 2.99v2.426c-.02 1.204-.718 1.728-1.563 1.233z" fill="url(#m)"/><path d="M38.824 104.523l-5.3-3.057c-.943-.705-1.5-1.812-1.504-2.99V96.01c0-1.155.7-1.68 1.563-1.184l5.23 3.048c.965.692 1.545 1.802 1.563 2.99v2.465c.03 1.165-.67 1.69-1.563 1.194z" fill="url(#n)"/><path d="M38.426 104.824l-5.3-3.057c-.965-.692-1.545-1.802-1.563-2.99V96.34c0-1.155.7-1.68 1.563-1.184l5.3 3.057c.965.692 1.545 1.802 1.563 2.99v2.465c0 1.155-.7 1.69-1.563 1.155z" fill="url(#o)"/><path d="M18.684 102.048L13.394 99c-.965-.692-1.545-1.802-1.563-2.99v-2.485c0-1.155.7-1.68 1.563-1.184l5.3 3.057c.965.692 1.545 1.802 1.563 2.99v2.465c0 1.165-.7 1.69-1.563 1.194z" fill="url(#p)"/><path d="M18.247 102.378l-5.3-3.057c-.965-.692-1.545-1.802-1.563-2.99v-2.465c0-1.155.7-1.68 1.563-1.184l5.3 3.057c.965.692 1.545 1.802 1.563 2.99v2.465c.01 1.155-.69 1.69-1.563 1.184z" fill="url(#q)"/><use xlink:href="#Av" fill="url(#r)"/><path d="M27.963 107.735l-5.3-3.057c-.965-.692-1.545-1.802-1.563-2.99v-2.465c0-1.155.7-1.68 1.563-1.184l5.3 3.057c.965.692 1.545 1.802 1.563 2.99v2.465c.01 1.184-.7 1.708-1.563 1.184z" fill="url(#s)"/><path d="M38.688 113.015l-5.3-3.057c-.965-.692-1.545-1.802-1.563-2.99v-2.465c0-1.155.7-1.68 1.563-1.184l5.3 3.057c.965.692 1.545 1.802 1.563 2.99v2.465c.01 1.155-.69 1.728-1.563 1.184z" fill="url(#t)"/><path d="M38.26 113.355L33 110.298c-.965-.692-1.545-1.802-1.563-2.99v-2.485c0-1.155.7-1.68 1.563-1.184l5.3 3.057c.94.703 1.498 1.806 1.504 2.98v2.465c0 1.184-.67 1.708-1.534 1.213z" fill="url(#u)"/><path d="M18.684 110.414l-5.3-3.057c-.965-.692-1.545-1.802-1.563-2.99v-2.456c0-1.155.7-1.68 1.563-1.184l5.3 3.057c.963.7 1.542 1.795 1.563 2.98v2.465c0 1.155-.7 1.68-1.563 1.184z" fill="url(#v)"/><path d="M18.247 110.744l-5.3-3.01c-.965-.692-1.545-1.802-1.563-2.99v-2.465c0-1.155.7-1.68 1.563-1.184l5.3 3.057c.965.692 1.545 1.802 1.563 2.99v2.465c.01 1.106-.69 1.64-1.563 1.136z" fill="url(#w)"/><use xlink:href="#Av" y="8.365" fill="url(#x)"/><use xlink:href="#Av" x="-0.437" y="8.705" fill="url(#y)"/><path d="M38.688 121.382l-5.3-3.057c-.965-.692-1.545-1.802-1.563-2.99v-2.465c0-1.155.7-1.68 1.563-1.184l5.3 3.057c.965.692 1.545 1.802 1.563 2.99v2.465c.01 1.126-.69 1.69-1.563 1.184z" fill="url(#z)"/><path d="M38.26 121.72L33 118.664c-.965-.692-1.545-1.802-1.563-2.99v-2.465c0-1.155.7-1.68 1.563-1.184l5.3 3.057c.94.703 1.498 1.806 1.504 2.98v2.465c0 1.165-.67 1.69-1.534 1.194z" fill="url(#AA)"/><path d="M26.128 64.166l-.38.728 1.262.844zm4.407 7.968v1.34h.854zm-8.3-4.94v1.213l-.825-.903zm3.514 7.22l1.262.776-.466.65z" fill="#fff"/><path d="M115.946 117.926s-1.94 20.683 4.174 25.876c6.328 5.387 34.077 21.042 46.17 20.848s36.882-14.044 41.62-20.382c.64-.864 1.466-12.394.456-19.266s-92.42-7.076-92.42-7.076z" fill="url(#AB)"/><path d="M150.587 95.778s-28.603 9.61-34.174 20.46 41.308 31.06 49.86 31.06c15.88 0 42.104-18.5 42.114-22.246.02-8.444-45.123-30.904-57.8-29.273z" fill="url(#AC)"/><path d="M144.618 106.97s-6.6 1.94-6.6 4.59c0 5.057 28.972 19.645 34.068 20.644s10.162-3.746 10.676-6.192-2.446-5.018-3.552-6.086-31.33-15.034-34.592-12.957z" fill="url(#AD)"/><path d="M170.542 130.292l-19.412-14.47c-4.426-2.553-8.007-9.405-8.007-15.306l-2.97-82.646c0-11.404 7.988-16.78 12.2-14.792l19.1 10.308c6.493 4.057 9.298 14.88 9.298 26.284v82.578c.02 5.872-5.794 10.6-10.22 8.046z" fill="url(#AE)"/><path d="M169.766 129.894L148.14 117.44c-4.426-2.553-8.007-9.405-8.007-15.306V19.528c0-11.404 5.018-16.85 9.24-14.86l19.1 10.308c6.493 4.057 9.298 14.88 9.298 26.284v82.578c0 5.9-3.58 8.61-8.007 6.056z" fill="url(#AF)"/><path d="M169.853 90.265l-22.848-13.18c-2.512-1.453-4.06-4.135-4.057-7.037V19.684c0-7.833 4.94-11.19 8.988-8.735l16.112 9.327c4.057 2.727 6.92 10.075 6.92 17.907v49.17c-.02 1.21-.675 2.318-1.726 2.917s-2.34.596-3.39-.005z" fill="url(#AG)"/><path d="M171.862 68.407L145.996 53.48l.03-26.284 25.856 14.937z" fill="url(#AH)"/><path d="M161.254 31.796l-4.65-2.68c-.895-.643-1.432-1.674-1.446-2.776v-4.804c0-1.068.65-1.563 1.446-1.097l4.66 2.69c.895.643 1.432 1.674 1.446 2.776v4.804c0 1.058-.62 1.553-1.456 1.087z" fill="url(#AI)"/><path d="M160.623 30.195l-3.33-1.94c-.63-.45-1.014-1.168-1.04-1.94v-3.455c0-.767.466-1.116 1.04-.786l3.33 1.94c.63.45 1.014 1.168 1.04 1.94v3.455c-.01.767-.466 1.116-1.04.786z" fill="url(#AJ)"/><path d="M161.263 81.316l-5.076-2.912c-2.096-1.213-3.795-4.455-3.795-7.25v-4.426c0-2.795 1.7-4.076 3.795-2.912l5.076 2.912c2.096 1.213 3.795 4.455 3.795 7.25v4.406c0 2.854-1.7 4.115-3.795 2.93z" fill="url(#AK)"/><path d="M161.37 80.656l-5.3-3.01a7.31 7.31 0 0 1-3.057-5.824v-4.99c0-2.252 1.37-3.28 3.057-2.3l5.3 3.057a7.31 7.31 0 0 1 3.057 5.824v4.94c0 2.213-1.37 3.28-3.057 2.3z" fill="url(#AL)"/><path d="M172.182 72.134l-4.766-2.756c-.63-.36-.97.175-.718.97a16.57 16.57 0 0 1 .971 4.931c.05.558.355 1.062.825 1.37l3.717 2.145c.456.262.825.05.825-.466V73.56c-.037-.586-.355-1.117-.854-1.427z" fill="url(#AM)"/><use xlink:href="#As" x="131.525" y="2.912" fill="url(#AN)"/><path d="M146.374 57.39l4.766 2.786c.63.36.97 1.35.718 1.815a7.86 7.86 0 0 0-.971 3.882c0 .485-.38.68-.825.427l-3.688-2.242c-.485-.314-.79-.84-.825-1.417v-4.785c.04-.524.37-.728.825-.466z" fill="url(#AO)"/><path d="M145.744 57.682l4.766 2.756c.63.36.97 1.35.718 1.815a7.86 7.86 0 0 0-.971 3.882c0 .485-.38.68-.825.427l-3.717-2.145c-.485-.314-.79-.84-.825-1.417v-4.843c.04-.524.408-.738.854-.476z" fill="url(#AP)"/><use xlink:href="#At" x="132.698" y="2.426" fill="url(#AQ)"/><path d="M145.724 72.852l4.766 2.756c.63.36.97-.184.718-.97a16.89 16.89 0 0 1-.971-4.989c-.025-.565-.307-1.087-.767-1.417l-3.717-2.145c-.456-.262-.825 0-.825.485v4.853c.026.574.32 1.103.796 1.427z" fill="url(#AR)"/><path d="M171.92 87.353l-4.766-2.756a1.6 1.6 0 0 1-.718-1.834c.644-1.192.978-2.527.97-3.882 0-.495.38-.69.825-.437l3.688 2.116c.49.32.796.853.825 1.436v4.853c.02.505-.37.738-.825.505z" fill="url(#AS)"/><path d="M171.416 87.547l-4.766-2.756a1.6 1.6 0 0 1-.718-1.834c.644-1.192.978-2.527.97-3.882 0-.495.38-.69.825-.437l3.717 2.145c.49.32.796.853.825 1.436v4.853c-.03.514-.398.738-.854.476z" fill="url(#AT)"/><use xlink:href="#Aw" fill="url(#AU)"/><path d="M150.684 88.188l-5.3-3.057c-.965-.692-1.545-1.802-1.563-2.99v-2.465c0-1.155.7-1.68 1.563-1.184l5.3 3.038c.965.692 1.545 1.802 1.563 2.99v2.465c0 1.174-.7 1.7-1.563 1.204z" fill="url(#AV)"/><path d="M160.826 93.176l-5.3-3.057c-.965-.692-1.545-1.802-1.563-2.99v-2.417c0-1.155.7-1.68 1.563-1.184l5.3 3.057c.965.692 1.545 1.802 1.563 2.99v2.465c0 1.136-.7 1.68-1.563 1.136z" fill="url(#AW)"/><path d="M160.4 93.565l-5.3-3.057c-.965-.692-1.545-1.802-1.563-2.99v-2.475c0-1.155.7-1.68 1.563-1.184l5.3 3.057c.965.692 1.545 1.802 1.563 2.99v2.465c.01 1.155-.69 1.69-1.563 1.194z" fill="url(#AX)"/><path d="M171.124 98.825l-5.3-3.057c-.965-.692-1.545-1.802-1.563-2.99v-2.514c0-1.155.7-1.68 1.563-1.184l5.3 3.125c.965.692 1.545 1.802 1.563 2.99v2.465c0 1.126-.7 1.66-1.563 1.165z" fill="url(#AY)"/><path d="M170.697 99.155l-5.3-3.067c-.965-.692-1.545-1.802-1.563-2.99v-2.456c0-1.155.7-1.68 1.563-1.184l5.3 3.057c.965.692 1.545 1.802 1.563 2.99v2.465c.01 1.155-.69 1.69-1.553 1.184z" fill="url(#AZ)"/><path d="M151.11 96.224l-5.3-3.048c-.965-.692-1.545-1.802-1.563-2.99v-2.475c0-1.155.7-1.68 1.563-1.184l5.3 3.057c.965.692 1.545 1.802 1.563 2.99v2.465c0 1.155-.7 1.68-1.563 1.184z" fill="url(#Aa)"/><path d="M150.684 96.564l-5.3-3.057c-.965-.692-1.545-1.802-1.563-2.99v-2.475c0-1.155.7-1.68 1.563-1.184l5.3 3.057c.965.692 1.545 1.802 1.563 2.99v2.465c0 1.155-.7 1.69-1.563 1.194z" fill="url(#Ab)"/><path d="M160.826 101.6l-5.3-3.057c-.965-.692-1.545-1.802-1.563-2.99V93.08c0-1.155.7-1.68 1.563-1.184l5.3 3.057c.965.692 1.545 1.802 1.563 2.99v2.465c0 1.155-.7 1.69-1.563 1.194z" fill="url(#Ac)"/><path d="M160.4 101.912l-5.3-3.057c-.965-.692-1.545-1.802-1.563-2.99V93.42c0-1.155.7-1.68 1.563-1.184l5.3 3.057c.965.692 1.545 1.802 1.563 2.99v2.465c.01 1.165-.69 1.69-1.563 1.165z" fill="url(#Ad)"/><path d="M171.124 107.192l-5.3-3.057c-.965-.692-1.545-1.802-1.563-2.99V98.68c0-1.155.7-1.68 1.563-1.184l5.3 3.057c.965.692 1.545 1.802 1.563 2.99v2.465c0 1.155-.7 1.728-1.563 1.184z" fill="url(#Ae)"/><path d="M170.697 107.53l-5.3-3.057c-.965-.692-1.545-1.802-1.563-2.99V99c0-1.155.7-1.68 1.563-1.184l5.3 3.057c.965.692 1.545 1.802 1.563 2.99v2.465c0 1.174-.7 1.7-1.563 1.204z" fill="url(#Af)"/><path d="M150.956 104.717l-5.3-3.057c-.965-.692-1.545-1.802-1.563-2.99v-2.465c0-1.155.7-1.68 1.563-1.184l5.3 3.057c.965.692 1.545 1.802 1.563 2.99v2.465c0 1.155-.7 1.69-1.563 1.184z" fill="url(#Ag)"/><path d="M150.52 105.056l-5.3-3.057c-.975-.7-1.563-1.804-1.582-3v-2.456c0-1.155.7-1.68 1.563-1.184l5.3 3.057c.965.692 1.545 1.802 1.563 2.99v2.446c.03 1.174-.65 1.7-1.543 1.204z" fill="url(#Ah)"/><path d="M160.66 110.094l-5.3-3.057c-.965-.692-1.545-1.802-1.563-2.99v-2.465c0-1.155.7-1.68 1.563-1.184l5.3 3.057c.965.692 1.545 1.802 1.563 2.99v2.465c.01 1.155-.7 1.68-1.563 1.184z" fill="url(#Ai)"/><path d="M160.234 110.434l-5.3-3.057c-.965-.692-1.545-1.802-1.563-2.99v-2.475c0-1.155.7-1.68 1.563-1.184l5.3 3.057c.965.692 1.545 1.802 1.563 2.99v2.465c.01 1.155-.68 1.69-1.563 1.194z" fill="url(#Aj)"/><path d="M170.96 115.694l-5.3-3.106c-.965-.692-1.545-1.802-1.563-2.99v-2.465c0-1.155.7-1.68 1.563-1.184l5.3 3.057c.965.692 1.545 1.802 1.563 2.99v2.533c.01 1.126-.728 1.66-1.563 1.165z" fill="url(#Ak)"/><use xlink:href="#Av" x="142.132" y="8.609" fill="url(#Al)"/><use xlink:href="#Aw" x="-0.154" y="25.235" fill="url(#Am)"/><path d="M150.52 113.423l-5.3-3.057c-.965-.692-1.545-1.802-1.563-2.99v-2.465c0-1.155.7-1.68 1.563-1.184l5.3 3.057c.965.692 1.545 1.802 1.563 2.99v2.465c.01 1.155-.67 1.68-1.563 1.184z" fill="url(#An)"/><path d="M160.66 118.412l-5.3-3.057c-.965-.692-1.545-1.802-1.563-2.99V109.9c0-1.155.7-1.68 1.563-1.184l5.3 3.057c.965.692 1.545 1.802 1.563 2.99v2.465c.01 1.184-.7 1.728-1.563 1.184z" fill="url(#Ao)"/><path d="M160.234 118.8l-5.3-3.057c-.965-.692-1.545-1.802-1.563-2.99v-2.465c0-1.155.7-1.68 1.563-1.184l5.3 3.057c.965.692 1.545 1.802 1.563 2.99v2.465c.01 1.145-.68 1.68-1.563 1.184z" fill="url(#Ap)"/><path d="M170.96 124.06l-5.3-3.057c-.965-.692-1.545-1.802-1.563-2.99V115.5c0-1.155.7-1.68 1.563-1.184l5.3 3.057c.965.692 1.545 1.802 1.563 2.99v2.465c.01 1.194-.728 1.728-1.563 1.233z" fill="url(#Aq)"/><path d="M170.532 124.39l-5.3-3.067c-.965-.692-1.545-1.802-1.563-2.99v-2.465c0-1.155.7-1.68 1.563-1.184l5.3 3.057c.965.692 1.545 1.802 1.563 2.99v2.465c.01 1.165-.7 1.7-1.563 1.194z" fill="url(#Ar)"/><path d="M158.4 66.835l-.38.728 1.262.844zm4.406 7.978v1.33h.854zm-8.298-4.95v1.213l-.825-.903zm3.512 7.23l1.262.767-.466.66z" fill="#fff"/></g></svg>