<svg xmlns="http://www.w3.org/2000/svg" width="96" height="40"><path d="M95.515 20.743c0-6.773-3.28-12.118-9.55-12.118-6.297 0-10.107 5.345-10.107 12.065 0 7.964 4.498 11.986 10.954 11.986 3.15 0 5.53-.714 7.33-1.72v-5.292c-1.8.9-3.863 1.455-6.482 1.455-2.566 0-4.842-.9-5.133-4.022h12.938c0-.344.053-1.72.053-2.355zm-13.07-2.514c0-3 1.826-4.233 3.492-4.233 1.614 0 3.334 1.244 3.334 4.233h-6.826zM65.643 8.625c-2.593 0-4.26 1.217-5.186 2.064l-.344-1.64h-5.82V39.9l6.615-1.402.026-7.488c.953.688 2.355 1.667 4.683 1.667 4.736 0 9.05-3.8 9.05-12.197-.026-7.673-4.392-11.853-9.022-11.853zm-1.588 18.23c-1.56 0-2.487-.556-3.122-1.244l-.026-9.816c.688-.767 1.64-1.296 3.15-1.296 2.408 0 4.075 2.7 4.075 6.165 0 3.545-1.64 6.2-4.075 6.2zM51.832 5.636V.265l-6.64 1.402v5.397zM45.2 9.075h6.64v23.15H45.2zm-7.126 1.958l-.423-1.958h-5.715v23.15h6.615v-15.7c1.56-2.037 4.207-1.667 5.027-1.376V9.075c-.847-.318-3.942-.9-5.503 1.958zm-13.23-7.7L18.4 4.7l-.026 21.193c0 3.916 2.937 6.8 6.853 6.8 2.17 0 3.757-.397 4.63-.873v-5.37C29 26.794 24.82 28 24.82 24.095V14.7h5.027V9.075H24.82l.026-5.74zM6.96 15.796c0-1.032.847-1.43 2.25-1.43 2 0 4.55.6 6.562 1.693V9.843C13.576 8.97 11.406 8.626 9.2 8.626c-5.37 0-8.943 2.805-8.943 7.488 0 7.303 10.054 6.138 10.054 9.287 0 1.217-1.058 1.614-2.54 1.614-2.196 0-5-.9-7.223-2.117v6.297c2.46 1.058 4.948 1.508 7.223 1.508 5.503 0 9.287-2.725 9.287-7.46C17.04 17.357 6.96 18.76 6.96 15.796z" fill="#fff" fill-rule="evenodd"/></svg>