<svg xmlns="http://www.w3.org/2000/svg" xmlns:xlink="http://www.w3.org/1999/xlink" width="192" height="166"><defs><linearGradient x1="-29.4772118%" y1="20.7755274%" x2="86.820286%" y2="63.4556962%" id="A"><stop stop-color="#00EAFF" offset="0%"/><stop stop-color="#07DFFC" offset="18.94%"/><stop stop-color="#1BC0F4" offset="52.68%"/><stop stop-color="#3A8FE8" offset="97.04%"/><stop stop-color="#3C8CE7" offset="99.46%"/></linearGradient><linearGradient x1="0.037037037%" y1="50.003624%" x2="100.129825%" y2="50.003624%" id="B"><stop stop-color="#00EAFF" offset="0%"/><stop stop-color="#07DFFC" offset="18.94%"/><stop stop-color="#1BC0F4" offset="52.68%"/><stop stop-color="#3A8FE8" offset="97.04%"/><stop stop-color="#3C8CE7" offset="99.46%"/></linearGradient><linearGradient x1="-6.33554104%" y1="49.9856796%" x2="93.6319963%" y2="49.9856796%" id="C"><stop stop-color="#B3FFAB" offset=".537634%"/><stop stop-color="#B1FFAC" offset="1.284804%"/><stop stop-color="#6EFFCC" offset="36.23%"/><stop stop-color="#3CFFE3" offset="65.49%"/><stop stop-color="#1DFFF2" offset="87.6%"/><stop stop-color="#12FFF7" offset="100%"/></linearGradient><linearGradient x1="84.5219327%" y1="19.1825944%" x2="149.688433%" y2="-38.9075926%" id="D"><stop stop-color="#B3FFAB" offset=".537634%"/><stop stop-color="#B1FFAC" offset="1.284804%"/><stop stop-color="#6EFFCC" offset="36.23%"/><stop stop-color="#3CFFE3" offset="65.49%"/><stop stop-color="#1DFFF2" offset="87.6%"/><stop stop-color="#12FFF7" offset="100%"/></linearGradient><linearGradient x1="-0.101759531%" y1="49.9842795%" x2="99.8829912%" y2="49.9842795%" id="E"><stop stop-color="#00EAFF" offset="0%"/><stop stop-color="#07DFFC" offset="18.94%"/><stop stop-color="#1BC0F4" offset="52.68%"/><stop stop-color="#3A8FE8" offset="97.04%"/><stop stop-color="#3C8CE7" offset="99.46%"/></linearGradient><linearGradient x1="-57.5414433%" y1="50.0880117%" x2="42.3874227%" y2="50.0880117%" id="F"><stop stop-color="#00EAFF" offset="0%"/><stop stop-color="#07DFFC" offset="18.94%"/><stop stop-color="#1BC0F4" offset="52.68%"/><stop stop-color="#3A8FE8" offset="97.04%"/><stop stop-color="#3C8CE7" offset="99.46%"/></linearGradient><linearGradient x1="0.110787172%" y1="49.9621094%" x2="99.9994169%" y2="49.9621094%" id="G"><stop stop-color="#00EAFF" offset="0%"/><stop stop-color="#07DFFC" offset="18.94%"/><stop stop-color="#1BC0F4" offset="52.68%"/><stop stop-color="#3A8FE8" offset="97.04%"/><stop stop-color="#3C8CE7" offset="99.46%"/></linearGradient><linearGradient x1="105.529223%" y1="49.9728693%" x2="205.51975%" y2="49.9728693%" id="H"><stop stop-color="#00EAFF" offset="0%"/><stop stop-color="#07DFFC" offset="18.94%"/><stop stop-color="#1BC0F4" offset="52.68%"/><stop stop-color="#3A8FE8" offset="97.04%"/><stop stop-color="#3C8CE7" offset="99.46%"/></linearGradient><linearGradient x1="46.0980803%" y1="50.0865922%" x2="146.044503%" y2="50.0865922%" id="I"><stop stop-color="#00EAFF" offset="0%"/><stop stop-color="#07DFFC" offset="18.94%"/><stop stop-color="#1BC0F4" offset="52.68%"/><stop stop-color="#3A8FE8" offset="97.04%"/><stop stop-color="#3C8CE7" offset="99.46%"/></linearGradient><linearGradient x1="-43.4365132%" y1="50.0150862%" x2="56.5345395%" y2="50.0150862%" id="J"><stop stop-color="#00EAFF" offset="0%"/><stop stop-color="#07DFFC" offset="18.94%"/><stop stop-color="#1BC0F4" offset="52.68%"/><stop stop-color="#3A8FE8" offset="97.04%"/><stop stop-color="#3C8CE7" offset="99.46%"/></linearGradient><linearGradient x1="-549.70303%" y1="-363.27%" x2="117.275758%" y2="97.7%" id="K"><stop stop-color="#00EAFF" offset="0%"/><stop stop-color="#07DFFC" offset="18.94%"/><stop stop-color="#1BC0F4" offset="52.68%"/><stop stop-color="#3A8FE8" offset="97.04%"/><stop stop-color="#3C8CE7" offset="99.46%"/></linearGradient><linearGradient x1="-1731.50833%" y1="-220.645455%" x2="102.683333%" y2="58.730303%" id="L"><stop stop-color="#00EAFF" offset="0%"/><stop stop-color="#07DFFC" offset="18.94%"/><stop stop-color="#1BC0F4" offset="52.68%"/><stop stop-color="#3A8FE8" offset="97.04%"/><stop stop-color="#3C8CE7" offset="99.46%"/></linearGradient><linearGradient x1="-478.645455%" y1="-313.445%" x2="188.333333%" y2="147.525%" id="M"><stop stop-color="#00EAFF" offset="0%"/><stop stop-color="#07DFFC" offset="18.94%"/><stop stop-color="#1BC0F4" offset="52.68%"/><stop stop-color="#3A8FE8" offset="97.04%"/><stop stop-color="#3C8CE7" offset="99.46%"/></linearGradient><linearGradient x1="-1684.83636%" y1="-184.847059%" x2="316.1%" y2="86.3117647%" id="N"><stop stop-color="#00EAFF" offset="0%"/><stop stop-color="#07DFFC" offset="18.94%"/><stop stop-color="#1BC0F4" offset="52.68%"/><stop stop-color="#3A8FE8" offset="97.04%"/><stop stop-color="#3C8CE7" offset="99.46%"/></linearGradient><linearGradient x1="-406.018182%" y1="-281.968421%" x2="260.960606%" y2="203.263158%" id="O"><stop stop-color="#00EAFF" offset="0%"/><stop stop-color="#07DFFC" offset="18.94%"/><stop stop-color="#1BC0F4" offset="52.68%"/><stop stop-color="#3A8FE8" offset="97.04%"/><stop stop-color="#3C8CE7" offset="99.46%"/></linearGradient><linearGradient x1="-1466.95455%" y1="-162.827273%" x2="533.981818%" y2="116.548485%" id="P"><stop stop-color="#00EAFF" offset="0%"/><stop stop-color="#07DFFC" offset="18.94%"/><stop stop-color="#1BC0F4" offset="52.68%"/><stop stop-color="#3A8FE8" offset="97.04%"/><stop stop-color="#3C8CE7" offset="99.46%"/></linearGradient><linearGradient x1="-319.530303%" y1="-219.305263%" x2="347.448485%" y2="265.926316%" id="Q"><stop stop-color="#00EAFF" offset="0%"/><stop stop-color="#07DFFC" offset="18.94%"/><stop stop-color="#1BC0F4" offset="52.68%"/><stop stop-color="#3A8FE8" offset="97.04%"/><stop stop-color="#3C8CE7" offset="99.46%"/></linearGradient><linearGradient x1="-1207.48182%" y1="-126.751515%" x2="793.445455%" y2="152.624242%" id="R"><stop stop-color="#00EAFF" offset="0%"/><stop stop-color="#07DFFC" offset="18.94%"/><stop stop-color="#1BC0F4" offset="52.68%"/><stop stop-color="#3A8FE8" offset="97.04%"/><stop stop-color="#3C8CE7" offset="99.46%"/></linearGradient><linearGradient x1="-49.3096585%" y1="50.0218009%" x2="50.7409756%" y2="50.0218009%" id="S"><stop stop-color="#00EAFF" offset="0%"/><stop stop-color="#07DFFC" offset="18.94%"/><stop stop-color="#1BC0F4" offset="52.68%"/><stop stop-color="#3A8FE8" offset="97.04%"/><stop stop-color="#3C8CE7" offset="99.46%"/></linearGradient><linearGradient x1="-49.3096585%" y1="49.9745253%" x2="50.7409756%" y2="49.9745253%" id="T"><stop stop-color="#00EAFF" offset="0%"/><stop stop-color="#07DFFC" offset="18.94%"/><stop stop-color="#1BC0F4" offset="52.68%"/><stop stop-color="#3A8FE8" offset="97.04%"/><stop stop-color="#3C8CE7" offset="99.46%"/></linearGradient><linearGradient x1="-49.2303415%" y1="50.0431962%" x2="50.767122%" y2="50.0431962%" id="U"><stop stop-color="#00EAFF" offset="0%"/><stop stop-color="#07DFFC" offset="18.94%"/><stop stop-color="#1BC0F4" offset="52.68%"/><stop stop-color="#3A8FE8" offset="97.04%"/><stop stop-color="#3C8CE7" offset="99.46%"/></linearGradient><linearGradient x1="-49.198528%" y1="49.9888712%" x2="50.7974485%" y2="49.9888712%" id="V"><stop stop-color="#00EAFF" offset="0%"/><stop stop-color="#07DFFC" offset="18.94%"/><stop stop-color="#1BC0F4" offset="52.68%"/><stop stop-color="#3A8FE8" offset="97.04%"/><stop stop-color="#3C8CE7" offset="99.46%"/></linearGradient><linearGradient x1="-687.891756%" y1="62.6519012%" x2="482.550544%" y2="44.7096371%" id="W"><stop stop-color="#B3FFAB" offset=".537634%"/><stop stop-color="#B1FFAC" offset="1.284804%"/><stop stop-color="#6EFFCC" offset="36.23%"/><stop stop-color="#3CFFE3" offset="65.49%"/><stop stop-color="#1DFFF2" offset="87.6%"/><stop stop-color="#12FFF7" offset="100%"/></linearGradient><linearGradient x1="-688.479167%" y1="59.4793165%" x2="481.963133%" y2="42.01949%" id="X"><stop stop-color="#B3FFAB" offset=".537634%"/><stop stop-color="#B1FFAC" offset="1.284804%"/><stop stop-color="#6EFFCC" offset="36.23%"/><stop stop-color="#3CFFE3" offset="65.49%"/><stop stop-color="#1DFFF2" offset="87.6%"/><stop stop-color="#12FFF7" offset="100%"/></linearGradient><linearGradient x1="-689.071389%" y1="59.6990331%" x2="481.375722%" y2="42.2370094%" id="Y"><stop stop-color="#B3FFAB" offset=".537634%"/><stop stop-color="#B1FFAC" offset="1.284804%"/><stop stop-color="#6EFFCC" offset="36.23%"/><stop stop-color="#3CFFE3" offset="65.49%"/><stop stop-color="#1DFFF2" offset="87.6%"/><stop stop-color="#12FFF7" offset="100%"/></linearGradient><linearGradient x1="-684.098433%" y1="59.9143554%" x2="486.339056%" y2="42.456726%" id="Z"><stop stop-color="#B3FFAB" offset=".537634%"/><stop stop-color="#B1FFAC" offset="1.284804%"/><stop stop-color="#6EFFCC" offset="36.23%"/><stop stop-color="#3CFFE3" offset="65.49%"/><stop stop-color="#1DFFF2" offset="87.6%"/><stop stop-color="#12FFF7" offset="100%"/></linearGradient><path id="a" d="M180.533 67.82c0 .533-.356 1.154-.8 1.332-.444.266-.8.09-.8-.444s.356-1.154.8-1.332c.444-.266.8-.09.8.444z"/></defs><path d="M86.4 164.136l-81.333-46.96c-1.867-1.065-1.867-3.728 0-4.794L94.844 60.72c3.378-1.953 7.556-1.953 10.933 0l81.422 46.96c1.867 1.065 1.867 3.728 0 4.794l-89.778 51.664c-3.467 1.953-7.644 1.953-11.022 0z" fill="#2F2F7A"/><path d="M91.91 140.79l95.644-54.77c2.31-1.332 3.733-3.728 3.733-6.39l.09-22.99-99.467 57.257v26.897z" fill="url(#A)"/><path d="M.8 62.405l.09 19.53c0 3.55 1.956 6.835 4.978 8.7l85.956 50.155.178-26L.8 62.405z" fill="url(#B)"/><path d="M91.91 110.164L.8 57.7 100.267.444l91.11 52.463z" fill="url(#C)"/><path d="M104.71 67.554l-43.29 30.004L31.29 80.426l43.11-30.36z" fill="url(#D)"/><path d="M74.4 50.066v5.237l26.31 15.09 4-2.84z" fill="url(#E)"/><path d="M74.4 55.304v-5.237L31.29 75.1v5.326z" fill="url(#F)"/><path d="M.8 57.7l.178 5.06 30.31 17.665V75.1z" fill="url(#G)"/><path d="M92 115.4L191.378 58.5v-5.593L91.91 110.164z" fill="url(#H)"/><path d="M52.8 67.82l29.422 15.357-16.89 11.63-.356 4.794-33.69-19.174z" fill="url(#I)"/><path d="M65.333 94.806l-.356 4.794L92 115.4v-5.326z" fill="url(#J)"/><path d="M183.022 55.392l2.044 1.154-1.067.62-1.867-1.243z" fill="url(#K)"/><path d="M184 57.167v2.308l1.067-.533v-2.397z" fill="url(#L)"/><path d="M179.823 57.168l2.044 1.154-.978.62-1.956-1.154z" fill="url(#M)"/><path d="M180.89 58.943v2.397l.978-.62v-2.397z" fill="url(#N)"/><path d="M176.622 59.12l1.956 1.154-.978.533-1.956-1.154z" fill="url(#O)"/><path d="M177.6 60.807v2.397l.978-.62v-2.308z" fill="url(#P)"/><path d="M172.712 61.34l1.956 1.154-.978.533-1.956-1.154z" fill="url(#Q)"/><path d="M173.69 63.026v2.397l.978-.62v-2.308z" fill="url(#R)"/><path d="M.89 65.246L92 118.508v2.93L.89 67.82z" fill="url(#S)"/><path d="M.89 70.395L92 123.568v2.93L.89 72.97z" fill="url(#T)"/><path d="M.89 75.632L92 128.805v2.93L.89 78.206z" fill="url(#U)"/><path d="M.89 80.78l90.578 52.907v2.93l-90.4-53.173z" fill="url(#V)"/><path d="M178.222 69.063c0 .533-.356 1.154-.8 1.332-.444.266-.8.09-.8-.444s.356-1.154.8-1.332.8 0 .8.444z" fill="url(#W)"/><use xlink:href="#a" fill="url(#X)"/><use xlink:href="#a" x="2.311" y="-1.332" fill="url(#Y)"/><use xlink:href="#a" x="4.534" y="-2.663" fill="url(#Z)"/></svg>