<svg xmlns="http://www.w3.org/2000/svg" width="188" height="166"><defs><linearGradient x1="105.544963%" y1="49.9745377%" x2="205.496828%" y2="49.9745377%" id="A"><stop stop-color="#B3FFAB" offset=".537634%"/><stop stop-color="#B1FFAC" offset="1.284804%"/><stop stop-color="#6EFFCC" offset="36.23%"/><stop stop-color="#3CFFE3" offset="65.49%"/><stop stop-color="#1DFFF2" offset="87.6%"/><stop stop-color="#12FFF7" offset="100%"/></linearGradient><linearGradient x1="0.0259779338%" y1="50.0156682%" x2="100.040722%" y2="50.0156682%" id="B"><stop stop-color="#B3FFAB" offset=".537634%"/><stop stop-color="#B1FFAC" offset="1.284804%"/><stop stop-color="#6EFFCC" offset="36.23%"/><stop stop-color="#3CFFE3" offset="65.49%"/><stop stop-color="#1DFFF2" offset="87.6%"/><stop stop-color="#12FFF7" offset="100%"/></linearGradient><linearGradient x1="-23.8351206%" y1="20.8329333%" x2="87.3846291%" y2="64.0304773%" id="C"><stop stop-color="#00EAFF" offset="0%"/><stop stop-color="#07DFFC" offset="18.94%"/><stop stop-color="#1BC0F4" offset="52.68%"/><stop stop-color="#3A8FE8" offset="97.04%"/><stop stop-color="#3C8CE7" offset="99.46%"/></linearGradient><linearGradient x1="-0.035005015%" y1="49.9869906%" x2="100.065396%" y2="49.9869906%" id="D"><stop stop-color="#00EAFF" offset="0%"/><stop stop-color="#07DFFC" offset="18.94%"/><stop stop-color="#1BC0F4" offset="52.68%"/><stop stop-color="#3A8FE8" offset="97.04%"/><stop stop-color="#3C8CE7" offset="99.46%"/></linearGradient><linearGradient x1="-6.36241838%" y1="49.9890872%" x2="93.6732769%" y2="49.9890872%" id="E"><stop stop-color="#00EAFF" offset="0%"/><stop stop-color="#07DFFC" offset="18.94%"/><stop stop-color="#1BC0F4" offset="52.68%"/><stop stop-color="#3A8FE8" offset="97.04%"/><stop stop-color="#3C8CE7" offset="99.46%"/></linearGradient><linearGradient x1="-201.230303%" y1="-12.3210526%" x2="1056.34545%" y2="300.178947%" id="F"><stop stop-color="#00EAFF" offset="0%"/><stop stop-color="#07DFFC" offset="18.94%"/><stop stop-color="#1BC0F4" offset="52.68%"/><stop stop-color="#3A8FE8" offset="97.04%"/><stop stop-color="#3C8CE7" offset="99.46%"/></linearGradient><linearGradient x1="-1890.8%" y1="-221.742424%" x2="110.136364%" y2="57.630303%" id="G"><stop stop-color="#00EAFF" offset="0%"/><stop stop-color="#07DFFC" offset="18.94%"/><stop stop-color="#1BC0F4" offset="52.68%"/><stop stop-color="#3A8FE8" offset="97.04%"/><stop stop-color="#3C8CE7" offset="99.46%"/></linearGradient><linearGradient x1="-105.933333%" y1="12.9%" x2="1151.64242%" y2="309.775%" id="H"><stop stop-color="#00EAFF" offset="0%"/><stop stop-color="#07DFFC" offset="18.94%"/><stop stop-color="#1BC0F4" offset="52.68%"/><stop stop-color="#3A8FE8" offset="97.04%"/><stop stop-color="#3C8CE7" offset="99.46%"/></linearGradient><linearGradient x1="-1686.72727%" y1="-191.548485%" x2="314.209091%" y2="87.8272727%" id="I"><stop stop-color="#00EAFF" offset="0%"/><stop stop-color="#07DFFC" offset="18.94%"/><stop stop-color="#1BC0F4" offset="52.68%"/><stop stop-color="#3A8FE8" offset="97.04%"/><stop stop-color="#3C8CE7" offset="99.46%"/></linearGradient><linearGradient x1="-5.04242424%" y1="37.44%" x2="1252.53333%" y2="334.315%" id="J"><stop stop-color="#00EAFF" offset="0%"/><stop stop-color="#07DFFC" offset="18.94%"/><stop stop-color="#1BC0F4" offset="52.68%"/><stop stop-color="#3A8FE8" offset="97.04%"/><stop stop-color="#3C8CE7" offset="99.46%"/></linearGradient><linearGradient x1="-1468.84545%" y1="-160.89697%" x2="532.090909%" y2="118.481818%" id="K"><stop stop-color="#00EAFF" offset="0%"/><stop stop-color="#07DFFC" offset="18.94%"/><stop stop-color="#1BC0F4" offset="52.68%"/><stop stop-color="#3A8FE8" offset="97.04%"/><stop stop-color="#3C8CE7" offset="99.46%"/></linearGradient><linearGradient x1="115.021212%" y1="65.505%" x2="1372.59697%" y2="362.38%" id="L"><stop stop-color="#00EAFF" offset="0%"/><stop stop-color="#07DFFC" offset="18.94%"/><stop stop-color="#1BC0F4" offset="52.68%"/><stop stop-color="#3A8FE8" offset="97.04%"/><stop stop-color="#3C8CE7" offset="99.46%"/></linearGradient><linearGradient x1="-1209.37273%" y1="-124.818182%" x2="791.563636%" y2="154.557576%" id="M"><stop stop-color="#00EAFF" offset="0%"/><stop stop-color="#07DFFC" offset="18.94%"/><stop stop-color="#1BC0F4" offset="52.68%"/><stop stop-color="#3A8FE8" offset="97.04%"/><stop stop-color="#3C8CE7" offset="99.46%"/></linearGradient><linearGradient x1="59.8000475%" y1="-10.5476695%" x2="43.8063498%" y2="87.6199153%" id="N"><stop stop-color="#00EAFF" offset="0%"/><stop stop-color="#07DFFC" offset="18.94%"/><stop stop-color="#1BC0F4" offset="52.68%"/><stop stop-color="#3A8FE8" offset="97.04%"/><stop stop-color="#3C8CE7" offset="99.46%"/></linearGradient><linearGradient x1="56.1691615%" y1="50.0674033%" x2="156.152393%" y2="50.0674033%" id="O"><stop stop-color="#00EAFF" offset="0%"/><stop stop-color="#07DFFC" offset="18.94%"/><stop stop-color="#1BC0F4" offset="52.68%"/><stop stop-color="#3A8FE8" offset="97.04%"/><stop stop-color="#3C8CE7" offset="99.46%"/></linearGradient></defs><path d="M83.696 163.925L1.537 116.56c-1.717-.992-1.717-3.518 0-4.51l91.83-52.867c3.344-1.895 7.412-1.895 10.665 0l80.985 46.642a4.15 4.15 0 0 1 0 7.217l-88.306 50.792c-3.977 2.436-8.948 2.436-13.015.1z" fill="#2F2F7A"/><path d="M90.565 115.84l96.892-55.484v-7.94l-96.892 58z" fill="url(#A)"/><path d="M.452 57.108l.1 6.405 90.023 52.326v-5.413z" fill="url(#B)"/><path d="M86.408 139.205c2.53 1.534 5.694 1.534 8.315 0l88.938-50.883c2.35-1.353 3.796-3.79 3.796-6.496l.1-22.284-96.712 55.664-4.43 23.998z" fill="url(#C)"/><path d="M.542 63.513l.1 19.848c0 3.61 1.988 6.947 5.062 8.84l80.623 47.093c1.808 1.083 4.158-.27 4.158-2.346l.18-21.652L.542 63.513z" fill="url(#D)"/><path d="M90.475 110.607L1.808 59.453c-1.717-.992-1.717-3.518 0-4.51l91.83-52.867c3.344-1.895 7.412-1.895 10.665 0l80.985 46.642a4.15 4.15 0 0 1 0 7.217l-94.813 54.672z" fill="url(#E)"/><path d="M110 96.804l1.988 1.173-.994.54-1.988-1.173z" fill="url(#F)"/><path d="M110.993 98.518v2.436l.994-.54v-2.436z" fill="url(#G)"/><path d="M106.744 98.608l2.08 1.173-.994.632-1.988-1.263z" fill="url(#H)"/><path d="M107.83 100.412v2.346l.994-.54V99.78z" fill="url(#I)"/><path d="M103.49 100.502l1.988 1.173-.994.632-1.988-1.263z" fill="url(#J)"/><path d="M104.485 102.306v2.346l.994-.54v-2.436z" fill="url(#K)"/><path d="M99.423 102.758l2.08 1.173-.994.632-1.988-1.263z" fill="url(#L)"/><path d="M100.507 104.562v2.346l.994-.54v-2.436z" fill="url(#M)"/><path d="M154.106 44.207L80.17 86.79c-.1 0 19.433-36.358 73.935-42.583z" fill="url(#N)"/><path d="M80.08 86.79L40.673 64.054c31.273-42.583 73.935-42.583 73.935-42.583l39.408 22.735c.1 0-53.146 10.826-73.935 42.583z" fill="url(#O)"/><path d="M85.956 39.605a1.67 1.67 0 0 0-.723-.632c-.362-.18-.813-.36-1.265-.45a3.9 3.9 0 0 0-1.446 0 5.69 5.69 0 0 0-1.265.45c-.36.18-.633.45-.813.722s-.18.54 0 .812c.1.27.362.54.723.722.27.18.633.27 1.085.36s.904.18 1.356.18l-.1 1.083c-.723 0-1.446-.1-2.08-.18-.723-.18-1.265-.36-1.717-.632-.633-.36-1.085-.812-1.356-1.263s-.27-.902 0-1.443c.18-.45.633-.902 1.265-1.263s1.356-.632 2.17-.722a10.48 10.48 0 0 1 2.44 0c.813.18 1.537.36 2.26.812a3.85 3.85 0 0 1 1.085.992c.27.36.362.722.362 1.173l-1.898.1c.18-.27.1-.54-.1-.812zm3.977.722l1.446.812-6.508 3.8-1.446-.812zm4.88 4.33c-.27-.27-.542-.54-.813-.632-.27-.18-.542-.27-.723-.27-.27 0-.452 0-.633.1-.27.1-.27.27-.18.45s.27.45.633.812.542.632.723.902.18.54.18.812-.27.54-.723.812-.904.36-1.446.45-1.085 0-1.627-.1-1.085-.36-1.537-.632c-.542-.27-.994-.632-1.265-1.083-.362-.36-.542-.812-.542-1.173l1.808-.36c0 .36.18.722.452 1.083s.542.632.904.812c.27.18.633.27.904.36.27 0 .542 0 .723-.1s.27-.18.27-.36c0-.1-.1-.27-.18-.45s-.27-.36-.542-.54c-.362-.36-.542-.632-.723-.812-.18-.27-.18-.45-.18-.722.1-.27.27-.54.723-.722a4.77 4.77 0 0 1 1.356-.451c.542-.1.994 0 1.537.1s1.085.36 1.537.632a5.8 5.8 0 0 1 1.175.902c.27.36.542.632.633.992l-1.808.36c-.18-.632-.362-.902-.633-1.173zm6.598 3.88a1.67 1.67 0 0 0-.723-.632 5.25 5.25 0 0 0-1.265-.45 3.9 3.9 0 0 0-1.446 0 5.71 5.71 0 0 0-1.265.45c-.36.18-.633.45-.813.722s-.18.54 0 .812c.1.27.362.54.723.722.27.18.633.27 1.085.36s.904.18 1.356.18l-.1 1.083c-.723 0-1.446-.1-2.08-.18s-1.265-.36-1.717-.632c-.633-.36-1.085-.812-1.356-1.263s-.27-.902 0-1.443c.18-.45.633-.902 1.265-1.263s1.356-.632 2.17-.722a10.51 10.51 0 0 1 2.44 0c.813.18 1.537.36 2.26.812a3.85 3.85 0 0 1 1.085.992c.27.36.362.722.362 1.173l-1.898.1c.18-.27.1-.54-.1-.812zm8.407 3.6c.27.45.27.992.1 1.443s-.633.902-1.265 1.263-1.356.632-2.17.722a11.29 11.29 0 0 1-2.53 0c-.813-.18-1.537-.36-2.26-.812-.633-.36-1.085-.812-1.356-1.263s-.27-.992-.1-1.443.633-.902 1.265-1.263 1.356-.632 2.17-.722a10.48 10.48 0 0 1 2.44 0c.813.18 1.537.36 2.26.812.723.27 1.175.722 1.446 1.263zm-3.887-.992c-.452-.1-.994-.1-1.537 0s-.904.27-1.356.45a1.77 1.77 0 0 0-.813.812c-.1.27-.18.54 0 .902.1.27.362.54.723.722s.813.36 1.265.45a3.9 3.9 0 0 0 1.446 0c.542-.1.904-.27 1.356-.45a2.11 2.11 0 0 0 .813-.722c.18-.272.18-.54 0-.812-.1-.27-.362-.54-.723-.722s-.723-.54-1.175-.632zm4.6 79.03v-16.6l2.44-1.804v16.96zm7.23-4.15v-16.6l2.44-1.804v16.96zm7.142-4.06v-16.5l2.44-1.804v16.96zm7.24-4.15v-16.6l2.44-1.804v16.96zm6.87-3.88v-16.6l2.44-1.804v16.96zm7.23-4.24v-16.5l2.44-1.804v16.96zm7.14-3.97v-16.6l2.44-1.804v16.96zm7.23-4.15v-16.6l2.44-1.804v16.96zm7.14-4.33v-16.5l2.53-1.804V95.9zm7.232-4.15v-16.6l2.53-1.804v17.05z" fill="#3C8CE7"/></svg>