<svg xmlns="http://www.w3.org/2000/svg" xmlns:xlink="http://www.w3.org/1999/xlink" width="107" height="170"><defs><linearGradient x1="36.8682068%" y1="48.7776707%" x2="-126.576993%" y2="34.5969769%" id="A"><stop stop-color="#130CB7" offset=".537634%"/><stop stop-color="#285ECD" offset="28.23%"/><stop stop-color="#3AA3DF" offset="53.8%"/><stop stop-color="#47D5ED" offset="75%"/><stop stop-color="#4FF4F5" offset="91.02%"/><stop stop-color="#52FFF8" offset="100%"/></linearGradient><linearGradient x1="0.098115829%" y1="50.0334499%" x2="100.037785%" y2="50.0334499%" id="B"><stop stop-color="#B3FFAB" offset=".537634%"/><stop stop-color="#B1FFAC" offset="1.284804%"/><stop stop-color="#6EFFCC" offset="36.23%"/><stop stop-color="#3CFFE3" offset="65.49%"/><stop stop-color="#1DFFF2" offset="87.6%"/><stop stop-color="#12FFF7" offset="100%"/></linearGradient><linearGradient x1="-63.5277552%" y1="12.2008947%" x2="459.123%" y2="186.510927%" id="C"><stop stop-color="#130CB7" offset=".537634%"/><stop stop-color="#285ECD" offset="28.23%"/><stop stop-color="#3AA3DF" offset="53.8%"/><stop stop-color="#47D5ED" offset="75%"/><stop stop-color="#4FF4F5" offset="91.02%"/><stop stop-color="#52FFF8" offset="100%"/></linearGradient><linearGradient x1="1.07470177%" y1="49.4809263%" x2="437.868495%" y2="49.4809263%" id="D"><stop stop-color="#130CB7" offset=".537634%"/><stop stop-color="#285ECD" offset="28.23%"/><stop stop-color="#3AA3DF" offset="53.8%"/><stop stop-color="#47D5ED" offset="75%"/><stop stop-color="#4FF4F5" offset="91.02%"/><stop stop-color="#52FFF8" offset="100%"/></linearGradient><linearGradient x1="21.3973306%" y1="10.4227267%" x2="88.9940452%" y2="104.165523%" id="E"><stop stop-color="#3C8CE7" offset=".537634%"/><stop stop-color="#3A8FE8" offset="2.956713%"/><stop stop-color="#1BC0F4" offset="47.32%"/><stop stop-color="#07DFFC" offset="81.06%"/><stop stop-color="#00EAFF" offset="100%"/></linearGradient><linearGradient x1="-1.52027027%" y1="50.2573048%" x2="311.859459%" y2="50.2573048%" id="F"><stop stop-color="#B3FFAB" offset=".537634%"/><stop stop-color="#B1FFAC" offset="1.284804%"/><stop stop-color="#6EFFCC" offset="36.23%"/><stop stop-color="#3CFFE3" offset="65.49%"/><stop stop-color="#1DFFF2" offset="87.6%"/><stop stop-color="#12FFF7" offset="100%"/></linearGradient><linearGradient x1="-0.314864865%" y1="50.2194968%" x2="313.066216%" y2="50.2194968%" id="G"><stop stop-color="#B3FFAB" offset=".537634%"/><stop stop-color="#B1FFAC" offset="1.284804%"/><stop stop-color="#6EFFCC" offset="36.23%"/><stop stop-color="#3CFFE3" offset="65.49%"/><stop stop-color="#1DFFF2" offset="87.6%"/><stop stop-color="#12FFF7" offset="100%"/></linearGradient><linearGradient x1="-0.768918919%" y1="50.2247479%" x2="312.612162%" y2="50.2247479%" id="H"><stop stop-color="#B3FFAB" offset=".537634%"/><stop stop-color="#B1FFAC" offset="1.284804%"/><stop stop-color="#6EFFCC" offset="36.23%"/><stop stop-color="#3CFFE3" offset="65.49%"/><stop stop-color="#1DFFF2" offset="87.6%"/><stop stop-color="#12FFF7" offset="100%"/></linearGradient><linearGradient x1="15.3934874%" y1="11.6608272%" x2="80.7703782%" y2="89.6117902%" id="I"><stop stop-color="#3C8CE7" offset=".537634%"/><stop stop-color="#3A8FE8" offset="2.956713%"/><stop stop-color="#1BC0F4" offset="47.32%"/><stop stop-color="#07DFFC" offset="81.06%"/><stop stop-color="#00EAFF" offset="100%"/></linearGradient><linearGradient x1="-0.843055556%" y1="49.8758196%" x2="313.169444%" y2="49.8758196%" id="J"><stop stop-color="#B3FFAB" offset=".537634%"/><stop stop-color="#B1FFAC" offset="1.284804%"/><stop stop-color="#6EFFCC" offset="36.23%"/><stop stop-color="#3CFFE3" offset="65.49%"/><stop stop-color="#1DFFF2" offset="87.6%"/><stop stop-color="#12FFF7" offset="100%"/></linearGradient><linearGradient x1="-1.34583333%" y1="49.8185056%" x2="312.666667%" y2="49.8185056%" id="K"><stop stop-color="#B3FFAB" offset=".537634%"/><stop stop-color="#B1FFAC" offset="1.284804%"/><stop stop-color="#6EFFCC" offset="36.23%"/><stop stop-color="#3CFFE3" offset="65.49%"/><stop stop-color="#1DFFF2" offset="87.6%"/><stop stop-color="#12FFF7" offset="100%"/></linearGradient><linearGradient x1="-0.806944444%" y1="49.5892496%" x2="313.208333%" y2="49.5892496%" id="L"><stop stop-color="#B3FFAB" offset=".537634%"/><stop stop-color="#B1FFAC" offset="1.284804%"/><stop stop-color="#6EFFCC" offset="36.23%"/><stop stop-color="#3CFFE3" offset="65.49%"/><stop stop-color="#1DFFF2" offset="87.6%"/><stop stop-color="#12FFF7" offset="100%"/></linearGradient><path id="M" d="M13.618 102c0 2.136-1.503 4.628-3.272 5.696-1.857 1.068-3.272.178-3.272-1.87 0-2.136 1.503-4.628 3.272-5.696s3.272-.178 3.272 1.87z"/><path id="N" d="M77.995 40.597c0 2.047-1.415 4.54-3.183 5.607s-3.183.178-3.183-1.87 1.415-4.54 3.183-5.607 3.183-.178 3.183 1.87z"/></defs><g fill="none"><path d="M78.034 5.782C78.123-.983 71.58-.894 67.51 1.42L26.39 25.274s-4.952 3.026-5.13 9c-.088 5.963 0 101.733 0 101.733s-.088 8.812 8.843 6.675l44.57-26.257s3.36-4.628 3.272-10.503c-.088-5.785.088-100.13.088-100.13z" fill="url(#A)"/><path d="M78.123 7.61c.088-6.853-5.306-2.937-5.306-2.937l-41.12 23.853s-4.952 3.026-5.13 9c-.088 5.963 0 101.733 0 101.733s-.088 5.963 5.13 2.937l41.208-23.942s5.394-3.293 5.306-9.08L78.123 7.61z" fill="url(#B)"/><path d="M75.735 14.336s.088-6.052-4.687-2.58L34.615 32.938s-4.42 2.67-4.5 7.92 0 82.33 0 82.33-.088 5.25 4.5 2.58l36.52-21.183s4.775-2.848 4.687-8.1c-.088-5.073-.088-82.152-.088-82.152z" fill="url(#C)"/><path d="M56.056 118.532c-1.326-.534-2.918.356-3.626 2.047-.62 1.69-.088 3.47 1.238 4.005s2.918-.356 3.626-2.047.177-3.47-1.238-4.005z" fill="url(#D)"/><path d="M57.125 16.9l-10.258 5.963m-8.842-2.135c0 .623.884 1.157 2.034 1.157 1.06 0 2.034-.534 2.034-1.157s-.884-1.157-2.034-1.157c-1.15.1-2.034.534-2.034 1.157z" fill="#1C5BA5"/><g opacity=".8"><path d="M26.44 45.837l-5.217-3.115" fill="#fff"/><path d="M26.44 45.837v-.98l-5.217-3.026v.98z" fill="#2FB4D3"/></g><g opacity=".8"><path d="M26.44 126.743l-5.217-3.026" fill="#fff"/><path d="M26.44 126.832l.088-.98-5.306-3.026.088.98z" fill="#2FB4D3"/></g><path d="M36.964 70.15L6.102 88.128C2.74 90.086 0 95.337 0 99.876v19.136c0 4.54 2.74 6.586 6.102 4.628l28.828-16.733 8.136 3.47V75.044c0-4.717-2.74-6.853-6.102-4.895z" fill="url(#E)"/><use xlink:href="#M" fill="url(#F)"/><path d="M25.114 94.89c0 2.136-1.503 4.628-3.272 5.696-1.857 1.068-3.272.178-3.272-1.87 0-2.136 1.503-4.628 3.272-5.696 1.857-1.068 3.272-.178 3.272 1.87z" fill="url(#G)"/><use xlink:href="#M" x="22.982" y="-13.34" fill="url(#H)"/><path d="M100.545 13.17L70.48 30.703c-3.272 1.87-5.925 7.03-5.925 11.393v18.602c0 .356 0 .712.088.98h-.088V74.94l9.816-12.016 24.318-14.152 2.83-1.69c3.183-1.87 5.13-5.25 5.13-9V17.53c-.177-4.272-2.83-6.23-6.102-4.36z" fill="url(#I)"/><use xlink:href="#N" fill="url(#J)"/><use xlink:href="#N" x="10.612" y="-6.231" fill="url(#K)"/><use xlink:href="#N" x="22.107" y="-12.461" fill="url(#L)"/><path d="M35.873 168.852l43.684-25.366c2.3-1.335 2.034-3.65-.62-5.162s-6.632-1.69-8.93-.356l-43.684 25.366c-2.3 1.335-2.034 3.65.62 5.162s6.632 1.69 8.93.356z" fill="#33307C"/></g></svg>