<svg xmlns="http://www.w3.org/2000/svg" width="109" height="170"><defs><linearGradient x1="12.2005495%" y1="-2.36208927%" x2="87.7607143%" y2="102.575418%" id="A"><stop stop-color="#130CB7" offset=".537634%"/><stop stop-color="#285ECD" offset="28.23%"/><stop stop-color="#3AA3DF" offset="53.8%"/><stop stop-color="#47D5ED" offset="75%"/><stop stop-color="#4FF4F5" offset="91.02%"/><stop stop-color="#52FFF8" offset="100%"/></linearGradient><linearGradient x1="7.44367166%" y1="49.6413639%" x2="142.749059%" y2="50.7392715%" id="B"><stop stop-color="#3C8CE7" offset=".537634%"/><stop stop-color="#3A8FE8" offset="2.956713%"/><stop stop-color="#1BC0F4" offset="47.32%"/><stop stop-color="#07DFFC" offset="81.06%"/><stop stop-color="#00EAFF" offset="100%"/></linearGradient><linearGradient x1="-65.472644%" y1="-37.6788672%" x2="78.5942604%" y2="71.9191094%" id="C"><stop stop-color="#B3FFAB" offset=".537634%"/><stop stop-color="#B1FFAC" offset="1.284804%"/><stop stop-color="#6EFFCC" offset="36.23%"/><stop stop-color="#3CFFE3" offset="65.49%"/><stop stop-color="#1DFFF2" offset="87.6%"/><stop stop-color="#12FFF7" offset="100%"/></linearGradient><linearGradient x1="69.1383562%" y1="64.570696%" x2="130.632949%" y2="111.641974%" id="D"><stop stop-color="#130CB7" offset=".537634%"/><stop stop-color="#285ECD" offset="28.23%"/><stop stop-color="#3AA3DF" offset="53.8%"/><stop stop-color="#47D5ED" offset="75%"/><stop stop-color="#4FF4F5" offset="91.02%"/><stop stop-color="#52FFF8" offset="100%"/></linearGradient><linearGradient x1="-65.41929%" y1="-37.7017201%" x2="78.7159234%" y2="71.8542876%" id="E"><stop stop-color="#B3FFAB" offset=".537634%"/><stop stop-color="#B1FFAC" offset="1.284804%"/><stop stop-color="#6EFFCC" offset="36.23%"/><stop stop-color="#3CFFE3" offset="65.49%"/><stop stop-color="#1DFFF2" offset="87.6%"/><stop stop-color="#12FFF7" offset="100%"/></linearGradient><linearGradient x1="7.44367166%" y1="49.6685195%" x2="142.749059%" y2="50.766427%" id="F"><stop stop-color="#3C8CE7" offset=".537634%"/><stop stop-color="#3A8FE8" offset="2.956713%"/><stop stop-color="#1BC0F4" offset="47.32%"/><stop stop-color="#07DFFC" offset="81.06%"/><stop stop-color="#00EAFF" offset="100%"/></linearGradient><linearGradient x1="-97.1830196%" y1="-61.9712455%" x2="46.8837576%" y2="47.626952%" id="G"><stop stop-color="#3C8CE7" offset=".537634%"/><stop stop-color="#3A8FE8" offset="2.956713%"/><stop stop-color="#1BC0F4" offset="47.32%"/><stop stop-color="#07DFFC" offset="81.06%"/><stop stop-color="#00EAFF" offset="100%"/></linearGradient><linearGradient x1="50.422323%" y1="101.433421%" x2="49.3964564%" y2="-42.9551276%" id="H"><stop stop-color="#130CB7" offset=".537634%"/><stop stop-color="#285ECD" offset="28.23%"/><stop stop-color="#3AA3DF" offset="53.8%"/><stop stop-color="#47D5ED" offset="75%"/><stop stop-color="#4FF4F5" offset="91.02%"/><stop stop-color="#52FFF8" offset="100%"/></linearGradient><linearGradient x1="47.6104987%" y1="82.8562773%" x2="52.5776903%" y2="-1.29449461%" id="I"><stop stop-color="#7FFFDD" offset="0%"/><stop stop-color="#2E2C6C" stop-opacity="0" offset="100%"/></linearGradient><linearGradient x1="0.24%" y1="49.15%" x2="98.115%" y2="49.15%" id="J"><stop stop-color="#B3FFAB" offset=".537634%"/><stop stop-color="#B1FFAC" offset="1.284804%"/><stop stop-color="#6EFFCC" offset="36.23%"/><stop stop-color="#3CFFE3" offset="65.49%"/><stop stop-color="#1DFFF2" offset="87.6%"/><stop stop-color="#12FFF7" offset="100%"/></linearGradient><linearGradient x1="1.19%" y1="50.37%" x2="99.065%" y2="50.37%" id="K"><stop stop-color="#B3FFAB" offset=".537634%"/><stop stop-color="#B1FFAC" offset="1.284804%"/><stop stop-color="#6EFFCC" offset="36.23%"/><stop stop-color="#3CFFE3" offset="65.49%"/><stop stop-color="#1DFFF2" offset="87.6%"/><stop stop-color="#12FFF7" offset="100%"/></linearGradient><linearGradient x1="0.805%" y1="50.25%" x2="98.6825%" y2="50.25%" id="L"><stop stop-color="#B3FFAB" offset=".537634%"/><stop stop-color="#B1FFAC" offset="1.284804%"/><stop stop-color="#6EFFCC" offset="36.23%"/><stop stop-color="#3CFFE3" offset="65.49%"/><stop stop-color="#1DFFF2" offset="87.6%"/><stop stop-color="#12FFF7" offset="100%"/></linearGradient><linearGradient x1="0.86%" y1="48.8775%" x2="98.735%" y2="48.8775%" id="M"><stop stop-color="#B3FFAB" offset=".537634%"/><stop stop-color="#B1FFAC" offset="1.284804%"/><stop stop-color="#6EFFCC" offset="36.23%"/><stop stop-color="#3CFFE3" offset="65.49%"/><stop stop-color="#1DFFF2" offset="87.6%"/><stop stop-color="#12FFF7" offset="100%"/></linearGradient><linearGradient x1="0.0211428571%" y1="49.9832%" x2="99.9411429%" y2="49.9832%" id="N"><stop stop-color="#B3FFAB" offset=".537634%"/><stop stop-color="#B1FFAC" offset="1.284804%"/><stop stop-color="#6EFFCC" offset="36.23%"/><stop stop-color="#3CFFE3" offset="65.49%"/><stop stop-color="#1DFFF2" offset="87.6%"/><stop stop-color="#12FFF7" offset="100%"/></linearGradient><linearGradient x1="46.0756272%" y1="114.462424%" x2="51.6193548%" y2="20.8617908%" id="O"><stop stop-color="#24E3C6" offset="0%"/><stop stop-color="#fff" stop-opacity="0" offset="100%"/></linearGradient><linearGradient x1="0.192%" y1="49.8984%" x2="100.112571%" y2="49.8984%" id="P"><stop stop-color="#B3FFAB" offset=".537634%"/><stop stop-color="#B1FFAC" offset="1.284804%"/><stop stop-color="#6EFFCC" offset="36.23%"/><stop stop-color="#3CFFE3" offset="65.49%"/><stop stop-color="#1DFFF2" offset="87.6%"/><stop stop-color="#12FFF7" offset="100%"/></linearGradient><linearGradient x1="-6.9498615%" y1="-28.798807%" x2="111.754017%" y2="135.716227%" id="Q"><stop stop-color="#130CB7" offset=".537634%"/><stop stop-color="#285ECD" offset="28.23%"/><stop stop-color="#3AA3DF" offset="53.8%"/><stop stop-color="#47D5ED" offset="75%"/><stop stop-color="#4FF4F5" offset="91.02%"/><stop stop-color="#52FFF8" offset="100%"/></linearGradient><linearGradient x1="-232.928224%" y1="-233.979849%" x2="460.323828%" y2="432.452753%" id="R"><stop stop-color="#B3FFAB" offset=".537634%"/><stop stop-color="#B1FFAC" offset="1.284804%"/><stop stop-color="#6EFFCC" offset="36.23%"/><stop stop-color="#3CFFE3" offset="65.49%"/><stop stop-color="#1DFFF2" offset="87.6%"/><stop stop-color="#12FFF7" offset="100%"/></linearGradient><linearGradient x1="-286.943207%" y1="-216.326451%" x2="296.556047%" y2="255.625974%" id="S"><stop stop-color="#B3FFAB" offset=".537634%"/><stop stop-color="#B1FFAC" offset="1.284804%"/><stop stop-color="#6EFFCC" offset="36.23%"/><stop stop-color="#3CFFE3" offset="65.49%"/><stop stop-color="#1DFFF2" offset="87.6%"/><stop stop-color="#12FFF7" offset="100%"/></linearGradient><linearGradient x1="-202.025321%" y1="-341.139264%" x2="619.069558%" y2="899.559194%" id="T"><stop stop-color="#B3FFAB" offset=".537634%"/><stop stop-color="#B1FFAC" offset="1.284804%"/><stop stop-color="#6EFFCC" offset="36.23%"/><stop stop-color="#3CFFE3" offset="65.49%"/><stop stop-color="#1DFFF2" offset="87.6%"/><stop stop-color="#12FFF7" offset="100%"/></linearGradient><linearGradient x1="-191.458994%" y1="-269.840322%" x2="1083.28183%" y2="1512.68213%" id="U"><stop stop-color="#B3FFAB" offset=".537634%"/><stop stop-color="#B1FFAC" offset="1.284804%"/><stop stop-color="#6EFFCC" offset="36.23%"/><stop stop-color="#3CFFE3" offset="65.49%"/><stop stop-color="#1DFFF2" offset="87.6%"/><stop stop-color="#12FFF7" offset="100%"/></linearGradient><linearGradient x1="-186.100106%" y1="-398.225496%" x2="823.821878%" y2="1539.95092%" id="V"><stop stop-color="#B3FFAB" offset=".537634%"/><stop stop-color="#B1FFAC" offset="1.284804%"/><stop stop-color="#6EFFCC" offset="36.23%"/><stop stop-color="#3CFFE3" offset="65.49%"/><stop stop-color="#1DFFF2" offset="87.6%"/><stop stop-color="#12FFF7" offset="100%"/></linearGradient><linearGradient x1="-329.213504%" y1="-242.851308%" x2="175.830165%" y2="150.127808%" id="W"><stop stop-color="#B3FFAB" offset=".537634%"/><stop stop-color="#B1FFAC" offset="1.284804%"/><stop stop-color="#6EFFCC" offset="36.23%"/><stop stop-color="#3CFFE3" offset="65.49%"/><stop stop-color="#1DFFF2" offset="87.6%"/><stop stop-color="#12FFF7" offset="100%"/></linearGradient><linearGradient x1="31.4714286%" y1="31.3115385%" x2="209.164286%" y2="222.669231%" id="X"><stop stop-color="#B3FFAB" offset=".537634%"/><stop stop-color="#B1FFAC" offset="1.284804%"/><stop stop-color="#6EFFCC" offset="36.23%"/><stop stop-color="#3CFFE3" offset="65.49%"/><stop stop-color="#1DFFF2" offset="87.6%"/><stop stop-color="#12FFF7" offset="100%"/></linearGradient><linearGradient x1="55.9121622%" y1="46.2886364%" x2="122.312162%" y2="102.125%" id="Y"><stop stop-color="#B3FFAB" offset=".537634%"/><stop stop-color="#B1FFAC" offset="1.284804%"/><stop stop-color="#6EFFCC" offset="36.23%"/><stop stop-color="#3CFFE3" offset="65.49%"/><stop stop-color="#1DFFF2" offset="87.6%"/><stop stop-color="#12FFF7" offset="100%"/></linearGradient></defs><path d="M105.924 88.278c-.615 0-1.23-.152-1.846-.457L81.31 76.386c-2.55-1.296-4.57-4.65-4.57-7.547v-12.12c0-1.525.615-2.744 1.582-3.278.88-.457 1.934-.38 3.077.23l22.767 11.435c2.55 1.296 4.57 4.65 4.57 7.547v12.12c0 1.525-.615 2.744-1.582 3.278-.352.152-.79.23-1.23.23zm-1.758-.6c1.055.534 2.022.6 2.813.23.967-.457 1.494-1.6 1.494-3.05v-12.12c0-2.82-2.022-6.175-4.395-7.395L81.31 53.897c-1.055-.534-2.022-.6-2.813-.23-.967.457-1.494 1.6-1.494 3.05v12.12c0 2.82 2.022 6.175 4.395 7.395l22.767 11.435z" fill="url(#A)"/><ellipse fill="#2A2961" transform="matrix(.999985 -.005422 .005422 .999985 -.823313 .192562)" cx="35.103" cy="151.943" rx="34.546" ry="17.229"/><path d="M.527 97.12C.615 92.7 3.956 88.354 10.724 85c13.537-6.785 35.425-6.785 48.874-.076 6.77 3.354 10.11 7.776 10.02 12.197v30.95c.088 4.803-2.9 9.605-10.197 13.265-13.537 6.785-35.425 6.785-48.874.076-7.296-3.66-10.636-8.538-9.933-13.34H.527V97.12z" fill="url(#B)"/><path d="M10.636 109.318c13.45 6.71 35.337 6.71 48.874-.076s13.625-17.686.176-24.395-35.337-6.71-48.874.076c-13.625 6.785-13.625 17.686-.176 24.395z" fill="url(#C)"/><path d="M5.538 69c.088-3.735 2.99-7.547 8.702-10.368 11.603-5.794 30.24-5.794 41.754-.076 5.802 2.897 8.615 6.71 8.615 10.444v26.453c.088 4.117-2.46 8.233-8.702 11.36-11.603 5.794-30.24 5.794-41.754.076-6.24-3.126-9.054-7.318-8.527-11.435h-.088V69z" fill="url(#D)"/><path d="M14.152 79.434c11.515 5.717 30.15 5.717 41.754-.076s11.603-15.094.088-20.888c-11.515-5.717-30.15-5.717-41.754.076s-11.603 15.17-.088 20.888z" fill="url(#E)"/><path d="M.527 57.403c.088-4.422 3.428-8.767 10.197-12.12 13.537-6.785 35.425-6.785 48.874-.076 6.77 3.354 10.11 7.776 10.02 12.197v30.95c.088 4.803-2.9 9.605-10.197 13.265-13.537 6.785-35.425 6.785-48.874.076-7.296-3.66-10.636-8.538-9.933-13.34H.527v-30.95z" fill="url(#F)"/><path d="M10.636 69.677c13.45 6.71 35.337 6.71 48.874-.076s13.625-17.686.176-24.395-35.337-6.71-48.874.076c-13.625 6.71-13.625 17.686-.176 24.395z" fill="url(#G)"/><path d="M46.94 51.457c6.505 3.278 6.505 8.538-.088 11.816s-17.14 3.278-23.646 0-6.505-8.538.088-11.816c6.593-3.202 17.14-3.278 23.646 0z" fill="url(#H)"/><path d="M51.863.38h-33.49v57.022c0 2.135 1.582 4.27 4.835 5.946 6.505 3.278 17.14 3.278 23.646 0 3.252-1.6 4.923-3.735 4.923-5.87V.38h.088z" fill="url(#I)" opacity=".6"/><path d="M63.114 93.005c-.44 0-.8-.305-.8-.686V74.175c0-.38.352-.686.8-.686s.8.305.8.686V92.32c0 .38-.352.686-.8.686zm-5.274 2.972c-.44 0-.8-.305-.8-.686V77.148c0-.38.352-.686.8-.686s.8.305.8.686V95.3c-.088.38-.352.686-.8.686z" fill="#140BB7"/><ellipse fill="url(#J)" cx="45.974" cy="36.287" rx="1.758" ry="1.525"/><ellipse fill="url(#K)" cx="33.403" cy="55.879" rx="1.758" ry="1.525"/><ellipse fill="url(#L)" cx="25.053" cy="40.708" rx="1.758" ry="1.525"/><ellipse fill="url(#M)" cx="37.535" cy="20.964" rx="1.758" ry="1.525"/><path d="M21.36 80.197L9.67 87.21l9.23 4.498-5.626 7.547 11.78-8.233-7.735-3.812z" fill="url(#N)"/><path d="M23.206 63.35v-40.1H47.73v39.64c0-.076-10.373 6.327-24.525.457z" fill="url(#O)" opacity=".6"/><path d="M19.602 117.857l-11.78 7.013 9.23 4.498-5.538 7.547 11.69-8.233-7.648-3.812z" fill="url(#P)"/><path d="M85.266 97.045a2.78 2.78 0 0 1-1.319-.305l-9.933-5.26c-.176-.076-.264-.305-.088-.457a.36.36 0 0 1 .527-.076l9.933 5.26c.527.305 1.23.305 1.846 0s.88-.762.88-1.372v-8.538c0-.152.176-.305.352-.305s.352.152.352.305v8.538c0 .84-.527 1.525-1.32 1.906-.44.152-.88.305-1.23.305z" fill="#358FDA"/><path d="M101.616 89.574L78.85 78.14c-2.46-1.22-4.483-4.574-4.483-7.47v-12.12c0-2.897 2.022-4.193 4.483-2.973l22.767 11.435c2.46 1.22 4.483 4.574 4.483 7.47V86.6c0 2.897-2.022 4.193-4.483 2.973z" fill="url(#Q)"/><path d="M87.903 66.4c1.32.6 2.46 1.372 3.604 2.21v-2.668l-1.67-.915c-.967-.457-1.846-.84-2.725-1.067l.79 2.44z" fill="url(#R)"/><path d="M92.474 69.296c1.494 1.22 2.725 2.516 3.78 3.735l1.494-2.135c-1.494-1.6-3.252-3.126-5.274-4.498v2.897z" fill="url(#S)"/><path d="M83.948 65.18a13.95 13.95 0 0 1 3.077.839l-.703-2.287c-1.143-.23-2.1-.305-3.077-.23l.703 1.677z" fill="url(#T)"/><path d="M79.377 64.722c-1.494.915-2.198 1.982-2.198 1.982.88-.6 1.758-.99 2.725-1.296l-.527-.686z" fill="url(#U)"/><path d="M80.607 65.256c.88-.152 1.67-.23 2.55-.152l-.615-1.525c-.967.152-1.846.457-2.55.84l.615.84z" fill="url(#V)"/><path d="M98.54 71.812l-1.582 2.21c1.143 1.525 1.934 2.897 2.198 3.812l3.868 1.906c-.44-1.906-1.934-4.955-4.483-7.928z" fill="url(#W)"/><ellipse fill="url(#X)" cx="87.288" cy="77.529" rx="1.231" ry="1"/><path d="M86.233 76.996l6.505-5.565-4.395 6.71z" fill="url(#Y)"/></svg>