<svg xmlns="http://www.w3.org/2000/svg" xmlns:xlink="http://www.w3.org/1999/xlink" width="149" height="169"><defs><linearGradient x1="19.7638889%" y1="72.837963%" x2="87.7166667%" y2="21.0648148%" id="A"><stop stop-color="#130CB7" offset=".537634%"/><stop stop-color="#285ECD" offset="28.23%"/><stop stop-color="#3AA3DF" offset="53.8%"/><stop stop-color="#47D5ED" offset="75%"/><stop stop-color="#4FF4F5" offset="91.02%"/><stop stop-color="#52FFF8" offset="100%"/></linearGradient><linearGradient x1="110.370865%" y1="22.5371092%" x2="20.143609%" y2="62.051184%" id="B"><stop stop-color="#130CB7" offset=".537634%"/><stop stop-color="#285ECD" offset="28.23%"/><stop stop-color="#3AA3DF" offset="53.8%"/><stop stop-color="#47D5ED" offset="75%"/><stop stop-color="#4FF4F5" offset="91.02%"/><stop stop-color="#52FFF8" offset="100%"/></linearGradient><linearGradient x1="-0.0659791782%" y1="50.0128493%" x2="99.9834567%" y2="50.0128493%" id="C"><stop stop-color="#B3FFAB" offset=".537634%"/><stop stop-color="#B1FFAC" offset="1.284804%"/><stop stop-color="#6EFFCC" offset="36.23%"/><stop stop-color="#3CFFE3" offset="65.49%"/><stop stop-color="#1DFFF2" offset="87.6%"/><stop stop-color="#12FFF7" offset="100%"/></linearGradient><linearGradient x1="-36.7509302%" y1="108.124577%" x2="101.646744%" y2="15.2536978%" id="D"><stop stop-color="#130CB7" offset=".537634%"/><stop stop-color="#285ECD" offset="28.23%"/><stop stop-color="#3AA3DF" offset="53.8%"/><stop stop-color="#47D5ED" offset="75%"/><stop stop-color="#4FF4F5" offset="91.02%"/><stop stop-color="#52FFF8" offset="100%"/></linearGradient><linearGradient x1="88.4498364%" y1="30.6723736%" x2="-11.6593334%" y2="80.8589831%" id="E"><stop stop-color="#B3FFAB" offset=".537634%"/><stop stop-color="#B1FFAC" offset="1.284804%"/><stop stop-color="#6EFFCC" offset="36.23%"/><stop stop-color="#3CFFE3" offset="65.49%"/><stop stop-color="#1DFFF2" offset="87.6%"/><stop stop-color="#12FFF7" offset="100%"/></linearGradient><linearGradient x1="-96.6281565%" y1="8.92109194%" x2="183.606406%" y2="87.524231%" id="F"><stop stop-color="#3C8CE7" offset=".537634%"/><stop stop-color="#3A8FE8" offset="2.956713%"/><stop stop-color="#1BC0F4" offset="47.32%"/><stop stop-color="#07DFFC" offset="81.06%"/><stop stop-color="#00EAFF" offset="100%"/></linearGradient><linearGradient x1="-0.146923093%" y1="50.0847899%" x2="99.9025128%" y2="50.0847899%" id="G"><stop stop-color="#B3FFAB" offset=".537634%"/><stop stop-color="#B1FFAC" offset="1.284804%"/><stop stop-color="#6EFFCC" offset="36.23%"/><stop stop-color="#3CFFE3" offset="65.49%"/><stop stop-color="#1DFFF2" offset="87.6%"/><stop stop-color="#12FFF7" offset="100%"/></linearGradient><linearGradient x1="-12.3739535%" y1="82.2712132%" x2="109.973256%" y2="18.7684328%" id="H"><stop stop-color="#130CB7" offset=".537634%"/><stop stop-color="#285ECD" offset="28.23%"/><stop stop-color="#3AA3DF" offset="53.8%"/><stop stop-color="#47D5ED" offset="75%"/><stop stop-color="#4FF4F5" offset="91.02%"/><stop stop-color="#52FFF8" offset="100%"/></linearGradient><linearGradient x1="100.510881%" y1="36.9814777%" x2="-25.0160622%" y2="69.5811703%" id="I"><stop stop-color="#B3FFAB" offset=".537634%"/><stop stop-color="#B1FFAC" offset="1.284804%"/><stop stop-color="#6EFFCC" offset="36.23%"/><stop stop-color="#3CFFE3" offset="65.49%"/><stop stop-color="#1DFFF2" offset="87.6%"/><stop stop-color="#12FFF7" offset="100%"/></linearGradient><linearGradient x1="30.1516213%" y1="32.4972178%" x2="89.1766537%" y2="91.3429215%" id="J"><stop stop-color="#130CB7" offset=".537634%"/><stop stop-color="#285ECD" offset="28.23%"/><stop stop-color="#3AA3DF" offset="53.8%"/><stop stop-color="#47D5ED" offset="75%"/><stop stop-color="#4FF4F5" offset="91.02%"/><stop stop-color="#52FFF8" offset="100%"/></linearGradient><linearGradient x1="20.3663141%" y1="47.2900314%" x2="178.432566%" y2="56.0523731%" id="K"><stop stop-color="#130CB7" offset=".537634%"/><stop stop-color="#285ECD" offset="28.23%"/><stop stop-color="#3AA3DF" offset="53.8%"/><stop stop-color="#47D5ED" offset="75%"/><stop stop-color="#4FF4F5" offset="91.02%"/><stop stop-color="#52FFF8" offset="100%"/></linearGradient><linearGradient x1="-12.7337963%" y1="49.9467593%" x2="193.930093%" y2="49.9467593%" id="L"><stop stop-color="#130CB7" offset=".537634%"/><stop stop-color="#285ECD" offset="28.23%"/><stop stop-color="#3AA3DF" offset="53.8%"/><stop stop-color="#47D5ED" offset="75%"/><stop stop-color="#4FF4F5" offset="91.02%"/><stop stop-color="#52FFF8" offset="100%"/></linearGradient><linearGradient x1="0.0311372698%" y1="49.9627049%" x2="99.9589077%" y2="49.9627049%" id="M"><stop stop-color="#3C8CE7" offset=".537634%"/><stop stop-color="#3A8FE8" offset="2.956713%"/><stop stop-color="#1BC0F4" offset="47.32%"/><stop stop-color="#07DFFC" offset="81.06%"/><stop stop-color="#00EAFF" offset="100%"/></linearGradient><linearGradient x1="70.9056995%" y1="37.6192603%" x2="-49.0248705%" y2="108.32941%" id="N"><stop stop-color="#130CB7" offset=".537634%"/><stop stop-color="#285ECD" offset="28.23%"/><stop stop-color="#3AA3DF" offset="53.8%"/><stop stop-color="#47D5ED" offset="75%"/><stop stop-color="#4FF4F5" offset="91.02%"/><stop stop-color="#52FFF8" offset="100%"/></linearGradient><linearGradient x1="-62.955%" y1="133.840107%" x2="38.5357143%" y2="58.4952618%" id="O"><stop stop-color="#130CB7" offset=".537634%"/><stop stop-color="#285ECD" offset="28.23%"/><stop stop-color="#3AA3DF" offset="53.8%"/><stop stop-color="#47D5ED" offset="75%"/><stop stop-color="#4FF4F5" offset="91.02%"/><stop stop-color="#52FFF8" offset="100%"/></linearGradient><linearGradient x1="21.7311566%" y1="10.3242573%" x2="89.3606319%" y2="104.183601%" id="P"><stop stop-color="#3C8CE7" offset=".537634%"/><stop stop-color="#3A8FE8" offset="2.956713%"/><stop stop-color="#1BC0F4" offset="47.32%"/><stop stop-color="#07DFFC" offset="81.06%"/><stop stop-color="#00EAFF" offset="100%"/></linearGradient><linearGradient x1="0.785294118%" y1="49.5080893%" x2="306.969118%" y2="49.5080893%" id="Q"><stop stop-color="#B3FFAB" offset=".537634%"/><stop stop-color="#B1FFAC" offset="1.284804%"/><stop stop-color="#6EFFCC" offset="36.23%"/><stop stop-color="#3CFFE3" offset="65.49%"/><stop stop-color="#1DFFF2" offset="87.6%"/><stop stop-color="#12FFF7" offset="100%"/></linearGradient><linearGradient x1="1.69852941%" y1="49.5554201%" x2="307.882353%" y2="49.5554201%" id="R"><stop stop-color="#B3FFAB" offset=".537634%"/><stop stop-color="#B1FFAC" offset="1.284804%"/><stop stop-color="#6EFFCC" offset="36.23%"/><stop stop-color="#3CFFE3" offset="65.49%"/><stop stop-color="#1DFFF2" offset="87.6%"/><stop stop-color="#12FFF7" offset="100%"/></linearGradient><linearGradient x1="2.15735294%" y1="49.7466412%" x2="308.341176%" y2="49.7466412%" id="S"><stop stop-color="#B3FFAB" offset=".537634%"/><stop stop-color="#B1FFAC" offset="1.284804%"/><stop stop-color="#6EFFCC" offset="36.23%"/><stop stop-color="#3CFFE3" offset="65.49%"/><stop stop-color="#1DFFF2" offset="87.6%"/><stop stop-color="#12FFF7" offset="100%"/></linearGradient><path id="T" d="M12.167 52.8c0 1.9-1.322 4.25-2.998 5.245s-2.998.18-2.998-1.718 1.322-4.25 2.998-5.245 2.998-.27 2.998 1.718z"/></defs><ellipse fill="#212149" transform="matrix(.999985 -.005422 .005422 .999985 -.780903 .511828)" cx="94.008" cy="144.281" rx="41.879" ry="24.687"/><ellipse fill="url(#A)" cx="127.664" cy="131.84" rx="9.522" ry="9.766"/><path d="M134.182 122.41c-.44 0-.793-.1-1.146-.452-.882-.633-1.058-1.9-.353-2.803 8.817-11.755 3.615-31.468 3.615-31.65-.264-1.085.353-2.17 1.322-2.44 1.058-.27 2.116.362 2.38 1.356.264.904 5.73 21.793-4.232 35.176-.44.543-1.058.814-1.587.814z" fill="#1E36C2"/><path d="M83.56 111.38c0 12.298-15.253 20.436-16.575 19.713-10.756-5.606-31.387-35.085-27.772-46.84.44-1.447 14.9-12.66 25.392-6.42S83.56 99.082 83.56 111.38z" fill="url(#B)"/><path d="M82.678 112.284c0 12.298-15.253 20.436-16.575 19.713-10.756-5.606-31.387-35.085-27.772-46.84.44-1.447 14.9-12.66 25.392-6.42 10.492 6.15 18.956 21.16 18.956 33.548z" fill="url(#C)"/><path d="M70.532 120.28c0 12.298-8.464 17.27-18.956 11.122-10.492-6.24-18.956-21.25-18.956-33.548s8.464-17.27 18.956-11.122c10.404 6.24 18.956 21.25 18.956 33.548z" fill="url(#D)"/><path d="M65.596 115.655c.088 8.5-5.82 11.846-13.225 7.505-7.406-4.43-13.49-14.83-13.578-23.33s5.82-11.846 13.225-7.505c7.318 4.43 13.4 14.83 13.578 23.33z" fill="url(#E)"/><path d="M63.833 116.56c.088 8.5-5.82 11.846-13.225 7.505-7.406-4.43-13.49-14.83-13.578-23.33s5.82-11.846 13.225-7.505c7.406 4.43 13.49 14.83 13.578 23.33z" fill="url(#F)"/><path d="M148.802 73.4c0 12.298-15.253 20.436-16.575 19.713-10.756-5.606-31.387-35.085-27.772-46.84.44-1.447 14.9-12.66 25.392-6.42 10.404 6.24 18.956 21.25 18.956 33.548z" fill="url(#G)"/><path d="M136.657 80.492c0 12.298-8.464 17.27-18.956 11.122-10.492-6.24-18.956-21.25-18.956-33.548s8.464-17.27 18.956-11.122 18.956 21.16 18.956 33.548z" fill="url(#H)"/><path d="M134.54 80.408c0 11.032-7.582 15.463-17.016 9.947-9.434-5.606-17.016-18.99-17.016-30.112 0-11.032 7.582-15.463 17.016-9.947 9.346 5.606 17.016 19.08 17.016 30.112z" fill="url(#I)"/><path d="M54.3 83.612l-7.582-2.984v-17.18S50.254 25.74 82.082 4.76c0 0 19.485-11.936 32.62 1.99 0 0-26.362 3.888-35.883 14.65-20.102 22.787-24.5 62.213-24.5 62.213z" fill="url(#J)"/><path d="M119.552 45.806l-7.494-2.803s4.232-28.032-8.023-30.926c0 0 6.7-3.255 9.08-1.718s10.58 13.564 6.436 35.447z" fill="url(#K)"/><ellipse fill="url(#L)" cx="128.545" cy="130.936" rx="9.522" ry="9.766"/><path d="M55.042 84.242s-6.79-45.574 37.03-74.782c0 0 21.69-12.93 32.27 7.505 0 0 3.174 5.968 2.38 25.048l-6.877 4.16v-14.65s-2.38-28.936-25.92-15.734C71.617 28.27 61.4 51.056 61.655 80.354l-6.612 3.888z" fill="url(#M)"/><path d="M132.777 81.312c0 11.032-7.582 15.553-17.016 9.947S98.745 72.27 98.745 61.148c0-11.032 7.582-15.463 17.016-9.947 9.434 5.606 17.016 19.08 17.016 30.112z" fill="url(#N)"/><path d="M128.722 78.666c0 8.048-5.554 11.213-12.343 7.234-6.79-4.07-12.343-13.745-12.343-21.793s5.554-11.213 12.343-7.234c6.79 4.07 12.343 13.835 12.343 21.793z" fill="url(#O)"/><ellipse fill="#3799DC" cx="132.601" cy="128.766" rx="2.998" ry="3.074"/><path d="M33.15 24.193L5.466 40.56C2.47 42.37 0 47.162 0 51.23v17.452c0 4.16 2.47 5.968 5.466 4.25L31.3 57.65l7.23 3.165V28.534c.088-4.25-2.292-6.15-5.378-4.34z" fill="url(#P)"/><use xlink:href="#T" fill="url(#Q)"/><use xlink:href="#T" x="10.58" y="-6.33" fill="url(#R)"/><path d="M32.445 41.028c0 1.9-1.322 4.25-2.998 5.245s-2.998.18-2.998-1.718 1.322-4.25 2.998-5.245 2.998-.18 2.998 1.718z" fill="url(#S)"/></svg>