<svg xmlns="http://www.w3.org/2000/svg" width="150" height="166" viewBox="0 0 150 166"><defs><linearGradient x1="194.040602%" y1="10.8574468%" x2="-110.019646%" y2="91.7617021%" id="A"><stop stop-color="#B3FFAB" offset="1%"/><stop stop-color="#B1FFAC" offset="1%"/><stop stop-color="#6EFFCC" offset="36%"/><stop stop-color="#3CFFE3" offset="65%"/><stop stop-color="#1DFFF2" offset="88%"/><stop stop-color="#12FFF7" offset="100%"/></linearGradient><linearGradient x1="261.386139%" y1="137.360595%" x2="157.425743%" y2="94.4237918%" id="B"><stop stop-color="#B3FFAB" offset="1%"/><stop stop-color="#B1FFAC" offset="1%"/><stop stop-color="#6EFFCC" offset="36%"/><stop stop-color="#3CFFE3" offset="65%"/><stop stop-color="#1DFFF2" offset="88%"/><stop stop-color="#12FFF7" offset="100%"/></linearGradient><linearGradient x1="-87.1811642%" y1="10.9360756%" x2="202.9431%" y2="91.7309616%" id="C"><stop stop-color="#B3FFAB" offset="1%"/><stop stop-color="#B1FFAC" offset="1%"/><stop stop-color="#6EFFCC" offset="36%"/><stop stop-color="#3CFFE3" offset="65%"/><stop stop-color="#1DFFF2" offset="88%"/><stop stop-color="#12FFF7" offset="100%"/></linearGradient><linearGradient x1="-37.1747212%" y1="-161.138614%" x2="5.76208178%" y2="-57.4257426%" id="D"><stop stop-color="#B3FFAB" offset="1%"/><stop stop-color="#B1FFAC" offset="1%"/><stop stop-color="#6EFFCC" offset="36%"/><stop stop-color="#3CFFE3" offset="65%"/><stop stop-color="#1DFFF2" offset="88%"/><stop stop-color="#12FFF7" offset="100%"/></linearGradient><linearGradient x1="-93.9136126%" y1="10.8399123%" x2="209.947644%" y2="91.7657949%" id="E"><stop stop-color="#B3FFAB" offset="1%"/><stop stop-color="#B1FFAC" offset="1%"/><stop stop-color="#6EFFCC" offset="36%"/><stop stop-color="#3CFFE3" offset="65%"/><stop stop-color="#1DFFF2" offset="88%"/><stop stop-color="#12FFF7" offset="100%"/></linearGradient><linearGradient x1="-37.3605948%" y1="-161.386139%" x2="5.57620818%" y2="-57.6732673%" id="F"><stop stop-color="#B3FFAB" offset="1%"/><stop stop-color="#B1FFAC" offset="1%"/><stop stop-color="#6EFFCC" offset="36%"/><stop stop-color="#3CFFE3" offset="65%"/><stop stop-color="#1DFFF2" offset="88%"/><stop stop-color="#12FFF7" offset="100%"/></linearGradient><linearGradient x1="129.950579%" y1="-14.9525822%" x2="-27.9506975%" y2="126.624899%" id="G"><stop stop-color="#00EAFF" offset="0%"/><stop stop-color="#07DFFC" offset="19%"/><stop stop-color="#1BC0F4" offset="53%"/><stop stop-color="#3A8FE8" offset="97%"/><stop stop-color="#3C8CE7" offset="99%"/></linearGradient><linearGradient x1="40.350488%" y1="27.4215322%" x2="116.515084%" y2="175.919676%" id="H"><stop stop-color="#B3FFAB" offset="1%"/><stop stop-color="#B1FFAC" offset="1%"/><stop stop-color="#6EFFCC" offset="36%"/><stop stop-color="#3CFFE3" offset="65%"/><stop stop-color="#1DFFF2" offset="88%"/><stop stop-color="#12FFF7" offset="100%"/></linearGradient><linearGradient x1="11.4024461%" y1="13.5632138%" x2="84.1357264%" y2="82.0047535%" id="I"><stop stop-color="#00EAFF" offset="0%"/><stop stop-color="#07DFFC" offset="19%"/><stop stop-color="#1BC0F4" offset="53%"/><stop stop-color="#3A8FE8" offset="97%"/><stop stop-color="#3C8CE7" offset="99%"/></linearGradient><linearGradient x1="52.1034483%" y1="-333.663333%" x2="95.816092%" y2="57.3733333%" id="J"><stop stop-color="#00EAFF" offset="0%"/><stop stop-color="#07DFFC" offset="19%"/><stop stop-color="#1BC0F4" offset="53%"/><stop stop-color="#3A8FE8" offset="97%"/><stop stop-color="#3C8CE7" offset="99%"/></linearGradient><linearGradient x1="53.2528736%" y1="-333.663333%" x2="96.9655172%" y2="57.3733333%" id="K"><stop stop-color="#00EAFF" offset="0%"/><stop stop-color="#07DFFC" offset="19%"/><stop stop-color="#1BC0F4" offset="53%"/><stop stop-color="#3A8FE8" offset="97%"/><stop stop-color="#3C8CE7" offset="99%"/></linearGradient><linearGradient x1="54.4022989%" y1="-333.33%" x2="98.1149425%" y2="57.7066667%" id="L"><stop stop-color="#00EAFF" offset="0%"/><stop stop-color="#07DFFC" offset="19%"/><stop stop-color="#1BC0F4" offset="53%"/><stop stop-color="#3A8FE8" offset="97%"/><stop stop-color="#3C8CE7" offset="99%"/></linearGradient><linearGradient x1="56.1264368%" y1="-332.996667%" x2="99.8390805%" y2="58.04%" id="M"><stop stop-color="#00EAFF" offset="0%"/><stop stop-color="#07DFFC" offset="19%"/><stop stop-color="#1BC0F4" offset="53%"/><stop stop-color="#3A8FE8" offset="97%"/><stop stop-color="#3C8CE7" offset="99%"/></linearGradient><linearGradient x1="57.2758621%" y1="-332.996667%" x2="100.988506%" y2="58.04%" id="N"><stop stop-color="#00EAFF" offset="0%"/><stop stop-color="#07DFFC" offset="19%"/><stop stop-color="#1BC0F4" offset="53%"/><stop stop-color="#3A8FE8" offset="97%"/><stop stop-color="#3C8CE7" offset="99%"/></linearGradient><linearGradient x1="47.0211834%" y1="-2.25206869%" x2="53.1384667%" y2="104.294405%" id="O"><stop stop-color="#B3FFAB" offset="1%"/><stop stop-color="#B1FFAC" offset="1%"/><stop stop-color="#6EFFCC" offset="36%"/><stop stop-color="#3CFFE3" offset="65%"/><stop stop-color="#1DFFF2" offset="88%"/><stop stop-color="#12FFF7" offset="100%"/></linearGradient><linearGradient x1="253.602564%" y1="-36.9888476%" x2="149.948718%" y2="5.76208178%" id="P"><stop stop-color="#B3FFAB" offset="1%"/><stop stop-color="#B1FFAC" offset="1%"/><stop stop-color="#6EFFCC" offset="36%"/><stop stop-color="#3CFFE3" offset="65%"/><stop stop-color="#1DFFF2" offset="88%"/><stop stop-color="#12FFF7" offset="100%"/></linearGradient><linearGradient x1="32.6451613%" y1="-2.05278592%" x2="98.0645161%" y2="133.431085%" id="Q"><stop stop-color="#B3FFAB" offset="1%"/><stop stop-color="#B1FFAC" offset="1%"/><stop stop-color="#6EFFCC" offset="36%"/><stop stop-color="#3CFFE3" offset="65%"/><stop stop-color="#1DFFF2" offset="88%"/><stop stop-color="#12FFF7" offset="100%"/></linearGradient></defs><g fill="none"><g fill-rule="nonzero"><path d="M25.537 5.464l5.06 76.464s1.313 2.888 6.336 0L29.32 6.476l-3.784-1.012z" fill="url(#A)"/><ellipse fill="url(#B)" transform="matrix(.463141 -.886284 .886284 .463141 9.45118 27.484167)" cx="27.412" cy="5.941" rx="1.507" ry="2.002"/><path d="M125.373 132.956L72.68 163.313c-4.664 2.687-12.187 2.754-18.2-.744L4.82 133.99c-5.634-2.62-5.97-7.794-1.306-10.48l52.7-30.386c4.672-2.687 12.82-2.345 18.21.744l49.65 28.6c5.388 3.112 5.978 7.8 1.3 10.49z" fill="#2F2F7A"/><path d="M89.79 1.89l-5.075 73.114s-1.313 2.888-6.336 0l7.627-72.102L89.79 1.89z" fill="url(#C)"/><ellipse fill="url(#D)" transform="matrix(.886284 -.463141 .463141 .886284 8.898542 40.982402)" cx="87.906" cy="2.37" rx="2.007" ry="1.504"/><path d="M120.993 16.377l-5.067 76.45s-1.32 2.896-6.336 0l7.627-75.452 3.776-.997z" fill="url(#E)"/><ellipse fill="url(#F)" transform="matrix(.886284 -.463141 .463141 .886284 5.742236 57.083829)" cx="119.117" cy="16.848" rx="2.007" ry="1.504"/><path d="M56.134 141.22s8.493 2.136 16.142-.588c4.478-1.593 49.015-27.93 50.448-29.098 4.478-3.662 5.79-12.134 5.552-15.104-.194-2.538-64.254 34.428-64.254 34.428l-7.888 10.362z" fill="url(#G)"/><path d="M0 97.106c.76 6.368 3.567 12.32 8 16.965 5.73 5.82 44.403 27.148 48.134 27.148 7.888 0 11.15-10.347 11.15-10.347L0 97.106z" fill="url(#H)"/><path d="M125.104 101.982l-52.716 30.35c-4.664 2.687-12.187 2.762-18.21-.744L4.545 102.98c-5.642-2.62-5.97-7.794-1.306-10.48l52.73-30.356c4.664-2.687 12.813-2.345 18.2.744l49.657 28.592c5.358 3.12 5.94 7.81 1.276 10.503z" fill="url(#I)"/><ellipse fill="url(#J)" transform="matrix(.863307 -.504678 .504678 .863307 -57.163833 30.645444)" cx="27.991" cy="120.849" rx="1" ry="1.117"/><ellipse fill="url(#K)" transform="matrix(.863307 -.504678 .504678 .863307 -57.658724 32.529836)" cx="31.222" cy="122.705" rx="1" ry="1.117"/><ellipse fill="url(#L)" transform="matrix(.863307 -.504678 .504678 .863307 -58.157373 34.415245)" cx="34.453" cy="124.568" rx="1" ry="1.117"/><ellipse fill="url(#M)" transform="matrix(.863307 -.504678 .504678 .863307 -58.656021 36.300655)" cx="37.684" cy="126.431" rx="1" ry="1.117"/><ellipse fill="url(#N)" transform="matrix(.863307 -.504678 .504678 .863307 -59.15467 38.186064)" cx="40.915" cy="128.295" rx="1" ry="1.117"/></g><path d="M75.32 128.3s-11.194-1.84-21.82 0m35.1-7.445s-24.746-1.84-48.276 0m58.93-7.455s-36.567-1.84-71.276 0m82.798-7.443s-48.873-1.84-95.336 0m103.045-7.444s-58.4-1.84-113.94 0m112.62-7.443s-54.328-1.84-105.97 0m89.693-7.445s-40.836-1.84-79.664 0M88.6 76.18s-26.694-1.84-52.067 0m38.787-7.443s-11.194-1.84-21.82 0" stroke-width=".745" stroke="#3C8CE7"/><g fill-rule="nonzero"><path d="M149.515 58.554l-38.77 65.834s-1.65 2.457-7.022-1.444l42.045-65.782 3.746 1.392z" fill="url(#O)"/><ellipse fill="url(#P)" transform="matrix(.316974 -.948434 .948434 .316974 46.041588 179.516902)" cx="147.657" cy="57.792" rx="1.164" ry="2.002"/><path d="M103.73 122.944l-2.836-2.1c.06-1.32.884-2.483 2.112-2.978l3.672.454-2.948 4.623z" fill="url(#Q)"/></g></g></svg>