<svg xmlns="http://www.w3.org/2000/svg" width="151" height="166" viewBox="0 0 150 166"><defs><linearGradient x1="0%" y1="49.9905285%" x2="100%" y2="49.9905285%" id="A"><stop stop-color="#00EAFF" offset="0%"/><stop stop-color="#07DFFC" offset="19%"/><stop stop-color="#1BC0F4" offset="53%"/><stop stop-color="#3A8FE8" offset="97%"/><stop stop-color="#3C8CE7" offset="99%"/></linearGradient><linearGradient x1="0%" y1="50%" x2="100%" y2="50%" id="B"><stop stop-color="#00EAFF" offset="0%"/><stop stop-color="#07DFFC" offset="19%"/><stop stop-color="#1BC0F4" offset="53%"/><stop stop-color="#3A8FE8" offset="97%"/><stop stop-color="#3C8CE7" offset="99%"/></linearGradient><linearGradient x1="-0.0687626089%" y1="50.04095%" x2="100.014501%" y2="50.04095%" id="C"><stop stop-color="#B3FFAB" offset="1%"/><stop stop-color="#B1FFAC" offset="2%"/><stop stop-color="#62FFD1" offset="42%"/><stop stop-color="#43FFE0" offset="61%"/><stop stop-color="#3CFFE3" offset="65%"/><stop stop-color="#1DFFF2" offset="88%"/><stop stop-color="#12FFF7" offset="100%"/></linearGradient><linearGradient x1="0%" y1="50.0094715%" x2="100%" y2="50.0094715%" id="D"><stop stop-color="#00EAFF" offset="0%"/><stop stop-color="#07DFFC" offset="19%"/><stop stop-color="#1BC0F4" offset="53%"/><stop stop-color="#3A8FE8" offset="97%"/><stop stop-color="#3C8CE7" offset="99%"/></linearGradient><linearGradient x1="-0.0691321131%" y1="50.1121147%" x2="100.551941%" y2="50.1121147%" id="E"><stop stop-color="#B3FFAB" offset="1%"/><stop stop-color="#B1FFAC" offset="2%"/><stop stop-color="#62FFD1" offset="42%"/><stop stop-color="#43FFE0" offset="61%"/><stop stop-color="#3CFFE3" offset="65%"/><stop stop-color="#1DFFF2" offset="88%"/><stop stop-color="#12FFF7" offset="100%"/></linearGradient><linearGradient x1="0%" y1="49.9908609%" x2="100%" y2="49.9908609%" id="F"><stop stop-color="#00EAFF" offset="0%"/><stop stop-color="#07DFFC" offset="19%"/><stop stop-color="#1BC0F4" offset="53%"/><stop stop-color="#3A8FE8" offset="97%"/><stop stop-color="#3C8CE7" offset="99%"/></linearGradient><linearGradient x1="-0.0687626089%" y1="50.1594528%" x2="100.014501%" y2="50.1594528%" id="G"><stop stop-color="#B3FFAB" offset="1%"/><stop stop-color="#B1FFAC" offset="2%"/><stop stop-color="#62FFD1" offset="42%"/><stop stop-color="#43FFE0" offset="61%"/><stop stop-color="#3CFFE3" offset="65%"/><stop stop-color="#1DFFF2" offset="88%"/><stop stop-color="#12FFF7" offset="100%"/></linearGradient><linearGradient x1="0%" y1="49.9925317%" x2="100%" y2="49.9925317%" id="H"><stop stop-color="#00EAFF" offset="0%"/><stop stop-color="#07DFFC" offset="19%"/><stop stop-color="#1BC0F4" offset="53%"/><stop stop-color="#3A8FE8" offset="97%"/><stop stop-color="#3C8CE7" offset="99%"/></linearGradient><linearGradient x1="-0.602447663%" y1="49.8548493%" x2="99.3472607%" y2="49.8548493%" id="I"><stop stop-color="#B3FFAB" offset="1%"/><stop stop-color="#B1FFAC" offset="2%"/><stop stop-color="#62FFD1" offset="42%"/><stop stop-color="#43FFE0" offset="61%"/><stop stop-color="#3CFFE3" offset="65%"/><stop stop-color="#1DFFF2" offset="88%"/><stop stop-color="#12FFF7" offset="100%"/></linearGradient><linearGradient x1="10.9774008%" y1="13.6181207%" x2="83.9330807%" y2="81.0863943%" id="J"><stop stop-color="#00EAFF" offset="0%"/><stop stop-color="#07DFFC" offset="19%"/><stop stop-color="#1BC0F4" offset="53%"/><stop stop-color="#3A8FE8" offset="97%"/><stop stop-color="#3C8CE7" offset="99%"/></linearGradient><linearGradient x1="11.4085123%" y1="13.5574452%" x2="84.1433709%" y2="82.0035526%" id="K"><stop stop-color="#B3FFAB" offset="1%"/><stop stop-color="#B1FFAC" offset="1%"/><stop stop-color="#6EFFCC" offset="36%"/><stop stop-color="#3CFFE3" offset="65%"/><stop stop-color="#1DFFF2" offset="88%"/><stop stop-color="#12FFF7" offset="100%"/></linearGradient><linearGradient x1="11.4035044%" y1="13.5574452%" x2="84.1376973%" y2="82.0035526%" id="L"><stop stop-color="#00EAFF" offset="0%"/><stop stop-color="#07DFFC" offset="19%"/><stop stop-color="#1BC0F4" offset="53%"/><stop stop-color="#3A8FE8" offset="97%"/><stop stop-color="#3C8CE7" offset="99%"/></linearGradient><linearGradient x1="74.2525085%" y1="67.346584%" x2="157.289694%" y2="145.361437%" id="M"><stop stop-color="#00EAFF" offset="0%"/><stop stop-color="#07DFFC" offset="19%"/><stop stop-color="#1BC0F4" offset="53%"/><stop stop-color="#3A8FE8" offset="97%"/><stop stop-color="#3C8CE7" offset="99%"/></linearGradient><linearGradient x1="120.279001%" y1="25.0931061%" x2="257.071558%" y2="-22.9900336%" id="N"><stop stop-color="#B3FFAB" offset="1%"/><stop stop-color="#B1FFAC" offset="2%"/><stop stop-color="#62FFD1" offset="42%"/><stop stop-color="#43FFE0" offset="61%"/><stop stop-color="#3CFFE3" offset="65%"/><stop stop-color="#1DFFF2" offset="88%"/><stop stop-color="#12FFF7" offset="100%"/></linearGradient><linearGradient x1="85.5276182%" y1="-19.6822595%" x2="-43.3587489%" y2="225.242718%" id="O"><stop stop-color="#fff" offset="1%"/><stop stop-color="#F5FEFF" stop-opacity=".96" offset="9%"/><stop stop-color="#D8FCFF" stop-opacity=".85" offset="24%"/><stop stop-color="#ABF8FF" stop-opacity=".67" offset="43%"/><stop stop-color="#6CF3FF" stop-opacity=".42" offset="66%"/><stop stop-color="#1CECFF" stop-opacity=".1" offset="92%"/><stop stop-color="#00EAFF" stop-opacity="0" offset="100%"/></linearGradient><linearGradient x1="231.752941%" y1="-122.567568%" x2="160.870588%" y2="-51.7331081%" id="P"><stop stop-color="#00EAFF" offset="0%"/><stop stop-color="#07DFFC" offset="19%"/><stop stop-color="#1BC0F4" offset="53%"/><stop stop-color="#3A8FE8" offset="97%"/><stop stop-color="#3C8CE7" offset="99%"/></linearGradient><linearGradient x1="230.976471%" y1="-122.155405%" x2="159.8%" y2="-51.027027%" id="Q"><stop stop-color="#00EAFF" offset="0%"/><stop stop-color="#07DFFC" offset="19%"/><stop stop-color="#1BC0F4" offset="53%"/><stop stop-color="#3A8FE8" offset="97%"/><stop stop-color="#3C8CE7" offset="99%"/></linearGradient><linearGradient x1="230.352941%" y1="-121.554054%" x2="159.470588%" y2="-50.7195946%" id="R"><stop stop-color="#00EAFF" offset="0%"/><stop stop-color="#07DFFC" offset="19%"/><stop stop-color="#1BC0F4" offset="53%"/><stop stop-color="#3A8FE8" offset="97%"/><stop stop-color="#3C8CE7" offset="99%"/></linearGradient><linearGradient x1="228.823529%" y1="-121.067568%" x2="157.941176%" y2="-50.2331081%" id="S"><stop stop-color="#00EAFF" offset="0%"/><stop stop-color="#07DFFC" offset="19%"/><stop stop-color="#1BC0F4" offset="53%"/><stop stop-color="#3A8FE8" offset="97%"/><stop stop-color="#3C8CE7" offset="99%"/></linearGradient></defs><g fill="none"><g fill-rule="nonzero"><path d="M132.518 28.566l-5.436 45.64-1.708-.994 5.61-44.284z" fill="url(#A)"/><path d="M126.055 25.92l-5.367 44.587 4.685 2.706 5.61-44.284z" fill="url(#B)"/><path d="M130.982 28.93l-4.71-2.732c-.31-.182-.276-.5.086-.71a1.36 1.36 0 0 1 1.234-.052l4.71 2.723c.32.182.276.5-.086.718-.38.2-.837.23-1.234.052z" fill="url(#C)"/><path d="M150.387 38.18l-5.436 45.64-1.708-.994 5.61-44.284z" fill="url(#D)"/><path d="M143.925 35.534l-5.367 44.587 4.685 2.706 5.61-44.284z" fill="url(#B)"/><path d="M148.85 38.543l-4.71-2.723c-.31-.2-.276-.5.086-.718.38-.2.837-.23 1.234-.052l4.677 2.723c.32.2.276.5-.086.718-.37.198-.812.217-1.2.052z" fill="url(#E)"/><path d="M144.65 127.958l-60.952 35.284c-5.393 3.12-14.1 3.208-21.054-.865L5.255 129.15c-6.523-3.043-6.903-9.052-1.5-12.173l60.97-35.258c5.393-3.12 14.815-2.723 21.045.865l57.38 33.27c6.23 3.562 6.903 9.01 1.5 12.104z" fill="#2F2F7A"/><path d="M90.73 4.115l-5.427 45.64-1.717-.986 5.61-44.293z" fill="url(#D)"/><path d="M84.267 1.47L78.9 46.056l4.685 2.715 5.61-44.293z" fill="url(#F)"/><path d="M89.194 4.48l-4.71-2.75c-.31-.182-.276-.5.086-.718.385-.2.84-.21 1.234-.026l4.71 2.732c.32.182.276.5-.086.71-.38.2-.837.23-1.234.052z" fill="url(#G)"/><path d="M108.893 13.928l-6.68 56.233-1.717-.994 6.86-54.875z" fill="url(#B)"/><path d="M102.438 11.283L95.812 66.46l4.685 2.706 6.86-54.875z" fill="url(#H)"/><path d="M107.357 14.292l-4.677-2.732c-.31-.182-.276-.5.086-.71.38-.2.837-.23 1.234-.052l4.72 2.723c.32.182.276.5-.086.718-.392.224-.868.243-1.277.052z" fill="url(#I)"/><path d="M45.29 127.362L9.914 106.914c-7.326-3.82-8.956-9.753-8.24-12.25l63.575-37.6c5.393-3.12 14.824-2.723 21.054.865L147.1 94.802c.656 2.014.147 7.27-6.54 11.127l-56.276 32.7c-5.393 3.12-14.1 3.208-21.045-.865L45.29 127.38" fill="url(#J)"/><path d="M45.29 120.765L5.824 97.94c-6.523-3.052-6.903-9.06-1.5-12.182L65.25 50.51c5.393-3.12 14.824-2.732 21.054.865L143.71 84.59c6.23 3.597 6.903 9.052 1.5 12.173l-60.935 35.258c-5.393 3.12-14.1 3.208-21.045-.865L45.29 120.782" fill="url(#K)"/><path d="M145.547 94.3l-60.935 35.25c-5.4 3.12-14.1 3.208-21.054-.865L6.152 95.467c-6.523-3.052-6.903-9.06-1.52-12.182l60.944-35.25c5.393-3.12 14.815-2.732 21.045.865l57.415 33.235c6.23 3.588 6.903 9.044 1.5 12.165z" fill="url(#L)"/><path d="M138.644 93.937l-19.57 11.61L45.81 63.115l19.768-11.43c4.927-2.853 13.538-2.5 19.224.795l52.436 30.338c5.72 3.285 6.333 8.265 1.406 11.12z" fill="url(#M)"/></g><g stroke-width=".619" stroke="#12D6FA"><path d="M81.695 53.717l54.835 31.722c.722.417 1.167 1.188 1.167 2.023s-.445 1.607-1.167 2.023l-19.708 11.395-64.015-37.03 17.516-10.133a11.37 11.37 0 0 1 11.372 0z"/><path d="M56.672 61.6l64.015 37.04m-60.15-39.26l64.015 37.03m-60.14-39.27l64.007 37.03M68.278 54.9l64.015 37.03m-60.15-39.268L136.16 89.7"/><path d="M129.35 81.288l-23.2 13.418m12.536-19.6L95.484 88.542m12.536-19.6L84.82 82.37m12.528-19.6L74.145 76.196m12.538-19.6L63.48 70.023"/></g><g fill-rule="nonzero"><path d="M103.224 73.974l-59.46 34.393c-1.014.474-2.195.425-3.167-.13-.94-.545-1.035-1.366-.224-1.833l59.45-34.393c1.014-.474 2.195-.425 3.167.13.94.545 1.044 1.35.233 1.833z" fill="url(#N)"/><path d="M123.95 75.115L7.12 86.13s-1.08 4.842 5.393 8.577l124.752-11.888-13.314-7.703z" fill="url(#O)" opacity=".4"/><ellipse fill="url(#P)" transform="matrix(.00541 -.999985 .999985 .00541 3.798816 167.464475)" cx="86.086" cy="81.823" rx="1" ry="1.28"/><ellipse fill="url(#Q)" transform="matrix(.009999 -.99995 .99995 .009999 11.54841 170.146741)" cx="91.703" cy="79.241" rx="1" ry="1.28"/><ellipse fill="url(#R)" transform="matrix(.009999 -.99995 .99995 .009999 18.239226 171.892301)" cx="95.93" cy="76.735" rx="1" ry="1.28"/><ellipse fill="url(#S)" transform="matrix(.009999 -.99995 .99995 .009999 25.48357 173.98736)" cx="100.61" cy="74.124" rx="1" ry="1.28"/></g></g></svg>