<svg xmlns="http://www.w3.org/2000/svg" width="135" height="166" viewBox="0 0 150 166"><defs><linearGradient x1="175.773994%" y1="12.3146623%" x2="-94.4272446%" y2="90.1976936%" id="A"><stop stop-color="#3C8CE7" offset="1%"/><stop stop-color="#3A8FE8" offset="3%"/><stop stop-color="#1BC0F4" offset="47%"/><stop stop-color="#07DFFC" offset="81%"/><stop stop-color="#00EAFF" offset="100%"/></linearGradient><linearGradient x1="1304.08309%" y1="49.9952638%" x2="1404.01146%" y2="49.9952638%" id="B"><stop stop-color="#3C8CE7" offset="1%"/><stop stop-color="#3A8FE8" offset="3%"/><stop stop-color="#1BC0F4" offset="47%"/><stop stop-color="#07DFFC" offset="81%"/><stop stop-color="#00EAFF" offset="100%"/></linearGradient><linearGradient x1="99.8531571%" y1="50%" x2="0%" y2="50%" id="C"><stop stop-color="#B3FFAB" offset="1%"/><stop stop-color="#B1FFAC" offset="1%"/><stop stop-color="#6EFFCC" offset="36%"/><stop stop-color="#3CFFE3" offset="65%"/><stop stop-color="#1DFFF2" offset="88%"/><stop stop-color="#12FFF7" offset="100%"/></linearGradient><linearGradient x1="-75.7153906%" y1="12.3043657%" x2="194.276875%" y2="90.187397%" id="D"><stop stop-color="#3C8CE7" offset="1%"/><stop stop-color="#3A8FE8" offset="3%"/><stop stop-color="#1BC0F4" offset="47%"/><stop stop-color="#07DFFC" offset="81%"/><stop stop-color="#00EAFF" offset="100%"/></linearGradient><linearGradient x1="0%" y1="50.0047362%" x2="100%" y2="50.0047362%" id="E"><stop stop-color="#3C8CE7" offset="1%"/><stop stop-color="#3A8FE8" offset="3%"/><stop stop-color="#1BC0F4" offset="47%"/><stop stop-color="#07DFFC" offset="81%"/><stop stop-color="#00EAFF" offset="100%"/></linearGradient><linearGradient x1="0%" y1="49.9136442%" x2="100%" y2="49.9136442%" id="F"><stop stop-color="#B3FFAB" offset="1%"/><stop stop-color="#B1FFAC" offset="1%"/><stop stop-color="#6EFFCC" offset="36%"/><stop stop-color="#3CFFE3" offset="65%"/><stop stop-color="#1DFFF2" offset="88%"/><stop stop-color="#12FFF7" offset="100%"/></linearGradient><linearGradient x1="-75.8513932%" y1="12.3043657%" x2="194.349845%" y2="90.187397%" id="G"><stop stop-color="#3C8CE7" offset="1%"/><stop stop-color="#3A8FE8" offset="3%"/><stop stop-color="#1BC0F4" offset="47%"/><stop stop-color="#07DFFC" offset="81%"/><stop stop-color="#00EAFF" offset="100%"/></linearGradient><linearGradient x1="-40.8887296%" y1="-14.2857143%" x2="171.61799%" y2="123.358474%" id="H"><stop stop-color="#B3FFAB" offset="1%"/><stop stop-color="#B1FFAC" offset="1%"/><stop stop-color="#6EFFCC" offset="36%"/><stop stop-color="#3CFFE3" offset="65%"/><stop stop-color="#1DFFF2" offset="88%"/><stop stop-color="#12FFF7" offset="100%"/></linearGradient><linearGradient x1="-27.2078501%" y1="84.9297775%" x2="141.462979%" y2="8.64762506%" id="I"><stop stop-color="#B3FFAB" offset="1%"/><stop stop-color="#B1FFAC" offset="1%"/><stop stop-color="#6EFFCC" offset="36%"/><stop stop-color="#3CFFE3" offset="65%"/><stop stop-color="#1DFFF2" offset="88%"/><stop stop-color="#12FFF7" offset="100%"/></linearGradient><linearGradient x1="95.1860494%" y1="76.2014787%" x2="-35.6441115%" y2="-13.2532348%" id="J"><stop stop-color="#3C8CE7" offset="1%"/><stop stop-color="#3A8FE8" offset="3%"/><stop stop-color="#1BC0F4" offset="47%"/><stop stop-color="#07DFFC" offset="81%"/><stop stop-color="#00EAFF" offset="100%"/></linearGradient><linearGradient x1="47.2486615%" y1="46.1121973%" x2="116.99881%" y2="74.6578433%" id="K"><stop stop-color="#3C8CE7" offset="1%"/><stop stop-color="#3A8FE8" offset="3%"/><stop stop-color="#1BC0F4" offset="47%"/><stop stop-color="#07DFFC" offset="81%"/><stop stop-color="#00EAFF" offset="100%"/></linearGradient><linearGradient x1="-0.364113021%" y1="81.4272475%" x2="155.825808%" y2="-8.87859129%" id="L"><stop stop-color="#3C8CE7" offset="1%"/><stop stop-color="#3A8FE8" offset="3%"/><stop stop-color="#1BC0F4" offset="47%"/><stop stop-color="#07DFFC" offset="81%"/><stop stop-color="#00EAFF" offset="100%"/></linearGradient><linearGradient x1="-41.8901099%" y1="123.263889%" x2="78.1538462%" y2="27.5462963%" id="M"><stop stop-color="#B3FFAB" offset="1%"/><stop stop-color="#B1FFAC" offset="1%"/><stop stop-color="#6EFFCC" offset="36%"/><stop stop-color="#3CFFE3" offset="65%"/><stop stop-color="#1DFFF2" offset="88%"/><stop stop-color="#12FFF7" offset="100%"/></linearGradient><linearGradient x1="69.5540438%" y1="74.1815049%" x2="111.504157%" y2="133.773693%" id="N"><stop stop-color="#3C8CE7" offset="1%"/><stop stop-color="#3A8FE8" offset="3%"/><stop stop-color="#1BC0F4" offset="47%"/><stop stop-color="#07DFFC" offset="81%"/><stop stop-color="#00EAFF" offset="100%"/></linearGradient><linearGradient x1="24.5559289%" y1="9.49694405%" x2="173.547768%" y2="227.691584%" id="O"><stop stop-color="#3C8CE7" offset="1%"/><stop stop-color="#3A8FE8" offset="3%"/><stop stop-color="#1BC0F4" offset="47%"/><stop stop-color="#07DFFC" offset="81%"/><stop stop-color="#00EAFF" offset="100%"/></linearGradient><linearGradient x1="1.19312967%" y1="15.4486744%" x2="128.372886%" y2="101.699524%" id="P"><stop stop-color="#3C8CE7" offset="1%"/><stop stop-color="#3A8FE8" offset="3%"/><stop stop-color="#1BC0F4" offset="47%"/><stop stop-color="#07DFFC" offset="81%"/><stop stop-color="#00EAFF" offset="100%"/></linearGradient><linearGradient x1="-47.0624613%" y1="12.1471343%" x2="192.764378%" y2="98.93071%" id="Q"><stop stop-color="#3C8CE7" offset="1%"/><stop stop-color="#3A8FE8" offset="3%"/><stop stop-color="#1BC0F4" offset="47%"/><stop stop-color="#07DFFC" offset="81%"/><stop stop-color="#00EAFF" offset="100%"/></linearGradient><linearGradient x1="0.371195249%" y1="-9.94897959%" x2="64.711705%" y2="73.7563776%" id="R"><stop stop-color="#3C8CE7" offset="1%"/><stop stop-color="#3A8FE8" offset="3%"/><stop stop-color="#1BC0F4" offset="47%"/><stop stop-color="#07DFFC" offset="81%"/><stop stop-color="#00EAFF" offset="100%"/></linearGradient><linearGradient x1="-45.1634877%" y1="-6.53518948%" x2="173.058583%" y2="123.085847%" id="S"><stop stop-color="#3C8CE7" offset="1%"/><stop stop-color="#3A8FE8" offset="3%"/><stop stop-color="#1BC0F4" offset="47%"/><stop stop-color="#07DFFC" offset="81%"/><stop stop-color="#00EAFF" offset="100%"/></linearGradient><linearGradient x1="46.533941%" y1="4.15300136%" x2="59.126159%" y2="93.4305317%" id="T"><stop stop-color="#B3FFAB" offset="1%"/><stop stop-color="#B1FFAC" offset="1%"/><stop stop-color="#6EFFCC" offset="36%"/><stop stop-color="#3CFFE3" offset="65%"/><stop stop-color="#1DFFF2" offset="88%"/><stop stop-color="#12FFF7" offset="100%"/></linearGradient><linearGradient x1="4.70949021%" y1="10.7842881%" x2="97.9621507%" y2="91.443243%" id="U"><stop stop-color="#3C8CE7" offset="1%"/><stop stop-color="#3A8FE8" offset="3%"/><stop stop-color="#1BC0F4" offset="47%"/><stop stop-color="#07DFFC" offset="81%"/><stop stop-color="#00EAFF" offset="100%"/></linearGradient><linearGradient x1="91.6498139%" y1="68.4862579%" x2="-17.0049231%" y2="17.7324648%" id="V"><stop stop-color="#3C8CE7" offset="1%"/><stop stop-color="#3A8FE8" offset="3%"/><stop stop-color="#1BC0F4" offset="47%"/><stop stop-color="#07DFFC" offset="81%"/><stop stop-color="#00EAFF" offset="100%"/></linearGradient><linearGradient x1="-18.4%" y1="35.5855856%" x2="144.16%" y2="69.8198198%" id="W"><stop stop-color="#B3FFAB" offset="1%"/><stop stop-color="#B1FFAC" offset="1%"/><stop stop-color="#6EFFCC" offset="36%"/><stop stop-color="#3CFFE3" offset="65%"/><stop stop-color="#1DFFF2" offset="88%"/><stop stop-color="#12FFF7" offset="100%"/></linearGradient><linearGradient x1="-156.976744%" y1="28.7275566%" x2="320.155039%" y2="79.0788447%" id="X"><stop stop-color="#B3FFAB" offset="1%"/><stop stop-color="#B1FFAC" offset="1%"/><stop stop-color="#6EFFCC" offset="36%"/><stop stop-color="#3CFFE3" offset="65%"/><stop stop-color="#1DFFF2" offset="88%"/><stop stop-color="#12FFF7" offset="100%"/></linearGradient><linearGradient x1="-89.8383372%" y1="29.7055058%" x2="234.872979%" y2="76.8245839%" id="Y"><stop stop-color="#B3FFAB" offset="1%"/><stop stop-color="#B1FFAC" offset="1%"/><stop stop-color="#6EFFCC" offset="36%"/><stop stop-color="#3CFFE3" offset="65%"/><stop stop-color="#1DFFF2" offset="88%"/><stop stop-color="#12FFF7" offset="100%"/></linearGradient><linearGradient x1="-89.6313364%" y1="29.7055058%" x2="234.331797%" y2="76.8245839%" id="Z"><stop stop-color="#B3FFAB" offset="1%"/><stop stop-color="#B1FFAC" offset="1%"/><stop stop-color="#6EFFCC" offset="36%"/><stop stop-color="#3CFFE3" offset="65%"/><stop stop-color="#1DFFF2" offset="88%"/><stop stop-color="#12FFF7" offset="100%"/></linearGradient></defs><path d="M10.01 125.036l17.065 5.27 22.875 19.466 21.794 9.953 13.32 5.702 36.83-39.483-1.59-2.33-20.824-14.523-33.936-19.295-19.392-4.92L.418 114.212z" fill="#2F2F7A"/><path d="M24.472 7.124l8.28 69.504-2.946 2.79-6.7-71.55z" fill="url(#A)"/><path d="M19.392 4.652l5.9 78.586 4.512-3.82-6.7-71.55z" fill="url(#B)"/><path d="M23.114 3.566l1.357 3.558-1.357.744-3.722-3.216z" fill="url(#C)"/><path d="M72.602 3.566l-8.286 69.497 2.954 2.8 6.7-71.55z" fill="url(#D)"/><path d="M77.673 1.087L71.78 79.673l-4.512-3.81 6.7-71.55z" fill="url(#E)"/><path d="M73.96 0l-1.357 3.566 1.357.744 3.714-3.223z" fill="url(#F)"/><path d="M110.827 21.43l-8.28 69.497 2.946 2.8 6.7-71.55z" fill="url(#G)"/><path d="M115.9 18.952l-5.892 78.586-4.512-3.81 6.7-71.55z" fill="url(#E)"/><path d="M112.184 17.865l-1.357 3.566 1.357.744 3.714-3.223z" fill="url(#F)"/><path d="M12.06 108.086l40.97 26.977-1.686-8.83-22.875-19.458-17.065-5.27z" fill="url(#H)"/><path d="M123.3 102.406l-41.805 47.172c.873 0 41.805-32.753 41.805-32.753v-14.42z" fill="url(#I)"/><path d="M11.404 101.505l17.065 5.27 22.875 19.458 21.794 9.96 13.32 5.695 36.83-39.483-1.59-2.323-20.824-14.523L66.94 66.266l-19.392-4.92L1.82 90.682z" fill="url(#J)"/><path d="M73.14 136.194l48.563-36.11 1.59 2.323-41.805 47.172z" fill="url(#K)"/><path d="M53.03 62.976l-41.626 38.53L1.82 90.682l45.728-29.337z" fill="url(#L)"/><path d="M66.94 66.266l1.35 19.116 32.586.18z" fill="url(#M)"/><path d="M116.28 96.302L66.94 120.36l3.356 1.86z" fill="url(#N)"/><path d="M51.345 126.234l15.596-5.873 15.477 8.933-9.278 6.9z" fill="url(#O)"/><path d="M68.29 85.382l-39.82 21.394-17.065-5.27 41.626-38.53 13.9 3.3z" fill="url(#P)"/><path d="M1.82 90.682L0 97.933l12.06 10.154-.656-6.58z" fill="url(#Q)"/><path d="M53.03 135.063l28.454 14.516-8.346-13.384-21.794-9.96z" fill="url(#R)"/><path d="M20.228 113.46l-.835-5.375 19.146 12.275 2.752 6.975z" fill="url(#S)"/><path d="M132.076 55.264l-2.842-.96.612-.797 5.027-.7z" fill="url(#T)"/><path d="M134.873 52.807l-14.977 67.51-5.13 4.51L132.04 55.3z" fill="url(#U)"/><path d="M129.235 54.304l-17.52 68.254 3.05 2.27 17.31-69.564z" fill="url(#V)"/><path d="M116.883 102.406h1.693l-2.678 11.568h-1.984z" fill="url(#W)"/><path d="M30.38 56.73l-.917.85.79 8.687 1.134-.625z" fill="url(#X)"/><path d="M111.983 71.507l-2.305.558-.932 11.07 2.394-.47z" fill="url(#Z)"/><path d="M74.086 48.9l-2.297.558-.932 11.07 2.394-.47z" fill="url(#Y)"/></svg>