<svg xmlns="http://www.w3.org/2000/svg" xmlns:xlink="http://www.w3.org/1999/xlink" width="162" height="166" viewBox="0 0 150 166"><defs><linearGradient x1="30.7419503%" y1="108.404362%" x2="69.6367065%" y2="-10.0248322%" id="A"><stop stop-color="#56CCF2" offset="0%"/><stop stop-color="#2F80ED" offset="100%"/></linearGradient><linearGradient x1="2.05517947%" y1="45.5357976%" x2="97.9192315%" y2="55.122041%" id="B"><stop stop-color="#56CCF2" offset="0%"/><stop stop-color="#2F80ED" offset="100%"/></linearGradient><linearGradient x1="195.753103%" y1="48.1283388%" x2="17.9858436%" y2="50.3167544%" id="C"><stop stop-color="#56CCF2" offset="0%"/><stop stop-color="#2F80ED" offset="100%"/></linearGradient><linearGradient x1="27.8100936%" y1="49.7490003%" x2="71.0673617%" y2="50.0467718%" id="D"><stop stop-color="#56CCF2" offset="0%"/><stop stop-color="#2F80ED" offset="100%"/></linearGradient><linearGradient x1="12.2932811%" y1="49.4811505%" x2="93.8383387%" y2="50.7135236%" id="E"><stop stop-color="#56CCF2" offset="0%"/><stop stop-color="#2F80ED" offset="100%"/></linearGradient><linearGradient x1="1.82838264%" y1="50.6667382%" x2="98.0515506%" y2="56.98265%" id="F"><stop stop-color="#1966CD" offset="0%"/><stop stop-color="#3BADD2" offset="100%"/></linearGradient><linearGradient x1="2.29565742%" y1="45.3450771%" x2="98.1597095%" y2="54.9313205%" id="G"><stop stop-color="#56CCF2" offset="0%"/><stop stop-color="#2F80ED" offset="100%"/></linearGradient><linearGradient x1="195.9236%" y1="48.2323651%" x2="18.1572484%" y2="50.4209018%" id="H"><stop stop-color="#56CCF2" offset="0%"/><stop stop-color="#2F80ED" offset="100%"/></linearGradient><linearGradient x1="28.0030736%" y1="49.7981302%" x2="71.2603417%" y2="50.0962596%" id="I"><stop stop-color="#56CCF2" offset="0%"/><stop stop-color="#2F80ED" offset="100%"/></linearGradient><linearGradient x1="12.5892367%" y1="49.4450561%" x2="94.1342943%" y2="50.6774292%" id="J"><stop stop-color="#56CCF2" offset="0%"/><stop stop-color="#2F80ED" offset="100%"/></linearGradient><linearGradient x1="2.17748444%" y1="50.4838334%" x2="98.4006524%" y2="56.7997452%" id="K"><stop stop-color="#1966CD" offset="0%"/><stop stop-color="#3BADD2" offset="100%"/></linearGradient><linearGradient x1="2.53622152%" y1="45.1521871%" x2="98.4002736%" y2="54.7384305%" id="L"><stop stop-color="#56CCF2" offset="0%"/><stop stop-color="#2F80ED" offset="100%"/></linearGradient><linearGradient x1="196.094096%" y1="48.2222362%" x2="18.3277453%" y2="50.4107729%" id="M"><stop stop-color="#56CCF2" offset="0%"/><stop stop-color="#2F80ED" offset="100%"/></linearGradient><linearGradient x1="28.1959845%" y1="49.7875856%" x2="71.4532526%" y2="50.0857149%" id="N"><stop stop-color="#56CCF2" offset="0%"/><stop stop-color="#2F80ED" offset="100%"/></linearGradient><linearGradient x1="12.8884687%" y1="49.4094185%" x2="94.4335263%" y2="50.6417915%" id="O"><stop stop-color="#56CCF2" offset="0%"/><stop stop-color="#2F80ED" offset="100%"/></linearGradient><linearGradient x1="2.53070403%" y1="50.2991114%" x2="98.753872%" y2="56.6150233%" id="P"><stop stop-color="#1966CD" offset="0%"/><stop stop-color="#3BADD2" offset="100%"/></linearGradient><linearGradient x1="1.40820358%" y1="44.9616033%" x2="97.2708885%" y2="54.54771%" id="Q"><stop stop-color="#56CCF2" offset="0%"/><stop stop-color="#2F80ED" offset="100%"/></linearGradient><linearGradient x1="196.264532%" y1="48.2122212%" x2="18.4981811%" y2="50.4007579%" id="R"><stop stop-color="#56CCF2" offset="0%"/><stop stop-color="#2F80ED" offset="100%"/></linearGradient><linearGradient x1="28.3889645%" y1="49.776921%" x2="71.6462326%" y2="50.0750504%" id="S"><stop stop-color="#56CCF2" offset="0%"/><stop stop-color="#2F80ED" offset="100%"/></linearGradient><linearGradient x1="13.1861158%" y1="49.3733496%" x2="94.7311734%" y2="50.6057227%" id="T"><stop stop-color="#56CCF2" offset="0%"/><stop stop-color="#2F80ED" offset="100%"/></linearGradient><linearGradient x1="2.82529592%" y1="50.1163376%" x2="97.1617351%" y2="56.4322495%" id="U"><stop stop-color="#1966CD" offset="0%"/><stop stop-color="#3BADD2" offset="100%"/></linearGradient><linearGradient x1="-0.0284090909%" y1="50.0041348%" x2="100.022115%" y2="50.0041348%" id="V"><stop stop-color="#1966CD" offset="0%"/><stop stop-color="#3BADD2" offset="100%"/></linearGradient><linearGradient x1="-0.0512890095%" y1="50.0262136%" x2="99.9597015%" y2="50.0262136%" id="W"><stop stop-color="#56CCF2" offset="0%"/><stop stop-color="#2F80ED" offset="100%"/></linearGradient><linearGradient x1="107.743701%" y1="0.3856102%" x2="-19.1513123%" y2="108.187796%" id="X"><stop stop-color="#AAFFA9" offset="0%"/><stop stop-color="#11FFBD" offset="100%"/></linearGradient><linearGradient x1="115.600888%" y1="-20.1612903%" x2="-7.8498731%" y2="107.884946%" id="Y"><stop stop-color="#AAFFA9" offset="0%"/><stop stop-color="#11FFBD" offset="100%"/></linearGradient><linearGradient x1="106.941069%" y1="2.76591151%" x2="9.82695226%" y2="94.4484171%" id="Z"><stop stop-color="#56CCF2" offset="0%"/><stop stop-color="#2F80ED" offset="100%"/></linearGradient><linearGradient x1="58.9446494%" y1="31.8280335%" x2="34.4726937%" y2="95.8631799%" id="a"><stop stop-color="#AAFFA9" offset="0%"/><stop stop-color="#11FFBD" offset="100%"/></linearGradient><linearGradient x1="-0.0480769231%" y1="49.871%" x2="99.925%" y2="49.871%" id="b"><stop stop-color="#AAFFA9" offset="0%"/><stop stop-color="#11FFBD" offset="100%"/></linearGradient><linearGradient x1="108.633894%" y1="-13.2520392%" x2="-0.432389381%" y2="109.80571%" id="c"><stop stop-color="#56CCF2" offset="0%"/><stop stop-color="#2F80ED" offset="100%"/></linearGradient><linearGradient x1="-28.2869855%" y1="119.410252%" x2="144.092881%" y2="-24.5328076%" id="d"><stop stop-color="#56CCF2" offset="0%"/><stop stop-color="#2F80ED" offset="100%"/></linearGradient><linearGradient x1="127.367683%" y1="0.831269841%" x2="-17.6304878%" y2="93.2428571%" id="e"><stop stop-color="#AAFFA9" offset="0%"/><stop stop-color="#11FFBD" offset="100%"/></linearGradient><linearGradient x1="-156.064193%" y1="602.126527%" x2="323.476858%" y2="-715.622104%" id="f"><stop stop-color="#4C724C" offset="0%"/><stop stop-color="#087255" offset="100%"/></linearGradient><linearGradient x1="-201.300075%" y1="576.04446%" x2="391.140743%" y2="-732.148629%" id="g"><stop stop-color="#4C724C" offset="0%"/><stop stop-color="#087255" offset="100%"/></linearGradient><linearGradient x1="16.3567254%" y1="193.078276%" x2="81.3655686%" y2="-106.208734%" id="h"><stop stop-color="#4C724C" offset="0%"/><stop stop-color="#087255" offset="100%"/></linearGradient><linearGradient x1="-77.6098452%" y1="550.368431%" x2="200.999682%" y2="-547.008943%" id="i"><stop stop-color="#4C724C" offset="0%"/><stop stop-color="#087255" offset="100%"/></linearGradient><linearGradient x1="-75.8372647%" y1="530.690432%" x2="190.112544%" y2="-482.281305%" id="j"><stop stop-color="#4C724C" offset="0%"/><stop stop-color="#087255" offset="100%"/></linearGradient><linearGradient x1="8.33844922%" y1="230.395382%" x2="101.209877%" y2="-199.411435%" id="k"><stop stop-color="#4C724C" offset="0%"/><stop stop-color="#087255" offset="100%"/></linearGradient><linearGradient x1="9.82856769%" y1="483.868431%" x2="110.706153%" y2="-613.509292%" id="l"><stop stop-color="#4C724C" offset="0%"/><stop stop-color="#087255" offset="100%"/></linearGradient><linearGradient x1="39.1952719%" y1="97.6029761%" x2="71.2400797%" y2="-31.0926429%" id="m"><stop stop-color="#4C724C" offset="0%"/><stop stop-color="#087255" offset="100%"/></linearGradient><linearGradient x1="-146.588465%" y1="592.75814%" x2="312.297814%" y2="-724.094709%" id="n"><stop stop-color="#AAFFA9" offset="0%"/><stop stop-color="#11FFBD" offset="100%"/></linearGradient><linearGradient x1="-201.417812%" y1="580.755211%" x2="383.661777%" y2="-736.107629%" id="o"><stop stop-color="#AAFFA9" offset="0%"/><stop stop-color="#11FFBD" offset="100%"/></linearGradient><linearGradient x1="17.284036%" y1="193.60299%" x2="82.2929256%" y2="-105.681749%" id="p"><stop stop-color="#AAFFA9" offset="0%"/><stop stop-color="#11FFBD" offset="100%"/></linearGradient><linearGradient x1="-78.3975616%" y1="509.808353%" x2="200.211965%" y2="-503.155377%" id="q"><stop stop-color="#AAFFA9" offset="0%"/><stop stop-color="#11FFBD" offset="100%"/></linearGradient><linearGradient x1="-76.5891759%" y1="568.505253%" x2="189.356282%" y2="-528.872121%" id="r"><stop stop-color="#AAFFA9" offset="0%"/><stop stop-color="#11FFBD" offset="100%"/></linearGradient><linearGradient x1="9.66324497%" y1="231.152191%" x2="102.533021%" y2="-198.65775%" id="s"><stop stop-color="#AAFFA9" offset="0%"/><stop stop-color="#11FFBD" offset="100%"/></linearGradient><linearGradient x1="9.54336%" y1="448.423737%" x2="110.419223%" y2="-564.539993%" id="t"><stop stop-color="#AAFFA9" offset="0%"/><stop stop-color="#11FFBD" offset="100%"/></linearGradient><linearGradient x1="39.2095429%" y1="98.3262856%" x2="71.6914308%" y2="-35.1769676%" id="u"><stop stop-color="#AAFFA9" offset="0%"/><stop stop-color="#11FFBD" offset="100%"/></linearGradient><path id="v" d="M140.29 97.052c.74-.33 6.25-2.137 6.25-2.137l2.22-69.85-4.194 3.698-4.276 68.3z"/><path id="w" d="M84.7 85.794l.822-.493-3.125-1.644c-.493-.247-1.15-.247-1.562-.082l.576-.41-1.89-.986-1.398.164 2.467 1.315 4.112 2.137z"/></defs><path d="M5.5 122.692a2.57 2.57 0 0 0 .74.904l13.57 12.49a2.5 2.5 0 0 0 .576.411l27.548 16.6c.247.164.493.247.822.33l37.663 11.998c.41.082.74.164 1.15.164h13.65c.658 0 1.316-.164 1.89-.493l56.74-33.693c2.55-1.48 2.467-5.177-.164-6.574L77.875 81.356c-.987-.575-2.22-.575-3.29-.164l-23.437 10.2c-.164.082-.247.164-.41.247l-43.83 26.05c-1.81.986-2.385 3.205-1.398 5.013z" fill="#2F2F7A"/><path d="M.576 93.108L0 95.08l.74.74 24.423 20.79 23.354 13.15 38.485 12.327 2.385-1.15z" fill="url(#A)"/><path d="M146.952 24.9l1.81.082-4.194 3.698-1.81-.082z" fill="url(#B)"/><use xlink:href="#v" fill="url(#C)"/><path d="M137.084 96.066l3.207.986 4.276-68.372-1.81-.082z" fill="url(#D)"/><path d="M141.853 89.492l4.112-2.958.74-17.257-3.865 3.698-.74 12.49z" fill="url(#E)"/><path d="M145.965 86.533l-4.112 2.958.247-3.945z" fill="url(#F)"/><path d="M125.9 16.847l1.81.082-4.194 3.698-1.81-.082z" fill="url(#G)"/><use xlink:href="#v" x="-21.052" y="-8.135" fill="url(#H)"/><path d="M116.03 88.013l3.207.904 4.276-68.3-1.81-.082z" fill="url(#I)"/><path d="M120.8 81.44l4.112-2.958.74-17.257-3.865 3.698-.74 12.49z" fill="url(#J)"/><path d="M124.912 78.48L120.8 81.44l.247-3.945z" fill="url(#K)"/><path d="M104.93 8.793l1.727.082-4.194 3.698-1.81-.082z" fill="url(#L)"/><use xlink:href="#v" x="-42.103" y="-16.188" fill="url(#M)"/><path d="M94.98 79.96l3.207.904 4.276-68.3-1.81-.082z" fill="url(#N)"/><path d="M99.75 73.385l4.112-2.958.74-17.257-3.783 3.698-.822 12.49z" fill="url(#O)"/><path d="M103.86 70.427l-4.112 2.958.247-3.945z" fill="url(#P)"/><path d="M83.878.74l1.81.082L81.41 4.52l-1.727-.082z" fill="url(#Q)"/><path d="M77.135 72.8c.74-.33 6.25-2.137 6.25-2.137l2.22-69.85L81.41 4.52l-4.276 68.3z" fill="url(#R)"/><path d="M73.928 71.906l3.207.904 4.276-68.3-1.727-.082z" fill="url(#S)"/><path d="M78.698 65.332l4.194-2.958.658-17.257-3.783 3.698-.822 12.49z" fill="url(#T)"/><path d="M82.892 62.373l-4.194 2.958.247-3.945z" fill="url(#U)"/><path d="M142.922 112.995l-91.36-48.24 11.02-5.424 83.056 43.72z" fill="url(#V)"/><path d="M89.47 139.785l60.606-41.17-3.372 12.162-3.7 2.137 2.55-9.944-55.92 37.966z" fill="url(#W)"/><path d="M147.28 95.82l2.796 2.794-60.688 42.322-1.974-5.67z" fill="url(#X)"/><path d="M.576 93.108l1.645 1.56 63.155-38.213-3.372.74z" fill="url(#Y)"/><path d="M130.258 85.22L78.122 60.565 30.262 90.15 8.388 95.327c-1.562-.575-2.796 1.233-1.562 2.3l20.312 16.6 25.74 13.313s35.36 13.724 36.758 13.313L65.13 118.748l65.13-33.53z" fill="url(#Z)"/><path d="M4.194 92.697L2.22 94.67l22.285 17.668-.33-3.78z" fill="url(#a)"/><path d="M89.388 140.936l-1.974-5.67L54.356 124.5l-3.454 2.3z" fill="url(#b)"/><path d="M54.356 124.5l33.058 10.765L147.28 95.82l-12.253-8.382-5.098-2.548z" fill="url(#c)"/><path d="M65.376 56.456l5.84.575 6.908 3.534-53.945 47.992-19.983-15.86z" fill="url(#d)"/><path d="M78.122 60.565v.575l-53.616 51.197-.33-3.78z" fill="url(#e)"/><path d="M94.897 90.23c0-.082-.082-.082-.164-.164-.082 0-.164-.082-.247-.082h-.247c-.082 0-.164.082-.247.082s-.082.082-.082.164v.164c0 .082.082.082.164.164s.164.082.247.082h.247c.082 0 .164-.082.247-.082s.082-.082.082-.164v-.164zm-.082.164c0 .082-.082.082-.082.082-.082 0-.082.082-.164.082h-.247c-.082 0-.164 0-.247-.082-.082 0-.082-.082-.164-.082s0-.082 0-.164.082-.082.082-.082c.082 0 .082-.082.164-.082h.247c.082 0 .164 0 .247.082.082 0 .082.082.164.082v.164z" fill="url(#f)"/><path d="M94.486 90.23l-.164-.082-.41.247h.082l.164-.082h.164v.164l.082.082v-.164h.247v-.164h-.164zm0 .082h-.164l-.082-.082.082-.082.082.082c.082 0 .082.082.082.082z" fill="url(#g)"/><use xlink:href="#w" fill="url(#h)"/><path d="M89.634 87.437l-.905-.493h-.082l-.74.493.987.493z" fill="url(#i)"/><path d="M85.77 86.37l.822-.493-.987-.575-.822.575z" fill="url(#j)"/><path d="M90.703 88.013c-.576-.247-1.316-.33-1.81 0l4.358 2.3.822-.493-3.372-1.808z" fill="url(#k)"/><path d="M77.957 82.342l-3.7.41 1.234.575 3.536-.41z" fill="url(#l)"/><path d="M91.937 89.903l-.164-.082-3.043-1.726c-.247.247-.164.657.33.904l2.22 1.233c.082.082.082.164 0 .164-.082.082-.247.082-.33 0l-3.29-1.726 1.07-.657-.905-.575-.905.575c-.164.082-.33.082-.493 0l-1.48-.822c-.164-.082-.164-.247-.082-.33l.987-.657-.905-.575-.905.575c.247-.247.082-.657-.33-.904l-4.112-2.383-1.974 1.233.905.493.082.082 3.29 1.726c.493.247 1.15.247 1.645.082-.33.247-.164.657.33.904l2.138 1.068c.493.247 1.15.247 1.562.082l-.658.41 3.372 1.808c.576.247 1.398.33 1.81 0l.082-.082c.33 0 .247-.493-.247-.822zm-9.128-3.78c-.082.082-.247.082-.33 0l-3.207-1.726 1.07-.657c-.247.247-.164.575.33.904l2.138 1.233c.082.082.082.164 0 .247z" fill="url(#m)"/><path d="M94.815 89.903c0-.082-.082-.082-.164-.164-.082 0-.164-.082-.247-.082h-.247c-.082 0-.164.082-.247.082s-.082.082-.082.164v.164c0 .082.082.082.164.164.082 0 .164.082.247.082h.247c.082 0 .164-.082.247-.082s.082-.082.082-.164c.082-.082.082-.164 0-.164zm0 .082c0 .082-.082.082-.082.082-.082 0-.082.082-.164.082h-.247c-.082 0-.164 0-.247-.082-.082 0-.082-.082-.164-.082v-.164c0-.082.082-.082.082-.082.082 0 .082-.082.164-.082h.247c.082 0 .164 0 .247.082.082 0 .082.082.164.082s0 .164 0 .164z" fill="url(#n)"/><path d="M94.486 89.82l-.164-.082-.41.247h.082l.164-.082h.164v.164l.082.082v-.164h.247v-.164c-.082.082-.082 0-.164 0zm0 .164h-.164l-.082-.082.082-.082.082.082c.082 0 .082 0 .082.082 0-.082 0-.082 0 0 0-.082 0-.082 0 0z" fill="url(#o)"/><use xlink:href="#w" x="-0.082" y="-0.411" fill="url(#p)"/><path d="M89.634 87.026l-.987-.493-.74.493.905.575z" fill="url(#q)"/><path d="M85.77 85.958l.822-.493-.987-.493-.822.493z" fill="url(#r)"/><path d="M90.62 87.602c-.576-.247-1.316-.33-1.81 0l4.358 2.3.822-.493-3.372-1.808z" fill="url(#s)"/><path d="M77.957 81.93l-3.7.41L75.5 83l3.536-.493z" fill="url(#t)"/><path d="M91.855 89.574l-.164-.082-3.043-1.726c-.247.247-.164.657.33.904l2.22 1.233c.082.082.082.164 0 .164-.082.082-.247.082-.33 0l-3.29-1.726 1.07-.657-.905-.575-.905.575c-.164.082-.33.082-.493 0l-1.48-.822c-.164-.082-.164-.247-.082-.33l.987-.657-.905-.575-.905.575c.247-.247.082-.657-.33-.904L79.52 82.59l-1.974 1.233.905.493.082.082 3.29 1.726c.493.247 1.15.247 1.645.082-.33.247-.164.657.33.904l2.138 1.068c.493.247 1.15.247 1.562.082l-.658.41 3.372 1.808c.576.247 1.398.33 1.81 0l.082-.082c.41-.082.33-.575-.247-.822zM82.81 85.71c-.082.082-.247.082-.33 0l-3.207-1.726 1.07-.657c-.247.247-.164.575.33.904l2.138 1.233c.082.164.082.247 0 .247z" fill="url(#u)"/></svg>