<svg xmlns="http://www.w3.org/2000/svg" xmlns:xlink="http://www.w3.org/1999/xlink" width="162" height="166" viewBox="0 0 150 166"><style><![CDATA[.B{fill-rule:nonzero}.C{stroke-width:.5}.D{stroke-linecap:round}]]></style><defs><linearGradient x1="0.061971831%" y1="49.9297619%" x2="99.9267606%" y2="49.9297619%" id="A"><stop stop-color="#56CCF2" offset="0%"/><stop stop-color="#2F80ED" offset="100%"/></linearGradient><linearGradient x1="1.43254959%" y1="49.9339028%" x2="107.05447%" y2="49.9339028%" id="B"><stop stop-color="#56CCF2" offset="0%"/><stop stop-color="#2F80ED" offset="100%"/></linearGradient><linearGradient x1="-0.47125%" y1="50.0181944%" x2="100.495%" y2="50.0181944%" id="C"><stop stop-color="#56CCF2" offset="0%"/><stop stop-color="#2F80ED" offset="100%"/></linearGradient><linearGradient x1="131.978566%" y1="-22.2901341%" x2="-44.2698968%" y2="137.690974%" id="D"><stop stop-color="#56CCF2" offset="0%"/><stop stop-color="#2F80ED" offset="100%"/></linearGradient><linearGradient x1="49.9619048%" y1="91.3175214%" x2="49.9619048%" y2="28.4132479%" id="E"><stop stop-color="#56CCF2" offset="0%"/><stop stop-color="#2F80ED" offset="100%"/></linearGradient><linearGradient x1="-111.645238%" y1="10.8145455%" x2="140.783333%" y2="99.2290909%" id="F"><stop stop-color="#56CCF2" offset="0%"/><stop stop-color="#2F80ED" offset="100%"/></linearGradient><linearGradient x1="-2.66904762%" y1="49.6350427%" x2="102.47619%" y2="49.6350427%" id="G"><stop stop-color="#AAFFA9" offset="0%"/><stop stop-color="#11FFBD" offset="100%"/></linearGradient><linearGradient x1="0.171028037%" y1="50.7841596%" x2="100.527103%" y2="50.7841596%" id="H"><stop stop-color="#56CCF2" offset="0%"/><stop stop-color="#2F80ED" offset="100%"/></linearGradient><linearGradient x1="49.9493976%" y1="99.9379167%" x2="49.9493976%" y2="-0.00416666667%" id="I"><stop stop-color="#2F80ED" offset="0%"/><stop stop-color="#56CCF2" offset="100%"/></linearGradient><linearGradient x1="0.735443038%" y1="50.0511936%" x2="100.626582%" y2="50.0511936%" id="J"><stop stop-color="#56CCF2" offset="0%"/><stop stop-color="#2F80ED" offset="100%"/></linearGradient><linearGradient x1="-0.040797546%" y1="50.03%" x2="99.9519939%" y2="50.03%" id="K"><stop stop-color="#56CCF2" offset="0%"/><stop stop-color="#2F80ED" offset="100%"/></linearGradient><linearGradient x1="-0.0772292994%" y1="49.9537246%" x2="100.026592%" y2="49.9537246%" id="L"><stop stop-color="#1966CD" offset="0%"/><stop stop-color="#3BADD2" offset="100%"/></linearGradient><linearGradient x1="40.3281763%" y1="74.6034732%" x2="73.9042351%" y2="-7.47655572%" id="M"><stop stop-color="#1966CD" offset="0%"/><stop stop-color="#3BADD2" offset="100%"/></linearGradient><linearGradient x1="58.4694236%" y1="39.6258621%" x2="36.2914787%" y2="105.0125%" id="N"><stop stop-color="#3BADD2" offset="0%"/><stop stop-color="#1966CD" offset="100%"/></linearGradient><linearGradient x1="-0.0763705104%" y1="49.9965404%" x2="99.9676749%" y2="49.9965404%" id="O"><stop stop-color="#56CCF2" offset="0%"/><stop stop-color="#2F80ED" offset="100%"/></linearGradient><linearGradient x1="0.016137931%" y1="49.9467672%" x2="99.9911724%" y2="49.9467672%" id="P"><stop stop-color="#56CCF2" offset="0%"/><stop stop-color="#2F80ED" offset="100%"/></linearGradient><linearGradient x1="0.056261343%" y1="50.053775%" x2="99.9337568%" y2="50.053775%" id="Q"><stop stop-color="#56CCF2" offset="0%"/><stop stop-color="#2F80ED" offset="100%"/></linearGradient><linearGradient x1="1.22207398%" y1="50.0378449%" x2="106.84531%" y2="50.0378449%" id="R"><stop stop-color="#56CCF2" offset="0%"/><stop stop-color="#2F80ED" offset="100%"/></linearGradient><linearGradient x1="0.572839506%" y1="49.9891667%" x2="100.292593%" y2="49.9891667%" id="S"><stop stop-color="#56CCF2" offset="0%"/><stop stop-color="#2F80ED" offset="100%"/></linearGradient><linearGradient x1="132.914276%" y1="-22.5770512%" x2="-43.3352989%" y2="137.404057%" id="T"><stop stop-color="#56CCF2" offset="0%"/><stop stop-color="#2F80ED" offset="100%"/></linearGradient><linearGradient x1="49.5833333%" y1="91.6559829%" x2="49.5833333%" y2="28.7512821%" id="U"><stop stop-color="#56CCF2" offset="0%"/><stop stop-color="#2F80ED" offset="100%"/></linearGradient><linearGradient x1="-112.02381%" y1="10.4345455%" x2="140.402381%" y2="98.8509091%" id="V"><stop stop-color="#56CCF2" offset="0%"/><stop stop-color="#2F80ED" offset="100%"/></linearGradient><linearGradient x1="-3.05%" y1="49.9735043%" x2="102.097619%" y2="49.9735043%" id="W"><stop stop-color="#AAFFA9" offset="0%"/><stop stop-color="#11FFBD" offset="100%"/></linearGradient><linearGradient x1="-0.0277318641%" y1="49.9121739%" x2="99.9855831%" y2="49.9121739%" id="X"><stop stop-color="#56CCF2" offset="0%"/><stop stop-color="#2F80ED" offset="100%"/></linearGradient><linearGradient x1="0.129299363%" y1="50.1554455%" x2="100.288535%" y2="50.1554455%" id="Y"><stop stop-color="#56CCF2" offset="0%"/><stop stop-color="#2F80ED" offset="100%"/></linearGradient><linearGradient x1="-0.0321763602%" y1="49.9879733%" x2="99.9804878%" y2="49.9879733%" id="Z"><stop stop-color="#56CCF2" offset="0%"/><stop stop-color="#2F80ED" offset="100%"/></linearGradient><linearGradient x1="-100.158792%" y1="237.838356%" x2="198.837869%" y2="-289.091967%" id="a"><stop stop-color="#4C724C" offset="0%"/><stop stop-color="#087255" offset="100%"/></linearGradient><linearGradient x1="-111.032185%" y1="225.205169%" x2="185.806747%" y2="-297.910454%" id="b"><stop stop-color="#4C724C" offset="0%"/><stop stop-color="#087255" offset="100%"/></linearGradient><linearGradient x1="9.09080805%" y1="169.915585%" x2="90.7851817%" y2="-81.0484994%" id="c"><stop stop-color="#4C724C" offset="0%"/><stop stop-color="#087255" offset="100%"/></linearGradient><linearGradient x1="-85.1602826%" y1="263.32053%" x2="208.949451%" y2="-263.703557%" id="d"><stop stop-color="#4C724C" offset="0%"/><stop stop-color="#087255" offset="100%"/></linearGradient><linearGradient x1="-98.7887695%" y1="277.58743%" x2="195.310976%" y2="-249.437148%" id="e"><stop stop-color="#4C724C" offset="0%"/><stop stop-color="#087255" offset="100%"/></linearGradient><linearGradient x1="-0.354022962%" y1="201.147755%" x2="117.28987%" y2="-158.427415%" id="f"><stop stop-color="#4C724C" offset="0%"/><stop stop-color="#087255" offset="100%"/></linearGradient><linearGradient x1="-0.641010063%" y1="231.7086%" x2="127.228444%" y2="-295.315977%" id="g"><stop stop-color="#4C724C" offset="0%"/><stop stop-color="#087255" offset="100%"/></linearGradient><linearGradient x1="38.0327069%" y1="87.5683911%" x2="77.2776243%" y2="-21.2272479%" id="h"><stop stop-color="#4C724C" offset="0%"/><stop stop-color="#087255" offset="100%"/></linearGradient><linearGradient x1="-94.7891226%" y1="239.194236%" x2="199.310623%" y2="-287.830342%" id="i"><stop stop-color="#AAFFA9" offset="0%"/><stop stop-color="#11FFBD" offset="100%"/></linearGradient><linearGradient x1="-106.601741%" y1="228.184059%" x2="187.507992%" y2="-298.840028%" id="j"><stop stop-color="#AAFFA9" offset="0%"/><stop stop-color="#11FFBD" offset="100%"/></linearGradient><linearGradient x1="9.40202124%" y1="169.939798%" x2="91.0963949%" y2="-81.0242867%" id="k"><stop stop-color="#AAFFA9" offset="0%"/><stop stop-color="#11FFBD" offset="100%"/></linearGradient><linearGradient x1="-84.0299272%" y1="263.371867%" x2="210.070309%" y2="-263.662698%" id="l"><stop stop-color="#AAFFA9" offset="0%"/><stop stop-color="#11FFBD" offset="100%"/></linearGradient><linearGradient x1="-97.658414%" y1="277.638767%" x2="196.441822%" y2="-249.395798%" id="m"><stop stop-color="#AAFFA9" offset="0%"/><stop stop-color="#11FFBD" offset="100%"/></linearGradient><linearGradient x1="0.0981192308%" y1="201.182782%" x2="117.738017%" y2="-158.392724%" id="n"><stop stop-color="#AAFFA9" offset="0%"/><stop stop-color="#11FFBD" offset="100%"/></linearGradient><linearGradient x1="-0.147481526%" y1="231.759446%" x2="122.394283%" y2="-295.275119%" id="o"><stop stop-color="#AAFFA9" offset="0%"/><stop stop-color="#11FFBD" offset="100%"/></linearGradient><linearGradient x1="36.0987759%" y1="89.2610644%" x2="76.8948713%" y2="-23.6965247%" id="p"><stop stop-color="#AAFFA9" offset="0%"/><stop stop-color="#11FFBD" offset="100%"/></linearGradient><linearGradient x1="0.0234848485%" y1="50.1537445%" x2="99.8936869%" y2="50.1537445%" id="q"><stop stop-color="#56CCF2" offset="0%"/><stop stop-color="#2F80ED" offset="100%"/></linearGradient><linearGradient x1="-0.977714286%" y1="49.8095238%" x2="100.924571%" y2="49.8095238%" id="r"><stop stop-color="#AAFFA9" offset="0%"/><stop stop-color="#11FFBD" offset="100%"/></linearGradient><linearGradient x1="-0.977714286%" y1="50.1721154%" x2="100.924571%" y2="50.1721154%" id="s"><stop stop-color="#AAFFA9" offset="0%"/><stop stop-color="#11FFBD" offset="100%"/></linearGradient><linearGradient x1="-0.977714286%" y1="50.0538462%" x2="100.924571%" y2="50.0538462%" id="t"><stop stop-color="#AAFFA9" offset="0%"/><stop stop-color="#11FFBD" offset="100%"/></linearGradient><linearGradient x1="-1.36609195%" y1="50.1504762%" x2="101.121839%" y2="50.1504762%" id="u"><stop stop-color="#AAFFA9" offset="0%"/><stop stop-color="#11FFBD" offset="100%"/></linearGradient><linearGradient x1="-1.36609195%" y1="50.0342857%" x2="101.121839%" y2="50.0342857%" id="v"><stop stop-color="#AAFFA9" offset="0%"/><stop stop-color="#11FFBD" offset="100%"/></linearGradient><linearGradient x1="-1.36609195%" y1="49.9180952%" x2="101.121839%" y2="49.9180952%" id="w"><stop stop-color="#AAFFA9" offset="0%"/><stop stop-color="#11FFBD" offset="100%"/></linearGradient><linearGradient x1="54.0684211%" y1="58.392%" x2="-13.1605263%" y2="249.996%" id="x"><stop stop-color="#1966CD" offset="0%"/><stop stop-color="#3BADD2" offset="100%"/></linearGradient><linearGradient x1="40.5150538%" y1="80.6433333%" x2="53.9290323%" y2="40.9516667%" id="y"><stop stop-color="#56CCF2" offset="0%"/><stop stop-color="#2F80ED" offset="100%"/></linearGradient><linearGradient x1="-1.58163265%" y1="50.1983333%" x2="102.157143%" y2="50.1983333%" id="z"><stop stop-color="#AAFFA9" offset="0%"/><stop stop-color="#11FFBD" offset="100%"/></linearGradient><linearGradient x1="-1.25327869%" y1="49.677027%" x2="101.269672%" y2="49.677027%" id="AA"><stop stop-color="#AAFFA9" offset="0%"/><stop stop-color="#11FFBD" offset="100%"/></linearGradient><linearGradient x1="-1.32957746%" y1="49.977907%" x2="101.297183%" y2="49.977907%" id="AB"><stop stop-color="#AAFFA9" offset="0%"/><stop stop-color="#11FFBD" offset="100%"/></linearGradient><linearGradient x1="-0.0427157001%" y1="49.9985299%" x2="100.036634%" y2="49.9985299%" id="AC"><stop stop-color="#AAFFA9" offset="0%"/><stop stop-color="#11FFBD" offset="100%"/></linearGradient><linearGradient x1="0.0675381264%" y1="50.006%" x2="99.9117647%" y2="50.006%" id="AD"><stop stop-color="#AAFFA9" offset="0%"/><stop stop-color="#11FFBD" offset="100%"/></linearGradient><linearGradient x1="-2.17439024%" y1="49.2609195%" x2="103.969512%" y2="49.2609195%" id="AE"><stop stop-color="#56CCF2" offset="0%"/><stop stop-color="#2F80ED" offset="100%"/></linearGradient><linearGradient x1="-0.112765957%" y1="50.0735294%" x2="99.8%" y2="50.0735294%" id="AF"><stop stop-color="#2F80ED" offset="0%"/><stop stop-color="#56CCF2" offset="100%"/></linearGradient><linearGradient x1="1.87413793%" y1="49.6567568%" x2="105.27931%" y2="49.6567568%" id="AG"><stop stop-color="#AAFFA9" offset="0%"/><stop stop-color="#11FFBD" offset="100%"/></linearGradient><linearGradient x1="-0.738888889%" y1="50.1270606%" x2="100.014815%" y2="50.1270606%" id="AH"><stop stop-color="#AAFFA9" offset="0%"/><stop stop-color="#11FFBD" offset="100%"/></linearGradient><linearGradient x1="49.8333333%" y1="91.8292649%" x2="49.8333333%" y2="28.7008322%" id="AI"><stop stop-color="#2F80ED" offset="0%"/><stop stop-color="#56CCF2" offset="100%"/></linearGradient><linearGradient x1="53.9617059%" y1="91.1865061%" x2="48.0774809%" y2="28.5012291%" id="AJ"><stop stop-color="#56CCF2" offset="0%"/><stop stop-color="#2F80ED" offset="100%"/></linearGradient><linearGradient x1="49.7631516%" y1="89.8333208%" x2="48.7031381%" y2="28.0481193%" id="AK"><stop stop-color="#56CCF2" offset="0%"/><stop stop-color="#2F80ED" offset="100%"/></linearGradient><linearGradient x1="-6.79776612%" y1="50.0204376%" x2="106.887656%" y2="49.5318418%" id="AL"><stop stop-color="#AAFFA9" offset="0%"/><stop stop-color="#11FFBD" offset="100%"/></linearGradient><linearGradient x1="-0.115217391%" y1="50.52%" x2="99.9304348%" y2="50.52%" id="AM"><stop stop-color="#3BADD2" offset="0%"/><stop stop-color="#1966CD" offset="100%"/></linearGradient><linearGradient x1="110.479941%" y1="50.3333747%" x2="-6.68801419%" y2="49.5540662%" id="AN"><stop stop-color="#AAFFA9" offset="0%"/><stop stop-color="#11FFBD" offset="100%"/></linearGradient><path id="AO" d="M83.9 11.493c1.194.68 1.28 1.362 0 2.554l-3.155 3.235-3.58-1.617 3.41-3.746s1.28-1.192 2.814-.68l.512.255z"/><path id="AP" d="M83.9 79.084l.34-.17-1.28-.85c-.17-.085-.512-.17-.682-.085l.256-.17-.767-.51h-.597l1.023.68 1.705 1.107z"/></defs><g fill="none"><g class="B"><path d="M41.864 5.533L37.26 7.662l-3.58-3.83c-1.194-.68-1.194-1.788 0-2.554l.512-.255c1.194-.68 3.155-.68 4.348 0l3.325 4.512z" fill="url(#A)"/><path d="M150.404 132.8l-79.72-51.247-60.28 27.667c-2.558 1.192-2.728 4.767-.34 6.214l82.28 48.097c4.604 2.724 10.317 2.724 14.92 0l42.887-24.772c2.387-1.277 2.473-4.512.256-5.96z" fill="#2F2F7A"/></g><path d="M83.643 14.046c-1.023.936-2.984 3.235-2.984 3.235l-.34 7.576-.256 5.874-.34 6.895-.853 18.728-.17 3.575-.17 3.405-.17 3.15-.17 2.81-.085 2.47-.085 2.043c0 .51-.085 1.022-.085 1.617 0 .34 0 .68-.085 1.107v.51l5.798-3.32s.085 0 .085-.085l.34-.34s0-.085.085-.085l.085-.085v-.085s0-.085.085-.085V13.28c0-.255 0-1.022-.17-1.022.512.17-.256 1.532-.512 1.788z" fill="url(#B)"/><path d="M80.66 17.28L77.93 76.956l-4.093-2.64 3.24-58.653z" fill="url(#C)"/><use xlink:href="#AO" fill="url(#D)"/><g class="B"><path d="M83.302 67.422l-3.58 2.298.512-16.345 2.9-3.575z" fill="url(#E)"/><path d="M79.89 64.613l3.496 2.894-3.58 1.788z" fill="url(#F)"/></g><path d="M83.302 67.422l-3.58 2.298.512-16.345 2.9-3.575z" stroke="url(#G)" class="C"/><g class="B"><path d="M152.45 64.783l3.58-1.447 5.542-.85s-.512 2.81-1.79 3.065c-2.217.596-4.263-.17-4.945-.17s-1.45.17-1.62.17c-.085.085-.767-.766-.767-.766z" fill="url(#H)"/><path d="M41.864 5.533l2.473 56.6-5.03 4.682L37.26 7.662z" fill="url(#I)"/><path d="M33.68 3.83c-.597-.34-.938-.766-.938-1.277l-.17 59.6c0 .426.34.936.938 1.277l5.798 3.32L37.43 7.747 33.68 3.83z" fill="url(#J)"/><path d="M15.433 85.64L.767 86.83l52.778-35.754 2.814-.85z" fill="url(#K)"/><path d="M152.877 106.75l-.938 7.662-52.607 30.05v-6.64z" fill="url(#L)"/><path d="M90.805 127.948l8.526 16.515L.682 86.83l14.75-1.192 24.556 17.196 10.487 2.724 7.844 11.152z" fill="url(#M)"/><path d="M81.853 64.612l28.137 15.493-34.02 4.256z" fill="url(#N)"/><path d="M62.413 53.886l21.4 6.3-7.844 24.176-25.494 21.197H38.71z" fill="url(#O)"/><path d="M151.172 104.963l1.79 1.788-53.63 37.712-8.185-15.834z" fill="url(#P)"/><path d="M56.36 50.31L15.433 85.64l23.277 19.92 23.703-51.673z" fill="url(#Q)"/></g><path d="M133.523 38.138c-1.023.936-2.984 3.235-2.984 3.235l-.34 7.576-.256 5.874-.34 6.895-.853 18.728-.17 3.575-.17 3.405-.17 3.15-.17 2.81-.085 2.47-.085 2.043c0 .51-.085 1.022-.085 1.617 0 .34 0 .68-.085 1.107v.51l5.798-3.32s.085 0 .085-.085l.34-.34s0-.085.085-.085l.085-.085v-.085s0-.085.085-.085V37.372c0-.255 0-1.022-.17-1.022.512.17-.256 1.617-.512 1.788z" fill="url(#R)"/><path d="M130.538 41.458l-2.728 59.675-4.178-2.64 3.325-58.653z" fill="url(#S)"/><use xlink:href="#AO" x="49.793" y="24.177" fill="url(#T)"/><g class="B"><path d="M133.18 91.513l-3.58 2.298.426-16.26 2.984-3.66z" fill="url(#U)"/><path d="M129.77 88.79l3.496 2.81-3.58 1.873z" fill="url(#V)"/></g><path d="M133.18 91.513l-3.58 2.298.426-16.26 2.984-3.66z" stroke="url(#W)" class="C"/><g class="B"><path d="M141.366 99.26l9.805 5.704-60.025 23.666L58.32 116.71z" fill="url(#X)"/><path d="M78.016 77.977l7.674 4.937 5.713-.85-12.193-7.747z" fill="url(#Y)"/><path d="M58.32 116.71c1.023-.34 83.046-17.45 83.046-17.45l-25.323-20.77-40.074 5.874-25.494 21.197 7.844 11.152z" fill="url(#Z)"/></g><path d="M88.077 81.382c-.085-.085-.17-.085-.17-.085h-.17s-.085 0-.085.085v.085s0 .085.085.085c0 0 .085 0 .085.085h.17c.085-.085.085-.17.085-.255.085.085.085.085 0 0zm0 .085c-.085.085-.085.085-.17.085h-.17s-.085 0-.085-.085v-.085l.085-.085h.256c.085.085.085.085.085.17z" fill="url(#a)"/><path d="M87.992 81.382l-.256.085h.085c.085 0 .085 0 .17-.085-.085.085-.085.085 0 0-.085.085-.085.085 0 0 0 .085 0 .085 0 0 0 .085 0 .085 0 0 0 .085 0 0 0 0zm0 .085s-.085 0 0 0c-.085 0-.085 0 0 0h-.085.085c0-.085 0-.085 0 0 0-.085 0-.085 0 0z" fill="url(#b)"/><use xlink:href="#AP" fill="url(#c)"/><path d="M85.946 80.02l-.34-.255-.426.17.426.255z" fill="url(#d)"/><path d="M84.326 79.34l.426-.17h-.085l-.34-.255-.34.17z" fill="url(#e)"/><path d="M86.372 80.276c-.256-.17-.597-.17-.767-.085l1.79 1.192.34-.17-1.364-.936z" fill="url(#f)"/><path d="M81.086 77.296l-1.535.085.426.255h1.535z" fill="url(#g)"/><path d="M86.883 81.127c-.512-.34-.938-.596-1.28-.936-.085.085-.085.255.085.426l.853.596v.085h-.17l-1.364-.85.512-.255-.426-.255-.426.255h-.256l-.597-.426c-.085 0-.085-.085 0-.17l.426-.255-.426-.255-.426.255c.085-.085.085-.255-.085-.426l-1.705-1.192-.853.426.426.255 1.364.85c.17.17.512.17.682.085-.17.085-.085.255.085.426l.853.596c.17.085.512.17.682.085l-.256.17 1.364.936c.256.17.597.17.767.085h.085c.256-.17.256-.34.085-.51zm-3.837-1.958h-.17l-1.364-.85.512-.255c-.085.085-.085.255.085.426l.938.68c.085-.085.085 0 0 0z" fill="url(#h)"/><path d="M88.162 81.212c-.085 0-.085 0 0 0-.085-.085-.17-.085-.17-.085h-.17s-.085 0-.085.085v.085s0 .085.085.085c0 0 .085 0 .085.085h.17c0-.085.085-.17.085-.255 0 .085 0 .085 0 0zm-.085.085c-.085.085-.085.085-.17.085h-.17s-.085 0-.085-.085v-.085l.085-.085h.256c.085.085.085.085.085.17z" fill="url(#i)"/><path d="M87.992 81.212l-.256.085h.085c.085 0 .085 0 .17-.085-.085.085-.085.085 0 0-.085.085-.085.085 0 0 0 .085 0 .085 0 0 0 .085 0 .085 0 0 0 .085 0 0 0 0zm0 .085c-.085 0-.085 0 0 0h-.085.085c0-.085 0-.085 0 0 0-.085 0-.085 0 0z" fill="url(#j)"/><use xlink:href="#AP" y="-0.171" fill="url(#k)"/><path d="M85.946 79.85l-.34-.255-.426.17.426.255z" fill="url(#l)"/><path d="M84.326 79.17l.426-.17-.426-.255-.34.17z" fill="url(#m)"/><path d="M86.372 80.105c-.256-.17-.597-.17-.767-.085l1.79 1.192.34-.17-1.364-.936z" fill="url(#n)"/><path d="M81.086 77.126l-1.535.085.426.255h1.62z" fill="url(#o)"/><path d="M86.883 80.957c-.512-.34-.938-.596-1.28-.936-.085.085-.085.255.085.426l.853.596v.085h-.17l-1.364-.85.512-.255-.426-.255-.426.255h-.256l-.597-.426c-.085 0-.085-.085 0-.17l.426-.255-.426-.255-.256.255c.085-.085.085-.255-.085-.426l-1.705-1.192-.853.426.426.255 1.364.85c.17.17.512.17.682.085-.17.085-.085.255.085.426l.853.596c.17.085.512.17.682.085l-.256.17 1.364.936c.256.17.597.17.767.085h.085c.17-.17.085-.34-.085-.51zM83.047 79h-.17l-1.364-.85.512-.255c-.085.085-.085.255.085.426l.938.68c.085-.085.085 0 0 0z" fill="url(#p)"/><path d="M82.28 64.868L108.88 79.5l7.162-1.022-32.23-18.303z" fill="url(#q)" class="B"/><g class="C D"><path d="M11.68 88.618l14.92 8.938" stroke="url(#r)"/><path d="M11.68 89.725l14.92 8.853" stroke="url(#s)"/><path d="M11.68 90.83l14.92 8.853" stroke="url(#t)"/><path d="M76.48 125.48l14.836 8.938" stroke="url(#u)"/><path d="M76.48 126.585l14.836 8.938" stroke="url(#v)"/><path d="M76.48 127.692l14.836 8.938" stroke="url(#w)"/></g><g class="B"><path d="M78.1 77.977l7.588 4.937-9.72 1.447z" fill="url(#x)"/><path d="M77.845 78.403l7.162 4.682.767-.17-7.674-4.937z" fill="url(#y)"/></g><g class="C D"><path d="M44.678 107.432l8.356 5.108" stroke="url(#z)"/><path d="M42.973 107.943l10.402 6.3" stroke="url(#AA)"/><path d="M41.78 108.71l12.107 7.32" stroke="url(#AB)"/></g><g class="B"><path d="M78.868 112.37c.085.085 39.733-8.428 39.733-8.428l-33.85 10.64 21.913 7.917s-14.58 6.47-15.518 6.13c-1.023-.34-32.826-11.918-32.826-11.918l20.548-4.342z" fill="url(#AC)"/><path d="M23.277 78.914L38.71 93.81l15.86-22.304-12.193 26.05-3.666 8.002-23.277-19.92z" fill="url(#AD)"/></g><path d="M150.404 116.966v-.766c0-.085 0-.085.085-.17v-.085c0-.085.085-.17.085-.255s.085-.17.085-.17v-.085c0-.085.085-.085.085-.17s.085-.17.085-.17v-.085c0-.085.085-.085.085-.17 0 0 0-.085.085-.085l.682-.68s.085 0 .085-.085l.17-.17c.085-.085.17-.085.17-.085.085 0 .085-.085.17-.085h.085c.085 0 .085-.085.17-.085h.853c.085 0 .085 0 .17.085l-3.922-2.298s-.085 0-.085-.085h-.853s-.085 0-.085.085h-.17c-.085 0-.085.085-.17.085s-.17.085-.17.085l-.085.085c-.085 0-.085.085-.085.085s-.085 0-.085.085l-.085.085s-.085 0-.085.085h-.085l-.512.51v.085s0 .085-.085.085v.085s0 .085-.085.085v.085c0 .085-.085.085-.085.17l-.085.085v.255c0 .085-.085.085-.085.17s-.085.085-.085.17v1.362c0 .68.256 1.107.597 1.277l3.922 2.298c-.34-.17-.597-.68-.597-1.277-.085-.17-.085-.255-.085-.426 0 .085 0 .085 0 0z" fill="url(#AE)"/><path d="M152.365 113.817c1.108-.68 2.046-.085 2.046 1.192s-.938 2.81-2.046 3.5-2.046.17-2.046-1.192.938-2.894 2.046-3.5z" fill="#242627"/><path d="M37.6 41.883l.34 12.258.085 4.512-4.007-3.065.17-17.196z" fill="url(#AF)" class="B"/><path d="M151.342 117.306l-1.194-.68a2.59 2.59 0 0 0 .597-.426l1.194.68a2.59 2.59 0 0 1-.597.426" fill="#262728"/><path d="M151.94 116.88l-1.194-.68.17-.17 1.194.68c-.085 0-.17.085-.17.17" fill="#252627"/><path d="M152.11 116.625l-1.194-.68.17-.17 1.194.68-.17.17" fill="#242526"/><path d="M152.28 116.455l-1.194-.68c0-.085.085-.085.085-.17l1.194.68c-.085.085-.085.17-.085.17" fill="#232425"/><path d="M152.365 116.37l-1.194-.68c0-.085.085-.085.085-.17l1.194.68s-.085.085-.085.17" fill="#222324"/><path d="M152.45 116.2l-1.194-.68c0-.085.085-.085.085-.17l1.194.68c0 .085-.085.085-.085.17" fill="#212223"/><path d="M152.536 116.03l-1.194-.68c0-.085.085-.085.085-.17l1.194.68c0 .085-.085.085-.085.17" fill="#202122"/><path d="M152.62 115.86l-1.194-.68c0-.085.085-.085.085-.17l1.194.68c0 .085-.085.17-.085.17" fill="#1F2021"/><path d="M152.706 115.774l-1.194-.68c0-.085.085-.085.085-.17l1.194.68s-.085.085-.085.17" fill="#1E1F20"/><path d="M152.79 115.604l-1.194-.68c0-.085.085-.085.085-.17l1.194.68c-.085.085-.085.085-.085.17" fill="#1D1E1F"/><path d="M152.877 115.434l-1.194-.68c0-.085 0-.085.085-.17l1.194.68c-.085.085-.085.085-.085.17" fill="#1C1D1E"/><path d="M152.877 115.263l-1.194-.68c0-.085 0-.085.085-.17l1.194.68c0 .085-.085.085-.085.17" fill="#1B1C1D"/><path d="M152.962 115.093l-1.194-.68c0-.085 0-.17.085-.17l1.194.68c-.085 0-.085.085-.085.17" fill="#1A1B1C"/><path d="M152.962 114.923l-1.194-.68v-.255l1.194.68c.085.085.085.17 0 .255" fill="#191A1B"/><path d="M153.047 114.667l-1.194-.68v-.34c0-.51-.17-.936-.512-1.107l1.194.68c.34.17.512.596.512 1.107v.34" fill="#18191A"/><path d="M150.063 117.392l-1.108-.596 1.108.68v-.085" fill="#1D1E1F"/><path d="M150.063 117.477l-1.194-.68s.085 0 .085.085l1.194.68c0-.085 0-.085-.085-.085" fill="#1E1F20"/><path d="M150.15 117.477l-1.194-.68h.085l1.194.68h-.085" fill="#1F2021"/><path d="M150.32 117.477l-1.194-.68h.085l1.194.68c-.085.085-.085.085-.085 0" fill="#202122"/><path d="M150.404 117.562l-1.194-.68h.085l1.194.68h-.085" fill="#212223"/><path d="M150.5 117.562l-1.194-.68h.085l1.194.68h-.085" fill="#222324"/><path d="M150.575 117.562l-1.194-.68h.17l1.194.68h-.17" fill="#232425"/><path d="M150.745 117.562l-1.194-.68h.17l1.194.68c-.085-.085-.17 0-.17 0" fill="#242526"/><path d="M150.916 117.477l-1.194-.68c.085 0 .17 0 .17-.085l1.194.68c-.085.085-.17.085-.17.085" fill="#252627"/><path d="M151.086 117.392l-1.194-.68c.085 0 .17-.085.256-.085l1.194.68c-.085.085-.17.085-.256.085" fill="#262728"/><path d="M149.04 116.285v-.51c0-.085 0-.085.085-.17v-.085c0-.085 0-.085.085-.17v-.085c0-.085.085-.17.085-.255s.085-.17.085-.255v-.085c0-.085.085-.17.085-.17.085-.085.085-.17.17-.255 0 0 0-.085.085-.085 0-.085.085-.085.085-.17l.085-.085c0-.085.085-.085.085-.17l.512-.51c.085 0 .085-.085.17-.085l.085-.085c.085 0 .085-.085.17-.085 0 0 .085 0 .085-.085.085-.085.17-.085.256-.17.085 0 .17-.085.17-.085h.085c.085 0 .17-.085.17-.085.085 0 .085 0 .17-.085h.682c.085 0 .085.085.17.085l-1.194-.68s-.085 0-.085-.085h-.938c-.085 0-.085 0-.17.085h-.17c-.085 0-.17.085-.17.085-.085.085-.17.085-.256.17 0 0-.085 0-.085.085-.085 0-.085.085-.17.085l-.085.085c-.085 0-.085.085-.17.085l-.512.51v.085l-.085.085s0 .085-.085.085l-.34.34s0 .085-.085.085c0 .085-.085.17-.085.17 0 .085-.085.085-.085.17v.255c0 .085-.085.085-.085.17s-.085.17-.085.17v1.362c0 .766.256 1.277.682 1.447l1.194.68c-.426-.255-.682-.766-.682-1.447.085-.085.085-.17.085-.34 0 .085 0 .085 0 0z" fill="url(#AG)"/><path d="M151.342 112.625c1.28-.766 2.302-.17 2.302 1.362 0 1.447-1.023 3.235-2.302 4s-2.302.17-2.302-1.362c0-1.447 1.023-3.235 2.302-4zm0 4.682c.938-.51 1.705-1.873 1.705-2.98s-.767-1.532-1.705-1.022-1.705 1.873-1.705 2.98c-.085 1.107.767 1.617 1.705 1.022z" fill="url(#AH)"/><g class="B"><path d="M161.574 62.57c-.085.766-5.542 1.617-5.542 1.617l-2.046.255s-.17.085-1.535.34l-2.643 55.504 5.798 3.32c.085 0 .17.085.256.085h.085c.085 0 .085 0 .17.085.085 0 .256.085.34.085h.085c.085 0 .085 0 .17.085h1.79c.085 0 .256 0 .34-.085h.34c.085 0 .085 0 .17-.085h.085c.085 0 .17-.085.256-.085h.085c.085-.085.17-.085.256-.17l.512-.255s.085 0 .085-.085l.34-.34s0-.085.085-.085l.085-.085v-.085s0-.085.085-.085V63.165c.34-.255.34-.426.34-.596z" fill="url(#AI)"/><path d="M152.28 98.153l-.597 17.792 4.093-1.107v-2.894l.085-15.493z" fill="url(#AJ)"/><path d="M151.683 115.945l4.093-1.107-.085-2.384z" fill="url(#AK)"/></g><path d="M152.28 98.153l-.597 17.792 4.093-1.107v-2.894l.085-15.493z" stroke="url(#AL)" class="C"/><path d="M34.02 55.59l3.922 3.065v-4.256z" fill="url(#AM)" class="B"/><path d="M37.6 41.883l.34 12.258.085 4.512-4.007-3.065.17-17.196z" stroke="url(#AN)" class="C"/></g></svg>