<svg xmlns="http://www.w3.org/2000/svg" xmlns:xlink="http://www.w3.org/1999/xlink" width="70" height="166" viewBox="0 0 150 166"><defs><linearGradient x1="0.809322034%" y1="48.9828571%" x2="99.8491525%" y2="48.9828571%" id="A"><stop stop-color="#56CCF2" offset="0%"/><stop stop-color="#2F80ED" offset="100%"/></linearGradient><linearGradient x1="1.21186441%" y1="48.192381%" x2="100.252542%" y2="48.192381%" id="B"><stop stop-color="#56CCF2" offset="0%"/><stop stop-color="#2F80ED" offset="100%"/></linearGradient><linearGradient x1="3.15%" y1="50.6951613%" x2="99.9080952%" y2="50.6951613%" id="C"><stop stop-color="#56CCF2" offset="0%"/><stop stop-color="#2F80ED" offset="100%"/></linearGradient><linearGradient x1="3.1952381%" y1="51.0478495%" x2="99.9542857%" y2="51.0478495%" id="D"><stop stop-color="#56CCF2" offset="0%"/><stop stop-color="#2F80ED" offset="100%"/></linearGradient><linearGradient x1="52.2849398%" y1="70.2657534%" x2="34.9024096%" y2="-91.139726%" id="E"><stop stop-color="#56CCF2" offset="0%"/><stop stop-color="#2F80ED" offset="100%"/></linearGradient><linearGradient x1="-0.037431694%" y1="50.055493%" x2="99.9631148%" y2="50.055493%" id="F"><stop stop-color="#56CCF2" offset="0%"/><stop stop-color="#2F80ED" offset="100%"/></linearGradient><linearGradient x1="59.0581818%" y1="114.220419%" x2="41.570303%" y2="-9.15759162%" id="G"><stop stop-color="#56CCF2" offset="0%"/><stop stop-color="#2F80ED" offset="100%"/></linearGradient><linearGradient x1="-0.0594202899%" y1="50.0783333%" x2="99.9311594%" y2="50.0783333%" id="H"><stop stop-color="#56CCF2" offset="0%"/><stop stop-color="#2F80ED" offset="100%"/></linearGradient><linearGradient x1="-1.13292683%" y1="50.0170861%" x2="100.031707%" y2="50.0170861%" id="I"><stop stop-color="#2F80ED" offset="0%"/><stop stop-color="#56CCF2" offset="100%"/></linearGradient><linearGradient x1="49.7272%" y1="83.0915607%" x2="51.6504%" y2="4.97641618%" id="J"><stop stop-color="#2F80ED" offset="0%"/><stop stop-color="#348AEE" offset="21.31%"/><stop stop-color="#42A5EF" offset="57.45%"/><stop stop-color="#56CCF2" offset="100%"/></linearGradient><linearGradient x1="-0.0462428181%" y1="49.9740865%" x2="100.022031%" y2="49.9740865%" id="K"><stop stop-color="#56CCF2" offset="0%"/><stop stop-color="#2F80ED" offset="100%"/></linearGradient><linearGradient x1="0.337765205%" y1="50.1643399%" x2="99.7328147%" y2="50.1643399%" id="L"><stop stop-color="#56CCF2" offset="0%"/><stop stop-color="#2F80ED" offset="100%"/></linearGradient><linearGradient x1="4.6008%" y1="47.4380282%" x2="99.5088%" y2="47.4380282%" id="M"><stop stop-color="#AAFFA9" offset="0%"/><stop stop-color="#11FFBD" offset="100%"/></linearGradient><linearGradient x1="0.0219409283%" y1="50.5260073%" x2="99.9763713%" y2="50.5260073%" id="N"><stop stop-color="#2F80ED" offset="0%"/><stop stop-color="#56CCF2" offset="100%"/></linearGradient><linearGradient x1="1.66896552%" y1="49.8174583%" x2="100.249655%" y2="49.8174583%" id="O"><stop stop-color="#56CCF2" offset="0%"/><stop stop-color="#2F80ED" offset="100%"/></linearGradient><linearGradient x1="-0.841344357%" y1="50.1652174%" x2="98.4657256%" y2="50.1652174%" id="P"><stop stop-color="#99E699" offset="0%"/><stop stop-color="#0FE6AB" offset="100%"/></linearGradient><linearGradient x1="-0.75004977%" y1="50.1021739%" x2="98.5570202%" y2="50.1021739%" id="Q"><stop stop-color="#AAFFA9" offset="0%"/><stop stop-color="#11FFBD" offset="100%"/></linearGradient><linearGradient x1="1.34544167%" y1="72.411531%" x2="104.107167%" y2="27.2470497%" id="R"><stop stop-color="#AAFFA9" offset="0%"/><stop stop-color="#11FFBD" offset="100%"/></linearGradient><linearGradient x1="0.258657244%" y1="49.408589%" x2="99.7533569%" y2="49.408589%" id="S"><stop stop-color="#2F80ED" offset="0%"/><stop stop-color="#56CCF2" offset="100%"/></linearGradient><linearGradient x1="-2.39%" y1="49.5349206%" x2="33.68%" y2="49.5349206%" id="T"><stop stop-color="#AAFFA9" offset="0%"/><stop stop-color="#11FFBD" offset="100%"/></linearGradient><linearGradient x1="3.7608%" y1="48.3760563%" x2="98.668%" y2="48.3760563%" id="U"><stop stop-color="#AAFFA9" offset="0%"/><stop stop-color="#11FFBD" offset="100%"/></linearGradient><linearGradient x1="0.144303797%" y1="50.5881481%" x2="100.099578%" y2="50.5881481%" id="V"><stop stop-color="#2F80ED" offset="0%"/><stop stop-color="#56CCF2" offset="100%"/></linearGradient><linearGradient x1="1.60896552%" y1="49.8543004%" x2="100.189655%" y2="49.8543004%" id="W"><stop stop-color="#56CCF2" offset="0%"/><stop stop-color="#2F80ED" offset="100%"/></linearGradient><linearGradient x1="-0.164934464%" y1="49.4369565%" x2="99.1421355%" y2="49.4369565%" id="X"><stop stop-color="#99E699" offset="0%"/><stop stop-color="#0FE6AB" offset="100%"/></linearGradient><linearGradient x1="-0.829096333%" y1="48.826087%" x2="98.9933903%" y2="48.826087%" id="Y"><stop stop-color="#AAFFA9" offset="0%"/><stop stop-color="#11FFBD" offset="100%"/></linearGradient><linearGradient x1="1.27894167%" y1="71.1779255%" x2="104.040667%" y2="26.0134442%" id="Z"><stop stop-color="#AAFFA9" offset="0%"/><stop stop-color="#11FFBD" offset="100%"/></linearGradient><linearGradient x1="0.183745583%" y1="49.9153374%" x2="99.6777385%" y2="49.9153374%" id="a"><stop stop-color="#2F80ED" offset="0%"/><stop stop-color="#56CCF2" offset="100%"/></linearGradient><linearGradient x1="-2.61%" y1="50.5920635%" x2="33.45%" y2="50.5920635%" id="b"><stop stop-color="#AAFFA9" offset="0%"/><stop stop-color="#11FFBD" offset="100%"/></linearGradient><linearGradient x1="-0.879347826%" y1="48.2674912%" x2="100.79375%" y2="48.2674912%" id="c"><stop stop-color="#AAFFA9" offset="0%"/><stop stop-color="#11FFBD" offset="100%"/></linearGradient><linearGradient x1="0.658967391%" y1="50.4522968%" x2="102.334511%" y2="50.4522968%" id="d"><stop stop-color="#AAFFA9" offset="0%"/><stop stop-color="#11FFBD" offset="100%"/></linearGradient><linearGradient x1="-0.289945652%" y1="49.4568905%" x2="101.385598%" y2="49.4568905%" id="e"><stop stop-color="#AAFFA9" offset="0%"/><stop stop-color="#11FFBD" offset="100%"/></linearGradient><linearGradient x1="-1.16548913%" y1="48.4614841%" x2="100.5125%" y2="48.4614841%" id="f"><stop stop-color="#AAFFA9" offset="0%"/><stop stop-color="#11FFBD" offset="100%"/></linearGradient><linearGradient x1="2.89255319%" y1="47.4410714%" x2="97.3606383%" y2="47.4410714%" id="g"><stop stop-color="#AAFFA9" offset="0%"/><stop stop-color="#11FFBD" offset="100%"/></linearGradient><linearGradient x1="0.189189189%" y1="50.3591765%" x2="100.458108%" y2="50.3591765%" id="h"><stop stop-color="#56CCF2" offset="0%"/><stop stop-color="#2F80ED" offset="100%"/></linearGradient><linearGradient x1="6.96111111%" y1="45.9121951%" x2="95.9625%" y2="45.9121951%" id="i"><stop stop-color="#AAFFA9" offset="0%"/><stop stop-color="#11FFBD" offset="100%"/></linearGradient><linearGradient x1="0.753703704%" y1="50.6648822%" x2="99.85%" y2="50.6648822%" id="j"><stop stop-color="#56CCF2" offset="0%"/><stop stop-color="#2F80ED" offset="100%"/></linearGradient><linearGradient x1="0.056097561%" y1="49.9801464%" x2="101.221951%" y2="49.9801464%" id="k"><stop stop-color="#2F80ED" offset="0%"/><stop stop-color="#56CCF2" offset="100%"/></linearGradient><linearGradient x1="49.8208%" y1="83.033526%" x2="51.7448%" y2="4.9183815%" id="l"><stop stop-color="#2F80ED" offset="0%"/><stop stop-color="#348AEE" offset="21.31%"/><stop stop-color="#42A5EF" offset="57.45%"/><stop stop-color="#56CCF2" offset="100%"/></linearGradient><linearGradient x1="0.926573333%" y1="72.3789413%" x2="102.635387%" y2="27.557816%" id="m"><stop stop-color="#AAFFA9" offset="0%"/><stop stop-color="#11FFBD" offset="100%"/></linearGradient><linearGradient x1="50.3944444%" y1="342.063333%" x2="50.3944444%" y2="-65.8433333%" id="n"><stop stop-color="#AAFFA9" offset="0%"/><stop stop-color="#11FFBD" offset="100%"/></linearGradient><linearGradient x1="25.94%" y1="416.45%" x2="25.94%" y2="-139.786364%" id="o"><stop stop-color="#AAFFA9" offset="0%"/><stop stop-color="#11FFBD" offset="100%"/></linearGradient><linearGradient x1="59.3076923%" y1="388.661905%" x2="59.3076923%" y2="-194.061905%" id="p"><stop stop-color="#AAFFA9" offset="0%"/><stop stop-color="#11FFBD" offset="100%"/></linearGradient><linearGradient x1="20.78%" y1="364.852381%" x2="20.78%" y2="-217.871429%" id="q"><stop stop-color="#AAFFA9" offset="0%"/><stop stop-color="#11FFBD" offset="100%"/></linearGradient><linearGradient x1="48.0235294%" y1="243.033333%" x2="48.0235294%" y2="-210.196296%" id="r"><stop stop-color="#AAFFA9" offset="0%"/><stop stop-color="#11FFBD" offset="100%"/></linearGradient><linearGradient x1="48.16875%" y1="284.440127%" x2="48.16875%" y2="-417.055414%" id="s"><stop stop-color="#AAFFA9" offset="0%"/><stop stop-color="#11FFBD" offset="100%"/></linearGradient><linearGradient x1="49.9857143%" y1="198.185714%" x2="49.9857143%" y2="-384.538095%" id="t"><stop stop-color="#AAFFA9" offset="0%"/><stop stop-color="#11FFBD" offset="100%"/></linearGradient><linearGradient x1="43.76%" y1="166.098964%" x2="43.76%" y2="-404.547668%" id="u"><stop stop-color="#AAFFA9" offset="0%"/><stop stop-color="#11FFBD" offset="100%"/></linearGradient><linearGradient x1="42.0071429%" y1="132.937668%" x2="42.0071429%" y2="-543.102223%" id="v"><stop stop-color="#AAFFA9" offset="0%"/><stop stop-color="#11FFBD" offset="100%"/></linearGradient><linearGradient x1="38.89%" y1="97.61875%" x2="38.89%" y2="-667.20625%" id="w"><stop stop-color="#AAFFA9" offset="0%"/><stop stop-color="#11FFBD" offset="100%"/></linearGradient><linearGradient x1="51.2046242%" y1="-893.547992%" x2="51.2046242%" y2="-1416.83139%" id="x"><stop stop-color="#AAFFA9" offset="0%"/><stop stop-color="#11FFBD" offset="100%"/></linearGradient><linearGradient x1="49.15224%" y1="-906.670108%" x2="49.15224%" y2="-1429.9535%" id="y"><stop stop-color="#AAFFA9" offset="0%"/><stop stop-color="#11FFBD" offset="100%"/></linearGradient><linearGradient x1="46.7075077%" y1="-660.566366%" x2="46.7075077%" y2="-1049.29117%" id="z"><stop stop-color="#AAFFA9" offset="0%"/><stop stop-color="#11FFBD" offset="100%"/></linearGradient><linearGradient x1="50.0556778%" y1="-2336.48566%" x2="50.0556778%" y2="-3632.23502%" id="AA"><stop stop-color="#AAFFA9" offset="0%"/><stop stop-color="#11FFBD" offset="100%"/></linearGradient><linearGradient x1="50.22248%" y1="-717.089932%" x2="50.22248%" y2="-1135.71665%" id="AB"><stop stop-color="#AAFFA9" offset="0%"/><stop stop-color="#11FFBD" offset="100%"/></linearGradient><linearGradient x1="45.70674%" y1="-907.319146%" x2="45.70674%" y2="-1430.60254%" id="AC"><stop stop-color="#AAFFA9" offset="0%"/><stop stop-color="#11FFBD" offset="100%"/></linearGradient><linearGradient x1="52.4698833%" y1="-681.719053%" x2="52.4698833%" y2="-1081.87694%" id="AD"><stop stop-color="#AAFFA9" offset="0%"/><stop stop-color="#11FFBD" offset="100%"/></linearGradient><linearGradient x1="49.5749526%" y1="-681.5617%" x2="49.5749526%" y2="-1081.71959%" id="AE"><stop stop-color="#AAFFA9" offset="0%"/><stop stop-color="#11FFBD" offset="100%"/></linearGradient><linearGradient x1="-1.00151515%" y1="50.6219512%" x2="100.165152%" y2="50.6219512%" id="AF"><stop stop-color="#AAFFA9" offset="0%"/><stop stop-color="#11FFBD" offset="100%"/></linearGradient><linearGradient x1="-2.48%" y1="48.7589286%" x2="94.34%" y2="48.7589286%" id="AG"><stop stop-color="#AAFFA9" offset="0%"/><stop stop-color="#11FFBD" offset="100%"/></linearGradient><linearGradient x1="1.31176471%" y1="48.9642857%" x2="99.8676471%" y2="48.9642857%" id="AH"><stop stop-color="#AAFFA9" offset="0%"/><stop stop-color="#11FFBD" offset="100%"/></linearGradient><linearGradient x1="1.54%" y1="48.9285714%" x2="98.35%" y2="48.9285714%" id="AI"><stop stop-color="#AAFFA9" offset="0%"/><stop stop-color="#11FFBD" offset="100%"/></linearGradient><path id="AJ" d="M8.902 10.915c.837-.455 1.446-.076 1.446.834l.152 57.38c0 .9-.685 2.047-1.446 2.577l-3.196 1.82c-.837.455-1.446.076-1.446-.834l-.152-57.38c0-.9.685-2.047 1.446-2.577l3.196-1.82z"/><path id="AK" d="M42.76 61.928c.152.455-.076.9-.685 1.213l-3.12 1.668c-.913.53-2.435.455-3.348-.152l-2.74-1.516c-.61-.303-.76-.834-.61-1.213h-.152c-.152.455-.076.985.61 1.364l2.967 1.668c1.065.606 2.74.606 3.804 0l2.89-1.668c.61-.38.76-.9.61-1.364h-.228z"/><path id="AL" d="M13.467 80.12c-.152 0-.228-.076-.38-.076l-1.75-1.06c-.304-.227-.457-.606-.228-.9s.61-.455.913-.227l1.75 1.06c.304.227.457.606.228.9-.076.152-.304.303-.533.303z"/><path id="AM" d="M54.25 101.495l-6.848 7.125a.8.8 0 0 0-.152.379c.076.076.076.076.152.076l.076-.076 6.848-7.125a.8.8 0 0 0 .152-.379c0-.152-.152-.152-.228 0z"/><path id="AN" d="M54.935 123.477c-.152.076-.228.227-.228.38s.076.227.228.152.228-.227.228-.38-.152-.227-.228-.152z"/></defs><g fill="none"><path d="M40.098 164.94L2.435 143.26c-1.902-1.06-1.674-3.032.533-4.245l10.576-6.064c2.207-1.29 5.554-1.364 7.38-.303l37.663 21.68c1.902 1.06 1.674 3.032-.533 4.245l-10.576 6.064c-2.13 1.29-5.478 1.364-7.38.303z" fill="#2F2F7A" fill-rule="nonzero"/><path d="M69.847 64.202v-.834c0-.076 0-.076-.076-.076 0-.076 0-.076-.076-.076v-.076c0-.076 0-.076-.076-.076 0 0 0-.076-.076-.076 0-.076 0-.076-.076-.076 0-.076-.076-.076-.076-.076s0-.076-.076-.076c0-.076-.076-.076-.076-.076V62.6c0-.076-.076-.076-.076-.076 0-.076-.076-.076-.076-.152-.076-.076-.076-.152-.152-.152 0-.076-.076-.076-.076-.152s-.076-.076-.076-.076c0-.076-.076-.076-.076-.076l-.76-.758s-.076 0-.076-.076-.076 0-.076-.076h-.076s-.076 0-.076-.076c0 0-.076 0-.076-.076h-.837c-.076 0-.076 0-.152.076-.076 0-.076.076-.152.076l-5.554 3.26c.076 0 .076-.076.152-.076s.076 0 .152-.076h.533c.076 0 .152 0 .152.076.076 0 .152.076.228.076.076.076.152.076.228.076.076.076.152.076.228.152s.152.076.152.152c.076.076.152.076.152.152.076.076.152.076.152.152.076.076.152.152.152.227.076.076.152.152.152.227.076.076.076.152.152.227 0 .076.076.076.076.152s.076.076.076.076v.076c.076.076.076.152.076.152.076.076.076.152.152.227s.076.152.076.227.076.152.076.227.076.152.076.227.076.152.076.227v.834c0 .076 0 .152-.076.152 0 .076-.076.076-.076.152s-.076.076-.076.152-.076.076-.076.076l-.152.152h-.076c-.076 0-.076.076-.152.076L69 65.566c.076 0 .076-.076.152-.076h.076l.152-.152c0-.076.076-.076.076-.076 0-.076.076-.076.076-.152s0-.076.076-.076v-.606c.228-.152.228-.152.228-.227z" fill="url(#A)"/><path d="M62.315 64.202c1.065.606 1.902 2.122 1.902 3.335s-.913 1.743-1.978 1.137-1.902-2.122-1.902-3.335c0-1.29.913-1.743 1.978-1.137z" fill="#0E3F65"/><path d="M56.76 55.712v-.834c0-.076 0-.076-.076-.076 0-.076 0-.076-.076-.076v-.076c0-.076 0-.076-.076-.076 0 0 0-.076-.076-.076 0-.076 0-.076-.076-.076 0-.076-.076-.076-.076-.076s0-.076-.076-.076c0-.076-.076-.076-.076-.076v-.076c0-.076-.076-.076-.076-.076 0-.076-.076-.076-.076-.152-.076-.076-.076-.152-.152-.152 0-.076-.076-.076-.076-.152s-.076-.076-.076-.076c0-.076-.076-.076-.076-.076l-.76-.758s-.076 0-.076-.076c0 0-.076 0-.076-.076h-.076s-.076 0-.076-.076-.076 0-.076-.076h-.837c-.076 0-.076 0-.152.076-.076 0-.076.076-.152.076l-5.554 3.26c.076 0 .076-.076.152-.076s.076 0 .152-.076h.533c.076 0 .152 0 .152.076.076 0 .152.076.228.076.076.076.152.076.228.076.076.076.152.076.228.152s.152.076.152.152c.076.076.152.076.152.152.076.076.152.076.152.152.076.076.152.152.152.227.076.076.152.152.152.227.076.076.076.152.152.227 0 .076.076.076.076.152s.076.076.076.076v.076c.076.076.076.152.076.152.076.076.076.152.152.227s.076.152.076.227.076.152.076.227.076.152.076.227.076.152.076.227v.834c0 .076 0 .152-.076.152 0 .076-.076.076-.076.152s-.076.076-.076.152-.076.076-.076.076l-.152.152h-.076c-.076 0-.076.076-.152.076l5.554-3.26c.076 0 .076-.076.152-.076h.076l.152-.152c0-.076.076-.076.076-.076 0-.076.076-.076.076-.152s0-.076.076-.076v-.606l.228-.227z" fill="url(#B)"/><path d="M49.304 55.636c1.065.606 1.902 2.122 1.902 3.335s-.913 1.743-1.978 1.137-1.902-2.122-1.902-3.335.837-1.743 1.978-1.137z" fill="#0E3F65"/><path d="M65.13 68.75v-.834c0-.076 0-.152-.076-.152v-.227c0-.076-.076-.152-.076-.152 0-.076 0-.076-.076-.152 0-.076-.076-.152-.076-.152 0-.076-.076-.152-.076-.152v-.076c0-.076 0-.076-.076-.152 0-.076-.076-.152-.076-.152 0-.076-.076-.076-.076-.152s-.076-.152-.076-.152c0-.076-.076-.152-.076-.152v-.076c0-.076-.076-.076-.076-.152-.076-.076-.076-.152-.076-.152 0-.076-.076-.076-.076-.076v-.076c-.076-.076-.076-.076-.076-.152-.076-.076-.076-.152-.152-.227v-.076c-.076-.076-.152-.227-.228-.303s-.076-.152-.152-.227l-.685-.682s-.076 0-.076-.076l-.38-.38h-.076s-.076 0-.076-.076l-.152-.152c-.076 0-.076-.076-.152-.076-.076-.076-.076-.076-.152-.076-.076-.076-.076-.076-.152-.076h-.076c-.076 0-.076-.076-.152-.076s-.076-.076-.152-.076-.076 0-.076-.076c-.076 0-.076-.076-.152-.076s-.076-.076-.152-.076-.076 0-.076-.076-.076 0-.152-.076h-1.293c-.076 0-.152.076-.228.076-.076.076-.152.076-.304.152l-9.663 5.61c.076-.076.152-.076.304-.152.076 0 .152-.076.228-.076h.076c.076 0 .152 0 .228-.076h.38c.076 0 .228 0 .304.076h.076c.076 0 .228.076.304.076.076.076.228.076.304.152.152.076.228.152.304.152.152.076.228.152.38.227.076.076.228.152.304.227h.076c.076.076.228.152.304.227l.685.682c.076.152.228.227.304.38s.152.227.228.38c.076.076.076.152.152.227s.076.152.152.152c0 .076.076.076.076.076.076.076.152.227.152.303v.076c.076.152.152.303.228.38.076.152.152.303.152.38.076.152.076.303.152.38a.68.68 0 0 1 .076.379v.076c.076.152.076.303.076.38 0 .152.076.303.076.38v.9c0 .152 0 .227-.076.303v.076c0 .076-.076.227-.076.303v.076c0 .076-.076.152-.076.227-.076.076-.076.152-.152.227v.076c-.076.076-.076.152-.152.152l-.304.303c-.076.076-.152.076-.228.152l9.663-5.61c.076-.076.152-.076.228-.152l.304-.303c.076-.076.076-.152.152-.152.076-.076.076-.152.152-.227 0-.076.076-.076.076-.152v-.227c0-.076.076-.152.076-.152v-.9c.304.152.304.076.304.076z" fill="url(#C)"/><path d="M52.043 68.674c1.826 1.06 3.348 3.638 3.348 5.837 0 2.122-1.522 3.032-3.424 1.895-1.826-1.06-3.348-3.638-3.348-5.837.076-2.122 1.598-2.956 3.424-1.895z" fill="#0E3F65"/><path d="M51.663 60.033V59.2c0-.076 0-.152-.076-.152v-.227c0-.076-.076-.152-.076-.152 0-.076 0-.076-.076-.152 0-.076-.076-.152-.076-.152l-.076-.152v-.076c0-.076 0-.076-.076-.152 0-.076-.076-.152-.076-.152 0-.076-.076-.076-.076-.152s-.076-.152-.076-.152l-.076-.152v-.076c0-.076-.076-.076-.076-.152-.076-.076-.076-.152-.076-.152 0-.076-.076-.076-.076-.076v-.076c-.076-.076-.076-.076-.076-.152-.076-.076-.076-.152-.152-.227v-.076c-.076-.076-.152-.227-.228-.303s-.076-.152-.152-.227l-.685-.682s-.076 0-.076-.076l-.38-.38h-.076s-.076 0-.076-.076l-.152-.152c-.076 0-.076-.076-.152-.076-.076-.076-.076-.076-.152-.076-.076-.076-.076-.076-.152-.076h-.076c-.076 0-.076-.076-.152-.076s-.076-.076-.152-.076-.076 0-.076-.076c-.076 0-.076-.076-.152-.076s-.076-.076-.152-.076-.076 0-.076-.076c-.076 0-.076 0-.152-.076H45.88c-.076 0-.152.076-.228.076-.076.076-.152.076-.304.152l-9.663 5.61c.076-.076.152-.076.304-.152.076 0 .152-.076.228-.076h.076c.076 0 .152 0 .228-.076h.38c.076 0 .228 0 .304.076h.076c.076 0 .228.076.304.076.076.076.228.076.304.152.152.076.228.152.304.152.152.076.228.152.38.227.076.076.228.152.304.227h.076c.076.076.228.152.304.227l.685.682c.076.152.228.227.304.38s.152.227.228.38c.076.076.076.152.152.227s.076.152.152.152c0 .076.076.076.076.076.076.076.152.227.152.303v.076c.076.152.152.303.228.38.076.152.152.303.152.38.076.152.076.303.152.38a.68.68 0 0 1 .076.379v.076c.076.152.076.303.076.38 0 .152.076.303.076.38v.9c0 .152 0 .227-.076.303v.076c0 .076-.076.227-.076.303v.076c0 .076-.076.152-.076.227-.076.076-.076.152-.152.227v.076c-.076.076-.076.152-.152.152l-.304.303c-.076.076-.152.076-.228.152l9.663-5.61c.076-.076.152-.076.228-.152l.304-.303c.076-.076.076-.152.152-.152.076-.076.076-.152.152-.227 0-.076.076-.076.076-.152v-.227c0-.076.076-.152.076-.152v-.9c.304.227.304.152.304.076z" fill="url(#D)"/><path d="M38.652 60.033C40.478 61.094 42 63.67 42 65.87c0 2.122-1.522 3.032-3.424 1.895-1.826-1.06-3.348-3.638-3.348-5.837 0-2.122 1.522-3.032 3.424-1.895z" fill="#0E3F65"/><path d="M49.38 83.758l9.663-5.61-2.967 5.458-9.663 5.61z" fill="url(#E)"/><path d="M46.49 74.89l2.89 8.868-2.967 5.458-21.837-12.583-3.043-8.868 3.12-5.458z" fill="url(#F)"/><path d="M46.49 74.89l9.663-5.61 2.89 8.868-9.663 5.61z" fill="url(#G)"/><path d="M24.652 62.306l9.663-5.61L56.152 69.28l-9.663 5.61z" fill="url(#H)"/><use xlink:href="#AJ" fill="url(#I)"/><path d="M6.087 8.565c-.076 0-.076-.076-.076-.076h-.76c-.076 0-.076 0-.076.076h-.076c-.076 0-.152.076-.228.076l-3.196 1.82c-.076.076-.152.076-.228.152l-.533.53v.076l-.076.076s0 .076-.076.076l-.076.076s0 .076-.076.076v.076l-.076.076v.076c0 .076-.076.076-.076.152s-.076.076-.076.076v.227c0 .076-.076.076-.076.076 0 .076-.076.076-.076.152v1.137l.152 57.38c0 .455.152.758.457.9l3.804 2.198c-.304-.152-.457-.455-.457-.9l-.152-58.138c0-.076 0-.076.076-.152v-.076c0-.076.076-.152.076-.152 0-.076.076-.076.076-.152v-.076c0-.076.076-.076.076-.152.076-.076.076-.076.076-.152v-.076c0-.076.076-.076.076-.076s0-.076.076-.076c0-.076.076-.076.076-.076l.61-.606c.076-.076.152-.152.228-.152l3.196-1.82c.076-.076.152-.076.228-.076h.076c.076 0 .076 0 .076-.076h.61c.076 0 .076 0 .076.076L6.087 8.565z" fill="url(#J)"/><g fill-rule="nonzero"><path d="M40.022 79.286c2.054 1.213 3.728 4.017 3.652 6.367l-.152 62.762c0 2.35-1.674 3.26-3.728 2.122l-33.63-19.33c-2.054-1.213-3.728-4.017-3.652-6.367l.152-62.762c0-2.35 1.674-3.26 3.728-2.122l33.63 19.33z" fill="url(#K)"/><path d="M57.217 77.618v-.758c0-.076 0-.152-.076-.152 0-.076 0-.152-.076-.227v-.227c0-.076-.076-.152-.076-.227s0-.076-.076-.152c0-.076-.076-.152-.076-.227s-.076-.152-.076-.227v-.152c0-.076 0-.076-.076-.152 0-.076-.076-.152-.076-.152 0-.076-.076-.076-.076-.152s-.076-.152-.076-.152c-.076-.076-.076-.152-.076-.227v-.152c0-.076-.076-.076-.076-.152-.076-.076-.076-.152-.152-.227 0-.076-.076-.076-.076-.076v-.076C56 73.677 56 73.6 56 73.6c-.076-.076-.076-.152-.152-.227v-.076c-.076-.152-.152-.227-.228-.303s-.152-.152-.152-.227c-.076-.076-.076-.152-.152-.152-.076-.076-.076-.152-.152-.152-.076-.076-.076-.152-.152-.152-.076-.076-.076-.076-.076-.152l-.38-.38c-.076-.076-.152-.076-.152-.152l-.228-.227c-.076-.076-.152-.076-.152-.152-.076-.076-.076-.076-.152-.076-.076-.076-.076-.076-.152-.076-.076-.076-.076-.076-.152-.076h-.076l-33.63-19.33c-.076 0-.076-.076-.152-.076s-.076-.076-.152-.076-.076-.076-.076-.076c-.076 0-.076-.076-.152-.076s-.076-.076-.152-.076-.076 0-.076-.076c-.076 0-.076-.076-.152-.076h-.99c-.076 0-.152 0-.228.076h-.076c-.076 0-.152.076-.228.076-.076.076-.228.076-.304.152L3.576 59.275c.076-.076.228-.076.304-.152.076 0 .152-.076.228-.076h.076c.076 0 .152 0 .304-.076h.457c.076 0 .228 0 .304.076h.076c.152 0 .228.076.304.076.152.076.228.076.38.152s.228.152.38.227l33.63 19.33c.152.076.228.152.38.227s.228.152.38.227l.076.076a.59.59 0 0 1 .304.303l.38.38c.152.152.228.227.304.38.228.227.38.53.533.758.076.076.076.152.152.227s.076.152.152.227c0 .076.076.076.076.076.076.152.152.227.228.38v.076l.228.455c.076.152.152.303.152.455v.076c.076.152.076.303.152.455s.076.303.152.455v.076c.076.152.076.303.076.455s.076.303.076.455v.53l-.152 63.216c0 .152-.076.227-.076.38v.076c0 .152-.076.227-.076.303v.076c-.076.076-.076.152-.076.303v.076c-.076.076-.076.227-.152.303v.076c-.076.076-.076.152-.152.227l-.304.303c-.076.076-.152.076-.228.152l13.543-7.807c.076-.076.152-.076.228-.152l.304-.303c.076-.076.076-.152.152-.227v-.076c.076-.076.076-.152.152-.227v-.076c0-.076.076-.152.076-.152 0-.076 0-.076.076-.076v-.152c0-.076.076-.152.076-.227v-.9l.152-62.762c-.152-.152-.152-.227-.152-.303z" fill="url(#L)"/></g><path d="M42 67.31v.152c0 .076 0 .076-.076.152 0 .076 0 .076-.076.152 0 .076-.076.076-.076.152s-.076.076-.076.152-.076.076-.076.076l-.76.758c-.076.076-.076.076-.152.076-.076.076-.152.076-.152.152-.076.076-.152.076-.152.152l-.457.227c-.076 0-.076.076-.152.076-.152.076-.228.076-.38.152-.076 0-.076.076-.152.076s-.152.076-.228.076-.152.076-.152.076c-.076 0-.152.076-.228.076s-.152 0-.152.076c-.152.076-.38.076-.533.076h-2.054c-.076 0-.152 0-.228-.076-.076 0-.152 0-.228-.076-.076 0-.228-.076-.304-.076s-.076 0-.152-.076c-.152-.076-.304-.076-.457-.152-.076-.076-.152-.076-.228-.076s-.076-.076-.152-.076c-.152-.076-.228-.152-.304-.152-.913-.53-1.293-1.213-1.293-1.82v2.5c0 .682.457 1.364 1.293 1.82.152.076.228.152.304.152s.076.076.152.076c.076.076.152.076.228.076.152.076.304.152.457.152h.228c.076 0 .228.076.304.076h.228c.076 0 .152.076.228.076h2.13c.152 0 .38-.076.533-.076.076 0 .076 0 .152-.076.076 0 .152-.076.228-.076s.152-.076.152-.076c.076 0 .152-.076.228-.076h.076s.076 0 .076-.076c.152-.076.228-.076.38-.152.076 0 .076-.076.152-.076l.457-.227s.076 0 .076-.076c.076 0 .076-.076.152-.076.076-.076.152-.076.152-.152.076-.076.076-.076.152-.076l.457-.455s0-.076.076-.076l.228-.227v-.076c0-.076.076-.076.076-.152 0 0 0-.076.076-.076 0-.076 0-.076.076-.152v-2.88c-.076.076-.076.076-.076.152z" fill="url(#M)"/><path d="M40.707 65.34c1.75.985 1.75 2.653 0 3.638s-4.64.985-6.39 0-1.75-2.653 0-3.638c1.75-1.06 4.64-1.06 6.39 0z" fill="url(#N)"/><path d="M42.913 11.75v.38s0 .076-.076.076c0 0 0 .076-.076.076 0 .076-.076.076-.076.076s0 .076-.076.076c-.076.076-.076.076-.076.152l-.304.303c-.076 0-.076.076-.076.076l-2.89 1.668c-.152.076-.228.152-.38.152-.076 0-.076 0-.076.076-.076 0-.152.076-.228.076s-.152.076-.228.076-.228.076-.304.076H36.98c-.152 0-.304-.076-.38-.076h-.076c-.152-.076-.228-.076-.38-.076h-.076c-.152-.076-.304-.152-.38-.152l-2.89-1.668c-.38-.227-.61-.455-.685-.758-.076-.076-.076-.227-.076-.303l-.152 55.712c0 .38.228.758.76.985l2.89 1.668c.152.076.228.152.38.152h.076c.076 0 .152.076.228.076s.076 0 .152.076h.152c.076 0 .152.076.228.076h1.217c.076 0 .152 0 .228-.076h.076c.076 0 .152-.076.228-.076s.076 0 .152-.076c.076 0 .076 0 .076-.076.076 0 .076 0 .076-.076.152-.076.228-.076.38-.152l2.89-1.668h.076s.076 0 .076-.076c.076 0 .076-.076.076-.076l.152-.152c.076-.076.076-.076.076-.152l.076-.076v-.076s0-.076.076-.076v-.38l.228-55.788z" fill="url(#O)"/><use xlink:href="#AK" fill="url(#P)"/><path d="M42.685 61.7c.152.455-.076.9-.61 1.213l-2.89 1.668c-.913.53-2.435.53-3.348 0l-2.967-1.668c-.61-.303-.685-.834-.533-1.213h-.228c-.152.455-.076.985.61 1.364l2.967 1.668c1.065.606 2.74.606 3.804 0l2.89-1.668c.61-.38.76-.9.61-1.364h-.304z" fill="url(#Q)"/><path d="M39.566 66.93c0 .606.457.834.913.53s.913-.985.913-1.592-.457-.834-.913-.53-.913.985-.913 1.592z" fill="url(#R)"/><path d="M42.23 10.99c.99.53.99 1.44 0 2.047l-2.89 1.668c-.99.53-2.51.53-3.5 0l-2.89-1.668c-.99-.53-.99-1.44 0-2.047l2.89-1.668c.99-.53 2.51-.53 3.5 0l2.89 1.668z" fill="url(#S)"/><path d="M34.316 69.356l-.228-.152V64.58l.228.152z" fill="url(#T)"/><path d="M25.26 58.668v.303c0 .076 0 .076-.076.152 0 .076-.076.076-.076.152s-.076.076-.076.152-.076.076-.076.076l-.76.758c-.076.076-.076.076-.152.076-.076.076-.152.076-.152.152-.076.076-.152.076-.152.152l-.457.227c-.076 0-.076.076-.152.076-.152.076-.228.076-.38.152-.076 0-.076.076-.152.076s-.152.076-.228.076-.152.076-.152.076c-.076 0-.152.076-.228.076s-.152 0-.152.076c-.152.076-.38.076-.533.076H19.25c-.076 0-.152 0-.228-.076-.076 0-.152 0-.228-.076-.076 0-.228-.076-.304-.076s-.076 0-.152-.076c-.152-.076-.304-.076-.457-.152-.076-.076-.152-.076-.228-.076s-.076-.076-.152-.076c-.152-.076-.228-.152-.304-.152-.913-.53-1.293-1.213-1.293-1.82v2.5c0 .682.457 1.364 1.293 1.82.152.076.228.152.304.152s.076.076.152.076c.076.076.152.076.228.076.152.076.304.152.457.152h.228c.076 0 .228.076.304.076h.228c.076 0 .152.076.228.076h2.13c.152 0 .38-.076.533-.076.076 0 .076 0 .152-.076.076 0 .152-.076.228-.076s.152-.076.152-.076c.076 0 .152-.076.228-.076h.076s.076 0 .076-.076c.152-.076.228-.076.38-.152.076 0 .076-.076.152-.076l.457-.227s.076 0 .076-.076c.076 0 .076-.076.152-.076.076-.076.152-.076.152-.152.076-.076.076-.076.152-.076l.457-.455s0-.076.076-.076l.228-.227v-.076c0-.076.076-.076.076-.152 0 0 0-.076.076-.076 0-.076 0-.076.076-.152v-2.88c-.152.076-.152.152-.152.152z" fill="url(#U)"/><path d="M23.968 56.697c1.75.985 1.75 2.653 0 3.638s-4.64.985-6.39 0-1.75-2.653 0-3.638 4.64-.985 6.39 0z" fill="url(#V)"/><path d="M26.174 3.108v.38s0 .076-.076.076c0 0 0 .076-.076.076 0 .076-.076.076-.076.076s0 .076-.076.076c-.076.076-.076.076-.076.152l-.304.303c-.076 0-.076.076-.076.076l-2.89 1.668c-.152.076-.228.152-.38.152-.076 0-.076 0-.076.076-.076 0-.152.076-.228.076s-.152.076-.228.076-.228.076-.304.076H20.24c-.152 0-.304-.076-.38-.076h-.076c-.152-.076-.228-.076-.38-.076h-.076c-.152-.076-.304-.152-.38-.152l-2.89-1.668c-.38-.227-.61-.455-.685-.758-.076-.076-.076-.227-.076-.303l-.152 55.712c0 .38.228.758.76.985l2.89 1.668c.152.076.228.152.38.152h.076c.076 0 .152.076.228.076s.076 0 .152.076h.152c.076 0 .152.076.228.076h1.217c.076 0 .152 0 .228-.076h.076c.076 0 .152-.076.228-.076s.076 0 .152-.076c.076 0 .076 0 .076-.076.076 0 .076 0 .076-.076.152-.076.228-.076.38-.152l2.89-1.668h.076s.076 0 .076-.076c.076 0 .076-.076.076-.076l.152-.152c.076-.076.076-.076.076-.152l.076-.076v-.076s0-.076.076-.076v-.38l.228-55.788z" fill="url(#W)"/><use xlink:href="#AK" x="-16.814" y="-8.565" fill="url(#X)"/><path d="M25.946 53.135c.152.455-.076.9-.61 1.213l-2.89 1.668c-.913.53-2.435.53-3.348 0l-2.967-1.668c-.61-.303-.685-.834-.533-1.213h-.228c-.152.455-.076.985.61 1.364l2.89 1.668c1.065.606 2.74.606 3.804 0l2.89-1.668c.61-.38.76-.9.61-1.364h-.228z" fill="url(#Y)"/><path d="M22.827 58.365c0 .606.457.834.913.53a1.95 1.95 0 0 0 .913-1.592c0-.606-.457-.834-.913-.53s-.913.985-.913 1.592z" fill="url(#Z)"/><path d="M25.5 2.35c.99.53.99 1.44 0 2.047l-2.89 1.668c-.99.53-2.51.53-3.5 0l-2.89-1.668c-.99-.53-.99-1.44 0-2.047l2.89-1.668c.99-.53 2.51-.53 3.5 0L25.5 2.35z" fill="url(#a)"/><path d="M17.577 60.715l-.228-.152V55.94l.228.152z" fill="url(#b)"/><path d="M10.652 77.77l22.522 12.962" stroke="#0C3551" stroke-width="1.367" stroke-linecap="round"/><use xlink:href="#AL" fill="url(#c)"/><path d="M19.402 83.53c-.152 0-.228-.076-.38-.076l-1.75-1.06c-.304-.227-.457-.606-.228-.9s.61-.455.913-.227l1.75 1.06c.304.227.457.606.228.9-.076.227-.304.303-.533.303z" fill="url(#d)"/><use xlink:href="#AL" x="11.946" y="6.897" fill="url(#e)"/><use xlink:href="#AL" x="17.957" y="10.384" fill="url(#f)"/><g opacity=".7" fill="#0C3551" fill-rule="nonzero"><use xlink:href="#AM"/><use xlink:href="#AM" y="1.905"/><use xlink:href="#AM" y="3.79"/><use xlink:href="#AM" y="5.685"/><use xlink:href="#AM" y="7.58"/><use xlink:href="#AM" y="9.475"/><path d="M54.25 112.865L47.402 120a.8.8 0 0 0-.152.379c.076.076.076.076.152.076l.076-.076 6.848-7.125a.8.8 0 0 0 .152-.379c0-.152-.152-.152-.228 0zm0 1.895l-2.815 2.956a.8.8 0 0 0-.152.379c.076.076.076.076.152.076l.076-.076 2.815-2.956a.8.8 0 0 0 .152-.379c0-.152-.152-.152-.228 0zm0 1.895l-2.435 2.577a.8.8 0 0 0-.152.379c.076.076.076.076.152.076l.076-.076 2.435-2.577a.8.8 0 0 0 .152-.379c0-.152-.152-.152-.228 0zm0 1.895l-2.587 2.73a.8.8 0 0 0-.152.379c.076.076.076.076.152.076l.076-.076 2.587-2.73a.8.8 0 0 0 .152-.379c0-.152-.152-.152-.228 0z"/><use xlink:href="#AM" y="18.95"/><use xlink:href="#AM" y="20.845"/><use xlink:href="#AM" y="22.74"/><use xlink:href="#AM" y="24.635"/><circle transform="matrix(.504698 -.863296 .863296 .504698 29.0249 119.602467)" cx="7.885" cy="25.363" r="1"/><use xlink:href="#AN"/><use xlink:href="#AN" y="-1.895"/><use xlink:href="#AN" y="-3.79"/><use xlink:href="#AN" y="-5.685"/><circle transform="matrix(.504698 -.863296 .863296 .504698 37.252482 114.953921)" cx="7.947" cy="15.869" r="1"/><use xlink:href="#AN" y="-9.551"/><use xlink:href="#AN" y="-11.447"/><use xlink:href="#AN" y="-13.341"/><use xlink:href="#AN" y="-15.237"/><circle transform="matrix(.504698 -.863296 .863296 .504698 45.495048 110.21617)" cx="7.94" cy="6.316" r="1"/><use xlink:href="#AN" y="-19.101"/><use xlink:href="#AN" y="-20.997"/><path d="M54.935 101.04c.152-.076.228-.227.228-.38s-.076-.227-.228-.152-.228.227-.228.38.076.227.228.152z"/></g><path d="M52.804 88.306c.076 0 .152-.076.228-.076s.076 0 .152-.076h.913c.076 0 .076 0 .152.076h.076c.076 0 .152.076.228.076l-1.902-1.137c-.076 0-.076-.076-.152-.076h-1.293c-.076 0-.152.076-.228.076h-.076s-.076 0-.076.076c0 0-.076 0-.076.076-.076.076-.152.076-.228.152s-.152.152-.304.152l-.076.076c-.076.076-.152.076-.152.152-.076 0-.076.076-.076.076-.076.076-.152.076-.152.152l-.76.758c0 .076-.076.076-.076.076l-.076.076c0 .076-.076.076-.076.152l-.076.076c-.076.076-.076.076-.076.152l-.076.076v.076c-.076.076-.076.152-.152.227v.076c-.076.076-.076.152-.076.152s0 .076-.076.076c0 0 0 .076-.076.076 0 0 0 .076-.076.076-.076.076-.076.152-.076.227v.076c-.076.076-.076.152-.076.227v.076c0 .076 0 .076-.076.076 0 .076-.076.076-.076.152s0 .076-.076.076c0 .076 0 .076-.076.152v.076c0 .076 0 .076-.076.152 0 .076 0 .076-.076.152v.152c0 .076 0 .152-.076.227v.606a2.61 2.61 0 0 0 .38 1.364c.152.227.304.38.457.455l1.902 1.137c-.533-.303-.837-.9-.837-1.82v-.606c0-.076 0-.152.076-.227 0-.076 0-.076.076-.152 0-.076 0-.076.076-.152 0-.076.076-.152.076-.227s0-.076.076-.152c0-.076.076-.152.076-.227s0-.076.076-.076c.076-.076.076-.227.152-.303v-.076c.076-.076.076-.227.152-.303 0 0 0-.076.076-.076.076-.076.076-.152.152-.227v-.076c.076-.076.152-.227.152-.303l.076-.076c.076-.076.076-.152.152-.227 0-.076.076-.076.076-.152.076-.076.076-.152.152-.152l.76-.758c.076-.076.152-.076.152-.152.076 0 .076-.076.076-.076.076-.076.152-.076.152-.152l.076-.076c.076-.076.152-.152.304-.152.076-.076.152-.076.228-.152 0 0 .076 0 .076-.076-.076 0 0-.076 0-.076z" fill="url(#g)"/><path d="M52.348 88.533c1.522-.9 2.815-.152 2.815 1.592s-1.217 3.942-2.815 4.85c-1.522.9-2.815.152-2.815-1.592s1.293-3.942 2.815-4.85z" fill="url(#h)"/><path d="M54.022 90.2c.076 0 .076-.076.152-.076h.837c.076 0 .076 0 .152.076h.076c.076 0 .076.076.152.076l-1.37-.834c-.076 0-.076-.076-.076-.076h-1.14c-.076 0-.076.076-.152.076h-.228c-.076.076-.152.076-.228.076-.076.076-.152.076-.228.152l-.076.076c-.076.076-.076.076-.152.076l-.076.076c-.076.076-.076.076-.152.076l-.076.076s-.076 0-.076.076l-.38.38c0 .076-.076.076-.076.076l-.076.076s0 .076-.076.076l-.076.076s0 .076-.076.076c0 .076-.076.076-.076.076s0 .076-.076.076c-.076.076-.076.152-.076.152v.076c0 .076-.076.076-.076.152 0 0 0 .076-.076.076 0 0 0 .076-.076.076v.076c0 .076-.076.076-.076.152s-.076.152-.076.227v.152c0 .076 0 .076-.076.076v1.137c0 .38.076.758.228.985.076.152.228.227.38.38l1.37.834c-.38-.227-.61-.682-.61-1.29v-.834c0-.076 0-.076.076-.152v-.076c0-.076.076-.152.076-.152v-.076c0-.076.076-.152.076-.227.076-.076.076-.152.076-.227 0 0 0-.076.076-.076.076-.076.076-.152.076-.227v-.076c.076-.076.076-.152.152-.227 0 0 0-.076.076-.076.076-.076.076-.076.076-.152l.076-.076c.076-.076.076-.076.076-.152s.076-.076.076-.076l.228-.227c0-.076.076-.076.076-.076l.076-.076c.076-.076.076-.076.152-.076l.076-.076c.076-.076.076-.076.152-.076l.076-.076c.076-.076.152-.076.228-.152s.152-.076.228-.076c.38-.303.457-.303.457-.303z" fill="url(#i)"/><path d="M53.718 90.353c1.14-.682 2.054-.152 2.054 1.137s-.913 2.88-2.054 3.487c-1.14.682-2.054.152-2.054-1.137s.913-2.805 2.054-3.487z" fill="url(#j)"/><use xlink:href="#AJ" x="50.522" y="25.317" fill="url(#k)"/><path d="M56.684 33.883c-.076 0-.076-.076-.076-.076h-.76c-.076 0-.076 0-.076.076h-.076c-.076 0-.152.076-.228.076l-3.196 1.82c-.076.076-.152.076-.228.152l-.533.53v.076l-.076.076s0 .076-.076.076l-.076.076s0 .076-.076.076v.076L51.13 37v.076c0 .076-.076.076-.076.152s-.076.076-.076.076v.227c0 .076-.076.076-.076.076 0 .076-.076.076-.076.152v1.137l.152 57.38c0 .455.152.758.457.9l3.804 2.198c-.304-.152-.457-.455-.457-.9l-.152-58.138c0-.076 0-.076.076-.152v-.076c0-.076.076-.152.076-.152 0-.076.076-.076.076-.152v-.076c0-.076.076-.076.076-.152.076-.076.076-.076.076-.152v-.076c0-.076.076-.076.076-.076s0-.076.076-.076c0-.076.076-.076.076-.076l.61-.606c.076-.076.152-.152.228-.152l3.196-1.82c.076-.076.152-.076.228-.076h.076c.076 0 .076 0 .076-.076h.61c.076 0 .076 0 .076.076l-3.652-2.577z" fill="url(#l)"/><path d="M47.174 123.477c0-.758.533-1.592 1.14-1.97s1.14-.076 1.14.682-.533 1.592-1.14 1.97-1.14.076-1.14-.682z" fill="url(#m)" fill-rule="nonzero"/><path d="M15.598 130.753v-.9l-.38.38-.38-.834v.9l-.304-.152v-1.364l.304.227.38.834.38-.38.304.227v1.364z" fill="url(#n)"/><path d="M16.207 129.92v-.303l.304.227v.303l-.304-.227zm0 1.213v-1.06l.304.152v1.06l-.304-.152z" fill="url(#o)"/><path d="M17.5 131.814v-.606c0-.152-.076-.227-.228-.303s-.228-.076-.228.152v.606l-.304-.152v-1.137l.304.152v.152c.076-.076.152-.076.304 0 .228.152.38.38.38.606v.682l-.228-.152z" fill="url(#p)"/><path d="M18.11 130.98v-.227l.304.227v.303l-.304-.303zm0 1.213v-1.06l.304.152v1.06l-.304-.152z" fill="url(#q)"/><path d="M20.164 133.406l-.304-.606-.228-.152v.455l-.304-.152v-1.364l.685.38c.304.227.533.455.533.758 0 .227-.152.303-.304.227l.38.682-.457-.227zm.076-.9c0-.152-.076-.227-.228-.38l-.304-.152v.38l.304.152c.076.076.228.076.228 0z" fill="url(#r)"/><path d="M21.305 134.012c-.304-.227-.61-.606-.61-.9s.228-.38.61-.227c.304.227.61.606.61.9-.076.303-.304.455-.61.227zm.228-.38c0-.152-.152-.38-.304-.455s-.304 0-.304.152.152.38.304.455c.228.076.304 0 .304-.152z" fill="url(#s)"/><path d="M22.75 134.846v-.152c-.076.076-.152.076-.304 0-.228-.152-.38-.38-.38-.606v-.682l.304.152v.606c0 .152.076.227.228.303s.228.076.228-.152v-.53l.304.152v1.06l-.38-.152z" fill="url(#t)"/><path d="M23.74 135.453c-.228-.152-.304-.227-.304-.53v-.53l-.152-.076v-.227l.152.076v-.303l.304.152v.303l.228.152v.227l-.228-.152v.455c0 .076.076.152.076.152.076.076.152.076.152.076v.227c-.076.076-.152 0-.228 0z" fill="url(#u)"/><path d="M25.185 135.832l-.76-.455c.076.152.152.303.304.38.076.076.152.076.304.076l.152.227c-.076.076-.228.076-.457-.076-.304-.227-.533-.53-.533-.9 0-.303.228-.455.533-.227.38.227.533.606.533.9-.076 0-.076 0-.076.076zm-.533-.758c-.152-.076-.228-.076-.228.076l.457.303c0-.152-.076-.303-.228-.38z" fill="url(#v)"/><path d="M26.022 135.983c-.228-.152-.304-.076-.304.227v.38l-.304-.152v-1.06l.304.152v.227c.076-.152.152-.152.38-.076l-.076.303z" fill="url(#w)"/><path d="M11.793 88.306l-.533-.303v1.06l-.685-.38v-3.563l1.293.758c.76.455 1.217 1.213 1.217 1.895 0 .834-.533.985-1.293.53zm.61-.9c0-.38-.228-.682-.533-.834l-.533-.303v1.06l.533.303c.304.227.533.076.533-.227z" fill="url(#x)"/><path d="M13.62 90.428v-3.563l.685.38v3.563z" fill="url(#y)"/><path d="M17.12 92.4l-.685-1.668-.685.834-.76-.455 1.065-1.213-1.065-2.35.837.455.685 1.516.685-.758.76.455-1.065 1.137 1.065 2.5z" fill="url(#z)"/><path d="M18.032 91.793v-.758l1.37.834v.758z" fill="url(#AA)"/><path d="M20.01 94.142V90.58l.685.38v2.88l1.598.9v.758z" fill="url(#AB)"/><path d="M22.826 95.734v-3.563l.685.38v3.563z" fill="url(#AC)"/><path d="M26.478 97.857l-1.522-3.184v2.274l-.685-.38v-3.563l.61.38 1.446 3.032v-2.198l.685.38v3.563z" fill="url(#AD)"/><path d="M29.902 99.827l-.99-2.122-.38.227v1.06l-.685-.38v-3.563l.685.38v1.592l1.293-.834.837.455-1.293.758 1.37 2.805z" fill="url(#AE)"/><path d="M18.566 129.844l-.61-.38-.76-2.956-.76 2.047-.61-.38-1.14-4.548.76.455.685 2.956.76-2.198.61.38.76 3.032.685-2.198.76.455z" fill="url(#AF)"/><path d="M20.316 130.83v-3.8l.76.455v3.8z" fill="url(#AG)"/><path d="M22.598 129.086v.834l1.598.9v.758l-1.598-.9v1.516l-.76-.455v-3.8l2.587 1.44v.758z" fill="url(#AH)"/><path d="M25.033 133.558v-3.8l.76.455v3.8z" fill="url(#AI)"/></g></svg>