<svg xmlns="http://www.w3.org/2000/svg" width="134" height="166" viewBox="0 0 134 166"><style><![CDATA[.B{fill-rule:nonzero}.C{fill:url(#F)}.D{fill:url(#G)}]]></style><defs><linearGradient x1="26.1923343%" y1="1.40787799%" x2="60.9550309%" y2="81.2510665%" id="A"><stop stop-color="#3C8CE7" offset="0%"/><stop stop-color="#3A8FE8" offset="3%"/><stop stop-color="#1BC0F4" offset="47%"/><stop stop-color="#07DFFC" offset="81%"/><stop stop-color="#00EAFF" offset="100%"/></linearGradient><linearGradient x1="-6.62552803%" y1="0%" x2="108.05675%" y2="96.119546%" id="B"><stop stop-color="#3C8CE7" offset="0%"/><stop stop-color="#3A8FE8" offset="5.5797374%"/><stop stop-color="#1BC0F4" offset="47%"/><stop stop-color="#07DFFC" offset="81%"/><stop stop-color="#00EAFF" offset="100%"/></linearGradient><linearGradient x1="0%" y1="50%" x2="100%" y2="50%" id="C"><stop stop-color="#1966CD" offset="0%"/><stop stop-color="#3BADD2" offset="100%"/></linearGradient><linearGradient x1="0%" y1="50.0116306%" x2="100%" y2="50.0116306%" id="D"><stop stop-color="#1966CD" offset="0%"/><stop stop-color="#3BADD2" offset="100%"/></linearGradient><linearGradient x1="95.1860494%" y1="76.2014787%" x2="-35.6441115%" y2="-13.2532348%" id="E"><stop stop-color="#3C8CE7" offset="1%"/><stop stop-color="#3A8FE8" offset="3%"/><stop stop-color="#1BC0F4" offset="47%"/><stop stop-color="#07DFFC" offset="81%"/><stop stop-color="#00EAFF" offset="100%"/></linearGradient><linearGradient x1="69.5540438%" y1="74.1815049%" x2="111.504157%" y2="133.773693%" id="F"><stop stop-color="#3C8CE7" offset="1%"/><stop stop-color="#3A8FE8" offset="3%"/><stop stop-color="#1BC0F4" offset="47%"/><stop stop-color="#07DFFC" offset="81%"/><stop stop-color="#00EAFF" offset="100%"/></linearGradient><linearGradient x1="93.8777478%" y1="75.3069316%" x2="-35.6441115%" y2="-13.2532348%" id="G"><stop stop-color="#3C8CE7" offset="0%"/><stop stop-color="#3A8FE8" offset="3%"/><stop stop-color="#1BC0F4" offset="47%"/><stop stop-color="#07DFFC" offset="81%"/><stop stop-color="#00EAFF" offset="100%"/></linearGradient><linearGradient x1="32.2810591%" y1="2.87769784%" x2="67.8207739%" y2="86.8105516%" id="H"><stop stop-color="#56CCF2" offset="0%"/><stop stop-color="#2F80ED" offset="100%"/></linearGradient><linearGradient x1="42.4808685%" y1="32.2351421%" x2="62.0573056%" y2="77.0994832%" id="I"><stop stop-color="#2F80ED" offset="0%"/><stop stop-color="#56CCF2" offset="100%"/></linearGradient><linearGradient x1="47.1777784%" y1="-22.8157287%" x2="61.0863784%" y2="158.155266%" id="J"><stop stop-color="#3C8CE7" offset="0%"/><stop stop-color="#3A8FE8" offset="3%"/><stop stop-color="#1BC0F4" offset="47%"/><stop stop-color="#07DFFC" offset="81%"/><stop stop-color="#00EAFF" offset="100%"/></linearGradient><linearGradient x1="125.917574%" y1="39.1959947%" x2="-12.3621404%" y2="77.6810962%" id="K"><stop stop-color="#B3FFAB" offset="0%"/><stop stop-color="#B1FFAC" offset="1%"/><stop stop-color="#6EFFCC" offset="36%"/><stop stop-color="#3CFFE3" offset="65%"/><stop stop-color="#1DFFF2" offset="88%"/><stop stop-color="#12FFF7" offset="100%"/></linearGradient><linearGradient x1="9.92378123e-14%" y1="49.8850575%" x2="100%" y2="49.8850575%" id="L"><stop stop-color="#1966CD" offset="0%"/><stop stop-color="#3BADD2" offset="15%"/><stop stop-color="#3BADD2" offset="80%"/><stop stop-color="#1966CD" offset="100%"/></linearGradient><linearGradient x1="0%" y1="50.0622844%" x2="100%" y2="50.0622844%" id="M"><stop stop-color="#1966CD" offset="0%"/><stop stop-color="#3BADD2" offset="15%"/><stop stop-color="#3BADD2" offset="80%"/><stop stop-color="#1966CD" offset="100%"/></linearGradient><linearGradient x1="59.5530396%" y1="90.4207338%" x2="27.4486228%" y2="6.25252815%" id="N"><stop stop-color="#3C8CE7" offset="0%"/><stop stop-color="#3A8FE8" offset="3%"/><stop stop-color="#1BC0F4" offset="47%"/><stop stop-color="#07DFFC" offset="81%"/><stop stop-color="#00EAFF" offset="100%"/></linearGradient><linearGradient x1="-27.2078501%" y1="84.9297775%" x2="141.462979%" y2="8.64762506%" id="O"><stop stop-color="#B3FFAB" offset="1%"/><stop stop-color="#B1FFAC" offset="1%"/><stop stop-color="#6EFFCC" offset="36%"/><stop stop-color="#3CFFE3" offset="65%"/><stop stop-color="#1DFFF2" offset="88%"/><stop stop-color="#12FFF7" offset="100%"/></linearGradient><linearGradient x1="17%" y1="50.4%" x2="80%" y2="50.4%" id="P"><stop stop-color="#AAFFA9" offset="0%"/><stop stop-color="#11FFBD" offset="100%"/></linearGradient><linearGradient x1="19.5%" y1="50%" x2="76.5%" y2="50%" id="Q"><stop stop-color="#AAFFA9" offset="0%"/><stop stop-color="#11FFBD" offset="100%"/></linearGradient><linearGradient x1="21.5%" y1="50%" x2="78.5%" y2="50%" id="R"><stop stop-color="#AAFFA9" offset="0%"/><stop stop-color="#11FFBD" offset="100%"/></linearGradient><linearGradient x1="40.5%" y1="50.5%" x2="59.5%" y2="50.5%" id="S"><stop stop-color="#AAFFA9" offset="0%"/><stop stop-color="#11FFBD" offset="100%"/></linearGradient><linearGradient x1="40%" y1="50.5%" x2="60%" y2="50.5%" id="T"><stop stop-color="#AAFFA9" offset="0%"/><stop stop-color="#11FFBD" offset="100%"/></linearGradient><linearGradient x1="40%" y1="50%" x2="60%" y2="50%" id="U"><stop stop-color="#AAFFA9" offset="0%"/><stop stop-color="#11FFBD" offset="100%"/></linearGradient><linearGradient x1="40.5%" y1="50%" x2="59.5%" y2="50%" id="V"><stop stop-color="#AAFFA9" offset="0%"/><stop stop-color="#11FFBD" offset="100%"/></linearGradient><linearGradient x1="39.5%" y1="50.5%" x2="60.5%" y2="50.5%" id="W"><stop stop-color="#AAFFA9" offset="0%"/><stop stop-color="#11FFBD" offset="100%"/></linearGradient><linearGradient x1="41.5%" y1="50.5%" x2="62.5%" y2="50.5%" id="X"><stop stop-color="#AAFFA9" offset="0%"/><stop stop-color="#11FFBD" offset="100%"/></linearGradient></defs><g fill-rule="evenodd"><g class="B"><path d="M61.106 52.984l-.44-.28-.422-.306-.395-.333h-.054l-.377-.36-.153-.153c-.126-.117-.242-.252-.36-.378l-.054-.054-.34-.405-.054-.063-.332-.423-.108-.162-.216-.315-.377-.603-.287-.522v-.08l-.25-.495-.224-.522v-.054l-.198-.522v-.054l-.17-.53-.144-.558c0-.198-.08-.387-.108-.576l-.584-3.765-8.225-39.33c-.034-.182-.1-.356-.198-.513a1.54 1.54 0 0 0-2.083-.513L2.344 25.947c-.088.05-.172.108-.25.17l-.224.198c-.423.427-.664 1-.673 1.603l-.296 43.69c-.008.99.065 1.977.216 2.954l.054.35.305 1.954v.054a11.53 11.53 0 0 0 1.482 3.963l.377.603v.054l.18.252.17.162.224.297.08.1.054.063.072.1.207.234.08.117.054.054.08.1.216.225.216.216.216.207h.054l.126.108.233.19.18.135h.054l.34.234.224.135h.054l3.07-1.8h-.054l-.036.117-.1-.063.1.063.224.135h.054l51.4-29.92z" fill="url(#A)"/><path d="M122.16 111.993c1.51.9 1.518 2.297 0 3.18L73.13 143.75a6.01 6.01 0 0 1-5.469 0L2.937 106.265c-1.518-.9-1.527-2.297 0-3.18L51.92 74.51a6.01 6.01 0 0 1 5.469 0l64.77 37.484z" fill="#2F2F7A"/><path d="M21.497 100.374v1.153L9.473 94.574l.01-1.162z" fill="url(#B)"/></g><path d="M9.482 93.412l54.48-31.747 12.015 6.953-54.48 31.756z" fill="url(#C)"/><g fill="url(#B)" class="B"><path d="M21.497 100.374l54.48-31.756-.01 1.162-54.47 31.747z"/><path d="M63.63 124.772l54.48-31.756-.01 1.153-54.48 31.756z"/><path d="M63.63 124.772l-.01 1.153-12.015-6.962.01-1.153z"/></g><path d="M51.615 117.8l54.47-31.756 12.024 6.962-54.48 31.756z" fill="url(#D)"/><g class="B"><path d="M121.018 87.666l-4.598 2.702-49.873 29.1L44 106.38l-1.58-.9-13.308-7.7h-.054L6.573 84.658 61.016 52.92l10.9 6.304 49.1 28.433z" fill="url(#E)"/><path d="M71.918 59.234L61.142 53.01l3.403 1.927c6.214 3.602 9.312 8.628 8.432 13.68-.62 3.602-3.35 6.935-7.722 9.484l-33.53 19.543c-.417.224-.883.34-1.356.333a2.93 2.93 0 0 1-1.221-.252l2.694 1.558c.23-.077.453-.176.664-.297l33.53-19.543c4.75-2.747 7.758-6.493 8.495-10.52.553-3.456-.398-6.985-2.613-9.69z" class="C"/><path d="M73.47 117.774h-1.4l-.056-.1-.122-.043-.207-.057h-.082l-.215-.1-.21-.055h-.05l-.082-.065-.218-.096-.324-.135-4.017 2.298.374.17.216.108.135.063.207.1.207.08h.063l.153.045.216.063h.216l.208.064h.968l.04-.036.337-.028.095-.063c.14-.05.243-.05.372-.126l.107-.1 3.682-2.288a2.52 2.52 0 0 1-.296.189l-.314.1z" class="D"/></g><path d="M124.35 88.26l-.34.1a2.93 2.93 0 0 1-.395.045h-.593l-.43-.072h-.045l-.458-.126c-.162-.054-.326-.12-.494-.198l-.52-.27-5.298 3.09.52.27c.168.078.332.144.494.198l.458.126h.045l.43.072h.53a2.93 2.93 0 0 0 .395-.045l.34-.1a2.61 2.61 0 0 0 .305-.135l5.298-3.09a2.64 2.64 0 0 1-.242.135z" fill="url(#H)"/><path d="M70.463 117.135l35.945-20.948zm48.894-25.955l-9.32 5.422 9.32-5.43z" fill="#B3B3B3"/><path d="M120.776 90.314l-.34.1a2.93 2.93 0 0 1-.395.045h-.61l-.43-.072h-.045l-.458-.126c-.162-.054-.326-.12-.494-.198l-.52-.27-11.072 6.394L70.5 117.135l.153.1.216.108.135.063.207.1.207.08h.063l.153.045.216.063h1.5l.314-.1a2.52 2.52 0 0 0 .404-.189l46.89-27.325a2.62 2.62 0 0 1-.171.243z" fill="url(#I)"/><g class="B"><path d="M121.01 87.666l-10.982-6.358A48.12 48.12 0 0 0 96.98 79.57l-3.08.1c-5.885.257-11.633 1.856-16.8 4.674l-33.53 19.543c-.605.318-1.022.907-1.122 1.585l1.58.9c-.62-.44-.584-1.1.126-1.504l33.53-19.543c5.02-2.726 10.594-4.266 16.298-4.503 1.006-.063 2.01-.1 3.008-.1 7.66 0 15.077 1.8 20.563 4.944l3.457 2h.01z" class="C"/><path d="M121.01 87.666l-4.598 2.702-45.787 26.712-4.086 2.342-22.377-12.96c-.338-.116-.565-.434-.565-.793s.227-.677.565-.793l33.53-19.543c5.02-2.726 10.594-4.266 16.298-4.503 8.7-.53 17.367 1.252 23.58 4.854l3.44 1.98z" fill="url(#J)"/><path d="M117.444 89.756l-46.93 27.397-10.25-9.474a.71.71 0 0 1 0-1.342L85.17 91.54a38.97 38.97 0 0 1 15.265-4.818 39.29 39.29 0 0 1 17.007 3.035z" fill="url(#K)"/><path d="M72.968 68.654c-.62 3.602-3.35 6.935-7.722 9.484L31.716 97.68a3 3 0 0 1-2.694 0L6.597 84.73 61.06 52.975l3.484 1.963c6.205 3.602 9.312 8.655 8.423 13.716z" class="D"/><path d="M61.582 64.205c-.557 3.206-3 6.205-6.914 8.484L25.852 87.36a3.36 3.36 0 0 1-2.487.117L9.67 82.927l48.257-28.053c2.918 2.765 4.23 6.025 3.655 9.33z" fill="url(#K)"/></g><path d="M1.544 77.29a12 12 0 0 0 1.607 3.918 11.45 11.45 0 0 1-1.607-3.918z" fill="url(#L)"/><path d="M68.622 120.125c.504.047 1.012-.04 1.473-.252-.457.222-.968.31-1.473.252z" fill="url(#M)"/><path d="M4.535 83.02l.198.207L4.5 83v-.072zm.34.34l.08.1-.108-.108z" fill="#CFCFCF"/><path d="M5.657 84.064l-.233-.2zm.233.18l.224.162-.207-.144-.18-.135z" fill="#C2C2C2"/><path d="M2.972 80.903l.35.567-.35-.567zm.358.567l.117.17-.054-.08v-.054zm.73 1l-.054-.072zm-.055-.07l-.072-.1-.224-.297zm-.323-.443l-.242-.342.126.17z" fill="#828282"/><g class="B"><path d="M131.174 50.83l-7.256 43.122c-.375 2.205-1.716 4.126-3.655 5.233l-45.518 26c-.65.374-1.34.676-2.056.9-2.76.858-5.75.532-8.26-.9l-.207-.117a.53.53 0 0 1-.117-.829.53.53 0 0 1 .153-.108l5.53-2.486a.53.53 0 0 0 .242-.225l1.32-2.36.117-.144L85.234 77.85c.447-1.338 1.363-2.467 2.577-3.18l42.204-24.64a.77.77 0 0 1 .837.026c.25.173.375.476.32.776z" fill="url(#A)"/><path d="M127.896 57.234l-7.67 41.96-45.482 25.992c-.65.374-1.34.676-2.056.9l14.906-45.184a4.86 4.86 0 0 1 2.164-2.702l37.167-21.696c.227-.147.522-.136.738.027a.65.65 0 0 1 .232.703z" fill="url(#N)"/><path d="M67.167 125.808a5.18 5.18 0 0 1-2.371-.72l-.233-.126L8.98 92.764l-.224-.135c-3.17-2.202-5.326-5.6-5.98-9.402l-.467-2.91c.955 1.928 2.42 3.555 4.238 4.7l59.903 34.7a5.27 5.27 0 0 0 2.451.693c.8.013 1.573-.288 2.155-.838l-.898 3.16c-.602 2.062-1.59 3.07-3 3.07z" fill="url(#O)"/></g><path d="M3.233 81.84l-.54.955v-.288l.458-.838a1.11 1.11 0 0 0 .081.171z" fill="url(#P)"/><path d="M3.43 85.496v.08a9.99 9.99 0 0 1-.476-1.639l.476 1.558z" fill="url(#Q)"/><path d="M4.346 83.812l-.072.144-.44-1.333a2.35 2.35 0 0 0 .198.243l.314.946z" fill="url(#R)"/><path d="M14.358 91.827l-.072.135-.826-2.504-.844 1.54.826 2.504-.072.144-.835-2.513-.835 1.54.673 2.062-.144-.1-.61-1.828-.61 1.126-.153-.1.69-1.26.072-.144.844-1.54.072-.144.844-1.54.08-.135.027-.054.153.1-.108.19z" class="B C"/><path d="M15.274 90.143l-.072.144-.1-.315.144.08z" fill="url(#S)"/><g class="B C"><path d="M13.47 89.008l-.153-.1.1.306.08-.135-.027-.08zm-1.796-.748l.108-.19-.153-.1v.054-.08l-.153-.1.1.306-.835 1.54-.862-2.504.108-.19-.153-.1v.054-.1l-.153-.1.1.315-.835 1.54-.862-2.504.108-.19-.162-.1v.054l-.072.135-.844 1.54-.08.144-.835 1.54-.08.135-.27.504.126.144.224-.414.36 1.1.198.207-.485-1.45.844-1.54.826 2.504-.575 1.072.135.117.52-.955.593 1.8.153.108-.682-2.053.844-1.54.826 2.513-.718 1.225.153.1.61-1.126.61 1.8.153.1-.682-2 .844-1.558.826 2.513.072-.144-.844-2.486.898-1.54.826 2.504.072-.144-.898-2.504zm-3.69 2.08l-.8-2.513.844-1.54.826 2.513-.87 1.54zm1.796 1.054l-.8-2.513.835-1.522.826 2.504-.862 1.53z"/><path d="M22.54 94.277l-.162-.1.108.315.08-.144-.027-.08zm-1.724-.74l.108-.198-.153-.08v-.08l-.162-.1.108.315-.835 1.54-.826-2.513.1-.19-.153-.1v.054-.08l-.153-.1.108.315-.997 1.585-.826-2.513.1-.19-.153-.1v.054-.08l-.153-.1.108.315-.87 1.54-.826-2.513.1-.19-.17-.117v.054l-.072.144-.826 1.603-.072.135-.826 1.504-.072.144-.69 1.26.144.1.62-1.126.61 1.8.153.08-.682-2.062.835-1.54.835 2.513-.69 1.26.144.1.593-1.1.602 1.8.153.1-.682-2.053.844-1.54.826 2.504-.682 1.26.144.1.62-1.126.602 1.8.153.1-.682-2.062.844-1.54.826 2.504-.682 1.27.144.08.62-1.126.61 1.8.144.08-.682-2.053.844-1.54.826 2.504.08-.144-.835-2.504.844-1.45.826 2.504.08-.135-.835-2.495zm-5.55 1.027l-.826-2.504.826-1.55.835 2.504-.835 1.55zm1.796 1.054l-.826-2.504.835-1.54.835 2.504-.844 1.54zm1.796 1.054l-.835-2.504.844-1.54.826 2.504-.835 1.54z"/><path d="M26.184 96.366l-.153-.1.1.306.08-.144-.027-.072zm-1.724-.748l.108-.19-.153-.1v-.072l-.153-.1.1.306-.835 1.54-.89-2.46.108-.19-.153-.1-.08.144-.835 1.54-.08.135-.835 1.54-.08.144-.69 1.26.153.1.62-1.126.602 1.8.144.08-.673-2.053.844-1.54.826 2.504-.69 1.27.153.1.61-1.126.61 1.8.153.1-.682-2.062.835-1.54.835 2.504.072-.135-.826-2.504.844-1.54.826 2.504.072-.144-.853-2.405zm-1.913 3.134l-.826-2.513.844-1.54.78 2.567-.8 1.486z"/><path d="M31.743 99.86l.108-.19-.153-.1v.054-.08l-.153-.1.108.315-.844 1.54-.826-2.513.1-.19-.153-.1v.054-.08l-.153-.1.108.315-.844 1.54-.826-2.513.1-.19-.153-.1v.054-.1l-.323-.08.1.306-.844 1.54-.826-2.504.108-.19-.153-.1-.08.144-.853 1.603-.072.144-.844 1.54-.072.135-.69 1.27.153.1.61-1.126.61 1.8.153.1-.682-2.062.835-1.54.835 2.513-.69 1.26.144.1.62-1.126.602 1.8.153.1-.673-2.062.835-1.54.826 2.513-.682 1.26.144.1.62-1.126.602 1.8.153.1-.682-2.062.844-1.54.826 2.513-.682 1.26.144.1.62-1.126.602 1.8.144.08-.682-2.062.844-1.54.826 2.513.08-.144-.835-2.504.844-1.54.826 2.504.08-.135-.826-2.414zm-5.55 1.01l-.826-2.504.835-1.54.835 2.504-.844 1.54zm1.796 1.054l-.826-2.504.835-1.54.835 2.504-.844 1.54zm1.796 1.054l-.835-2.504.844-1.54.826 2.504-.835 1.54zm3.592-2.387l-.153-.1.1.315.08-.144-.027-.08z"/><path d="M34.4 103.427l-.08.135-.826-2.504-.844 1.54.826 2.504-.072.144-.826-2.513-.844 1.55.673 2.053-.135-.08h-.01l-.602-1.837-.62 1.126-.144-.08.682-1.27.08-.144.835-1.54.08-.135.835-1.54.08-.144.027-.045.153.08-.108.19z"/></g><path d="M35.317 101.743l-.08.144-.1-.315.153.1z" fill="url(#T)"/><g class="B C"><path d="M48.14 109.353l.1-.19-.144-.08v-.08l-.162-.1.108.315-.89 1.55-.835-2.513.108-.19-.153-.1v.054l-.08.135-.835 1.54-.08.144-.835 1.54-.08.135-.69 1.27.153.1.61-1.126.61 1.8.153.08-.71-1.972.844-1.54.826 2.513-.69 1.26.153.1.61-1.126.61 1.8.153.08-.682-2.053.835-1.54.835 2.513.072-.144-.826-2.504.844-1.54.826 2.504.072-.135-.826-2.504zm-1.913 3.134l-.826-2.504.844-1.54.826 2.504-.844 1.54zm3.592-2.387l-.153-.1.1.315.08-.144-.027-.08z"/><path d="M36.062 108.453l-.682-2.062.835-1.54.835 2.504.072-.135-.826-2.513.844-1.54.826 2.513.072-.144-.826-2.504.108-.19-.153-.1-.027.045-.08.144-.835 1.54-.08.144-.844 1.54-.072.135-.69 1.27.153.08.61-1.126.61 1.837z"/></g><path d="M38.962 103.86l-.08.135-.1-.306.153.1z" fill="url(#U)"/><path d="M48.813 115.83h-.01l-.673-2.053.835-1.54.835 2.504.072-.144-.826-2.504.835-1.54.835 2.504.072-.135-.826-2.504.108-.19-.153-.1-.027.045-.08.144-.844 1.54-.072.135-.844 1.54-.072.144-.69 1.26.153.1.61-1.126.61 1.837z" class="B C"/><g fill="url(#V)"><path d="M51.704 111.236l-.072.144-.1-.306.144.08z"/><path d="M7.92 86.063l-.1-.306.144.08.027.1z"/></g><g class="B C"><path d="M7.076 87.603l-.08.144-.826-2.513-.835 1.54.826 2.513-.08.135-.826-2.504-.664 1.216-.1-.162.7-1.28.072-.144.844-1.54.072-.144v-.054l.153.1-.045.198z"/><path d="M58.08 117.135l-.08.144-.826-2.504-.844 1.54.826 2.504-.072.135-.826-2.504-.844 1.54.682 2.062-.153-.1-.602-1.828-.62 1.126-.153-.1.69-1.27.08-.135.835-1.54.08-.144.835-1.54.08-.144.027-.045.153.1-.108.19z"/></g><path d="M58.996 115.46l-.08.135-.1-.306.153.1z" fill="url(#U)"/><g class="B C"><path d="M55.422 113.577l.108-.19-.153-.1v.054-.1l-.144-.08.1.306-.844 1.54-.826-2.504.108-.19-.162-.1v-.08l-.144-.08.1.306-.844 1.54-.826-2.504.108-.19-.162-.1v.054l-.072.144-.844 1.54-.072.135-.844 1.54-.072.144-.69 1.27.144.08.62-1.126.602 1.8.162.1-.682-2.062.835-1.54.835 2.504-.826 1.37.144.08.62-1.126.602 1.8.162.1-.69-2.062.844-1.54.826 2.504-.69 1.27.153.08.62-1.1.602 1.8.162.1-.69-2.062.844-1.54.826 2.504.08-.135-.835-2.46.844-1.54.826 2.513.08-.144-.835-2.53zm-3.727 2.08l-.826-2.513.835-1.54.835 2.504-.844 1.55zm1.796 1.054l-.826-2.513.835-1.54.826 2.513-.835 1.54zm3.592-2.387l-.153-.1.1.306.08-.144-.027-.072z"/><path d="M36.224 104.48l-.08.144-.826-2.513-.844 1.54.826 2.513-.072.135-.826-2.504-.844 1.54.673 2.053-.144-.08-.61-1.837-.61 1.126-.153-.1.69-1.26.072-.144.844-1.54.08-.135.835-1.54.08-.144.027-.045.153.08-.108.198z"/></g><path d="M37.14 102.797l-.08.144-.1-.315.153.1z" fill="url(#T)"/><path d="M63.54 120.305l-.072.135-.835-2.504-.835 1.54.826 2.504-.072.144-.835-2.504-.835 1.53.673 2.062-.153-.1-.602-1.828-.61 1.126-.153-.1.69-1.26.072-.144.844-1.54.072-.135.925-1.684.027-.045.144.08-.1.19z" class="B C"/><path d="M64.456 118.62l-.072.144-.1-.315.144.1z" fill="url(#S)"/><g class="B C"><path d="M60.89 116.74l.108-.19-.153-.08v-.08l-.153-.1.1.306-.835 1.54-.835-2.504.108-.19-.153-.1v.054l-.08.135-.835 1.54-.08.144-.844 1.54-.072.135-.69 1.27.153.1.61-1.126.61 1.8.153.1-.682-2.062.844-1.54.826 2.504-.69 1.27.153.1.61-1.126.61 1.8.153.08L59.14 120l.835-1.54.835 2.513.072-.144-.826-2.504.835-1.54.835 2.504.072-.135-.907-2.405zm-1.913 3.134l-.826-2.504.844-1.54.826 2.504-.844 1.54zm3.592-2.387l-.153-.1.1.315.08-.144-.027-.08z"/><path d="M66.36 119.9l.1-.18-.153-.1v.045-.08l-.144-.08.1.306-.844 1.54-.88-2.477.1-.19-.153-.1v.054l-.072.144-.844 1.54-.072.135-.844 1.54-.072.144-.69 1.26.144.1.62-1.126.602 1.8.162.1-.682-2.07.835-1.53.826 2.504-.682 1.27.144.08.62-1.126.593 1.8.144.072-.673-2.026.844-1.55.826 2.513.08-.144-.853-2.495.844-1.54.826 2.504.08-.135-.826-2.513zm-1.913 3.134l-.826-2.504.835-1.54.835 2.504-.844 1.54zm3.51-2.702h-.135l.207.612.072-.144-.144-.468z"/><path d="M70.84 120.107l-.072.135-.844 1.54-.08.144-.835 1.54-.08.144-.835 1.576-.08.135-.242.46.233-.072.1-.162v.117h.108l-.072-.207.844-1.54.278.838.08-.117-.287-.9.844-1.54.224.684c.004-.036.004-.072 0-.108v-.08l-.207-.62.808-1.468.224-.766-.1.27z"/><path d="M69.008 123.466l-.08.144-.826-2.513-.844 1.54.835 2.513-.08.135-.826-2.504-.844 1.504.485 1.468H66.7l-.43-1.315-.575 1.045-.162-.063.656-1.207.08-.144.835-1.54.08-.135.844-1.54.072-.144.198-.37h.19l-.314.576z"/><path d="M69.457 120.368l.467 1.414-.08.144-.503-1.54z"/></g><path d="M70.84 120.107l-.072.135-.117-.342c.037-.014.07-.036.1-.063l.1.27z" fill="url(#W)"/><g class="B C"><path d="M40.857 105.14l.1-.19-.153-.1v.054-.1l-.144-.08.1.306-.844 1.54-.826-2.504.108-.19-.153-.1v.054l-.08.135-.844 1.54-.072.144-.844 1.54-.072.135-.69 1.27.153.08.61-1.117.602 1.8.162.1-.682-2.062.835-1.54.835 2.504-.69 1.27.144.08.62-1.126.602 1.8.162.1-.69-2.062.844-1.54.826 2.504.08-.135-.826-2.513.835-1.54.835 2.513.072-.144-.907-2.44zm-1.913 3.134l-.826-2.513.835-1.54.835 2.513-.844 1.54zm3.592-2.396l-.144-.08.1.306.072-.135-.027-.1z"/><path d="M46.218 107.993l-.153-.1.1.306.08-.135-.027-.08zm-1.724-.748l.108-.19-.153-.1v.054-.08l-.144-.1.1.306-.844 1.54-.826-2.504.1-.19-.153-.1v.054l-.072.135-.844 1.54-.072.144-.844 1.54-.08.135-.772 1.315.153.1.62-1.126.602 1.8.162.1-.69-2.062.844-1.54.826 2.504-.69 1.27.153.1.62-1.126.602 1.8.144.1-.673-2.062.844-1.54.826 2.504.08-.135-.835-2.45.844-1.54.826 2.504.08-.144-.835-2.55zM42.6 110.38l-.835-2.504.844-1.55.826 2.513-.835 1.54z"/></g><path d="M6.097 85l-.117-.35.153.108v.1z" fill="url(#X)"/><g class="B"><path d="M5.253 86.55l-.072.144-.835-2.513-.835 1.54.305.9c-.16-.347-.3-.702-.422-1.063v-.08l.844-1.54.072-.144.207-.378c.04.05.085.095.135.135l-.26.477.862 2.522z" class="C"/><path d="M2.847 81.82c.924 1.406 2.152 2.585 3.592 3.45l59.912 34.692c.788.447 1.672.695 2.577.72.577.005 1.146-.138 1.652-.414l-.664 2.35c-.584 1.936-1.482 2.882-2.694 2.882a4.9 4.9 0 0 1-2.236-.684l-.224-.126-.718-.414-12.015-6.962-15.104-8.7-15.06-8.718-12.922-7.502a14.1 14.1 0 0 1-5.882-9.213l-.216-1.36zm-1.323-4.577l.955 6.027c.653 3.905 2.86 7.377 6.115 9.62l.233.144.718.414 55.1 31.9a5.42 5.42 0 0 0 2.505.757c1.58 0 2.65-1.162 3.287-3.296l1.455-5.152c-.638 1.8-1.75 2.46-3 2.46-.8-.027-1.602-.25-2.308-.648L6.7 84.766a11.78 11.78 0 0 1-5.199-7.745l.033.223z" class="D"/></g><g fill="#000"><path d="M24.496 90.8a.53.53 0 0 1 .171.144.19.19 0 0 1 .045.144c-.016.06-.05.114-.1.153l-.162-.054c.03-.03.05-.067.063-.108.015-.03.015-.068 0-.1-.035-.04-.078-.074-.126-.1a.75.75 0 0 0-.395-.1h-.17a.95.95 0 0 0-.251.099.51.51 0 0 0-.19.17c-.035.052-.035.12 0 .17.037.06.1.1.153.144a.8.8 0 0 0 .216.09h.207l.198-.117-.314-.18.126-.072.458.27-.395.234a1.79 1.79 0 0 1-.341-.054c-.094-.024-.185-.06-.27-.108a.58.58 0 0 1-.224-.207c-.04-.07-.04-.155 0-.225a.55.55 0 0 1 .216-.207c.1-.065.233-.1.36-.135a1.03 1.03 0 0 1 .395 0 1.05 1.05 0 0 1 .332.144zm-.808-.45l-1.078.62-.144-.08 1.078-.62zm-.448-.25l-1.07.63-.144-.1.27-.82-.844.495-.135-.08 1.07-.62.153.08-.27.82.835-.486zm2.8 1.6l-1.078.62-.144-.08.512-.288-.566-.324-.503.288-.144-.08 1.07-.62.144.08-.44.252.566.324.44-.252zm5.676 3.298l-.9-.01-.162.648-.2-.117.153-.53h-.35l-.368.207-.144-.08 1.078-.62.144.08-.54.315h1.07zm-1.042-.604l-1.365.45-.135-.08.593-.603.1-.1-.153.054-1.042.342-.144-.08.78-.793.144.08-.54.504-.18.153.25-.1.898-.306.17.1-.386.405a2.33 2.33 0 0 1-.296.27l.287-.108.898-.306.126.1z"/><path d="M28.85 93.342l-.63.926-.162-.093.198-.27-.45-.27-.44.12-.153-.093 1.482-.398.153.074zm-.898.222l.368.222.18-.24.144-.176-.26.083-.43.12v-.01z" class="B"/><path d="M28.124 92.917l-1.07.62-.144-.08.503-.288-.566-.324-.503.288-.144-.08 1.078-.62.135.08-.43.252.557.324.44-.252zm-1.034-.594l-.126.072-.36-.207-.952.55-.144-.08.952-.55-.36-.207.126-.072z"/></g><g class="B"><g fill="url(#N)"><path d="M4.58 75.14v-.054l-.314-2.035c-.133-.864-.196-1.738-.19-2.612l.296-39.348c-.006-.74.384-1.43 1.024-1.8L43.102 7.33c.634-.37 1.448-.172 1.84.45.086.138.147.29.18.45l7.184 35.403.52 3.332L4.58 75.103v.036z"/><path d="M58 52.722l-.072 2.107-48.22 28.108-4.113-.55-2.155-3.143 1.13-4.143-.027-.01.018-.01 48.23-28.108 2.927 2.486z"/></g><g class="D"><path d="M61.106 52.984l-3.18 1.8c-.153-.08-.296-.18-.44-.28l-.422-.306-.494-.342v-.045l-.377-.36-.054-.054-.36-.387-.108-.045-.34-.405-.054-.063-.323-.423-.108-.162-.216-.306-.377-.603-.287-.522v-.072l-.25-.495v-.045l-.224-.513V49.3l-.198-.522v-.054l-.17-.54-.144-.558c0-.19-.08-.378-.108-.576l3.16-1.8c0 .19.063.387.108.576 0 .19.1.37.144.558l.17.53v.054a6.19 6.19 0 0 0 .198.522v.054l.224.522.25.495v.08l.287.522.377.603.216.315.108.162.332.423.054.063.34.405.054.054.36.378.054.054.377.36h.054l.395.333.422.306.548.36z"/><path d="M9.653 82.91h.054l-3.1 1.818-.04-.02-.21-.13-.165-.098-.173-.1-.057-.035-.18-.135-.233-.19-.236-.21-.07-.052-.216-.207-.216-.216-.216-.225-.108-.144-.1-.108-.063-.08-.207-.234-.072-.1-.054-.063-.08-.1-.195-.237-.035-.047-.103-.122-.17-.26-.09-.12-.318-.505-.096-.155a10.84 10.84 0 0 1-1.429-3.844l.064-.063 3.07-1.8.045.27v.243c0 .08 0 .162.054.243l.072.28v.072l.054.207.1.28v.108l.054.162.1.252v.26l.108.252.08.17.126.26.1.198v.135l.26.468c.1.162.25.405.377.603v.054l.18.26.108.162.224.306.08.1.054.063.072.1.207.243.063.072.054.054.08.1.216.225.216.216.233.216h.054l.144.126.233.19.18.135.224.162.17.117.718.423z"/></g></g></g></svg>