<svg xmlns="http://www.w3.org/2000/svg" width="137" height="166" viewBox="0 0 150 166"><defs><linearGradient x1="31.8199962%" y1="2.0211196%" x2="70.2661398%" y2="99.8747856%" id="A"><stop stop-color="#B3FFAB" offset="1%"/><stop stop-color="#B1FFAC" offset="1%"/><stop stop-color="#6EFFCC" offset="36%"/><stop stop-color="#3CFFE3" offset="65%"/><stop stop-color="#1DFFF2" offset="88%"/><stop stop-color="#12FFF7" offset="100%"/></linearGradient><linearGradient x1="-37.1747212%" y1="-161.386139%" x2="5.57620818%" y2="-57.6732673%" id="B"><stop stop-color="#B3FFAB" offset="1%"/><stop stop-color="#B1FFAC" offset="1%"/><stop stop-color="#6EFFCC" offset="36%"/><stop stop-color="#3CFFE3" offset="65%"/><stop stop-color="#1DFFF2" offset="88%"/><stop stop-color="#12FFF7" offset="100%"/></linearGradient><linearGradient x1="128.883984%" y1="93.1778364%" x2="-21.3527719%" y2="-10.4407147%" id="C"><stop stop-color="#3C8CE7" offset="1%"/><stop stop-color="#3A8FE8" offset="3%"/><stop stop-color="#1BC0F4" offset="47%"/><stop stop-color="#07DFFC" offset="81%"/><stop stop-color="#00EAFF" offset="100%"/></linearGradient><linearGradient x1="220.490368%" y1="183.31192%" x2="31.3485114%" y2="116.468635%" id="D"><stop stop-color="#3C8CE7" offset="1%"/><stop stop-color="#3A8FE8" offset="3%"/><stop stop-color="#1BC0F4" offset="47%"/><stop stop-color="#07DFFC" offset="81%"/><stop stop-color="#00EAFF" offset="100%"/></linearGradient><linearGradient x1="234.956522%" y1="185.067263%" x2="44.3478261%" y2="118.066324%" id="E"><stop stop-color="#3C8CE7" offset="1%"/><stop stop-color="#3A8FE8" offset="3%"/><stop stop-color="#1BC0F4" offset="47%"/><stop stop-color="#07DFFC" offset="81%"/><stop stop-color="#00EAFF" offset="100%"/></linearGradient><linearGradient x1="-188.864494%" y1="14.5834346%" x2="284.720412%" y2="87.9861941%" id="F"><stop stop-color="#B3FFAB" offset="1%"/><stop stop-color="#B1FFAC" offset="1%"/><stop stop-color="#6EFFCC" offset="36%"/><stop stop-color="#3CFFE3" offset="65%"/><stop stop-color="#1DFFF2" offset="88%"/><stop stop-color="#12FFF7" offset="100%"/></linearGradient><linearGradient x1="-37.1747212%" y1="-161.138614%" x2="5.76208178%" y2="-57.4257426%" id="G"><stop stop-color="#B3FFAB" offset="1%"/><stop stop-color="#B1FFAC" offset="1%"/><stop stop-color="#6EFFCC" offset="36%"/><stop stop-color="#3CFFE3" offset="65%"/><stop stop-color="#1DFFF2" offset="88%"/><stop stop-color="#12FFF7" offset="100%"/></linearGradient><linearGradient x1="121.620513%" y1="73.1645913%" x2="-24.4038462%" y2="6.5262142%" id="H"><stop stop-color="#3C8CE7" offset="1%"/><stop stop-color="#3A8FE8" offset="3%"/><stop stop-color="#1BC0F4" offset="47%"/><stop stop-color="#07DFFC" offset="81%"/><stop stop-color="#00EAFF" offset="100%"/></linearGradient><linearGradient x1="121.543257%" y1="74.3298923%" x2="-24.3193384%" y2="6.71557784%" id="I"><stop stop-color="#3C8CE7" offset="1%"/><stop stop-color="#3A8FE8" offset="3%"/><stop stop-color="#1BC0F4" offset="47%"/><stop stop-color="#07DFFC" offset="81%"/><stop stop-color="#00EAFF" offset="100%"/></linearGradient><linearGradient x1="121.625628%" y1="73.4022231%" x2="-24.5351759%" y2="6.0068449%" id="J"><stop stop-color="#3C8CE7" offset="1%"/><stop stop-color="#3A8FE8" offset="3%"/><stop stop-color="#1BC0F4" offset="47%"/><stop stop-color="#07DFFC" offset="81%"/><stop stop-color="#00EAFF" offset="100%"/></linearGradient><linearGradient x1="113.417996%" y1="105.856325%" x2="-27.1033503%" y2="-6.05153566%" id="K"><stop stop-color="#B3FFAB" offset="1%"/><stop stop-color="#B1FFAC" offset="1%"/><stop stop-color="#6EFFCC" offset="36%"/><stop stop-color="#3CFFE3" offset="65%"/><stop stop-color="#1DFFF2" offset="88%"/><stop stop-color="#12FFF7" offset="100%"/></linearGradient><linearGradient x1="-20.9865139%" y1="86.5985459%" x2="132.883798%" y2="2.92788367%" id="L"><stop stop-color="#B3FFAB" offset="1%"/><stop stop-color="#B1FFAC" offset="1%"/><stop stop-color="#6EFFCC" offset="36%"/><stop stop-color="#3CFFE3" offset="65%"/><stop stop-color="#1DFFF2" offset="88%"/><stop stop-color="#12FFF7" offset="100%"/></linearGradient><linearGradient x1="97.1929825%" y1="81.8156682%" x2="-37.3333333%" y2="-14.4976959%" id="M"><stop stop-color="#3C8CE7" offset="1%"/><stop stop-color="#3A8FE8" offset="3%"/><stop stop-color="#1BC0F4" offset="47%"/><stop stop-color="#07DFFC" offset="81%"/><stop stop-color="#00EAFF" offset="100%"/></linearGradient><linearGradient x1="-6.85780147%" y1="83.1438566%" x2="153.940354%" y2="-27.7219064%" id="N"><stop stop-color="#3C8CE7" offset="1%"/><stop stop-color="#3A8FE8" offset="3%"/><stop stop-color="#1BC0F4" offset="47%"/><stop stop-color="#07DFFC" offset="81%"/><stop stop-color="#00EAFF" offset="100%"/></linearGradient><linearGradient x1="52.6602096%" y1="48.3262108%" x2="131.378533%" y2="91.0612536%" id="O"><stop stop-color="#3C8CE7" offset="1%"/><stop stop-color="#3A8FE8" offset="3%"/><stop stop-color="#1BC0F4" offset="47%"/><stop stop-color="#07DFFC" offset="81%"/><stop stop-color="#00EAFF" offset="100%"/></linearGradient><linearGradient x1="110.795202%" y1="113.121019%" x2="-33.8071968%" y2="7.07006369%" id="P"><stop stop-color="#B3FFAB" offset="1%"/><stop stop-color="#B1FFAC" offset="1%"/><stop stop-color="#6EFFCC" offset="36%"/><stop stop-color="#3CFFE3" offset="65%"/><stop stop-color="#1DFFF2" offset="88%"/><stop stop-color="#12FFF7" offset="100%"/></linearGradient><linearGradient x1="-26.7326733%" y1="5.75221239%" x2="138.613861%" y2="101.032448%" id="Q"><stop stop-color="#3C8CE7" offset="1%"/><stop stop-color="#3A8FE8" offset="3%"/><stop stop-color="#1BC0F4" offset="47%"/><stop stop-color="#07DFFC" offset="81%"/><stop stop-color="#00EAFF" offset="100%"/></linearGradient><linearGradient x1="-26.7326733%" y1="5.8910162%" x2="138.613861%" y2="100.883652%" id="R"><stop stop-color="#3C8CE7" offset="1%"/><stop stop-color="#3A8FE8" offset="3%"/><stop stop-color="#1BC0F4" offset="47%"/><stop stop-color="#07DFFC" offset="81%"/><stop stop-color="#00EAFF" offset="100%"/></linearGradient><linearGradient x1="-28%" y1="5.75221239%" x2="139%" y2="101.032448%" id="S"><stop stop-color="#3C8CE7" offset="1%"/><stop stop-color="#3A8FE8" offset="3%"/><stop stop-color="#1BC0F4" offset="47%"/><stop stop-color="#07DFFC" offset="81%"/><stop stop-color="#00EAFF" offset="100%"/></linearGradient><linearGradient x1="-27%" y1="5.7437408%" x2="139%" y2="100.883652%" id="T"><stop stop-color="#3C8CE7" offset="1%"/><stop stop-color="#3A8FE8" offset="3%"/><stop stop-color="#1BC0F4" offset="47%"/><stop stop-color="#07DFFC" offset="81%"/><stop stop-color="#00EAFF" offset="100%"/></linearGradient><linearGradient x1="-27%" y1="5.75221239%" x2="139%" y2="101.032448%" id="U"><stop stop-color="#3C8CE7" offset="1%"/><stop stop-color="#3A8FE8" offset="3%"/><stop stop-color="#1BC0F4" offset="47%"/><stop stop-color="#07DFFC" offset="81%"/><stop stop-color="#00EAFF" offset="100%"/></linearGradient><linearGradient x1="-26.7326733%" y1="5.7437408%" x2="138.613861%" y2="100.883652%" id="V"><stop stop-color="#3C8CE7" offset="1%"/><stop stop-color="#3A8FE8" offset="3%"/><stop stop-color="#1BC0F4" offset="47%"/><stop stop-color="#07DFFC" offset="81%"/><stop stop-color="#00EAFF" offset="100%"/></linearGradient><linearGradient x1="-26.7326733%" y1="5.75221239%" x2="138.613861%" y2="100.884956%" id="W"><stop stop-color="#3C8CE7" offset="1%"/><stop stop-color="#3A8FE8" offset="3%"/><stop stop-color="#1BC0F4" offset="47%"/><stop stop-color="#07DFFC" offset="81%"/><stop stop-color="#00EAFF" offset="100%"/></linearGradient><linearGradient x1="-27%" y1="5.75221239%" x2="139%" y2="100.884956%" id="X"><stop stop-color="#3C8CE7" offset="1%"/><stop stop-color="#3A8FE8" offset="3%"/><stop stop-color="#1BC0F4" offset="47%"/><stop stop-color="#07DFFC" offset="81%"/><stop stop-color="#00EAFF" offset="100%"/></linearGradient></defs><path d="M136.446 34l-26.817 66.473s-2.1 2.293-5.888-1.908l28.887-64.798 3.82.233z" fill="url(#A)"/><ellipse fill="url(#B)" transform="matrix(.985996 -.166769 .166769 .985996 -3.765139 22.914252)" cx="134.557" cy="33.876" rx="1.96" ry="1.471"/><path d="M112.165 79.695s2.12-2.388 3.877 4.885l-.284.728s-1.625-7.01-3.84-5.046l.248-.568z" fill="url(#C)"/><path d="M111.378 81.544s2.15-2.352 3.913 4.922l-.284.728s-1.66-7.048-3.877-5.096l.248-.553z" fill="url(#D)"/><path d="M110.57 83.328s2.186-2.242 3.942 5.03l-.29.728s-1.683-7.157-3.9-5.198l.248-.56z" fill="url(#E)"/><path d="M60.958 1.667l4.977 71.504s-.882 2.978-6.13.86L57.438 3.153l3.52-1.485z" fill="url(#F)"/><ellipse fill="url(#G)" transform="matrix(.813811 -.581129 .581129 .813811 9.63969 34.84362)" cx="59.197" cy="2.378" rx="1.96" ry="1.471"/><path d="M59.114 53.375s.86-3.08 5.633 2.694l.05.772s-4.533-5.6-5.662-2.86l-.022-.604z" fill="url(#H)"/><path d="M59.21 55.333s.904-3.05 5.67 2.723l.058.728s-4.576-5.613-5.713-2.912l-.015-.54z" fill="url(#I)"/><path d="M59.267 57.336s.984-2.97 5.75 2.803l.05.764s-4.65-5.7-5.78-2.97l-.022-.597z" fill="url(#J)"/><path d="M1.195 120.008L79.38 164.66c2.667 1.536 4.722.954 7.39-.582l40.37-23.298c.74-.43 1.193-1.218 1.193-2.07s-.455-1.643-1.193-2.07L50.18 92.574c-2.663-1.536-5.943-1.536-8.606 0l-40.38 23.298c-.735.43-1.187 1.217-1.187 2.068s.452 1.638 1.187 2.068z" fill="#2F2F7A"/><path d="M5.27 89.807l-1.13 6.83 6.318 10.222 68.04 38.894 12.862-.116-.925-5.744-15.478-5.57z" fill="url(#K)"/><path d="M129.88 109.94l-3.92-1.37-35.525 31.307.925 5.744c.853 0 37.165-25.024 37.165-25.024l1.355-10.66z" fill="url(#L)"/><path d="M6.092 94.198c16.33 13.724 55.383 36.032 68.864 40.124l15.478 5.57 39.446-29.953-7.455-10.92L55.85 60.896l-10.202.218L5.27 89.808l.823 4.4z" fill="url(#M)"/><path d="M6.092 94.198L55.85 60.896l-10.188.218L5.27 89.807z" fill="url(#N)"/><path d="M74.956 134.322l47.447-35.32 7.477 10.95-39.446 29.938z" fill="url(#O)"/><path d="M74.956 134.322l3.542 11.43 12.862-.116-.925-5.744z" fill="url(#P)"/><path d="M110.897 132.698v-4.4l.736-.546v4.44z" fill="url(#Q)"/><path d="M113.112 131.184v-4.398l.736-.546v4.44z" fill="url(#R)"/><path d="M115.16 129.8v-4.4l.73-.546v4.44z" fill="url(#S)"/><path d="M117.142 128.432v-4.398l.73-.546v4.44z" fill="url(#T)"/><path d="M119.358 126.9v-4.4l.73-.546v4.44z" fill="url(#U)"/><path d="M121.398 125.534v-4.398l.736-.546v4.44z" fill="url(#V)"/><g fill="url(#U)"><path d="M98.086 141.464v-4.4l.73-.546v4.44z"/><path d="M100.3 139.95v-4.4l.73-.546v4.434z"/></g><path d="M102.342 138.566v-4.4l.736-.546v4.44z" fill="url(#Q)"/><path d="M104.324 137.198v-4.4l.736-.546v4.434z" fill="url(#W)"/><path d="M106.547 135.676v-4.4l.73-.546v4.44z" fill="url(#S)"/><path d="M108.587 134.3v-4.4l.73-.546v4.44z" fill="url(#X)"/></svg>