<svg xmlns="http://www.w3.org/2000/svg" width="139" height="166" viewBox="0 0 150 166"><defs><linearGradient x1="564.902439%" y1="15.6429945%" x2="-411.181572%" y2="88.9768085%" id="A"><stop stop-color="#3C8CE7" offset="1%"/><stop stop-color="#3A8FE8" offset="3%"/><stop stop-color="#1BC0F4" offset="47%"/><stop stop-color="#07DFFC" offset="81%"/><stop stop-color="#00EAFF" offset="100%"/></linearGradient><linearGradient x1="4596.60494%" y1="60.4951918%" x2="4780.8642%" y2="60.4951918%" id="B"><stop stop-color="#3C8CE7" offset="1%"/><stop stop-color="#3A8FE8" offset="3%"/><stop stop-color="#1BC0F4" offset="47%"/><stop stop-color="#07DFFC" offset="81%"/><stop stop-color="#00EAFF" offset="100%"/></linearGradient><linearGradient x1="133.289617%" y1="76.0060976%" x2="28.3387978%" y2="64.1768293%" id="C"><stop stop-color="#B3FFAB" offset="1%"/><stop stop-color="#B1FFAC" offset="1%"/><stop stop-color="#6EFFCC" offset="36%"/><stop stop-color="#3CFFE3" offset="65%"/><stop stop-color="#1DFFF2" offset="88%"/><stop stop-color="#12FFF7" offset="100%"/></linearGradient><linearGradient x1="-75.8371041%" y1="12.3208479%" x2="194.298643%" y2="90.1963146%" id="D"><stop stop-color="#3C8CE7" offset="1%"/><stop stop-color="#3A8FE8" offset="3%"/><stop stop-color="#1BC0F4" offset="47%"/><stop stop-color="#07DFFC" offset="81%"/><stop stop-color="#00EAFF" offset="100%"/></linearGradient><linearGradient x1="0%" y1="49.9944598%" x2="100%" y2="49.9944598%" id="E"><stop stop-color="#3C8CE7" offset="1%"/><stop stop-color="#3A8FE8" offset="3%"/><stop stop-color="#1BC0F4" offset="47%"/><stop stop-color="#07DFFC" offset="81%"/><stop stop-color="#00EAFF" offset="100%"/></linearGradient><linearGradient x1="0%" y1="49.8989899%" x2="100%" y2="49.8989899%" id="F"><stop stop-color="#B3FFAB" offset="1%"/><stop stop-color="#B1FFAC" offset="1%"/><stop stop-color="#6EFFCC" offset="36%"/><stop stop-color="#3CFFE3" offset="65%"/><stop stop-color="#1DFFF2" offset="88%"/><stop stop-color="#12FFF7" offset="100%"/></linearGradient><linearGradient x1="-75.7466063%" y1="12.308804%" x2="194.298643%" y2="90.1963146%" id="G"><stop stop-color="#3C8CE7" offset="1%"/><stop stop-color="#3A8FE8" offset="3%"/><stop stop-color="#1BC0F4" offset="47%"/><stop stop-color="#07DFFC" offset="81%"/><stop stop-color="#00EAFF" offset="100%"/></linearGradient><linearGradient x1="112.198822%" y1="98.6767486%" x2="-27.7797608%" y2="-2.39445495%" id="H"><stop stop-color="#B3FFAB" offset="1%"/><stop stop-color="#B1FFAC" offset="1%"/><stop stop-color="#6EFFCC" offset="36%"/><stop stop-color="#3CFFE3" offset="65%"/><stop stop-color="#1DFFF2" offset="88%"/><stop stop-color="#12FFF7" offset="100%"/></linearGradient><linearGradient x1="-21.0900474%" y1="86.5630905%" x2="132.898894%" y2="2.85534327%" id="I"><stop stop-color="#B3FFAB" offset="1%"/><stop stop-color="#B1FFAC" offset="1%"/><stop stop-color="#6EFFCC" offset="36%"/><stop stop-color="#3CFFE3" offset="65%"/><stop stop-color="#1DFFF2" offset="88%"/><stop stop-color="#12FFF7" offset="100%"/></linearGradient><linearGradient x1="97.0011895%" y1="80.4301901%" x2="-37.4068741%" y2="-13.222585%" id="J"><stop stop-color="#3C8CE7" offset="1%"/><stop stop-color="#3A8FE8" offset="3%"/><stop stop-color="#1BC0F4" offset="47%"/><stop stop-color="#07DFFC" offset="81%"/><stop stop-color="#00EAFF" offset="100%"/></linearGradient><linearGradient x1="-5.64516129%" y1="85.8977352%" x2="153.196481%" y2="-28.9983656%" id="K"><stop stop-color="#3C8CE7" offset="1%"/><stop stop-color="#3A8FE8" offset="3%"/><stop stop-color="#1BC0F4" offset="47%"/><stop stop-color="#07DFFC" offset="81%"/><stop stop-color="#00EAFF" offset="100%"/></linearGradient><linearGradient x1="-28.7435137%" y1="-48.7716106%" x2="151.556709%" y2="199.181074%" id="L"><stop stop-color="#3C8CE7" offset="1%"/><stop stop-color="#3A8FE8" offset="3%"/><stop stop-color="#1BC0F4" offset="47%"/><stop stop-color="#07DFFC" offset="81%"/><stop stop-color="#00EAFF" offset="100%"/></linearGradient><linearGradient x1="8.12568456%" y1="10.3780578%" x2="75.8556955%" y2="67.8915599%" id="M"><stop stop-color="#3C8CE7" offset="1%"/><stop stop-color="#3A8FE8" offset="3%"/><stop stop-color="#1BC0F4" offset="47%"/><stop stop-color="#07DFFC" offset="81%"/><stop stop-color="#00EAFF" offset="100%"/></linearGradient><linearGradient x1="-45.192682%" y1="-61.7903274%" x2="156.967692%" y2="200.390508%" id="N"><stop stop-color="#3C8CE7" offset="1%"/><stop stop-color="#3A8FE8" offset="3%"/><stop stop-color="#1BC0F4" offset="47%"/><stop stop-color="#07DFFC" offset="81%"/><stop stop-color="#00EAFF" offset="100%"/></linearGradient><linearGradient x1="-18%" y1="17.7790564%" x2="105.311111%" y2="75.8342923%" id="O"><stop stop-color="#3C8CE7" offset="1%"/><stop stop-color="#3A8FE8" offset="3%"/><stop stop-color="#1BC0F4" offset="47%"/><stop stop-color="#07DFFC" offset="81%"/><stop stop-color="#00EAFF" offset="100%"/></linearGradient><linearGradient x1="35.2813853%" y1="24.1894469%" x2="116.357452%" y2="147.202797%" id="P"><stop stop-color="#3C8CE7" offset="1%"/><stop stop-color="#3A8FE8" offset="3%"/><stop stop-color="#1BC0F4" offset="47%"/><stop stop-color="#07DFFC" offset="81%"/><stop stop-color="#00EAFF" offset="100%"/></linearGradient><linearGradient x1="40.0738689%" y1="26.448737%" x2="79.9168975%" y2="121.099554%" id="Q"><stop stop-color="#3C8CE7" offset="1%"/><stop stop-color="#3A8FE8" offset="3%"/><stop stop-color="#1BC0F4" offset="47%"/><stop stop-color="#07DFFC" offset="81%"/><stop stop-color="#00EAFF" offset="100%"/></linearGradient><linearGradient x1="-29.0780142%" y1="34.2117429%" x2="379.078014%" y2="112.806288%" id="R"><stop stop-color="#3C8CE7" offset="1%"/><stop stop-color="#3A8FE8" offset="3%"/><stop stop-color="#1BC0F4" offset="47%"/><stop stop-color="#07DFFC" offset="81%"/><stop stop-color="#00EAFF" offset="100%"/></linearGradient><linearGradient x1="38.3042394%" y1="17.0539237%" x2="99.2269327%" y2="175.186322%" id="S"><stop stop-color="#3C8CE7" offset="1%"/><stop stop-color="#3A8FE8" offset="3%"/><stop stop-color="#1BC0F4" offset="47%"/><stop stop-color="#07DFFC" offset="81%"/><stop stop-color="#00EAFF" offset="100%"/></linearGradient><linearGradient x1="22.2057735%" y1="88.7286861%" x2="82.5684678%" y2="7.58525577%" id="T"><stop stop-color="#3C8CE7" offset="1%"/><stop stop-color="#3A8FE8" offset="3%"/><stop stop-color="#1BC0F4" offset="47%"/><stop stop-color="#07DFFC" offset="81%"/><stop stop-color="#00EAFF" offset="100%"/></linearGradient><linearGradient x1="39.1578947%" y1="68.6984418%" x2="65.8157895%" y2="22.63978%" id="U"><stop stop-color="#B3FFAB" offset="1%"/><stop stop-color="#B1FFAC" offset="1%"/><stop stop-color="#6EFFCC" offset="36%"/><stop stop-color="#3CFFE3" offset="65%"/><stop stop-color="#1DFFF2" offset="88%"/><stop stop-color="#12FFF7" offset="100%"/></linearGradient><linearGradient x1="39.6654966%" y1="64.9487643%" x2="59.6531076%" y2="36.0156721%" id="V"><stop stop-color="#B3FFAB" offset="1%"/><stop stop-color="#B1FFAC" offset="1%"/><stop stop-color="#6EFFCC" offset="36%"/><stop stop-color="#3CFFE3" offset="65%"/><stop stop-color="#1DFFF2" offset="88%"/><stop stop-color="#12FFF7" offset="100%"/></linearGradient><linearGradient x1="33.691358%" y1="-363.641844%" x2="77.6419753%" y2="25.8439716%" id="W"><stop stop-color="#B3FFAB" offset="1%"/><stop stop-color="#B1FFAC" offset="1%"/><stop stop-color="#6EFFCC" offset="36%"/><stop stop-color="#3CFFE3" offset="65%"/><stop stop-color="#1DFFF2" offset="88%"/><stop stop-color="#12FFF7" offset="100%"/></linearGradient><linearGradient x1="35.4444444%" y1="-363.546099%" x2="79.7037037%" y2="26.248227%" id="X"><stop stop-color="#B3FFAB" offset="1%"/><stop stop-color="#B1FFAC" offset="1%"/><stop stop-color="#6EFFCC" offset="36%"/><stop stop-color="#3CFFE3" offset="65%"/><stop stop-color="#1DFFF2" offset="88%"/><stop stop-color="#12FFF7" offset="100%"/></linearGradient><linearGradient x1="28.2592593%" y1="-364.003546%" x2="72.8765432%" y2="25.4361702%" id="Y"><stop stop-color="#B3FFAB" offset="1%"/><stop stop-color="#B1FFAC" offset="1%"/><stop stop-color="#6EFFCC" offset="36%"/><stop stop-color="#3CFFE3" offset="65%"/><stop stop-color="#1DFFF2" offset="88%"/><stop stop-color="#12FFF7" offset="100%"/></linearGradient><linearGradient x1="31.0617284%" y1="-363.953901%" x2="75.0123457%" y2="25.5319149%" id="Z"><stop stop-color="#B3FFAB" offset="1%"/><stop stop-color="#B1FFAC" offset="1%"/><stop stop-color="#6EFFCC" offset="36%"/><stop stop-color="#3CFFE3" offset="65%"/><stop stop-color="#1DFFF2" offset="88%"/><stop stop-color="#12FFF7" offset="100%"/></linearGradient><linearGradient x1="46.3629969%" y1="4.6341141%" x2="58.9443274%" y2="93.5476607%" id="a"><stop stop-color="#B3FFAB" offset="1%"/><stop stop-color="#B1FFAC" offset="1%"/><stop stop-color="#6EFFCC" offset="36%"/><stop stop-color="#3CFFE3" offset="65%"/><stop stop-color="#1DFFF2" offset="88%"/><stop stop-color="#12FFF7" offset="100%"/></linearGradient><linearGradient x1="4.68828303%" y1="10.7903028%" x2="97.9568958%" y2="91.4433565%" id="b"><stop stop-color="#3C8CE7" offset="1%"/><stop stop-color="#3A8FE8" offset="3%"/><stop stop-color="#1BC0F4" offset="47%"/><stop stop-color="#07DFFC" offset="81%"/><stop stop-color="#00EAFF" offset="100%"/></linearGradient><linearGradient x1="91.5912543%" y1="68.4927135%" x2="-17.026588%" y2="17.7393264%" id="c"><stop stop-color="#3C8CE7" offset="1%"/><stop stop-color="#3A8FE8" offset="3%"/><stop stop-color="#1BC0F4" offset="47%"/><stop stop-color="#07DFFC" offset="81%"/><stop stop-color="#00EAFF" offset="100%"/></linearGradient><linearGradient x1="34.6889055%" y1="2.40641711%" x2="85.2729885%" y2="93.8502674%" id="d"><stop stop-color="#3C8CE7" offset="1%"/><stop stop-color="#3A8FE8" offset="3%"/><stop stop-color="#1BC0F4" offset="47%"/><stop stop-color="#07DFFC" offset="81%"/><stop stop-color="#00EAFF" offset="100%"/></linearGradient></defs><path d="M1.226 118.638l24.93 14.267 12.503-2.318 6.315 3.604 6.016 12.914 30.416 17.4c2.735 1.578 4.843.987 7.578-.59l48.41-31.405a2.46 2.46 0 0 0 0-4.255L58.47 83c-2.735-1.57-6.098-1.57-8.833 0l-48.41 31.405a2.46 2.46 0 0 0-1.205 2.116 2.46 2.46 0 0 0 1.205 2.116z" fill="#2F2F7A"/><path d="M34.668 10.506l.882 60.096-2.758 2.13.658-61.712z" fill="url(#A)"/><path d="M30.565 7.94L28.607 75.6l4.185-2.856.658-61.712z" fill="url(#B)"/><path d="M33.83 7.343l.837 3.163-1.218.516-2.885-3.08z" fill="url(#C)"/><path d="M120.474 26.687l-7.092 59.685 2.526 2.4 5.732-61.442z" fill="url(#D)"/><path d="M124.823 24.564l-5.052 67.484-3.864-3.275 5.732-61.442z" fill="url(#E)"/><path d="M121.64 23.63l-1.166 3.058 1.166.643 3.184-2.767z" fill="url(#F)"/><path d="M76.943 3.058L69.85 62.744l2.526 2.4L78.11 3.7z" fill="url(#G)"/><path d="M81.293.935L76.24 68.42l-3.864-3.275L78.11 3.7z" fill="url(#E)"/><path d="M78.11 0l-1.166 3.058 1.166.643L81.293.935z" fill="url(#F)"/><path d="M12.63 84.854l-1.36 6.26 35.348 26.06 38.307 27.016 10.09-5.952-.882-5.518-14.864-5.36z" fill="url(#H)"/><path d="M132.005 103.937l-3.737-1.316-34.107 30.097.882 5.518c.822 0 35.707-24.063 35.707-24.063l1.255-10.237z" fill="url(#I)"/><path d="M13.145 88.773l33.472 22.672 32.65 15.912 12.4 7.26 40.34-30.695-7.174-10.528L60.92 56.746l-9.782.21-38.51 27.898z" fill="url(#J)"/><path d="M13.145 88.773L60.92 56.747l-9.782.21L9.954 86.79z" fill="url(#K)"/><path d="M9.954 86.79l-8.467 7.94 8.28 1.204 15.888 15.508 16.157-3.253-26.156-21.1z" fill="url(#L)"/><path d="M15.656 87.1l28.398 14.686 35.213 25.58 45.556-33.963L90.23 66.946l-29.3-10.2z" fill="url(#M)"/><path d="M53.26 114.7l1.988 12.443 24.02 5.72 5.95 6.73 6.442-4.965-11.41-8.03z" fill="url(#N)"/><path d="M46.916 100.595l-.3 10.85 33.63 15.142z" fill="url(#O)"/><path d="M1.487 94.732v5.174l6.957 9.698 17.18 8.65.03-6.812L9.767 95.936z" fill="url(#P)"/><path d="M25.625 118.256l16.187-4.63v-5.436l-16.157 3.253z" fill="url(#Q)"/><path d="M53.26 114.7l-.12 8.322 2.107 7.85v-3.73z" fill="url(#R)"/><path d="M55.25 130.863l21.545 13.325h8.13l.29-4.606-5.95-6.73-24.02-5.72z" fill="url(#S)"/><path d="M44.054 101.776l46.176-34.83 34.593 26.448-44.577 33.193z" fill="url(#T)"/><path d="M15.656 87.1l28.398 16.316v-1.63z" fill="url(#U)"/><path d="M44.054 101.776v1.63l36.192 23.18z" fill="url(#V)"/><ellipse fill="url(#W)" transform="matrix(.863307 -.504678 .504678 .863307 -48.461598 39.967728)" cx="49.551" cy="109.446" rx="1" ry="1.054"/><ellipse fill="url(#X)" transform="matrix(.863307 -.504678 .504678 .863307 -48.985454 42.290738)" cx="53.577" cy="111.574" rx="1" ry="1.054"/><ellipse fill="url(#Y)" transform="matrix(.863307 -.504678 .504678 .863307 -46.735193 34.083875)" cx="39.552" cy="103.317" rx="1" ry="1.054"/><ellipse fill="url(#Z)" transform="matrix(.863307 -.504678 .504678 .863307 -47.521749 36.475313)" cx="43.574" cy="105.964" rx="1" ry="1.054"/><path d="M135.234 63.237l-2.436-.823.516-.688 4.312-.606z" fill="url(#a)"/><path d="M137.625 61.12L124.8 119.1l-4.402 3.873 14.797-59.708z" fill="url(#b)"/><path d="M132.797 62.415l-15.013 58.608 2.616 1.952 14.834-59.738z" fill="url(#c)"/><path d="M118.075 119.97l-1.495-.897c-.164-.344-.182-.74-.05-1.098s.403-.647.752-.8h1.495l-.702 2.797z" fill="url(#d)"/></svg>