<svg xmlns="http://www.w3.org/2000/svg" width="144" height="166" viewBox="0 0 150 166"><defs><linearGradient x1="25.7025528%" y1="7.5569663%" x2="77.855877%" y2="95.087172%" id="A"><stop stop-color="#3C8CE7" offset="1%"/><stop stop-color="#3A8FE8" offset="3%"/><stop stop-color="#1BC0F4" offset="47%"/><stop stop-color="#07DFFC" offset="81%"/><stop stop-color="#00EAFF" offset="100%"/></linearGradient><linearGradient x1="-11.9965227%" y1="25.4881809%" x2="26.8907563%" y2="25.4881809%" id="B"><stop stop-color="#3C8CE7" offset="1%"/><stop stop-color="#3A8FE8" offset="3%"/><stop stop-color="#1BC0F4" offset="47%"/><stop stop-color="#07DFFC" offset="81%"/><stop stop-color="#00EAFF" offset="100%"/></linearGradient><linearGradient x1="5.68488719%" y1="43.2368291%" x2="95.6280553%" y2="69.9615666%" id="C"><stop stop-color="#B3FFAB" offset="1%"/><stop stop-color="#B1FFAC" offset="1%"/><stop stop-color="#6EFFCC" offset="36%"/><stop stop-color="#3CFFE3" offset="65%"/><stop stop-color="#1DFFF2" offset="88%"/><stop stop-color="#12FFF7" offset="100%"/></linearGradient><linearGradient x1="-75.7843926%" y1="12.3139522%" x2="194.288013%" y2="90.1916693%" id="D"><stop stop-color="#3C8CE7" offset="1%"/><stop stop-color="#3A8FE8" offset="3%"/><stop stop-color="#1BC0F4" offset="47%"/><stop stop-color="#07DFFC" offset="81%"/><stop stop-color="#00EAFF" offset="100%"/></linearGradient><linearGradient x1="0%" y1="50%" x2="100%" y2="50%" id="E"><stop stop-color="#3C8CE7" offset="1%"/><stop stop-color="#3A8FE8" offset="3%"/><stop stop-color="#1BC0F4" offset="47%"/><stop stop-color="#07DFFC" offset="81%"/><stop stop-color="#00EAFF" offset="100%"/></linearGradient><linearGradient x1="0%" y1="50.0897666%" x2="100%" y2="50.0897666%" id="F"><stop stop-color="#B3FFAB" offset="1%"/><stop stop-color="#B1FFAC" offset="1%"/><stop stop-color="#6EFFCC" offset="36%"/><stop stop-color="#3CFFE3" offset="65%"/><stop stop-color="#1DFFF2" offset="88%"/><stop stop-color="#12FFF7" offset="100%"/></linearGradient><linearGradient x1="-149.224655%" y1="16.3919184%" x2="255.405039%" y2="86.0036574%" id="G"><stop stop-color="#3C8CE7" offset="1%"/><stop stop-color="#3A8FE8" offset="3%"/><stop stop-color="#1BC0F4" offset="47%"/><stop stop-color="#07DFFC" offset="81%"/><stop stop-color="#00EAFF" offset="100%"/></linearGradient><linearGradient x1="4.53398679%" y1="51.8680486%" x2="84.5106694%" y2="49.2470753%" id="H"><stop stop-color="#3C8CE7" offset="1%"/><stop stop-color="#3A8FE8" offset="3%"/><stop stop-color="#1BC0F4" offset="47%"/><stop stop-color="#07DFFC" offset="81%"/><stop stop-color="#00EAFF" offset="100%"/></linearGradient><linearGradient x1="-6.2741294%" y1="56.2851335%" x2="104.819776%" y2="32.571111%" id="I"><stop stop-color="#B3FFAB" offset="1%"/><stop stop-color="#B1FFAC" offset="1%"/><stop stop-color="#6EFFCC" offset="36%"/><stop stop-color="#3CFFE3" offset="65%"/><stop stop-color="#1DFFF2" offset="88%"/><stop stop-color="#12FFF7" offset="100%"/></linearGradient><linearGradient x1="112.198822%" y1="98.6641462%" x2="-27.7797608%" y2="-2.39445495%" id="J"><stop stop-color="#B3FFAB" offset="1%"/><stop stop-color="#B1FFAC" offset="1%"/><stop stop-color="#6EFFCC" offset="36%"/><stop stop-color="#3CFFE3" offset="65%"/><stop stop-color="#1DFFF2" offset="88%"/><stop stop-color="#12FFF7" offset="100%"/></linearGradient><linearGradient x1="-21.0703002%" y1="86.5715485%" x2="132.918641%" y2="2.91649182%" id="K"><stop stop-color="#B3FFAB" offset="1%"/><stop stop-color="#B1FFAC" offset="1%"/><stop stop-color="#6EFFCC" offset="36%"/><stop stop-color="#3CFFE3" offset="65%"/><stop stop-color="#1DFFF2" offset="88%"/><stop stop-color="#12FFF7" offset="100%"/></linearGradient><linearGradient x1="97.0011895%" y1="80.4320691%" x2="-37.4006135%" y2="-13.2213154%" id="L"><stop stop-color="#3C8CE7" offset="1%"/><stop stop-color="#3A8FE8" offset="3%"/><stop stop-color="#1BC0F4" offset="47%"/><stop stop-color="#07DFFC" offset="81%"/><stop stop-color="#00EAFF" offset="100%"/></linearGradient><linearGradient x1="-5.64516129%" y1="85.9210834%" x2="153.196481%" y2="-28.9983656%" id="M"><stop stop-color="#3C8CE7" offset="1%"/><stop stop-color="#3A8FE8" offset="3%"/><stop stop-color="#1BC0F4" offset="47%"/><stop stop-color="#07DFFC" offset="81%"/><stop stop-color="#00EAFF" offset="100%"/></linearGradient><linearGradient x1="-28.7435137%" y1="-48.7716106%" x2="151.556709%" y2="199.150743%" id="N"><stop stop-color="#3C8CE7" offset="1%"/><stop stop-color="#3A8FE8" offset="3%"/><stop stop-color="#1BC0F4" offset="47%"/><stop stop-color="#07DFFC" offset="81%"/><stop stop-color="#00EAFF" offset="100%"/></linearGradient><linearGradient x1="8.12568456%" y1="10.3886477%" x2="75.8556955%" y2="67.8915599%" id="O"><stop stop-color="#3C8CE7" offset="1%"/><stop stop-color="#3A8FE8" offset="3%"/><stop stop-color="#1BC0F4" offset="47%"/><stop stop-color="#07DFFC" offset="81%"/><stop stop-color="#00EAFF" offset="100%"/></linearGradient><linearGradient x1="-45.192682%" y1="-61.7602884%" x2="156.967692%" y2="200.420547%" id="P"><stop stop-color="#3C8CE7" offset="1%"/><stop stop-color="#3A8FE8" offset="3%"/><stop stop-color="#1BC0F4" offset="47%"/><stop stop-color="#07DFFC" offset="81%"/><stop stop-color="#00EAFF" offset="100%"/></linearGradient><linearGradient x1="-18%" y1="17.7790564%" x2="105.311111%" y2="75.8342923%" id="Q"><stop stop-color="#3C8CE7" offset="1%"/><stop stop-color="#3A8FE8" offset="3%"/><stop stop-color="#1BC0F4" offset="47%"/><stop stop-color="#07DFFC" offset="81%"/><stop stop-color="#00EAFF" offset="100%"/></linearGradient><linearGradient x1="35.2813853%" y1="24.2135367%" x2="116.357452%" y2="147.187798%" id="R"><stop stop-color="#3C8CE7" offset="1%"/><stop stop-color="#3A8FE8" offset="3%"/><stop stop-color="#1BC0F4" offset="47%"/><stop stop-color="#07DFFC" offset="81%"/><stop stop-color="#00EAFF" offset="100%"/></linearGradient><linearGradient x1="40.0738689%" y1="26.3744428%" x2="79.9168975%" y2="121.099554%" id="S"><stop stop-color="#3C8CE7" offset="1%"/><stop stop-color="#3A8FE8" offset="3%"/><stop stop-color="#1BC0F4" offset="47%"/><stop stop-color="#07DFFC" offset="81%"/><stop stop-color="#00EAFF" offset="100%"/></linearGradient><linearGradient x1="-29.0780142%" y1="34.257975%" x2="379.078014%" y2="112.806288%" id="T"><stop stop-color="#3C8CE7" offset="1%"/><stop stop-color="#3A8FE8" offset="3%"/><stop stop-color="#1BC0F4" offset="47%"/><stop stop-color="#07DFFC" offset="81%"/><stop stop-color="#00EAFF" offset="100%"/></linearGradient><linearGradient x1="38.3042394%" y1="17.0539237%" x2="99.2269327%" y2="175.142481%" id="U"><stop stop-color="#3C8CE7" offset="1%"/><stop stop-color="#3A8FE8" offset="3%"/><stop stop-color="#1BC0F4" offset="47%"/><stop stop-color="#07DFFC" offset="81%"/><stop stop-color="#00EAFF" offset="100%"/></linearGradient><linearGradient x1="22.2057735%" y1="88.730099%" x2="82.5684678%" y2="7.59684092%" id="V"><stop stop-color="#3C8CE7" offset="1%"/><stop stop-color="#3A8FE8" offset="3%"/><stop stop-color="#1BC0F4" offset="47%"/><stop stop-color="#07DFFC" offset="81%"/><stop stop-color="#00EAFF" offset="100%"/></linearGradient><linearGradient x1="39.1578947%" y1="68.7127806%" x2="65.8157895%" y2="22.6752176%" id="W"><stop stop-color="#B3FFAB" offset="1%"/><stop stop-color="#B1FFAC" offset="1%"/><stop stop-color="#6EFFCC" offset="36%"/><stop stop-color="#3CFFE3" offset="65%"/><stop stop-color="#1DFFF2" offset="88%"/><stop stop-color="#12FFF7" offset="100%"/></linearGradient><linearGradient x1="39.6654966%" y1="64.9593251%" x2="59.6531076%" y2="36.0349503%" id="X"><stop stop-color="#B3FFAB" offset="1%"/><stop stop-color="#B1FFAC" offset="1%"/><stop stop-color="#6EFFCC" offset="36%"/><stop stop-color="#3CFFE3" offset="65%"/><stop stop-color="#1DFFF2" offset="88%"/><stop stop-color="#12FFF7" offset="100%"/></linearGradient><linearGradient x1="23.308642%" y1="-377.113475%" x2="67.2592593%" y2="12.3723404%" id="Y"><stop stop-color="#B3FFAB" offset="1%"/><stop stop-color="#B1FFAC" offset="1%"/><stop stop-color="#6EFFCC" offset="36%"/><stop stop-color="#3CFFE3" offset="65%"/><stop stop-color="#1DFFF2" offset="88%"/><stop stop-color="#12FFF7" offset="100%"/></linearGradient><linearGradient x1="25.3703704%" y1="-376.35461%" x2="69.3209877%" y2="13.1312057%" id="Z"><stop stop-color="#B3FFAB" offset="1%"/><stop stop-color="#B1FFAC" offset="1%"/><stop stop-color="#6EFFCC" offset="36%"/><stop stop-color="#3CFFE3" offset="65%"/><stop stop-color="#1DFFF2" offset="88%"/><stop stop-color="#12FFF7" offset="100%"/></linearGradient><linearGradient x1="19.1604938%" y1="-377.875887%" x2="63.1111111%" y2="11.6099291%" id="a"><stop stop-color="#B3FFAB" offset="1%"/><stop stop-color="#B1FFAC" offset="1%"/><stop stop-color="#6EFFCC" offset="36%"/><stop stop-color="#3CFFE3" offset="65%"/><stop stop-color="#1DFFF2" offset="88%"/><stop stop-color="#12FFF7" offset="100%"/></linearGradient><linearGradient x1="20.9876543%" y1="-377.117021%" x2="64.9382716%" y2="12.3687943%" id="b"><stop stop-color="#B3FFAB" offset="1%"/><stop stop-color="#B1FFAC" offset="1%"/><stop stop-color="#6EFFCC" offset="36%"/><stop stop-color="#3CFFE3" offset="65%"/><stop stop-color="#1DFFF2" offset="88%"/><stop stop-color="#12FFF7" offset="100%"/></linearGradient><linearGradient x1="34.6991675%" y1="2.67379679%" x2="85.2753025%" y2="94.1176471%" id="c"><stop stop-color="#3C8CE7" offset="1%"/><stop stop-color="#3A8FE8" offset="3%"/><stop stop-color="#1BC0F4" offset="47%"/><stop stop-color="#07DFFC" offset="81%"/><stop stop-color="#00EAFF" offset="100%"/></linearGradient><linearGradient x1="26.8518519%" y1="-376.521277%" x2="71.1111111%" y2="13.2730496%" id="d"><stop stop-color="#B3FFAB" offset="1%"/><stop stop-color="#B1FFAC" offset="1%"/><stop stop-color="#6EFFCC" offset="36%"/><stop stop-color="#3CFFE3" offset="65%"/><stop stop-color="#1DFFF2" offset="88%"/><stop stop-color="#12FFF7" offset="100%"/></linearGradient><linearGradient x1="17.1358025%" y1="-378.060284%" x2="61.3950617%" y2="11.7340426%" id="e"><stop stop-color="#B3FFAB" offset="1%"/><stop stop-color="#B1FFAC" offset="1%"/><stop stop-color="#6EFFCC" offset="36%"/><stop stop-color="#3CFFE3" offset="65%"/><stop stop-color="#1DFFF2" offset="88%"/><stop stop-color="#12FFF7" offset="100%"/></linearGradient></defs><path d="M1.845 121.663l23.32 13.357 11.695-2.17 5.907 3.383 5.627 12.096 28.45 16.27c2.558 1.478 4.53.918 7.088-.56l45.283-29.418c.71-.412 1.145-1.172 1.145-1.993s-.436-1.58-1.145-1.993L55.39 88.253c-2.557-1.477-5.706-1.477-8.263 0L1.845 117.67c-.712.41-1.15 1.173-1.15 1.996s.44 1.585 1.15 1.996z" fill="#2F2F7A"/><path d="M138.485 42.34l-21.202 59.655 2.034 3.054 20.21-61.784z" fill="url(#A)"/><path d="M143.44 41.17l-20.922 68.15-3.202-4.273 20.21-61.784z" fill="url(#B)"/><path d="M140.386 39.462l-1.9 2.88 1.042.925 3.915-2.094z" fill="url(#C)"/><path d="M92.034 15.094L84.57 77.978l2.656 2.53 6.033-64.74z" fill="url(#D)"/><path d="M96.613 12.853l-5.32 71.107-4.068-3.453 6.033-64.74z" fill="url(#E)"/><path d="M93.257 11.865l-1.223 3.23 1.223.672 3.355-2.914z" fill="url(#F)"/><path d="M45.96 3.404l5.06 63.122 3.104 1.954L47.29 3.817z" fill="url(#G)"/><path d="M50.002.3l8.787 70.764-4.663-2.585L47.29 3.817z" fill="url(#H)"/><path d="M46.527 0l-.566 3.404 1.328.413L50.002.3z" fill="url(#I)"/><path d="M12.513 90.018L11.24 95.88l33.064 24.403 35.832 25.313 9.437-5.582-.825-5.17-13.904-5.022z" fill="url(#J)"/><path d="M124.175 107.865l-3.495-1.233-31.904 28.213.825 5.17c.77 0 33.4-22.54 33.4-22.54l1.174-9.6z" fill="url(#K)"/><path d="M12.994 93.68l31.3 21.244 30.54 14.898 11.6 6.808 37.734-28.76-6.71-9.862-59.774-34.328-9.15.196-36.02 26.14z" fill="url(#L)"/><path d="M12.995 93.68l44.69-30-9.15.196L10 91.832z" fill="url(#M)"/><path d="M10 91.832l-7.92 7.43 7.745 1.135 14.86 14.527 15.113-3.047-24.466-19.773z" fill="url(#N)"/><path d="M15.344 92.105l26.563 13.756 32.938 23.96L117.458 98 85.1 73.236l-27.416-9.554z" fill="url(#O)"/><path d="M50.52 117.958l1.86 11.662 22.467 5.35 5.564 6.304 6.026-4.644-10.674-7.523z" fill="url(#P)"/><path d="M44.584 104.762l-.28 10.163L75.76 129.11z" fill="url(#Q)"/><path d="M2.1 99.264v4.854l6.508 9.084 16.07 8.104.028-6.38-14.86-14.527z" fill="url(#R)"/><path d="M24.67 121.306l15.14-4.336v-5.092l-15.113 3.047z" fill="url(#S)"/><path d="M50.52 117.958l-.112 7.796 1.97 7.354v-3.488z" fill="url(#T)"/><path d="M52.378 133.108l20.153 12.49h7.605l.273-4.322-5.564-6.304-22.467-5.35z" fill="url(#U)"/><path d="M41.907 105.862L85.1 73.236 117.458 98l-41.697 31.1z" fill="url(#V)"/><path d="M15.344 92.105l26.563 15.3v-1.534z" fill="url(#W)"/><path d="M41.907 105.862v1.534L75.76 129.11z" fill="url(#X)"/><circle fill="url(#Y)" transform="matrix(.863307 -.504678 .504678 .863307 -50.625668 39.198457)" cx="47.049" cy="113.056" r="1"/><circle fill="url(#Z)" transform="matrix(.864507 -.50262 .50262 .864507 -50.960801 40.753578)" cx="50.109" cy="114.898" r="1"/><circle fill="url(#a)" transform="matrix(.863307 -.504678 .504678 .863307 -49.006726 33.693647)" cx="37.696" cy="107.315" r="1"/><circle fill="url(#b)" transform="matrix(.863307 -.504678 .504678 .863307 -49.744223 35.931054)" cx="41.458" cy="109.795" r="1"/><path d="M111.146 122.903l-1.398-.834c-.153-.324-.17-.695-.047-1.032a1.33 1.33 0 0 1 .704-.754h1.398l-.657 2.62z" fill="url(#c)"/><circle fill="url(#d)" transform="matrix(.863307 -.504678 .504678 .863307 -51.582357 43.200549)" cx="53.959" cy="116.823" r="1"/><circle fill="url(#e)" transform="matrix(.863307 -.504678 .504678 .863307 -48.4014 31.904458)" cx="34.696" cy="105.303" r="1"/></svg>