<svg xmlns="http://www.w3.org/2000/svg" width="129" height="166" viewBox="0 0 150 166"><defs><linearGradient x1="-86.7337263%" y1="10.8372913%" x2="202.877164%" y2="93.2771143%" id="A"><stop stop-color="#B3FFAB" offset="1%"/><stop stop-color="#B1FFAC" offset="1%"/><stop stop-color="#6EFFCC" offset="36%"/><stop stop-color="#3CFFE3" offset="65%"/><stop stop-color="#1DFFF2" offset="88%"/><stop stop-color="#12FFF7" offset="100%"/></linearGradient><linearGradient x1="-86.7502386%" y1="10.8020546%" x2="202.915788%" y2="93.2744574%" id="B"><stop stop-color="#B3FFAB" offset="1%"/><stop stop-color="#B1FFAC" offset="1%"/><stop stop-color="#6EFFCC" offset="36%"/><stop stop-color="#3CFFE3" offset="65%"/><stop stop-color="#1DFFF2" offset="88%"/><stop stop-color="#12FFF7" offset="100%"/></linearGradient><linearGradient x1="41.4479508%" y1="29.9964104%" x2="115.694138%" y2="206.173954%" id="C"><stop stop-color="#B3FFAB" offset="1%"/><stop stop-color="#B1FFAC" offset="1%"/><stop stop-color="#6EFFCC" offset="36%"/><stop stop-color="#3CFFE3" offset="65%"/><stop stop-color="#1DFFF2" offset="88%"/><stop stop-color="#12FFF7" offset="100%"/></linearGradient><linearGradient x1="108.809907%" y1="93.1958335%" x2="8.02654387%" y2="7.53726637%" id="D"><stop stop-color="#00EAFF" offset="0%"/><stop stop-color="#07DFFC" offset="19%"/><stop stop-color="#1BC0F4" offset="53%"/><stop stop-color="#3A8FE8" offset="97%"/><stop stop-color="#3C8CE7" offset="99%"/></linearGradient><linearGradient x1="13.9076923%" y1="82.0364238%" x2="111.692308%" y2="-5.07726269%" id="E"><stop stop-color="#B3FFAB" offset="1%"/><stop stop-color="#B1FFAC" offset="1%"/><stop stop-color="#6EFFCC" offset="36%"/><stop stop-color="#3CFFE3" offset="65%"/><stop stop-color="#1DFFF2" offset="88%"/><stop stop-color="#12FFF7" offset="100%"/></linearGradient><linearGradient x1="15.7447038%" y1="84.7299283%" x2="159.779937%" y2="-18.4248783%" id="F"><stop stop-color="#3C8CE7" offset="1%"/><stop stop-color="#29A9EE" stop-opacity=".7" offset="26%"/><stop stop-color="#18C5F5" stop-opacity=".4" offset="52%"/><stop stop-color="#0BD9FB" stop-opacity=".18" offset="74%"/><stop stop-color="#03E5FE" stop-opacity=".05" offset="91%"/><stop stop-color="#00EAFF" stop-opacity="0" offset="100%"/></linearGradient><linearGradient x1="-80.4578313%" y1="-55.8645833%" x2="23.2650602%" y2="-18.8125%" id="G"><stop stop-color="#00EAFF" offset="0%"/><stop stop-color="#07DFFC" offset="19%"/><stop stop-color="#1BC0F4" offset="53%"/><stop stop-color="#3A8FE8" offset="97%"/><stop stop-color="#3C8CE7" offset="99%"/></linearGradient><linearGradient x1="-79.6987952%" y1="-56.9895833%" x2="24.0240964%" y2="-19.9375%" id="H"><stop stop-color="#00EAFF" offset="0%"/><stop stop-color="#07DFFC" offset="19%"/><stop stop-color="#1BC0F4" offset="53%"/><stop stop-color="#3A8FE8" offset="97%"/><stop stop-color="#3C8CE7" offset="99%"/></linearGradient><linearGradient x1="-78.9728916%" y1="-58.5625%" x2="24.75%" y2="-21.5104167%" id="I"><stop stop-color="#00EAFF" offset="0%"/><stop stop-color="#07DFFC" offset="19%"/><stop stop-color="#1BC0F4" offset="53%"/><stop stop-color="#3A8FE8" offset="97%"/><stop stop-color="#3C8CE7" offset="99%"/></linearGradient><linearGradient x1="-78.2560241%" y1="-59.4375%" x2="25.4668675%" y2="-22.3854167%" id="J"><stop stop-color="#00EAFF" offset="0%"/><stop stop-color="#07DFFC" offset="19%"/><stop stop-color="#1BC0F4" offset="53%"/><stop stop-color="#3A8FE8" offset="97%"/><stop stop-color="#3C8CE7" offset="99%"/></linearGradient><linearGradient x1="-77.4246988%" y1="-59.875%" x2="26.2981928%" y2="-22.8229167%" id="K"><stop stop-color="#00EAFF" offset="0%"/><stop stop-color="#07DFFC" offset="19%"/><stop stop-color="#1BC0F4" offset="53%"/><stop stop-color="#3A8FE8" offset="97%"/><stop stop-color="#3C8CE7" offset="99%"/></linearGradient><linearGradient x1="-22.9708223%" y1="-8.91134589%" x2="230.344828%" y2="195.498392%" id="L"><stop stop-color="#3C8CE7" offset="1%"/><stop stop-color="#3A8FE8" offset="3%"/><stop stop-color="#1BC0F4" offset="47%"/><stop stop-color="#07DFFC" offset="81%"/><stop stop-color="#00EAFF" offset="100%"/></linearGradient><linearGradient x1="-94.4773176%" y1="-66.6287016%" x2="219.460881%" y2="186.788155%" id="M"><stop stop-color="#3C8CE7" offset="1%"/><stop stop-color="#3A8FE8" offset="3%"/><stop stop-color="#1BC0F4" offset="47%"/><stop stop-color="#07DFFC" offset="81%"/><stop stop-color="#00EAFF" offset="100%"/></linearGradient><linearGradient x1="53.4845496%" y1="53.5307517%" x2="194.017094%" y2="197.323462%" id="N"><stop stop-color="#3C8CE7" offset="1%"/><stop stop-color="#3A8FE8" offset="3%"/><stop stop-color="#1BC0F4" offset="47%"/><stop stop-color="#07DFFC" offset="81%"/><stop stop-color="#00EAFF" offset="100%"/></linearGradient><linearGradient x1="219.925214%" y1="185.106383%" x2="432.264957%" y2="353.931545%" id="O"><stop stop-color="#3C8CE7" offset="1%"/><stop stop-color="#3A8FE8" offset="3%"/><stop stop-color="#1BC0F4" offset="47%"/><stop stop-color="#07DFFC" offset="81%"/><stop stop-color="#00EAFF" offset="100%"/></linearGradient><linearGradient x1="144.257917%" y1="123.146357%" x2="295.917589%" y2="240.812379%" id="P"><stop stop-color="#3C8CE7" offset="1%"/><stop stop-color="#3A8FE8" offset="3%"/><stop stop-color="#1BC0F4" offset="47%"/><stop stop-color="#07DFFC" offset="81%"/><stop stop-color="#00EAFF" offset="100%"/></linearGradient><linearGradient x1="-30.2121927%" y1="-14.7607935%" x2="248.198046%" y2="209.91832%" id="Q"><stop stop-color="#3C8CE7" offset="1%"/><stop stop-color="#3A8FE8" offset="3%"/><stop stop-color="#1BC0F4" offset="47%"/><stop stop-color="#07DFFC" offset="81%"/><stop stop-color="#00EAFF" offset="100%"/></linearGradient><linearGradient x1="-14.0181269%" y1="-0.824742268%" x2="208.096677%" y2="175.670103%" id="R"><stop stop-color="#3C8CE7" offset="1%"/><stop stop-color="#3A8FE8" offset="3%"/><stop stop-color="#1BC0F4" offset="47%"/><stop stop-color="#07DFFC" offset="81%"/><stop stop-color="#00EAFF" offset="100%"/></linearGradient><linearGradient x1="64.6331738%" y1="65.114663%" x2="235.087719%" y2="240.583739%" id="S"><stop stop-color="#3C8CE7" offset="1%"/><stop stop-color="#3A8FE8" offset="3%"/><stop stop-color="#1BC0F4" offset="47%"/><stop stop-color="#07DFFC" offset="81%"/><stop stop-color="#00EAFF" offset="100%"/></linearGradient><linearGradient x1="-19.2185008%" y1="-6.25869263%" x2="221.052632%" y2="189.012517%" id="T"><stop stop-color="#3C8CE7" offset="1%"/><stop stop-color="#3A8FE8" offset="3%"/><stop stop-color="#1BC0F4" offset="47%"/><stop stop-color="#07DFFC" offset="81%"/><stop stop-color="#00EAFF" offset="100%"/></linearGradient><linearGradient x1="-14.0266022%" y1="-0.927835052%" x2="208.222491%" y2="175.670103%" id="U"><stop stop-color="#3C8CE7" offset="1%"/><stop stop-color="#3A8FE8" offset="3%"/><stop stop-color="#1BC0F4" offset="47%"/><stop stop-color="#07DFFC" offset="81%"/><stop stop-color="#00EAFF" offset="100%"/></linearGradient><linearGradient x1="68.1378476%" y1="64.4329897%" x2="290.386941%" y2="241.030928%" id="V"><stop stop-color="#3C8CE7" offset="1%"/><stop stop-color="#3A8FE8" offset="3%"/><stop stop-color="#1BC0F4" offset="47%"/><stop stop-color="#07DFFC" offset="81%"/><stop stop-color="#00EAFF" offset="100%"/></linearGradient></defs><g fill-rule="nonzero"><path d="M68.384.722c.585-.103 1.185.072 1.624.473a1.92 1.92 0 0 1 .618 1.576c-.483-1.292-1.737 20.432-1.578 36.708.08 8.77-2.313 34.983-2.313 34.983s-2.818 1.27-7.668-1.53c0 0 1.348-24.712 3.272-32.983 2.032-8.72 3.466-31.446 4.54-37.87A1.76 1.76 0 0 1 68.384.722z" fill="url(#A)"/><path d="M125.887 134.128l-50.9 29.433c-4.504 2.605-11.77 2.67-17.577-.722L9.455 135.102c-5.44-2.54-5.765-7.557-1.26-10.162l50.9-29.433c4.51-2.605 12.38-2.273 17.584.722l47.946 27.73c5.196 3.017 5.765 7.564 1.26 10.17z" fill="#2F2F7A"/><path d="M125.483 25.65c.58-.1 1.174.07 1.61.465a1.92 1.92 0 0 1 .63 1.556c-.483-1.292-1.737 20.432-1.578 36.708.08 8.77-2.313 34.983-2.313 34.983s-2.818 1.27-7.668-1.53c0 0 1.348-24.712 3.272-32.983 2.032-8.72 3.466-31.446 4.54-37.87a1.76 1.76 0 0 1 1.506-1.328z" fill="url(#B)"/><path d="M5.045 107.676s-5.477-2.685 1.578 4.496c5.542 5.644 49.568 29.21 53.106 29.902 7.697 1.523 9.138.166 9.138.166l-43.572-31.923-20.25-2.642z" fill="url(#C)"/><path d="M124.128 111.523c-2.486 4.814-7.408 13.663-22.708 22.136C89.695 140.155 72.773 144 72.773 144c-5.32.722-16.23-11.324-36.46-23.247C16.38 108.983 3.3 110.563 3.3 110.563c-4.324-.397-3.005-6.084 2.328-9.253l43.874-29.988c4.504-2.605 23.566-7.47 49.676 7.867 20.654 12.125 31.025 20.562 24.95 32.334z" fill="url(#D)"/><path d="M18.017 103.93s20.9 5.052 40.48 22.836l6.364-3.912s-25.223-21.37-40.574-22.244l-6.27 3.32z" fill="url(#E)"/><path d="M49.67 129.603s53.632-6.618 67.354-38.563c0 0 11.905 7.853 8.252 17.71-4.115 11.122-15.134 25.867-52.5 35.25 0 0-2.522.635-8.446-3.255L49.67 129.603z" fill="url(#F)"/><ellipse fill="url(#G)" transform="matrix(.999985 -.00541 .00541 .999985 -.568838 .171126)" cx="31.344" cy="105.221" rx="1.196" ry="1"/><ellipse fill="url(#H)" transform="matrix(.999985 -.00541 .00541 .999985 -.581493 .199654)" cx="36.61" cy="107.574" rx="1.196" ry="1"/><ellipse fill="url(#I)" transform="matrix(.99995 -.01 .01 .99995 -1.099612 .430173)" cx="42.469" cy="110.179" rx="1.196" ry="1"/><ellipse fill="url(#J)" transform="matrix(.999985 -.00541 .00541 .999985 -.612828 .255277)" cx="46.875" cy="113.393" rx="1.196" ry="1"/><ellipse fill="url(#K)" transform="matrix(.999985 -.00541 .00541 .999985 -.629606 .280914)" cx="51.605" cy="116.507" rx="1.196" ry="1"/><path d="M83.843 111.877l-5.773 3.342-21.397-12.37 5.773-3.342z" fill="url(#L)"/><path d="M73.004 112.288l16.85-9.743 5.074 2.93-16.856 9.743z" fill="url(#M)"/><path d="M56.27 89.734L73.126 80l5.066 2.93-16.85 9.743z" fill="url(#N)"/><path d="M25.562 94.447l8.425-4.872 5.066 2.93-8.425 4.872z" fill="url(#O)"/><path d="M47.197 97.377l-5.773 3.334-13.116-7.853 5.773-3.342z" fill="url(#P)"/><path d="M78.07 115.218l-21.397-12.37" fill="url(#Q)"/><path d="M80.5 97.983l-5.773 3.334-6.155-3.666 5.773-3.334z" fill="url(#R)"/><path d="M77.205 82.278l-5.773 3.342-12.302-7.044 5.773-3.342z" fill="url(#S)"/><path d="M97.81 92.664L92.037 96l-12.302-7.044 5.773-3.334z" fill="url(#T)"/><path d="M76.218 118.885l-5.773 3.334-6.147-3.666 5.773-3.334z" fill="url(#U)"/><path d="M54.72 78.417l-5.773 3.334-6.147-3.666 5.773-3.334z" fill="url(#V)"/></g></svg>