<svg xmlns="http://www.w3.org/2000/svg" width="155" height="166" viewBox="0 0 150 166"><defs><linearGradient x1="193.852191%" y1="10.8478723%" x2="-109.810334%" y2="91.7617021%" id="A"><stop stop-color="#B3FFAB" offset="1%"/><stop stop-color="#B1FFAC" offset="1%"/><stop stop-color="#6EFFCC" offset="36%"/><stop stop-color="#3CFFE3" offset="65%"/><stop stop-color="#1DFFF2" offset="88%"/><stop stop-color="#12FFF7" offset="100%"/></linearGradient><linearGradient x1="261.386139%" y1="137.174721%" x2="157.425743%" y2="94.4237918%" id="B"><stop stop-color="#B3FFAB" offset="1%"/><stop stop-color="#B1FFAC" offset="1%"/><stop stop-color="#6EFFCC" offset="36%"/><stop stop-color="#3CFFE3" offset="65%"/><stop stop-color="#1DFFF2" offset="88%"/><stop stop-color="#12FFF7" offset="100%"/></linearGradient><linearGradient x1="-87.1811642%" y1="10.9360756%" x2="202.9431%" y2="91.7309616%" id="C"><stop stop-color="#B3FFAB" offset="1%"/><stop stop-color="#B1FFAC" offset="1%"/><stop stop-color="#6EFFCC" offset="36%"/><stop stop-color="#3CFFE3" offset="65%"/><stop stop-color="#1DFFF2" offset="88%"/><stop stop-color="#12FFF7" offset="100%"/></linearGradient><linearGradient x1="-37.1747212%" y1="-161.386139%" x2="5.76208178%" y2="-57.4257426%" id="D"><stop stop-color="#B3FFAB" offset="1%"/><stop stop-color="#B1FFAC" offset="1%"/><stop stop-color="#6EFFCC" offset="36%"/><stop stop-color="#3CFFE3" offset="65%"/><stop stop-color="#1DFFF2" offset="88%"/><stop stop-color="#12FFF7" offset="100%"/></linearGradient><linearGradient x1="-93.9136126%" y1="10.8515665%" x2="209.947644%" y2="91.7929508%" id="E"><stop stop-color="#B3FFAB" offset="1%"/><stop stop-color="#B1FFAC" offset="1%"/><stop stop-color="#6EFFCC" offset="36%"/><stop stop-color="#3CFFE3" offset="65%"/><stop stop-color="#1DFFF2" offset="88%"/><stop stop-color="#12FFF7" offset="100%"/></linearGradient><linearGradient x1="-37.1747212%" y1="-161.386139%" x2="5.57620818%" y2="-57.4257426%" id="F"><stop stop-color="#B3FFAB" offset="1%"/><stop stop-color="#B1FFAC" offset="1%"/><stop stop-color="#6EFFCC" offset="36%"/><stop stop-color="#3CFFE3" offset="65%"/><stop stop-color="#1DFFF2" offset="88%"/><stop stop-color="#12FFF7" offset="100%"/></linearGradient><linearGradient x1="126.836412%" y1="-22.7663609%" x2="-27.2086435%" y2="128.554574%" id="G"><stop stop-color="#00EAFF" offset="0%"/><stop stop-color="#07DFFC" offset="19%"/><stop stop-color="#1BC0F4" offset="53%"/><stop stop-color="#3A8FE8" offset="97%"/><stop stop-color="#3C8CE7" offset="99%"/></linearGradient><linearGradient x1="42.0595876%" y1="24.0289414%" x2="114.420324%" y2="180.769231%" id="H"><stop stop-color="#00EAFF" offset="0%"/><stop stop-color="#07DFFC" offset="19%"/><stop stop-color="#1BC0F4" offset="53%"/><stop stop-color="#3A8FE8" offset="97%"/><stop stop-color="#3C8CE7" offset="99%"/></linearGradient><linearGradient x1="11.4000401%" y1="13.5632138%" x2="84.1179736%" y2="82.0047535%" id="I"><stop stop-color="#B3FFAB" offset="1%"/><stop stop-color="#B1FFAC" offset="1%"/><stop stop-color="#6EFFCC" offset="36%"/><stop stop-color="#3CFFE3" offset="65%"/><stop stop-color="#1DFFF2" offset="88%"/><stop stop-color="#12FFF7" offset="100%"/></linearGradient><linearGradient x1="11.406583%" y1="13.5636963%" x2="84.1418647%" y2="82.0076709%" id="J"><stop stop-color="#00EAFF" offset="0%"/><stop stop-color="#07DFFC" offset="19%"/><stop stop-color="#1BC0F4" offset="53%"/><stop stop-color="#3A8FE8" offset="97%"/><stop stop-color="#3C8CE7" offset="99%"/></linearGradient><linearGradient x1="268.375218%" y1="-207.431088%" x2="62.0392902%" y2="35.8250315%" id="K"><stop stop-color="#B3FFAB" offset="1%"/><stop stop-color="#B1FFAC" offset="1%"/><stop stop-color="#6EFFCC" offset="36%"/><stop stop-color="#3CFFE3" offset="65%"/><stop stop-color="#1DFFF2" offset="88%"/><stop stop-color="#12FFF7" offset="100%"/></linearGradient><linearGradient x1="47.0600143%" y1="-2.23586855%" x2="53.1650402%" y2="104.295915%" id="L"><stop stop-color="#B3FFAB" offset="1%"/><stop stop-color="#B1FFAC" offset="1%"/><stop stop-color="#6EFFCC" offset="36%"/><stop stop-color="#3CFFE3" offset="65%"/><stop stop-color="#1DFFF2" offset="88%"/><stop stop-color="#12FFF7" offset="100%"/></linearGradient><linearGradient x1="247.064103%" y1="-37.3605948%" x2="143.410256%" y2="5.57620818%" id="M"><stop stop-color="#B3FFAB" offset="1%"/><stop stop-color="#B1FFAC" offset="1%"/><stop stop-color="#6EFFCC" offset="36%"/><stop stop-color="#3CFFE3" offset="65%"/><stop stop-color="#1DFFF2" offset="88%"/><stop stop-color="#12FFF7" offset="100%"/></linearGradient><linearGradient x1="32.7741935%" y1="-2.05278592%" x2="98.3225806%" y2="133.284457%" id="N"><stop stop-color="#B3FFAB" offset="1%"/><stop stop-color="#B1FFAC" offset="1%"/><stop stop-color="#6EFFCC" offset="36%"/><stop stop-color="#3CFFE3" offset="65%"/><stop stop-color="#1DFFF2" offset="88%"/><stop stop-color="#12FFF7" offset="100%"/></linearGradient></defs><g fill-rule="nonzero"><path d="M28.446 1.882l5.012 76.123s1.306 2.875 6.274 0L32.18 2.9l-3.735-1.008z" fill="url(#A)"/><ellipse fill="url(#B)" transform="matrix(.463141 -.886284 .886284 .463141 14.181777 28.123736)" cx="30.305" cy="2.356" rx="1.491" ry="1.993"/><path d="M124 133.348l-52.117 30.22c-4.613 2.675-12.053 2.742-18.002-.74L4.768 134.35c-5.573-2.61-5.905-7.76-1.292-10.434L55.6 93.694c4.62-2.675 12.68-2.334 18 .74l49.105 28.472c5.33 3.075 5.912 7.766 1.284 10.442z" fill="#2F2F7A"/><path d="M88.808 2.868l-5.02 72.788s-1.3 2.875-6.266 0l7.543-71.78 3.742-1.008z" fill="url(#C)"/><ellipse fill="url(#D)" transform="matrix(.886284 -.463141 .463141 .886284 8.338404 40.649316)" cx="86.948" cy="3.344" rx="1.985" ry="1.497"/><path d="M119.667 17.282l-5.012 76.093s-1.306 2.883-6.266 0l7.543-75.093 3.735-1z" fill="url(#E)"/><ellipse fill="url(#F)" transform="matrix(.886284 -.463141 .463141 .886284 5.173161 56.585075)" cx="117.817" cy="17.758" rx="1.985" ry="1.497"/><path d="M55.52 137.602s8.4 2.134 15.965-.585c4.43-1.578 48.478-27.798 49.895-28.96 4.43-3.646 4.17-7.24 3.94-10.197-.2-2.527-62 29.435-62 29.435l-7.802 10.308z" fill="url(#G)"/><path d="M1.838 98.68s-.347 4.52 6.88 11.894c5.676 5.795 43.917 27.027 47.607 27.027 7.81 0 11.027-10.3 11.027-10.3L1.838 98.68z" fill="url(#H)"/><path d="M38.248 123.9L4.495 104.328c-5.58-2.61-5.905-7.76-1.292-10.434l52.154-30.22c4.613-2.675 12.673-2.334 18.002.74l49.113 28.465c5.33 3.1 5.905 7.76 1.292 10.442l-52.17 30.228c-4.613 2.675-12.053 2.75-18-.74l-15.352-8.893" fill="url(#I)"/><path d="M124 101.208l-52.117 30.22c-4.613 2.675-12.053 2.742-18.002-.74L4.768 102.21c-5.573-2.61-5.905-7.76-1.292-10.434L55.6 61.553c4.62-2.675 12.68-2.334 18 .74l49.105 28.472c5.33 3.098 5.912 7.796 1.284 10.442z" fill="url(#J)"/><path d="M55.527 123.366l-37.31-21.632c-.51-.296-.443-.815.148-1.156l2.783-1.616c.616-.346 1.36-.376 2-.082l37.303 21.632c.517.296.45.815-.14 1.156l-2.783 1.608c-.615.348-1.357.38-2 .09z" fill="url(#K)"/><path d="M154.542 53.935l-38.38 65.54s-1.63 2.446-6.945-1.438L150.8 52.55l3.742 1.386z" fill="url(#L)"/><ellipse fill="url(#M)" transform="matrix(.316974 -.948434 .948434 .316974 53.867103 181.154178)" cx="152.707" cy="53.178" rx="1.151" ry="1.993"/><path d="M109.238 118.038l-2.797-2.1c.058-1.314.874-2.472 2.09-2.964l3.63.46-2.923 4.595z" fill="url(#N)"/></g></svg>