<svg xmlns="http://www.w3.org/2000/svg" width="152" height="166" viewBox="0 0 150 166"><defs><linearGradient x1="0%" y1="50.0094715%" x2="100%" y2="50.0094715%" id="A"><stop stop-color="#00EAFF" offset="0%"/><stop stop-color="#07DFFC" offset="19%"/><stop stop-color="#1BC0F4" offset="53%"/><stop stop-color="#3A8FE8" offset="97%"/><stop stop-color="#3C8CE7" offset="99%"/></linearGradient><linearGradient x1="0%" y1="49.9908609%" x2="100%" y2="49.9908609%" id="B"><stop stop-color="#00EAFF" offset="0%"/><stop stop-color="#07DFFC" offset="19%"/><stop stop-color="#1BC0F4" offset="53%"/><stop stop-color="#3A8FE8" offset="97%"/><stop stop-color="#3C8CE7" offset="99%"/></linearGradient><linearGradient x1="0.0523735583%" y1="50.3793372%" x2="100.014503%" y2="50.3793372%" id="C"><stop stop-color="#B3FFAB" offset="1%"/><stop stop-color="#B1FFAC" offset="2%"/><stop stop-color="#62FFD1" offset="42%"/><stop stop-color="#43FFE0" offset="61%"/><stop stop-color="#3CFFE3" offset="65%"/><stop stop-color="#1DFFF2" offset="88%"/><stop stop-color="#12FFF7" offset="100%"/></linearGradient><linearGradient x1="0%" y1="50%" x2="100%" y2="50%" id="D"><stop stop-color="#00EAFF" offset="0%"/><stop stop-color="#07DFFC" offset="19%"/><stop stop-color="#1BC0F4" offset="53%"/><stop stop-color="#3A8FE8" offset="97%"/><stop stop-color="#3C8CE7" offset="99%"/></linearGradient><linearGradient x1="0%" y1="50.0074683%" x2="100%" y2="50.0074683%" id="E"><stop stop-color="#00EAFF" offset="0%"/><stop stop-color="#07DFFC" offset="19%"/><stop stop-color="#1BC0F4" offset="53%"/><stop stop-color="#3A8FE8" offset="97%"/><stop stop-color="#3C8CE7" offset="99%"/></linearGradient><linearGradient x1="-0.0687626089%" y1="50.0608735%" x2="100.014501%" y2="50.0608735%" id="F"><stop stop-color="#B3FFAB" offset="1%"/><stop stop-color="#B1FFAC" offset="2%"/><stop stop-color="#62FFD1" offset="42%"/><stop stop-color="#43FFE0" offset="61%"/><stop stop-color="#3CFFE3" offset="65%"/><stop stop-color="#1DFFF2" offset="88%"/><stop stop-color="#12FFF7" offset="100%"/></linearGradient><linearGradient x1="10.9774008%" y1="13.5734776%" x2="83.9330807%" y2="81.0530416%" id="G"><stop stop-color="#00EAFF" offset="0%"/><stop stop-color="#07DFFC" offset="19%"/><stop stop-color="#1BC0F4" offset="53%"/><stop stop-color="#3A8FE8" offset="97%"/><stop stop-color="#3C8CE7" offset="99%"/></linearGradient><linearGradient x1="11.4085123%" y1="13.5574452%" x2="84.1433709%" y2="82.0035526%" id="H"><stop stop-color="#B3FFAB" offset="1%"/><stop stop-color="#B1FFAC" offset="1%"/><stop stop-color="#6EFFCC" offset="36%"/><stop stop-color="#3CFFE3" offset="65%"/><stop stop-color="#1DFFF2" offset="88%"/><stop stop-color="#12FFF7" offset="100%"/></linearGradient><linearGradient x1="11.4055788%" y1="13.5574452%" x2="84.1380687%" y2="82.0035526%" id="I"><stop stop-color="#00EAFF" offset="0%"/><stop stop-color="#07DFFC" offset="19%"/><stop stop-color="#1BC0F4" offset="53%"/><stop stop-color="#3A8FE8" offset="97%"/><stop stop-color="#3C8CE7" offset="99%"/></linearGradient><linearGradient x1="74.2525085%" y1="67.346584%" x2="157.289694%" y2="145.361437%" id="J"><stop stop-color="#00EAFF" offset="0%"/><stop stop-color="#07DFFC" offset="19%"/><stop stop-color="#1BC0F4" offset="53%"/><stop stop-color="#3A8FE8" offset="97%"/><stop stop-color="#3C8CE7" offset="99%"/></linearGradient><linearGradient x1="120.150679%" y1="26.0302608%" x2="256.931498%" y2="-22.0521427%" id="K"><stop stop-color="#B3FFAB" offset="1%"/><stop stop-color="#B1FFAC" offset="2%"/><stop stop-color="#62FFD1" offset="42%"/><stop stop-color="#43FFE0" offset="61%"/><stop stop-color="#3CFFE3" offset="65%"/><stop stop-color="#1DFFF2" offset="88%"/><stop stop-color="#12FFF7" offset="100%"/></linearGradient><linearGradient x1="-0.0684880625%" y1="50.0724606%" x2="99.6151762%" y2="50.0724606%" id="L"><stop stop-color="#B3FFAB" offset="1%"/><stop stop-color="#B1FFAC" offset="2%"/><stop stop-color="#62FFD1" offset="42%"/><stop stop-color="#43FFE0" offset="61%"/><stop stop-color="#3CFFE3" offset="65%"/><stop stop-color="#1DFFF2" offset="88%"/><stop stop-color="#12FFF7" offset="100%"/></linearGradient><linearGradient x1="85.5276182%" y1="-19.6822595%" x2="-43.3587489%" y2="225.242718%" id="M"><stop stop-color="#fff" offset="1%"/><stop stop-color="#F5FEFF" stop-opacity=".96" offset="9%"/><stop stop-color="#D8FCFF" stop-opacity=".85" offset="24%"/><stop stop-color="#ABF8FF" stop-opacity=".67" offset="43%"/><stop stop-color="#6CF3FF" stop-opacity=".42" offset="66%"/><stop stop-color="#1CECFF" stop-opacity=".1" offset="92%"/><stop stop-color="#00EAFF" stop-opacity="0" offset="100%"/></linearGradient></defs><g fill="none"><g fill-rule="nonzero"><path d="M147.29 127.073l-62.065 35.81c-5.49 3.17-14.348 3.26-21.438-.878L5.35 128.233c-6.642-3.092-7.03-9.196-1.538-12.367l62.083-35.79c5.49-3.17 15.086-2.775 21.43.878l58.463 33.736c6.308 3.67 6.994 9.213 1.502 12.384z" fill="#2F2F7A"/><path d="M99.125 4.18L93.6 50.547l-1.748-1L97.56 4.55z" fill="url(#A)"/><path d="M92.544 1.493L87.08 46.787l4.77 2.758L97.56 4.55z" fill="url(#B)"/><path d="M97.526 4.55l-4.762-2.793c-.316-.184-.28-.51.097-.73.384-.213.847-.232 1.248-.053l4.797 2.775c.325.184.28.51-.088.72-.393.233-.874.263-1.292.08z" fill="url(#C)"/><path d="M125.3 16.23l-6.8 57.125-1.748-1 6.985-55.746z" fill="url(#D)"/><path d="M118.71 13.543l-6.74 56.054 4.77 2.75 6.985-55.746z" fill="url(#E)"/><path d="M123.726 16.6l-4.797-2.767c-.316-.184-.28-.51.088-.73.388-.213.852-.232 1.256-.053l4.797 2.758c.325.184.28.51-.088.72a1.39 1.39 0 0 1-1.256.07z" fill="url(#F)"/><path d="M46.118 126.476l-36.023-20.772c-7.46-3.926-9.12-9.97-8.39-12.5L66.44 55.06c5.49-3.17 15.095-2.775 21.438.878l61.907 37.46c.668 2.046.15 7.395-6.66 11.304l-57.303 33.19c-5.49 3.17-14.348 3.26-21.43-.878l-18.275-10.54" fill="url(#G)"/><path d="M46.118 119.73L5.93 96.543c-6.642-3.1-7.03-9.205-1.538-12.375L66.44 48.36c5.49-3.17 15.095-2.775 21.438.878l58.454 33.745c6.344 3.654 7.03 9.196 1.538 12.367l-62.048 35.817c-5.49 3.17-14.348 3.26-21.43-.878l-18.275-10.54" fill="url(#H)"/><path d="M148.204 92.846l-62.048 35.81c-5.5 3.17-14.348 3.26-21.438-.878L6.265 94.032c-6.642-3.1-7.038-9.205-1.546-12.35l62.056-35.835c5.49-3.17 15.086-2.775 21.43.878l58.463 33.745c6.344 3.663 7.03 9.205 1.538 12.375z" fill="url(#I)"/><path d="M141.175 92.477l-19.927 11.796-74.603-43.1 20.13-11.63c5.017-2.898 13.785-2.53 19.575.808l53.393 30.82c5.825 3.346 6.45 8.405 1.432 11.295z" fill="url(#J)"/></g><g stroke-width=".629" stroke="#12D6FA"><path d="M83.187 51.618l55.836 32.225a2.37 2.37 0 0 1 0 4.11L118.955 99.53 53.77 61.912l17.836-10.294a11.6 11.6 0 0 1 11.58 0z"/><path d="M57.707 59.637l65.184 37.627M61.643 57.37l65.184 37.618m-61.24-39.892l65.175 37.618M69.525 52.82L134.7 90.44M73.46 50.547l65.184 37.627"/><path d="M131.713 79.627l-23.626 13.63m12.766-19.9l-23.626 13.64m12.767-19.912l-23.626 13.64m12.757-19.9L75.5 74.454m12.765-19.902L64.64 68.183"/></g><g fill-rule="nonzero"><path d="M105.108 72.197l-60.545 34.957c-1.033.48-2.235.432-3.225-.132-.958-.553-1.054-1.38-.228-1.862l60.536-34.94c1.035-.47 2.23-.42 3.225.132.958.536 1.063 1.37.237 1.844z" fill="url(#K)"/><path d="M147.326 31.294L141.79 77.66l-1.74-1 5.71-44.996z" fill="url(#A)"/><path d="M140.745 28.606L135.28 73.9l4.77 2.758 5.71-44.996z" fill="url(#B)"/><path d="M145.762 31.663l-4.797-2.767c-.316-.184-.28-.51.088-.73.393-.225.87-.247 1.283-.06l4.797 2.775c.325.184.28.51-.088.72a1.39 1.39 0 0 1-1.283.061z" fill="url(#L)"/><path d="M126.213 73.356L7.25 84.546s-1.098 4.92 5.49 8.713l127.03-12.077-13.557-7.826z" fill="url(#M)" opacity=".4"/></g></g></svg>