<svg xmlns="http://www.w3.org/2000/svg" width="161" height="166" viewBox="0 0 150 166"><defs><linearGradient x1="55.5960048%" y1="41.3352396%" x2="-46.6543074%" y2="71.9466119%" id="A"><stop stop-color="#3C8CE7" offset="1%"/><stop stop-color="#3A8FE8" offset="3%"/><stop stop-color="#1BC0F4" offset="47%"/><stop stop-color="#07DFFC" offset="81%"/><stop stop-color="#00EAFF" offset="100%"/></linearGradient><linearGradient x1="5766.60002%" y1="-1672.95066%" x2="5879.35299%" y2="-1744.25444%" id="B"><stop stop-color="#3C8CE7" offset="1%"/><stop stop-color="#3A8FE8" offset="3%"/><stop stop-color="#1BC0F4" offset="47%"/><stop stop-color="#07DFFC" offset="81%"/><stop stop-color="#00EAFF" offset="100%"/></linearGradient><linearGradient x1="89.6670377%" y1="54.9455791%" x2="7.16114838%" y2="46.4567307%" id="C"><stop stop-color="#3C8CE7" offset="1%"/><stop stop-color="#3A8FE8" offset="3%"/><stop stop-color="#1BC0F4" offset="47%"/><stop stop-color="#07DFFC" offset="81%"/><stop stop-color="#00EAFF" offset="100%"/></linearGradient><linearGradient x1="67.4999395%" y1="74.4880132%" x2="66.281801%" y2="-14.2191018%" id="D"><stop stop-color="#3C8CE7" offset="1%"/><stop stop-color="#3A8FE8" offset="3%"/><stop stop-color="#1BC0F4" offset="47%"/><stop stop-color="#07DFFC" offset="81%"/><stop stop-color="#00EAFF" offset="100%"/></linearGradient><linearGradient x1="149.488216%" y1="45.8860356%" x2="-220.532121%" y2="60.8260867%" id="E"><stop stop-color="#3C8CE7" offset="1%"/><stop stop-color="#3A8FE8" offset="3%"/><stop stop-color="#1BC0F4" offset="47%"/><stop stop-color="#07DFFC" offset="81%"/><stop stop-color="#00EAFF" offset="100%"/></linearGradient><linearGradient x1="119.337837%" y1="66.9347755%" x2="-131.65818%" y2="-0.776833692%" id="F"><stop stop-color="#3C8CE7" offset="1%"/><stop stop-color="#3A8FE8" offset="3%"/><stop stop-color="#1BC0F4" offset="47%"/><stop stop-color="#07DFFC" offset="81%"/><stop stop-color="#00EAFF" offset="100%"/></linearGradient><linearGradient x1="-17.3527549%" y1="88.2787408%" x2="135.845472%" y2="5.58218467%" id="G"><stop stop-color="#3C8CE7" offset="1%"/><stop stop-color="#3A8FE8" offset="3%"/><stop stop-color="#1BC0F4" offset="47%"/><stop stop-color="#07DFFC" offset="81%"/><stop stop-color="#00EAFF" offset="100%"/></linearGradient><linearGradient x1="96.2238416%" y1="83.1810544%" x2="-36.1538879%" y2="-14.5076254%" id="H"><stop stop-color="#3C8CE7" offset="1%"/><stop stop-color="#3A8FE8" offset="3%"/><stop stop-color="#1BC0F4" offset="47%"/><stop stop-color="#07DFFC" offset="81%"/><stop stop-color="#00EAFF" offset="100%"/></linearGradient><linearGradient x1="43.4583177%" y1="36.8397918%" x2="-26.5896239%" y2="-91.3098859%" id="I"><stop stop-color="#B3FFAB" offset="1%"/><stop stop-color="#B1FFAC" offset="1%"/><stop stop-color="#6EFFCC" offset="36%"/><stop stop-color="#3CFFE3" offset="65%"/><stop stop-color="#1DFFF2" offset="88%"/><stop stop-color="#12FFF7" offset="100%"/></linearGradient><linearGradient x1="80.3571429%" y1="71.5583508%" x2="200.56391%" y2="141.998602%" id="J"><stop stop-color="#3C8CE7" offset="1%"/><stop stop-color="#3A8FE8" offset="3%"/><stop stop-color="#1BC0F4" offset="47%"/><stop stop-color="#07DFFC" offset="81%"/><stop stop-color="#00EAFF" offset="100%"/></linearGradient><linearGradient x1="-918.472819%" y1="-406.169389%" x2="-1458.83325%" y2="-714.604792%" id="K"><stop stop-color="#B3FFAB" offset="1%"/><stop stop-color="#B1FFAC" offset="1%"/><stop stop-color="#6EFFCC" offset="36%"/><stop stop-color="#3CFFE3" offset="65%"/><stop stop-color="#1DFFF2" offset="88%"/><stop stop-color="#12FFF7" offset="100%"/></linearGradient><linearGradient x1="-747.792767%" y1="-307.561527%" x2="-1288.09868%" y2="-616.079787%" id="L"><stop stop-color="#B3FFAB" offset="1%"/><stop stop-color="#B1FFAC" offset="1%"/><stop stop-color="#6EFFCC" offset="36%"/><stop stop-color="#3CFFE3" offset="65%"/><stop stop-color="#1DFFF2" offset="88%"/><stop stop-color="#12FFF7" offset="100%"/></linearGradient><linearGradient x1="-582.211393%" y1="-211.551902%" x2="-1122.50101%" y2="-520.038181%" id="M"><stop stop-color="#B3FFAB" offset="1%"/><stop stop-color="#B1FFAC" offset="1%"/><stop stop-color="#6EFFCC" offset="36%"/><stop stop-color="#3CFFE3" offset="65%"/><stop stop-color="#1DFFF2" offset="88%"/><stop stop-color="#12FFF7" offset="100%"/></linearGradient><linearGradient x1="-582.709709%" y1="-210.715684%" x2="-1123.01563%" y2="-519.151088%" id="N"><stop stop-color="#B3FFAB" offset="1%"/><stop stop-color="#B1FFAC" offset="1%"/><stop stop-color="#6EFFCC" offset="36%"/><stop stop-color="#3CFFE3" offset="65%"/><stop stop-color="#1DFFF2" offset="88%"/><stop stop-color="#12FFF7" offset="100%"/></linearGradient><linearGradient x1="-583.45049%" y1="-209.800945%" x2="-1123.89282%" y2="-518.229145%" id="O"><stop stop-color="#B3FFAB" offset="1%"/><stop stop-color="#B1FFAC" offset="1%"/><stop stop-color="#6EFFCC" offset="36%"/><stop stop-color="#3CFFE3" offset="65%"/><stop stop-color="#1DFFF2" offset="88%"/><stop stop-color="#12FFF7" offset="100%"/></linearGradient><linearGradient x1="-583.944254%" y1="-209.04487%" x2="-1124.25017%" y2="-517.480273%" id="P"><stop stop-color="#B3FFAB" offset="1%"/><stop stop-color="#B1FFAC" offset="1%"/><stop stop-color="#6EFFCC" offset="36%"/><stop stop-color="#3CFFE3" offset="65%"/><stop stop-color="#1DFFF2" offset="88%"/><stop stop-color="#12FFF7" offset="100%"/></linearGradient><linearGradient x1="-584.52434%" y1="-207.992583%" x2="-1124.83026%" y2="-516.167132%" id="Q"><stop stop-color="#B3FFAB" offset="1%"/><stop stop-color="#B1FFAC" offset="1%"/><stop stop-color="#6EFFCC" offset="36%"/><stop stop-color="#3CFFE3" offset="65%"/><stop stop-color="#1DFFF2" offset="88%"/><stop stop-color="#12FFF7" offset="100%"/></linearGradient></defs><path d="M53.346 2.162c-.04-.332.062-.666.278-.92a1.2 1.2 0 0 1 .862-.423c1.286-.154 2.558.062 2.827.525s18.11 47.57 17.648 48.843a33.11 33.11 0 0 1-2.003 3.86l1.225 5.976-3.166-1.12-17.67-56.74z" fill="url(#A)"/><path d="M73.12 59.25l-1.48-5.937s1.78-2.525 1.625-3.953S58.63 7.505 56.78 2.37c-.122-.34-.416-.6-.77-.656l-1.818-.41a.71.71 0 0 0-.661.192.71.71 0 0 0-.186.665l11.71 48.264a1.59 1.59 0 0 0 .27.579l2.095 2.91 1.74 4.633 3.96.703z" fill="url(#B)"/><path d="M157.2 40.28c.226-.246.545-.386.878-.386s.652.14.878.386c.97.865 1.65 1.96 1.48 2.463S136.858 87.8 135.58 88.312a32.63 32.63 0 0 1-4.198 1.042c-.77.92-3.25 4.432-3.25 4.432l-1.664-2.68L157.2 40.28z" fill="url(#C)"/><path d="M127.598 92.92l3.474-5.026s3.08-.324 4.03-1.4 21.616-38.705 24.242-43.492c.17-.3.17-.686 0-.996l-.932-1.675a.71.71 0 0 0-1.202-.062l-28.348 40.743a1.64 1.64 0 0 0-.262.579l-.77 3.505-2.31 4.4 2.08 3.413z" fill="url(#D)"/><path d="M102.455 15.79a1.19 1.19 0 0 1 .58-.772c.294-.163.643-.194.96-.085 1.263.3 2.38.95 2.465 1.475s.462 50.912-.416 51.954c-1.005 1.04-2.078 2.014-3.212 2.91-.23 1.166-.77 5.405-.77 5.405l-2.735-1.544 3.128-59.343z" fill="url(#E)"/><path d="M101.168 76.206l.693-6.07s2.55-1.745 2.896-3.142.77-44.34.863-49.808c.008-.353-.17-.685-.47-.872l-1.6-1.035c-.205-.132-.463-.15-.683-.046a.71.71 0 0 0-.403.555L96.67 65.126c-.023.212-.007.427.046.633l.955 3.46v4.988l3.497 2z" fill="url(#F)"/><path d="M7 117.127l82.65 47.33c2.812 1.63 4.992 1.02 7.803-.6l42.684-24.707a2.54 2.54 0 0 0 0-4.393L58.784 88.02a9.08 9.08 0 0 0-9.098 0L7 112.726a2.54 2.54 0 0 0 0 4.401z" fill="#2F2F7A"/><path d="M141.996 100.164l-1.263 2.193-43.54 25.14-3.852-.973 2.373 19.688c1.01.703 3.397-1.305 3.397-1.305l40.227-25.58c1.62-.938 2.62-2.672 2.62-4.548l.04-14.616z" fill="url(#G)"/><path d="M7 86.806l83.512 47.538c2.812 1.63 4.992 1.01 7.803-.618l42.407-31.23a2.54 2.54 0 0 0 0-4.393L59.377 51.33a9.08 9.08 0 0 0-9.098 0L4.49 83.04c-1.687.973.832 2.795 2.52 3.768z" fill="url(#H)"/><path d="M2.858 91.833l92.895 54.38a1.26 1.26 0 0 0 1.26.002c.4-.224.632-.64.635-1.09l-1.156-6.06c-.234-1.888-1.278-3.58-2.858-4.633L6.04 83.293c-.927-.492-2.074-.23-2.696.618l-3.08 3.397c-.97 1.675.986 3.6 2.596 4.524z" fill="url(#I)"/><path d="M104.31 131.974l-5.986 4.424 1.148 6.625 7.05-5.142z" fill="url(#J)"/><path d="M78.19 121.396l4.29 2.378a2.37 2.37 0 0 0 2.126-.131l.208-.124c.624-.378.686-.934.13-1.235l-4.29-2.378a2.36 2.36 0 0 0-2.134.131l-.2.124c-.632.378-.686.927-.13 1.235z" fill="url(#K)"/><path d="M68.236 115.937l4.29 2.37a2.37 2.37 0 0 0 2.126-.124l.208-.13c.624-.37.686-.927.13-1.235l-4.29-2.37a2.36 2.36 0 0 0-2.134.124l-.208.124c-.624.347-.678.934-.123 1.243z" fill="url(#L)"/><path d="M58.8 110.57l4.29 2.378c.692.296 1.483.247 2.134-.13l.208-.124c.624-.378.678-.934.13-1.243l-4.29-2.37a2.36 2.36 0 0 0-2.134.131l-.208.124c-.624.378-.678.927-.13 1.235z" fill="url(#M)"/><path d="M49.67 105.252l4.29 2.378a2.36 2.36 0 0 0 2.134-.131l.208-.124c.624-.378.678-.927.123-1.235l-4.29-2.378a2.37 2.37 0 0 0-2.126.131l-.208.124c-.624.378-.686.934-.13 1.235z" fill="url(#N)"/><path d="M40.728 100.125l4.29 2.37a2.36 2.36 0 0 0 2.134-.131l.208-.124c.624-.378.678-.927.13-1.235l-4.29-2.378c-.692-.296-1.483-.247-2.134.13l-.208.124c-.624.378-.678.934-.13 1.243z" fill="url(#O)"/><path d="M32.308 95.052l4.29 2.378a2.37 2.37 0 0 0 2.126-.131l.208-.124c.624-.378.686-.934.13-1.243l-4.29-2.37a2.36 2.36 0 0 0-2.134.131l-.208.124c-.624.378-.678.927-.123 1.235z" fill="url(#P)"/><path d="M24.042 90.675l4.29 2.37c.69.298 1.482.252 2.134-.124l.208-.13c.624-.37.678-.927.123-1.235l-4.29-2.37c-.687-.308-1.48-.262-2.126.124l-.208.124c-.624.378-.686.903-.13 1.243z" fill="url(#Q)"/></svg>