<svg xmlns="http://www.w3.org/2000/svg" width="142" height="102"><defs><linearGradient x1="99.9775828%" y1="50.0263492%" x2="0.0421052632%" y2="50.0263492%" id="A"><stop stop-color="#B3FFAB" offset=".537634%"/><stop stop-color="#B1FFAC" offset="1.284804%"/><stop stop-color="#6EFFCC" offset="36.23%"/><stop stop-color="#3CFFE3" offset="65.49%"/><stop stop-color="#1DFFF2" offset="87.6%"/><stop stop-color="#12FFF7" offset="100%"/></linearGradient><linearGradient x1="99.6168539%" y1="49.4268953%" x2="-0.191011236%" y2="49.4268953%" id="B"><stop stop-color="#3C8CE7" offset=".537634%"/><stop stop-color="#3A8FE8" offset="2.956713%"/><stop stop-color="#1BC0F4" offset="47.32%"/><stop stop-color="#07DFFC" offset="81.06%"/><stop stop-color="#00EAFF" offset="100%"/></linearGradient><linearGradient x1="0.259558824%" y1="49.8518987%" x2="100.063971%" y2="49.8518987%" id="C"><stop stop-color="#130CB7" offset=".537634%"/><stop stop-color="#285ECD" offset="28.23%"/><stop stop-color="#3AA3DF" offset="53.8%"/><stop stop-color="#47D5ED" offset="75%"/><stop stop-color="#4FF4F5" offset="91.02%"/><stop stop-color="#52FFF8" offset="100%"/></linearGradient><linearGradient x1="-32.866129%" y1="56.9825628%" x2="70.4317204%" y2="48.4753901%" id="D"><stop stop-color="#3C8CE7" offset=".537634%"/><stop stop-color="#3A8FE8" offset="2.956713%"/><stop stop-color="#1BC0F4" offset="47.32%"/><stop stop-color="#07DFFC" offset="81.06%"/><stop stop-color="#00EAFF" offset="100%"/></linearGradient><linearGradient x1="45.11125%" y1="-9.45433547%" x2="55.14875%" y2="119.439994%" id="E"><stop stop-color="#130CB7" offset=".537634%"/><stop stop-color="#285ECD" offset="28.23%"/><stop stop-color="#3AA3DF" offset="53.8%"/><stop stop-color="#47D5ED" offset="75%"/><stop stop-color="#4FF4F5" offset="91.02%"/><stop stop-color="#52FFF8" offset="100%"/></linearGradient><linearGradient x1="36.9470518%" y1="53.5374194%" x2="187.485562%" y2="20.1645161%" id="F"><stop stop-color="#130CB7" offset=".537634%"/><stop stop-color="#285ECD" offset="28.23%"/><stop stop-color="#3AA3DF" offset="53.8%"/><stop stop-color="#47D5ED" offset="75%"/><stop stop-color="#4FF4F5" offset="91.02%"/><stop stop-color="#52FFF8" offset="100%"/></linearGradient><linearGradient x1="37.1509962%" y1="33.2041476%" x2="60.7663753%" y2="80.4114596%" id="G"><stop stop-color="#3C8CE7" offset=".537634%"/><stop stop-color="#3A8FE8" offset="2.956713%"/><stop stop-color="#1BC0F4" offset="47.32%"/><stop stop-color="#07DFFC" offset="81.06%"/><stop stop-color="#00EAFF" offset="100%"/></linearGradient><linearGradient x1="0.0318996416%" y1="50.1104034%" x2="99.9919952%" y2="50.1104034%" id="H"><stop stop-color="#3C8CE7" offset=".537634%"/><stop stop-color="#3A8FE8" offset="2.956713%"/><stop stop-color="#1BC0F4" offset="47.32%"/><stop stop-color="#07DFFC" offset="81.06%"/><stop stop-color="#00EAFF" offset="100%"/></linearGradient><linearGradient x1="100.083626%" y1="49.7314286%" x2="0.14834308%" y2="49.7314286%" id="I"><stop stop-color="#B3FFAB" offset=".537634%"/><stop stop-color="#B1FFAC" offset="1.284804%"/><stop stop-color="#6EFFCC" offset="36.23%"/><stop stop-color="#3CFFE3" offset="65.49%"/><stop stop-color="#1DFFF2" offset="87.6%"/><stop stop-color="#12FFF7" offset="100%"/></linearGradient><linearGradient x1="100.229213%" y1="49.5069946%" x2="0.420224719%" y2="49.5069946%" id="J"><stop stop-color="#3C8CE7" offset=".537634%"/><stop stop-color="#3A8FE8" offset="2.956713%"/><stop stop-color="#1BC0F4" offset="47.32%"/><stop stop-color="#07DFFC" offset="81.06%"/><stop stop-color="#00EAFF" offset="100%"/></linearGradient><linearGradient x1="-0.0757352941%" y1="49.9417722%" x2="99.7286765%" y2="49.9417722%" id="K"><stop stop-color="#130CB7" offset=".537634%"/><stop stop-color="#285ECD" offset="28.23%"/><stop stop-color="#3AA3DF" offset="53.8%"/><stop stop-color="#47D5ED" offset="75%"/><stop stop-color="#4FF4F5" offset="91.02%"/><stop stop-color="#52FFF8" offset="100%"/></linearGradient><linearGradient x1="-75.7602151%" y1="44.6990292%" x2="39.9532258%" y2="49.7258046%" id="L"><stop stop-color="#3C8CE7" offset=".537634%"/><stop stop-color="#3A8FE8" offset="2.956713%"/><stop stop-color="#1BC0F4" offset="47.32%"/><stop stop-color="#07DFFC" offset="81.06%"/><stop stop-color="#00EAFF" offset="100%"/></linearGradient><linearGradient x1="29.604375%" y1="-20.3902253%" x2="64.82125%" y2="104.874629%" id="M"><stop stop-color="#130CB7" offset=".537634%"/><stop stop-color="#285ECD" offset="28.23%"/><stop stop-color="#3AA3DF" offset="53.8%"/><stop stop-color="#47D5ED" offset="75%"/><stop stop-color="#4FF4F5" offset="91.02%"/><stop stop-color="#52FFF8" offset="100%"/></linearGradient><linearGradient x1="10.9675672%" y1="65.5202833%" x2="240.283977%" y2="-20.2926371%" id="N"><stop stop-color="#130CB7" offset=".537634%"/><stop stop-color="#285ECD" offset="28.23%"/><stop stop-color="#3AA3DF" offset="53.8%"/><stop stop-color="#47D5ED" offset="75%"/><stop stop-color="#4FF4F5" offset="91.02%"/><stop stop-color="#52FFF8" offset="100%"/></linearGradient><linearGradient x1="6.29491736%" y1="-8.41076747%" x2="80.2689669%" y2="131.258419%" id="O"><stop stop-color="#130CB7" offset=".537634%"/><stop stop-color="#285ECD" offset="28.23%"/><stop stop-color="#3AA3DF" offset="53.8%"/><stop stop-color="#47D5ED" offset="75%"/><stop stop-color="#4FF4F5" offset="91.02%"/><stop stop-color="#52FFF8" offset="100%"/></linearGradient><linearGradient x1="-17.9704663%" y1="56.0398942%" x2="181.323731%" y2="19.0910053%" id="P"><stop stop-color="#130CB7" offset=".537634%"/><stop stop-color="#285ECD" offset="28.23%"/><stop stop-color="#3AA3DF" offset="53.8%"/><stop stop-color="#47D5ED" offset="75%"/><stop stop-color="#4FF4F5" offset="91.02%"/><stop stop-color="#52FFF8" offset="100%"/></linearGradient><linearGradient x1="6.72459735%" y1="-5.08882979%" x2="88.0633643%" y2="140.839362%" id="Q"><stop stop-color="#130CB7" offset=".537634%"/><stop stop-color="#285ECD" offset="28.23%"/><stop stop-color="#3AA3DF" offset="53.8%"/><stop stop-color="#47D5ED" offset="75%"/><stop stop-color="#4FF4F5" offset="91.02%"/><stop stop-color="#52FFF8" offset="100%"/></linearGradient><linearGradient x1="-32.236%" y1="-15.6169643%" x2="182.067333%" y2="155.93125%" id="R"><stop stop-color="#130CB7" offset=".537634%"/><stop stop-color="#285ECD" offset="28.23%"/><stop stop-color="#3AA3DF" offset="53.8%"/><stop stop-color="#47D5ED" offset="75%"/><stop stop-color="#4FF4F5" offset="91.02%"/><stop stop-color="#52FFF8" offset="100%"/></linearGradient><linearGradient x1="-0.180089444%" y1="49.9839328%" x2="99.9496891%" y2="49.9839328%" id="S"><stop stop-color="#130CB7" offset=".537634%"/><stop stop-color="#285ECD" offset="28.23%"/><stop stop-color="#3AA3DF" offset="53.8%"/><stop stop-color="#47D5ED" offset="75%"/><stop stop-color="#4FF4F5" offset="91.02%"/><stop stop-color="#52FFF8" offset="100%"/></linearGradient><linearGradient x1="-0.0093909234%" y1="49.9778868%" x2="100.01351%" y2="49.9778868%" id="T"><stop stop-color="#B3FFAB" offset=".537634%"/><stop stop-color="#B1FFAC" offset="1.284804%"/><stop stop-color="#6EFFCC" offset="36.23%"/><stop stop-color="#3CFFE3" offset="65.49%"/><stop stop-color="#1DFFF2" offset="87.6%"/><stop stop-color="#12FFF7" offset="100%"/></linearGradient><linearGradient x1="18.5339394%" y1="101.8806%" x2="136.054182%" y2="-25.4809747%" id="U"><stop stop-color="#130CB7" offset=".537634%"/><stop stop-color="#285ECD" offset="28.23%"/><stop stop-color="#3AA3DF" offset="53.8%"/><stop stop-color="#47D5ED" offset="75%"/><stop stop-color="#4FF4F5" offset="91.02%"/><stop stop-color="#52FFF8" offset="100%"/></linearGradient><linearGradient x1="36.0288265%" y1="32.012973%" x2="56.9283163%" y2="58.8294595%" id="V"><stop stop-color="#3C8CE7" offset=".537634%"/><stop stop-color="#3A8FE8" offset="2.956713%"/><stop stop-color="#1BC0F4" offset="47.32%"/><stop stop-color="#07DFFC" offset="81.06%"/><stop stop-color="#00EAFF" offset="100%"/></linearGradient><linearGradient x1="28.5578544%" y1="-70.6017442%" x2="71.553129%" y2="166.447674%" id="W"><stop stop-color="#B3FFAB" offset=".537634%"/><stop stop-color="#B1FFAC" offset="1.284804%"/><stop stop-color="#6EFFCC" offset="36.23%"/><stop stop-color="#3CFFE3" offset="65.49%"/><stop stop-color="#1DFFF2" offset="87.6%"/><stop stop-color="#12FFF7" offset="100%"/></linearGradient><linearGradient x1="5.65963303%" y1="13.9485955%" x2="88.666055%" y2="75.5087079%" id="X"><stop stop-color="#B3FFAB" offset=".537634%"/><stop stop-color="#B1FFAC" offset="1.284804%"/><stop stop-color="#6EFFCC" offset="36.23%"/><stop stop-color="#3CFFE3" offset="65.49%"/><stop stop-color="#1DFFF2" offset="87.6%"/><stop stop-color="#12FFF7" offset="100%"/></linearGradient><linearGradient x1="9.20874317%" y1="-25.1388679%" x2="101.556284%" y2="115.609694%" id="Y"><stop stop-color="#3C8CE7" offset=".537634%"/><stop stop-color="#3A8FE8" offset="2.956713%"/><stop stop-color="#1BC0F4" offset="47.32%"/><stop stop-color="#07DFFC" offset="81.06%"/><stop stop-color="#00EAFF" offset="100%"/></linearGradient><linearGradient x1="6.18659218%" y1="-22.2977373%" x2="103.855866%" y2="116.820078%" id="Z"><stop stop-color="#3C8CE7" offset=".537634%"/><stop stop-color="#3A8FE8" offset="2.956713%"/><stop stop-color="#1BC0F4" offset="47.32%"/><stop stop-color="#07DFFC" offset="81.06%"/><stop stop-color="#00EAFF" offset="100%"/></linearGradient><linearGradient x1="-77.115566%" y1="54.4652174%" x2="412.631132%" y2="35.1869565%" id="a"><stop stop-color="#3C8CE7" offset=".537634%"/><stop stop-color="#3A8FE8" offset="2.956713%"/><stop stop-color="#1BC0F4" offset="47.32%"/><stop stop-color="#07DFFC" offset="81.06%"/><stop stop-color="#00EAFF" offset="100%"/></linearGradient><linearGradient x1="-76.6251799%" y1="53.9341772%" x2="411.059712%" y2="35.6126582%" id="b"><stop stop-color="#3C8CE7" offset=".537634%"/><stop stop-color="#3A8FE8" offset="2.956713%"/><stop stop-color="#1BC0F4" offset="47.32%"/><stop stop-color="#07DFFC" offset="81.06%"/><stop stop-color="#00EAFF" offset="100%"/></linearGradient><linearGradient x1="-77.6775362%" y1="54.8063291%" x2="413.541304%" y2="36.4848101%" id="c"><stop stop-color="#3C8CE7" offset=".537634%"/><stop stop-color="#3A8FE8" offset="2.956713%"/><stop stop-color="#1BC0F4" offset="47.32%"/><stop stop-color="#07DFFC" offset="81.06%"/><stop stop-color="#00EAFF" offset="100%"/></linearGradient><linearGradient x1="-77.1938679%" y1="54.4426087%" x2="412.55283%" y2="35.1643478%" id="d"><stop stop-color="#3C8CE7" offset=".537634%"/><stop stop-color="#3A8FE8" offset="2.956713%"/><stop stop-color="#1BC0F4" offset="47.32%"/><stop stop-color="#07DFFC" offset="81.06%"/><stop stop-color="#00EAFF" offset="100%"/></linearGradient><linearGradient x1="-0.630496454%" y1="50.2530612%" x2="99.4156028%" y2="50.2530612%" id="e"><stop stop-color="#B3FFAB" offset=".537634%"/><stop stop-color="#B1FFAC" offset="1.284804%"/><stop stop-color="#6EFFCC" offset="36.23%"/><stop stop-color="#3CFFE3" offset="65.49%"/><stop stop-color="#1DFFF2" offset="87.6%"/><stop stop-color="#12FFF7" offset="100%"/></linearGradient><linearGradient x1="-0.677304965%" y1="50.3993197%" x2="99.3617021%" y2="50.3993197%" id="f"><stop stop-color="#B3FFAB" offset=".537634%"/><stop stop-color="#B1FFAC" offset="1.284804%"/><stop stop-color="#6EFFCC" offset="36.23%"/><stop stop-color="#3CFFE3" offset="65.49%"/><stop stop-color="#1DFFF2" offset="87.6%"/><stop stop-color="#12FFF7" offset="100%"/></linearGradient><linearGradient x1="-0.393617021%" y1="50.1469388%" x2="99.6453901%" y2="50.1469388%" id="g"><stop stop-color="#B3FFAB" offset=".537634%"/><stop stop-color="#B1FFAC" offset="1.284804%"/><stop stop-color="#6EFFCC" offset="36.23%"/><stop stop-color="#3CFFE3" offset="65.49%"/><stop stop-color="#1DFFF2" offset="87.6%"/><stop stop-color="#12FFF7" offset="100%"/></linearGradient></defs><path d="M61.68 36.988S59 42.506 46.76 49.34l-5.6-8.976 6.92-3.994 13.6.618z" fill="url(#A)"/><path d="M49.64 36.453l-2.08 3.253s-1.04.988-1.48-.33l2.04-2.965 1.52.04z" fill="url(#B)"/><path d="M52.96 36.618l-5.44 3.088 2.12-3.253z" fill="url(#C)"/><path d="M47.52 47.16c0 2.43-1.68 3.418-3.72 2.182s-3.72-4.16-3.72-6.588 1.68-3.418 3.72-2.182 3.72 4.2 3.72 6.588z" fill="url(#D)"/><path d="M46.96 46.788c0 2.1-1.44 2.924-3.2 1.894-1.76-1.07-3.2-3.624-3.2-5.724s1.44-2.924 3.2-1.894c1.76 1.07 3.2 3.665 3.2 5.724z" fill="url(#E)"/><path d="M43.16 40.818s-1.36 5.518 3.8 6.382c.04 0 .24-4.365-3.8-6.382z" fill="url(#F)"/><path d="M94.024 35.107L34.488 68.722c-8.7 5.86-36.59 27.993-34.362 33.26 0 0 5.926 1.82 72.94-31.002L126 39.818 112 26l-17.976 9.107z" fill="url(#G)"/><path d="M125 39s-20.7 7.605-33 18l9.384-2.8 22.67-12.994L125 39z" fill="url(#H)"/><path d="M110.72 74.72s-2.68 5.685-14.92 12.727L90.2 78.2l6.92-4.115 13.6.636z" fill="url(#I)"/><path d="M98.68 74.127L96.6 77.48s-1.04 1.018-1.48-.34l2.04-3.055 1.52.042z" fill="url(#J)"/><path d="M102.04 74.297L96.6 77.48l2.08-3.352z" fill="url(#K)"/><path d="M96.6 85.158c0 2.503-1.68 3.52-3.72 2.248s-3.72-4.285-3.72-6.788 1.68-3.52 3.72-2.248 3.72 4.327 3.72 6.788z" fill="url(#L)"/><path d="M96.04 84.776c0 2.164-1.44 3.012-3.2 1.952-1.76-1.103-3.2-3.733-3.2-5.897s1.44-3.012 3.2-1.952c1.76 1.145 3.2 3.776 3.2 5.897z" fill="url(#M)"/><path d="M92.24 78.624s-1.36 5.685 3.8 6.576c0 .042.2-4.497-3.8-6.576z" fill="url(#N)"/><path d="M36 88s21.244-10.143 36.756-15.515l51.346 3.207L133 69.88 101.014 53C92.396 53.962 36 88 36 88z" fill="url(#O)"/><path d="M81 41.7L53.437 26l-7.113 3.876 4.082 26.546L42 63z" fill="url(#P)"/><path d="M127.87 37L142 48.2l-6.487 3.8s-25.47-3.95-25.51-4.388.716-1.197 2.866-2.354L127.87 37z" fill="url(#Q)"/><path d="M91.48 38L90 27.458 96.56 24l5.44 1.458-5.96 9.958z" fill="url(#R)"/><path d="M116.696 37.967c0 .373 5.503-2.533 5.503-2.533s3.008-1.9 1.247-5.848c-1.798-3.95-5-3.576-5-3.576L112 29.287c-.037-.037 4.55 1.9 4.696 8.68z" fill="url(#S)"/><path d="M51.95 61.293s-6.874 9.365-18.03 16.216C22.764 84.4 18.208 83.996 19.11 80.712c.943-3.284 7.463-11.432 16.38-15.203 8.877-3.73 17.243-5.19 16.458-4.216z" fill="url(#T)"/><path d="M123 0l-7.04 24.326.84 4.37L90 42s.04-2.322 1.36-3.78 4.68-4.448 4.68-4.448l16.44-27.987L123 0z" fill="url(#U)"/><path d="M107 15l5.673-6.77 9.43-5.068L123 0l-10.735 5.92z" fill="url(#V)"/><path d="M101 74.576h20.785L129.94 69l2.06 1.1-8.79 5.9z" fill="url(#W)"/><path d="M54.266 26L47 29.893 48.57 40l.413-9.163L56 26.944z" fill="url(#X)"/><path d="M37 65.595S41.6 63.45 43.388 71l.612-.578s-1.148-5.777-5.508-5.405L37 65.595z" fill="url(#Y)"/><path d="M31 79.685s-1.29-6.505-6.453-5.598l-.547.59s4.145-1.853 6.413 5.322l.587-.315z" fill="url(#Z)"/><path d="M106.962 58L101 63l8-3.74z" fill="url(#a)"/><path d="M121.705 65L117 68l6-2.468z" fill="url(#b)"/><path d="M62.696 32L58 35l6-2.43z" fill="url(#c)"/><path d="M73.962 39L68 44l8-3.74z" fill="url(#d)"/><g fill="#2B6CD1"><path d="M73.2 74l-.2-.04c0-.08.44-1.507 3.12-3.053C78.76 69.4 103.64 56.12 103.88 56l.12.198c-.24.12-25.12 13.4-27.76 14.907-2.6 1.467-3.04 2.855-3.04 2.894z"/><path d="M76 69.512l.06-.998 48.9 2.974-.06 1zM51.118 57L51 56.804 78.882 41l.118.196z"/></g><path d="M79.936 62l-.043-.122c0-.04-.766-2.694-2.766-4.163L77 57.592 80.064 56l.043.04c.043 0 2.596 1.633 2.894 4.45v.082L79.936 62zm-2.553-4.367c1.745 1.347 2.51 3.47 2.68 4.04l2.638-1.224c-.255-2.45-2.34-3.918-2.723-4.163l-2.596 1.347z" fill="url(#e)"/><path d="M83.936 60l-.043-.122c0-.04-.766-2.694-2.766-4.163L81 55.592 84.064 54l.043.04c.043 0 2.596 1.633 2.894 4.45v.082L83.936 60zm-2.553-4.327c1.745 1.347 2.51 3.47 2.68 4.04l2.638-1.224c-.255-2.45-2.34-3.918-2.723-4.163l-2.596 1.347z" fill="url(#f)"/><path d="M87.936 58l-.043-.122c0-.04-.766-2.694-2.766-4.163L85 53.592 88.064 52l.043.04c.043 0 2.596 1.633 2.894 4.45v.082L87.936 58zm-2.51-4.367c1.745 1.347 2.51 3.47 2.68 4.04l2.638-1.224c-.255-2.45-2.34-3.918-2.723-4.163l-2.596 1.347z" fill="url(#g)"/></svg>