<svg xmlns="http://www.w3.org/2000/svg" xmlns:xlink="http://www.w3.org/1999/xlink" width="144" height="102"><defs><linearGradient x1="100.03659%" y1="50.1459044%" x2="-0.00124753001%" y2="50.2407018%" id="A"><stop stop-color="#B3FFAB" offset=".537634%"/><stop stop-color="#B1FFAC" offset="1.284804%"/><stop stop-color="#6EFFCC" offset="36.23%"/><stop stop-color="#3CFFE3" offset="65.49%"/><stop stop-color="#1DFFF2" offset="87.6%"/><stop stop-color="#12FFF7" offset="100%"/></linearGradient><linearGradient x1="99.3860144%" y1="50.8030239%" x2="-0.823360599%" y2="50.8612388%" id="B"><stop stop-color="#3C8CE7" offset=".537634%"/><stop stop-color="#3A8FE8" offset="2.956713%"/><stop stop-color="#1BC0F4" offset="47.32%"/><stop stop-color="#07DFFC" offset="81.06%"/><stop stop-color="#00EAFF" offset="100%"/></linearGradient><linearGradient x1="-0.161621703%" y1="50.1447654%" x2="99.8353171%" y2="50.0465361%" id="C"><stop stop-color="#130CB7" offset=".537634%"/><stop stop-color="#285ECD" offset="28.23%"/><stop stop-color="#3AA3DF" offset="53.8%"/><stop stop-color="#47D5ED" offset="75%"/><stop stop-color="#4FF4F5" offset="91.02%"/><stop stop-color="#52FFF8" offset="100%"/></linearGradient><linearGradient x1="-76.1541702%" y1="44.6107115%" x2="39.8122779%" y2="49.5735712%" id="D"><stop stop-color="#3C8CE7" offset=".537634%"/><stop stop-color="#3A8FE8" offset="2.956713%"/><stop stop-color="#1BC0F4" offset="47.32%"/><stop stop-color="#07DFFC" offset="81.06%"/><stop stop-color="#00EAFF" offset="100%"/></linearGradient><linearGradient x1="29.7378298%" y1="-20.3276345%" x2="64.9012466%" y2="104.569376%" id="E"><stop stop-color="#130CB7" offset=".537634%"/><stop stop-color="#285ECD" offset="28.23%"/><stop stop-color="#3AA3DF" offset="53.8%"/><stop stop-color="#47D5ED" offset="75%"/><stop stop-color="#4FF4F5" offset="91.02%"/><stop stop-color="#52FFF8" offset="100%"/></linearGradient><linearGradient x1="11.4155456%" y1="65.6230462%" x2="239.032632%" y2="-20.2085438%" id="F"><stop stop-color="#130CB7" offset=".537634%"/><stop stop-color="#285ECD" offset="28.23%"/><stop stop-color="#3AA3DF" offset="53.8%"/><stop stop-color="#47D5ED" offset="75%"/><stop stop-color="#4FF4F5" offset="91.02%"/><stop stop-color="#52FFF8" offset="100%"/></linearGradient><linearGradient x1="100.119498%" y1="50.0572603%" x2="0.081930251%" y2="50.1520573%" id="G"><stop stop-color="#B3FFAB" offset=".537634%"/><stop stop-color="#B1FFAC" offset="1.284804%"/><stop stop-color="#6EFFCC" offset="36.23%"/><stop stop-color="#3CFFE3" offset="65.49%"/><stop stop-color="#1DFFF2" offset="87.6%"/><stop stop-color="#12FFF7" offset="100%"/></linearGradient><linearGradient x1="99.8668869%" y1="50.4904132%" x2="-0.342488144%" y2="50.5486281%" id="H"><stop stop-color="#3C8CE7" offset=".537634%"/><stop stop-color="#3A8FE8" offset="2.956713%"/><stop stop-color="#1BC0F4" offset="47.32%"/><stop stop-color="#07DFFC" offset="81.06%"/><stop stop-color="#00EAFF" offset="100%"/></linearGradient><linearGradient x1="0.152416944%" y1="50.6714754%" x2="100.149356%" y2="50.5715228%" id="I"><stop stop-color="#130CB7" offset=".537634%"/><stop stop-color="#285ECD" offset="28.23%"/><stop stop-color="#3AA3DF" offset="53.8%"/><stop stop-color="#47D5ED" offset="75%"/><stop stop-color="#4FF4F5" offset="91.02%"/><stop stop-color="#52FFF8" offset="100%"/></linearGradient><linearGradient x1="-75.9245002%" y1="45.1309865%" x2="40.0419484%" y2="50.0891631%" id="J"><stop stop-color="#3C8CE7" offset=".537634%"/><stop stop-color="#3A8FE8" offset="2.956713%"/><stop stop-color="#1BC0F4" offset="47.32%"/><stop stop-color="#07DFFC" offset="81.06%"/><stop stop-color="#00EAFF" offset="100%"/></linearGradient><linearGradient x1="30.0031383%" y1="-20.462238%" x2="65.1665551%" y2="104.434772%" id="K"><stop stop-color="#130CB7" offset=".537634%"/><stop stop-color="#285ECD" offset="28.23%"/><stop stop-color="#3AA3DF" offset="53.8%"/><stop stop-color="#47D5ED" offset="75%"/><stop stop-color="#4FF4F5" offset="91.02%"/><stop stop-color="#52FFF8" offset="100%"/></linearGradient><linearGradient x1="11.8426721%" y1="65.4433829%" x2="239.459758%" y2="-20.3882072%" id="L"><stop stop-color="#130CB7" offset=".537634%"/><stop stop-color="#285ECD" offset="28.23%"/><stop stop-color="#3AA3DF" offset="53.8%"/><stop stop-color="#47D5ED" offset="75%"/><stop stop-color="#4FF4F5" offset="91.02%"/><stop stop-color="#52FFF8" offset="100%"/></linearGradient><linearGradient x1="-0.185176687%" y1="49.8859458%" x2="99.7262328%" y2="49.8859458%" id="M"><stop stop-color="#130CB7" offset=".537634%"/><stop stop-color="#285ECD" offset="28.23%"/><stop stop-color="#3AA3DF" offset="53.8%"/><stop stop-color="#47D5ED" offset="75%"/><stop stop-color="#4FF4F5" offset="91.02%"/><stop stop-color="#52FFF8" offset="100%"/></linearGradient><linearGradient x1="-25.7630769%" y1="26.4848188%" x2="126.588112%" y2="101.962684%" id="N"><stop stop-color="#130CB7" offset=".537634%"/><stop stop-color="#285ECD" offset="28.23%"/><stop stop-color="#3AA3DF" offset="53.8%"/><stop stop-color="#47D5ED" offset="75%"/><stop stop-color="#4FF4F5" offset="91.02%"/><stop stop-color="#52FFF8" offset="100%"/></linearGradient><linearGradient x1="78.5042036%" y1="92.0248527%" x2="3.39698734%" y2="-17.2565484%" id="O"><stop stop-color="#3C8CE7" offset=".537634%"/><stop stop-color="#3A8FE8" offset="2.956713%"/><stop stop-color="#1BC0F4" offset="47.32%"/><stop stop-color="#07DFFC" offset="81.06%"/><stop stop-color="#00EAFF" offset="100%"/></linearGradient><linearGradient x1="-0.0394530692%" y1="49.4953642%" x2="99.9997719%" y2="49.4953642%" id="P"><stop stop-color="#130CB7" offset=".537634%"/><stop stop-color="#285ECD" offset="28.23%"/><stop stop-color="#3AA3DF" offset="53.8%"/><stop stop-color="#47D5ED" offset="75%"/><stop stop-color="#4FF4F5" offset="91.02%"/><stop stop-color="#52FFF8" offset="100%"/></linearGradient><linearGradient x1="-0.142673108%" y1="50.0063452%" x2="99.9194847%" y2="50.0063452%" id="Q"><stop stop-color="#130CB7" offset=".537634%"/><stop stop-color="#285ECD" offset="28.23%"/><stop stop-color="#3AA3DF" offset="53.8%"/><stop stop-color="#47D5ED" offset="75%"/><stop stop-color="#4FF4F5" offset="91.02%"/><stop stop-color="#52FFF8" offset="100%"/></linearGradient><linearGradient x1="-143.25426%" y1="-71.0297297%" x2="751.20852%" y2="492.72973%" id="R"><stop stop-color="#B3FFAB" offset=".537634%"/><stop stop-color="#B1FFAC" offset="1.284804%"/><stop stop-color="#6EFFCC" offset="36.23%"/><stop stop-color="#3CFFE3" offset="65.49%"/><stop stop-color="#1DFFF2" offset="87.6%"/><stop stop-color="#12FFF7" offset="100%"/></linearGradient><linearGradient x1="-177.760606%" y1="-185.819298%" x2="158.039394%" y2="180.131579%" id="S"><stop stop-color="#B3FFAB" offset=".537634%"/><stop stop-color="#B1FFAC" offset="1.284804%"/><stop stop-color="#6EFFCC" offset="36.23%"/><stop stop-color="#3CFFE3" offset="65.49%"/><stop stop-color="#1DFFF2" offset="87.6%"/><stop stop-color="#12FFF7" offset="100%"/></linearGradient><linearGradient x1="-83.0488889%" y1="-85.7679934%" x2="163.204444%" y2="174.817795%" id="T"><stop stop-color="#B3FFAB" offset=".537634%"/><stop stop-color="#B1FFAC" offset="1.284804%"/><stop stop-color="#6EFFCC" offset="36.23%"/><stop stop-color="#3CFFE3" offset="65.49%"/><stop stop-color="#1DFFF2" offset="87.6%"/><stop stop-color="#12FFF7" offset="100%"/></linearGradient><linearGradient x1="-114.373684%" y1="-49.6213115%" x2="468.860526%" y2="292.332787%" id="U"><stop stop-color="#B3FFAB" offset=".537634%"/><stop stop-color="#B1FFAC" offset="1.284804%"/><stop stop-color="#6EFFCC" offset="36.23%"/><stop stop-color="#3CFFE3" offset="65.49%"/><stop stop-color="#1DFFF2" offset="87.6%"/><stop stop-color="#12FFF7" offset="100%"/></linearGradient><linearGradient x1="-91.5551724%" y1="-58.8474359%" x2="290.563793%" y2="208.576923%" id="V"><stop stop-color="#B3FFAB" offset=".537634%"/><stop stop-color="#B1FFAC" offset="1.284804%"/><stop stop-color="#6EFFCC" offset="36.23%"/><stop stop-color="#3CFFE3" offset="65.49%"/><stop stop-color="#1DFFF2" offset="87.6%"/><stop stop-color="#12FFF7" offset="100%"/></linearGradient><linearGradient x1="-6.88689699%" y1="104.398593%" x2="145.248313%" y2="-8.59578005%" id="W"><stop stop-color="#130CB7" offset=".537634%"/><stop stop-color="#285ECD" offset="28.23%"/><stop stop-color="#3AA3DF" offset="53.8%"/><stop stop-color="#47D5ED" offset="75%"/><stop stop-color="#4FF4F5" offset="91.02%"/><stop stop-color="#52FFF8" offset="100%"/></linearGradient><linearGradient x1="0.0582733813%" y1="50.165625%" x2="100.031295%" y2="50.165625%" id="X"><stop stop-color="#3C8CE7" offset=".537634%"/><stop stop-color="#3A8FE8" offset="2.956713%"/><stop stop-color="#1BC0F4" offset="47.32%"/><stop stop-color="#07DFFC" offset="81.06%"/><stop stop-color="#00EAFF" offset="100%"/></linearGradient><linearGradient x1="0.256842105%" y1="49.9938053%" x2="100.087368%" y2="49.9938053%" id="Y"><stop stop-color="#3C8CE7" offset=".537634%"/><stop stop-color="#3A8FE8" offset="2.956713%"/><stop stop-color="#1BC0F4" offset="47.32%"/><stop stop-color="#07DFFC" offset="81.06%"/><stop stop-color="#00EAFF" offset="100%"/></linearGradient><linearGradient x1="-8.34743133%" y1="125.593268%" x2="73.6402031%" y2="41.505612%" id="Z"><stop stop-color="#130CB7" offset=".537634%"/><stop stop-color="#285ECD" offset="28.23%"/><stop stop-color="#3AA3DF" offset="53.8%"/><stop stop-color="#47D5ED" offset="75%"/><stop stop-color="#4FF4F5" offset="91.02%"/><stop stop-color="#52FFF8" offset="100%"/></linearGradient><linearGradient x1="0.00123966942%" y1="49.9320388%" x2="99.9805096%" y2="49.9320388%" id="a"><stop stop-color="#3C8CE7" offset=".537634%"/><stop stop-color="#3A8FE8" offset="2.956713%"/><stop stop-color="#1BC0F4" offset="47.32%"/><stop stop-color="#07DFFC" offset="81.06%"/><stop stop-color="#00EAFF" offset="100%"/></linearGradient><linearGradient x1="0.0175298805%" y1="49.9773684%" x2="99.9930777%" y2="49.9773684%" id="b"><stop stop-color="#3C8CE7" offset=".537634%"/><stop stop-color="#3A8FE8" offset="2.956713%"/><stop stop-color="#1BC0F4" offset="47.32%"/><stop stop-color="#07DFFC" offset="81.06%"/><stop stop-color="#00EAFF" offset="100%"/></linearGradient><linearGradient x1="0.10284939%" y1="49.6649425%" x2="99.926294%" y2="49.6649425%" id="c"><stop stop-color="#3C8CE7" offset=".537634%"/><stop stop-color="#3A8FE8" offset="2.956713%"/><stop stop-color="#1BC0F4" offset="47.32%"/><stop stop-color="#07DFFC" offset="81.06%"/><stop stop-color="#00EAFF" offset="100%"/></linearGradient><linearGradient x1="-0.0754007045%" y1="50.2386454%" x2="99.9196385%" y2="50.2386454%" id="d"><stop stop-color="#3C8CE7" offset=".537634%"/><stop stop-color="#3A8FE8" offset="2.956713%"/><stop stop-color="#1BC0F4" offset="47.32%"/><stop stop-color="#07DFFC" offset="81.06%"/><stop stop-color="#00EAFF" offset="100%"/></linearGradient><linearGradient x1="0.0448639191%" y1="50.0565789%" x2="100.013388%" y2="50.0565789%" id="e"><stop stop-color="#3C8CE7" offset=".537634%"/><stop stop-color="#3A8FE8" offset="2.956713%"/><stop stop-color="#1BC0F4" offset="47.32%"/><stop stop-color="#07DFFC" offset="81.06%"/><stop stop-color="#00EAFF" offset="100%"/></linearGradient><linearGradient x1="48.6692308%" y1="99.9622166%" x2="48.6692308%" y2="0.758600703%" id="f"><stop stop-color="#B3FFAB" offset=".537634%"/><stop stop-color="#B1FFAC" offset="1.284804%"/><stop stop-color="#6EFFCC" offset="36.23%"/><stop stop-color="#3CFFE3" offset="65.49%"/><stop stop-color="#1DFFF2" offset="87.6%"/><stop stop-color="#12FFF7" offset="100%"/></linearGradient><linearGradient x1="48.9269231%" y1="98.9301268%" x2="48.9269231%" y2="1.48688128%" id="g"><stop stop-color="#B3FFAB" offset=".537634%"/><stop stop-color="#B1FFAC" offset="1.284804%"/><stop stop-color="#6EFFCC" offset="36.23%"/><stop stop-color="#3CFFE3" offset="65.49%"/><stop stop-color="#1DFFF2" offset="87.6%"/><stop stop-color="#12FFF7" offset="100%"/></linearGradient><linearGradient x1="49.6%" y1="98.7138838%" x2="49.6%" y2="-0.491538649%" id="h"><stop stop-color="#B3FFAB" offset=".537634%"/><stop stop-color="#B1FFAC" offset="1.284804%"/><stop stop-color="#6EFFCC" offset="36.23%"/><stop stop-color="#3CFFE3" offset="65.49%"/><stop stop-color="#1DFFF2" offset="87.6%"/><stop stop-color="#12FFF7" offset="100%"/></linearGradient><linearGradient x1="49.8538462%" y1="99.4690258%" x2="49.8538462%" y2="0.263603329%" id="i"><stop stop-color="#B3FFAB" offset=".537634%"/><stop stop-color="#B1FFAC" offset="1.284804%"/><stop stop-color="#6EFFCC" offset="36.23%"/><stop stop-color="#3CFFE3" offset="65.49%"/><stop stop-color="#1DFFF2" offset="87.6%"/><stop stop-color="#12FFF7" offset="100%"/></linearGradient><linearGradient x1="48.4730769%" y1="100.177197%" x2="48.4730769%" y2="0.971774754%" id="j"><stop stop-color="#B3FFAB" offset=".537634%"/><stop stop-color="#B1FFAC" offset="1.284804%"/><stop stop-color="#6EFFCC" offset="36.23%"/><stop stop-color="#3CFFE3" offset="65.49%"/><stop stop-color="#1DFFF2" offset="87.6%"/><stop stop-color="#12FFF7" offset="100%"/></linearGradient><linearGradient x1="48.7307692%" y1="99.1257795%" x2="48.7307692%" y2="-0.0778364649%" id="k"><stop stop-color="#B3FFAB" offset=".537634%"/><stop stop-color="#B1FFAC" offset="1.284804%"/><stop stop-color="#6EFFCC" offset="36.23%"/><stop stop-color="#3CFFE3" offset="65.49%"/><stop stop-color="#1DFFF2" offset="87.6%"/><stop stop-color="#12FFF7" offset="100%"/></linearGradient><linearGradient x1="49.4%" y1="98.9270579%" x2="49.4%" y2="-0.278364598%" id="l"><stop stop-color="#B3FFAB" offset=".537634%"/><stop stop-color="#B1FFAC" offset="1.284804%"/><stop stop-color="#6EFFCC" offset="36.23%"/><stop stop-color="#3CFFE3" offset="65.49%"/><stop stop-color="#1DFFF2" offset="87.6%"/><stop stop-color="#12FFF7" offset="100%"/></linearGradient><linearGradient x1="49.9615385%" y1="98.7825331%" x2="49.9615385%" y2="-0.421082819%" id="m"><stop stop-color="#B3FFAB" offset=".537634%"/><stop stop-color="#B1FFAC" offset="1.284804%"/><stop stop-color="#6EFFCC" offset="36.23%"/><stop stop-color="#3CFFE3" offset="65.49%"/><stop stop-color="#1DFFF2" offset="87.6%"/><stop stop-color="#12FFF7" offset="100%"/></linearGradient><linearGradient x1="50.2230769%" y1="99.5376751%" x2="50.2230769%" y2="0.33405916%" id="n"><stop stop-color="#B3FFAB" offset=".537634%"/><stop stop-color="#B1FFAC" offset="1.284804%"/><stop stop-color="#6EFFCC" offset="36.23%"/><stop stop-color="#3CFFE3" offset="65.49%"/><stop stop-color="#1DFFF2" offset="87.6%"/><stop stop-color="#12FFF7" offset="100%"/></linearGradient><linearGradient x1="50.5959618%" y1="99.3407601%" x2="50.5959618%" y2="0.135337586%" id="o"><stop stop-color="#B3FFAB" offset=".537634%"/><stop stop-color="#B1FFAC" offset="1.284804%"/><stop stop-color="#6EFFCC" offset="36.23%"/><stop stop-color="#3CFFE3" offset="65.49%"/><stop stop-color="#1DFFF2" offset="87.6%"/><stop stop-color="#12FFF7" offset="100%"/></linearGradient><linearGradient x1="50.8521342%" y1="100.095902%" x2="50.8521342%" y2="0.892286125%" id="p"><stop stop-color="#B3FFAB" offset=".537634%"/><stop stop-color="#B1FFAC" offset="1.284804%"/><stop stop-color="#6EFFCC" offset="36.23%"/><stop stop-color="#3CFFE3" offset="65.49%"/><stop stop-color="#1DFFF2" offset="87.6%"/><stop stop-color="#12FFF7" offset="100%"/></linearGradient><linearGradient x1="49.7653846%" y1="98.9975137%" x2="49.7653846%" y2="-0.207908767%" id="q"><stop stop-color="#B3FFAB" offset=".537634%"/><stop stop-color="#B1FFAC" offset="1.284804%"/><stop stop-color="#6EFFCC" offset="36.23%"/><stop stop-color="#3CFFE3" offset="65.49%"/><stop stop-color="#1DFFF2" offset="87.6%"/><stop stop-color="#12FFF7" offset="100%"/></linearGradient><linearGradient x1="48.7923077%" y1="99.7544623%" x2="48.7923077%" y2="0.547233211%" id="r"><stop stop-color="#B3FFAB" offset=".537634%"/><stop stop-color="#B1FFAC" offset="1.284804%"/><stop stop-color="#6EFFCC" offset="36.23%"/><stop stop-color="#3CFFE3" offset="65.49%"/><stop stop-color="#1DFFF2" offset="87.6%"/><stop stop-color="#12FFF7" offset="100%"/></linearGradient><linearGradient x1="49.4653846%" y1="99.5557407%" x2="49.4653846%" y2="0.350318197%" id="s"><stop stop-color="#B3FFAB" offset=".537634%"/><stop stop-color="#B1FFAC" offset="1.284804%"/><stop stop-color="#6EFFCC" offset="36.23%"/><stop stop-color="#3CFFE3" offset="65.49%"/><stop stop-color="#1DFFF2" offset="87.6%"/><stop stop-color="#12FFF7" offset="100%"/></linearGradient><linearGradient x1="50.4736108%" y1="99.0968745%" x2="50.4736108%" y2="-0.106741421%" id="t"><stop stop-color="#B3FFAB" offset=".537634%"/><stop stop-color="#B1FFAC" offset="1.284804%"/><stop stop-color="#6EFFCC" offset="36.23%"/><stop stop-color="#3CFFE3" offset="65.49%"/><stop stop-color="#1DFFF2" offset="87.6%"/><stop stop-color="#12FFF7" offset="100%"/></linearGradient><linearGradient x1="50.7336067%" y1="99.8520165%" x2="50.7336067%" y2="0.648400557%" id="u"><stop stop-color="#B3FFAB" offset=".537634%"/><stop stop-color="#B1FFAC" offset="1.284804%"/><stop stop-color="#6EFFCC" offset="36.23%"/><stop stop-color="#3CFFE3" offset="65.49%"/><stop stop-color="#1DFFF2" offset="87.6%"/><stop stop-color="#12FFF7" offset="100%"/></linearGradient><linearGradient x1="47.8538462%" y1="99.6532949%" x2="47.8538462%" y2="0.449678984%" id="v"><stop stop-color="#B3FFAB" offset=".537634%"/><stop stop-color="#B1FFAC" offset="1.284804%"/><stop stop-color="#6EFFCC" offset="36.23%"/><stop stop-color="#3CFFE3" offset="65.49%"/><stop stop-color="#1DFFF2" offset="87.6%"/><stop stop-color="#12FFF7" offset="100%"/></linearGradient><linearGradient x1="48.1153846%" y1="98.6036837%" x2="48.1153846%" y2="-0.601738794%" id="w"><stop stop-color="#B3FFAB" offset=".537634%"/><stop stop-color="#B1FFAC" offset="1.284804%"/><stop stop-color="#6EFFCC" offset="36.23%"/><stop stop-color="#3CFFE3" offset="65.49%"/><stop stop-color="#1DFFF2" offset="87.6%"/><stop stop-color="#12FFF7" offset="100%"/></linearGradient><linearGradient x1="49.6615385%" y1="99.8718887%" x2="49.6615385%" y2="0.666466155%" id="x"><stop stop-color="#B3FFAB" offset=".537634%"/><stop stop-color="#B1FFAC" offset="1.284804%"/><stop stop-color="#6EFFCC" offset="36.23%"/><stop stop-color="#3CFFE3" offset="65.49%"/><stop stop-color="#1DFFF2" offset="87.6%"/><stop stop-color="#12FFF7" offset="100%"/></linearGradient><linearGradient x1="49.9192308%" y1="98.8204709%" x2="49.9192308%" y2="-0.383145064%" id="y"><stop stop-color="#B3FFAB" offset=".537634%"/><stop stop-color="#B1FFAC" offset="1.284804%"/><stop stop-color="#6EFFCC" offset="36.23%"/><stop stop-color="#3CFFE3" offset="65.49%"/><stop stop-color="#1DFFF2" offset="87.6%"/><stop stop-color="#12FFF7" offset="100%"/></linearGradient><linearGradient x1="50.5884615%" y1="98.6217493%" x2="50.5884615%" y2="-0.581866637%" id="z"><stop stop-color="#B3FFAB" offset=".537634%"/><stop stop-color="#B1FFAC" offset="1.284804%"/><stop stop-color="#6EFFCC" offset="36.23%"/><stop stop-color="#3CFFE3" offset="65.49%"/><stop stop-color="#1DFFF2" offset="87.6%"/><stop stop-color="#12FFF7" offset="100%"/></linearGradient><linearGradient x1="50.5462567%" y1="99.3768913%" x2="50.5462567%" y2="0.173275341%" id="AA"><stop stop-color="#B3FFAB" offset=".537634%"/><stop stop-color="#B1FFAC" offset="1.284804%"/><stop stop-color="#6EFFCC" offset="36.23%"/><stop stop-color="#3CFFE3" offset="65.49%"/><stop stop-color="#1DFFF2" offset="87.6%"/><stop stop-color="#12FFF7" offset="100%"/></linearGradient><path id="AB" d="M96.765 46.7l-.44.262c-.22.13-.35 0-.35-.262v-1.092c0-.262.176-.568.35-.7l.44-.262c.22-.13.35 0 .35.262v1.092c0 .306-.176.612-.35.7z"/><path id="AC" d="M91.14 49.966l-.44.262c-.22.13-.35 0-.35-.262v-1.092c0-.262.176-.568.35-.7l.44-.262c.22-.13.35 0 .35.262v1.092c0 .262-.132.568-.35.7z"/><path id="AD" d="M82.574 54.945l-.44.262c-.22.13-.35 0-.35-.262v-1.092c0-.262.176-.568.35-.7l.44-.262c.22-.13.35 0 .35.262v1.092c0 .262-.176.568-.35.7z"/><path id="AE" d="M48.347 73.946l-.44.262c-.22.13-.35 0-.35-.262v-1.092c0-.262.176-.568.35-.7l.44-.262c.22-.13.35 0 .35.262v1.092c.044.262-.132.568-.35.7z"/></defs><path d="M40.637 49.458s-2.177 4.397-12.2 9.792l-4.58-7.117 5.67-3.173 11.112.5z" fill="url(#A)"/><path d="M30.795 49.005l-1.723 2.584s-.862.77-1.18-.272l1.678-2.357 1.225.045z" fill="url(#B)"/><path d="M33.517 49.14l-4.445 2.493 1.723-2.63z" fill="url(#C)"/><path d="M29.072 57.573c0 1.904-1.36 2.72-3.04 1.723-1.678-.952-3.04-3.31-3.04-5.26 0-1.904 1.36-2.72 3.04-1.723s3.04 3.31 3.04 5.26z" fill="url(#D)"/><path d="M28.618 57.256c0 1.677-1.18 2.357-2.63 1.496-1.45-.816-2.63-2.856-2.63-4.533s1.18-2.357 2.63-1.496 2.63 2.856 2.63 4.533z" fill="url(#E)"/><path d="M25.49 52.496s-1.134 4.397 3.13 5.077c0 0 .18-3.49-3.13-5.077z" fill="url(#F)"/><path d="M78.145 87.947s-2.177 4.397-12.2 9.792l-4.58-7.117 5.67-3.173 11.112.5z" fill="url(#G)"/><path d="M68.303 87.494l-1.723 2.584s-.862.77-1.18-.272l1.678-2.357 1.225.045z" fill="url(#H)"/><path d="M71.024 87.63l-4.445 2.448 1.723-2.584z" fill="url(#I)"/><path d="M66.58 96.016c0 1.904-1.36 2.72-3.04 1.723s-3.04-3.31-3.04-5.26 1.36-2.72 3.04-1.723 3.04 3.355 3.04 5.26z" fill="url(#J)"/><path d="M66.126 95.744c0 1.677-1.18 2.357-2.63 1.496-1.45-.816-2.63-2.856-2.63-4.533s1.18-2.357 2.63-1.496c1.45.816 2.63 2.856 2.63 4.533z" fill="url(#K)"/><path d="M62.997 90.984s-1.134 4.397 3.13 5.077c0 0 .18-3.49-3.13-5.077z" fill="url(#L)"/><path d="M108.797 12.635l6.857 9.54-1.158 3.375-6.208 3.915-2.826-14.986c-.046-.18.046-.315.185-.405l2.594-1.53c.185-.135.417-.1.556.1z" fill="url(#M)"/><path d="M55.56 58.813l-6.38-1.5L31.153 27.2l-6.208 3.818 6.722 30.28s1.755 7.77.47 11.233l23.42-13.72z" fill="url(#N)"/><path d="M129.26 27.31s-11.368 10.726-17.163 15.202S88.83 59.53 65.74 71.896L18.278 96.85S9.43 101.414 2.575 102c0 0-3.008.266-2.52-1.95s3.67-7.09 7.166-10.68l1.37-1.374s-.398-1.064 4.556-4.742S62.51 54.877 62.51 54.877l34.193-19.5s19.374-11.125 29.327-11.568c.044-.044 3.096 0 3.23 3.5z" fill="url(#O)"/><path d="M143.857 33.34l-2.544 1.53c-.223.135-.446.225-.714.225l-23.744 1.17s-.312-.585.402-1.26 7.855-5.404 8.837-5.54l17.674 3.377c.268.045.312.36.09.495z" fill="url(#P)"/><path d="M131.528.268L131.046 0l-4.47 1.917s-.92.178-1.62 1.828-9.947 21.044-9.947 21.044l-8.808 6.376s-1.665.892-1.884 3.8l.657.178 13.803-12.083L131.528.268z" fill="url(#Q)"/><path d="M7.937 88.4v.43l-1.053 1.838s-.183-.613 0-.858l1.053-1.41z" fill="url(#R)"/><path d="M12.885 92.933c1.65-1.014 2.99-2.088 2.99-2.088l-1.495-1.312-1.907.537.412 2.863z" fill="url(#S)"/><path d="M14.287 89.533c-.957.227-2.016.396-2.973.396l-1.11 4.134h.05c1.16.057 2.923-.793 4.485-1.7l-.454-2.832z" fill="url(#T)"/><path d="M8.957 89.886c-.113-.1-.227-.2-.34-.353l-1.814 1.964s.113.554.5 1.108l1.644-2.72z" fill="url(#U)"/><path d="M9.297 90.087l-1.7 2.87c.397.504 1.077.957 2.04 1.058l1.247-3.627c-.624-.05-1.19-.15-1.587-.302z" fill="url(#V)"/><path d="M132.66 0l-4.256 24.396-22.936 10.738s-.358-2.2 1.88-3.82 8.87-6.02 8.87-6.02l10.08-21.25s.358-1.662 2.105-2.336L132.66 0z" fill="url(#W)"/><path d="M140.415 33.82h-22.188v-.272h22.144l1.488-.952-17.505-2.856.044-.272 18.162 2.992z" fill="url(#X)"/><path d="M109.395 27L106.8 14.025l2.04-1.305 6.576 9.22-.227.126-6.395-9.008-1.678 1.094 2.494 12.797z" fill="url(#Y)"/><path d="M133.795 86.93l-6.13 3.737-87.742-4.05s-2.866-.133-2.47-2.18c0 0 3.35-3.693 9.656-7.608 6.305-3.96 20.414-12.37 26.235-13.348 0 0 .838-.222 1.675 1.068s11.067 12.503 11.067 12.503l47.707 9.878z" fill="url(#Z)"/><path d="M131.266 86.003l-48.58-8.762-.043-.044L68.16 63.73l.174-.174 14.44 13.426L131.3 85.74z" fill="url(#a)"/><path d="M127.776 89.352l-87.872-8.34.044-.272 87.872 8.34z" fill="url(#b)"/><path d="M93.146 88.18c-.34-1.4.808-2.38.893-2.424h.043l12.416-5.245.085.22-12.373 5.245c-.128.088-1.063.97-.765 2.16l-.298.044z" fill="url(#c)"/><path d="M71.728 86.874c-.42-2.05 1.137-3.356 1.137-3.4l12.97-7.54.126.218-12.97 7.54s-1.432 1.264-1.053 3.138l-.21.044z" fill="url(#d)"/><path d="M45.658 86.9c-.435-3.253 2.348-4.582 2.348-4.582l28.66-16.3.13.23-28.66 16.3c-.13.046-2.653 1.283-2.218 4.307l-.26.046z" fill="url(#e)"/><use xlink:href="#AB" fill="url(#f)"/><path d="M93.865 48.393l-.44.262c-.22.13-.35 0-.35-.262v-1.136c0-.262.176-.568.35-.7l.44-.262c.22-.13.35 0 .35.262v1.092c0 .306-.176.612-.35.743z" fill="url(#g)"/><use xlink:href="#AC" fill="url(#h)"/><use xlink:href="#AC" x="-2.898" y="1.66" fill="url(#i)"/><path d="M85.473 53.242l-.44.262c-.22.13-.35 0-.35-.262V52.15c0-.262.176-.568.35-.7l.44-.262c.22-.13.35 0 .35.262v1.092c0 .306-.176.612-.35.7z" fill="url(#j)"/><use xlink:href="#AD" fill="url(#k)"/><use xlink:href="#AD" x="-2.724" y="1.573" fill="url(#l)"/><use xlink:href="#AC" x="-22.626" y="12.492" fill="url(#m)"/><use xlink:href="#AC" x="-25.526" y="14.152" fill="url(#n)"/><path d="M62.9 65.69l-.44.262c-.22.13-.35 0-.35-.262V64.6c0-.262.176-.568.35-.7l.44-.262c.22-.13.35 0 .35.262v1.092c.044.262-.132.568-.35.7z" fill="url(#o)"/><path d="M60 67.35l-.44.262c-.22.13-.35 0-.35-.262V66.26c0-.262.176-.568.35-.7l.44-.262c.22-.13.35 0 .35.262v1.092c.044.306-.132.612-.35.7z" fill="url(#p)"/><path d="M57.222 69.01l-.44.262c-.22.13-.35 0-.35-.262V67.92c0-.262.176-.568.35-.7l.44-.262c.22-.13.35 0 .35.262v1.092c0 .262-.132.568-.35.7z" fill="url(#q)"/><use xlink:href="#AB" x="-42.75" y="23.97" fill="url(#r)"/><path d="M51.3 72.243l-.44.262c-.22.13-.35 0-.35-.262V71.15c0-.262.176-.568.35-.7l.44-.262c.22-.13.35 0 .35.262v1.092c0 .262-.176.568-.35.7z" fill="url(#s)"/><use xlink:href="#AE" fill="url(#t)"/><path d="M45.447 75.606l-.44.262c-.22.13-.35 0-.35-.262v-1.092c0-.262.176-.568.35-.7l.44-.262c.22-.13.35 0 .35.262v1.092c.044.306-.132.612-.35.7z" fill="url(#u)"/><use xlink:href="#AD" x="-39.807" y="22.235" fill="url(#v)"/><path d="M39.867 78.882l-.44.262c-.22.13-.35 0-.35-.262V77.8c0-.262.176-.568.35-.7l.44-.262c.22-.13.35 0 .35.262v1.092c0 .262-.176.568-.35.7z" fill="url(#w)"/><path d="M36.923 80.542l-.44.262c-.22.13-.35 0-.35-.262V79.45c0-.262.176-.568.35-.7l.44-.262c.22-.13.35 0 .35.262v1.092c0 .306-.132.612-.35.7z" fill="url(#x)"/><use xlink:href="#AC" x="-57.117" y="32.28" fill="url(#y)"/><use xlink:href="#AC" x="-59.84" y="33.852" fill="url(#z)"/><use xlink:href="#AE" x="-19.947" y="11.532" fill="url(#AA)"/></svg>