<svg xmlns="http://www.w3.org/2000/svg" width="134" height="102"><defs><linearGradient x1="0.12094176%" y1="50.0811135%" x2="100.07373%" y2="50.0811135%" id="A"><stop stop-color="#130CB7" offset=".537634%"/><stop stop-color="#285ECD" offset="28.23%"/><stop stop-color="#3AA3DF" offset="53.8%"/><stop stop-color="#47D5ED" offset="75%"/><stop stop-color="#4FF4F5" offset="91.02%"/><stop stop-color="#52FFF8" offset="100%"/></linearGradient><linearGradient x1="-0.0238888889%" y1="49.9715892%" x2="100.018194%" y2="49.9715892%" id="B"><stop stop-color="#3C8CE7" offset=".537634%"/><stop stop-color="#3A8FE8" offset="2.956713%"/><stop stop-color="#1BC0F4" offset="47.32%"/><stop stop-color="#07DFFC" offset="81.06%"/><stop stop-color="#00EAFF" offset="100%"/></linearGradient><linearGradient x1="-0.0229050279%" y1="50.0420854%" x2="100.020335%" y2="50.0420854%" id="C"><stop stop-color="#130CB7" offset=".537634%"/><stop stop-color="#285ECD" offset="28.23%"/><stop stop-color="#3AA3DF" offset="53.8%"/><stop stop-color="#47D5ED" offset="75%"/><stop stop-color="#4FF4F5" offset="91.02%"/><stop stop-color="#52FFF8" offset="100%"/></linearGradient><linearGradient x1="-0.0612113133%" y1="49.9802956%" x2="100.008313%" y2="49.9802956%" id="D"><stop stop-color="#3C8CE7" offset=".537634%"/><stop stop-color="#3A8FE8" offset="2.956713%"/><stop stop-color="#1BC0F4" offset="47.32%"/><stop stop-color="#07DFFC" offset="81.06%"/><stop stop-color="#00EAFF" offset="100%"/></linearGradient><linearGradient x1="0.0376588347%" y1="49.9719169%" x2="100.018976%" y2="49.9719169%" id="E"><stop stop-color="#3C8CE7" offset=".537634%"/><stop stop-color="#3A8FE8" offset="2.956713%"/><stop stop-color="#1BC0F4" offset="47.32%"/><stop stop-color="#07DFFC" offset="81.06%"/><stop stop-color="#00EAFF" offset="100%"/></linearGradient><linearGradient x1="49.2450644%" y1="80.528557%" x2="63.1287554%" y2="203.98047%" id="F"><stop stop-color="#3C8CE7" offset=".537634%"/><stop stop-color="#3A8FE8" offset="2.956713%"/><stop stop-color="#1BC0F4" offset="47.32%"/><stop stop-color="#07DFFC" offset="81.06%"/><stop stop-color="#00EAFF" offset="100%"/></linearGradient><linearGradient x1="0.0272839751%" y1="49.9393987%" x2="100.0276%" y2="49.9393987%" id="G"><stop stop-color="#130CB7" offset=".537634%"/><stop stop-color="#285ECD" offset="28.23%"/><stop stop-color="#3AA3DF" offset="53.8%"/><stop stop-color="#47D5ED" offset="75%"/><stop stop-color="#4FF4F5" offset="91.02%"/><stop stop-color="#52FFF8" offset="100%"/></linearGradient><linearGradient x1="0.0126966902%" y1="49.9548013%" x2="100.003039%" y2="49.9548013%" id="H"><stop stop-color="#130CB7" offset=".537634%"/><stop stop-color="#285ECD" offset="28.23%"/><stop stop-color="#3AA3DF" offset="53.8%"/><stop stop-color="#47D5ED" offset="75%"/><stop stop-color="#4FF4F5" offset="91.02%"/><stop stop-color="#52FFF8" offset="100%"/></linearGradient><linearGradient x1="0.00594844679%" y1="50.018543%" x2="100.007964%" y2="50.018543%" id="I"><stop stop-color="#130CB7" offset=".537634%"/><stop stop-color="#285ECD" offset="28.23%"/><stop stop-color="#3AA3DF" offset="53.8%"/><stop stop-color="#47D5ED" offset="75%"/><stop stop-color="#4FF4F5" offset="91.02%"/><stop stop-color="#52FFF8" offset="100%"/></linearGradient><linearGradient x1="0.032246223%" y1="50.0577997%" x2="100.00514%" y2="50.0577997%" id="J"><stop stop-color="#130CB7" offset=".537634%"/><stop stop-color="#285ECD" offset="28.23%"/><stop stop-color="#3AA3DF" offset="53.8%"/><stop stop-color="#47D5ED" offset="75%"/><stop stop-color="#4FF4F5" offset="91.02%"/><stop stop-color="#52FFF8" offset="100%"/></linearGradient><linearGradient x1="0.195133528%" y1="50.446875%" x2="100.109694%" y2="50.446875%" id="K"><stop stop-color="#3C8CE7" offset=".537634%"/><stop stop-color="#3A8FE8" offset="2.956713%"/><stop stop-color="#1BC0F4" offset="47.32%"/><stop stop-color="#07DFFC" offset="81.06%"/><stop stop-color="#00EAFF" offset="100%"/></linearGradient><linearGradient x1="0.571799028%" y1="49.8326019%" x2="100.188817%" y2="49.8326019%" id="L"><stop stop-color="#130CB7" offset=".537634%"/><stop stop-color="#285ECD" offset="28.23%"/><stop stop-color="#3AA3DF" offset="53.8%"/><stop stop-color="#47D5ED" offset="75%"/><stop stop-color="#4FF4F5" offset="91.02%"/><stop stop-color="#52FFF8" offset="100%"/></linearGradient><linearGradient x1="-0.758468336%" y1="49.832711%" x2="100.35162%" y2="49.832711%" id="M"><stop stop-color="#130CB7" offset=".537634%"/><stop stop-color="#285ECD" offset="28.23%"/><stop stop-color="#3AA3DF" offset="53.8%"/><stop stop-color="#47D5ED" offset="75%"/><stop stop-color="#4FF4F5" offset="91.02%"/><stop stop-color="#52FFF8" offset="100%"/></linearGradient><linearGradient x1="0.0812887237%" y1="49.921624%" x2="100.034077%" y2="49.921624%" id="N"><stop stop-color="#130CB7" offset=".537634%"/><stop stop-color="#285ECD" offset="28.23%"/><stop stop-color="#3AA3DF" offset="53.8%"/><stop stop-color="#47D5ED" offset="75%"/><stop stop-color="#4FF4F5" offset="91.02%"/><stop stop-color="#52FFF8" offset="100%"/></linearGradient><linearGradient x1="0.0705555556%" y1="50.0413759%" x2="100.112639%" y2="50.0413759%" id="O"><stop stop-color="#3C8CE7" offset=".537634%"/><stop stop-color="#3A8FE8" offset="2.956713%"/><stop stop-color="#1BC0F4" offset="47.32%"/><stop stop-color="#07DFFC" offset="81.06%"/><stop stop-color="#00EAFF" offset="100%"/></linearGradient><linearGradient x1="0.0441351889%" y1="49.9298939%" x2="99.9258449%" y2="49.9298939%" id="P"><stop stop-color="#B3FFAB" offset=".537634%"/><stop stop-color="#B1FFAC" offset="1.284804%"/><stop stop-color="#6EFFCC" offset="36.23%"/><stop stop-color="#3CFFE3" offset="65.49%"/><stop stop-color="#1DFFF2" offset="87.6%"/><stop stop-color="#12FFF7" offset="100%"/></linearGradient><linearGradient x1="-0.13866171%" y1="49.9033241%" x2="99.8197026%" y2="49.9033241%" id="Q"><stop stop-color="#B3FFAB" offset=".537634%"/><stop stop-color="#B1FFAC" offset="1.284804%"/><stop stop-color="#6EFFCC" offset="36.23%"/><stop stop-color="#3CFFE3" offset="65.49%"/><stop stop-color="#1DFFF2" offset="87.6%"/><stop stop-color="#12FFF7" offset="100%"/></linearGradient><linearGradient x1="110.966501%" y1="50.1623792%" x2="210.911073%" y2="50.1623792%" id="R"><stop stop-color="#3C8CE7" offset=".537634%"/><stop stop-color="#3A8FE8" offset="2.956713%"/><stop stop-color="#1BC0F4" offset="47.32%"/><stop stop-color="#07DFFC" offset="81.06%"/><stop stop-color="#00EAFF" offset="100%"/></linearGradient><linearGradient x1="-156.054173%" y1="57.4052435%" x2="15.0746388%" y2="51.4056524%" id="S"><stop stop-color="#3C8CE7" offset=".537634%"/><stop stop-color="#3A8FE8" offset="2.956713%"/><stop stop-color="#1BC0F4" offset="47.32%"/><stop stop-color="#07DFFC" offset="81.06%"/><stop stop-color="#00EAFF" offset="100%"/></linearGradient></defs><path d="M60.85 64.83l.22.768-32.566 22.12s-4.92 2.854-9.565-1.647c0 0-2.488-2.086-2.488-2.58s1.603-.55 2.654.55 2.322 2.8 3.815 3.293c1.493.55 37.93-22.503 37.93-22.503z" fill="url(#A)"/><path d="M58.25 63.68L26.736 85.304s-3.704 1.976-5.695.66c0 0 3.152 3.403 6.58 1.372 3.483-2.03 33.23-22.448 33.23-22.448l-2.6-1.207z" fill="url(#B)"/><path d="M84.632 40.726l37.986-21.058 4.377-16.912L130.13 1l2.864 1.855-2.756 28.805-3.026-1.09-2.918-5.292-34.312 19.15z" fill="url(#C)"/><path d="M134 29.844l-3.554 2.08-4.975-6.512-34.28 22.054s-5.74-4.433-4.32-4.706c1.367-.274 38.817-21.342 38.817-21.342l4.1-16.636 3.444-1.75-1.75 18.114 2.515 8.7z" fill="url(#D)"/><path d="M91.5 45.633s-10.002-12.915-27.15-4.287c0 0-29.293 11.913-36.822 24.828s-7.694 26.33-4.067 29.003 8.683 4.62 17.202 0 39.46-23.38 42.703-27c3.352-3.84 9.453-14.585 8.134-22.546z" fill="url(#E)"/><path d="M50.376 49.928l3.373-15.592h6.24l3.485 15.592c-.056 0-6.633 5.82-13.098 0z" fill="url(#F)"/><path d="M56.42 31.99L1.93 0S-.6 1.902 2.7 3.915l51.694 31.432 2.028-3.356z" fill="url(#G)"/><path d="M112.92 0l-55.5 31.67 4.408 1.655L112.92 3.2s2.094-1.82 0-3.2z" fill="url(#H)"/><path d="M113.264 67.663l-54.828-31.12 4-2.207 50.817 30.237s1.318 1.324 0 3.1z" fill="url(#I)"/><path d="M56.42 35.9L1.208 66.653s-3.174-1.532.766-3.666c3.885-2.19 50.343-29.66 50.343-29.66L56.42 35.9z" fill="url(#J)"/><path d="M53.57 31.307s-2.444.63-2.166 2.577 3.055 2.472 4.998 2.472 4.998-1 5.054-2.472-2.22-2.42-2.22-2.42l-5.665-.158z" fill="url(#K)"/><path d="M73.047 74.733l4.372 7.652s.36.93 0 1.293c-.566.57-1.595-.724-1.595-.724l-5.298-6.67 2.52-1.55z" fill="url(#L)"/><path d="M60.433 82.812l3.005 9.64s.223 1.22-.445 1.44c-.723.222-1.39-.886-1.39-.886L57.43 84.64l3.005-1.828z" fill="url(#M)"/><path d="M89.116 77.42l.22.782-32.566 22.514s-4.92 2.905-9.565-1.676c0 0-2.488-2.123-2.488-2.626s1.603-.56 2.654.56 2.322 2.85 3.815 3.352 37.93-22.905 37.93-22.905z" fill="url(#N)"/><path d="M86.462 76.2L54.947 98.2s-3.704 2.01-5.695.67c0 0 3.152 3.464 6.58 1.397 3.483-2.067 33.23-22.85 33.23-22.85l-2.6-1.23z" fill="url(#O)"/><path d="M27.774 66.653s3.365 3.72 8.525 4.718 14.077-4.718 14.077-4.718l-3.42 13.71s-12.956 12.323-24.79 0c0 0 1.346-6.217 5.608-13.71z" fill="url(#P)"/><path d="M51.34 65.4L48.36 78.772l13.146-7.665 1.966-12.533z" fill="url(#Q)"/><path d="M54.406 33.366v-2.68s-.05-2.297 2.37-2.406 2.667 2.516 2.667 2.516v2.516c0 .055-2.716 2.242-5.038.055z" fill="url(#R)"/><path d="M88.662 57.564L47.488 82.8s-18.095 11.697-26.06-.054c0 0-.217 1.083-.27 1.895 0 0 6.284 11.968 26.763-.27 21.02-12.5 36.623-19.008 36.623-19.008s3.63-6.553 4.117-7.798z" fill="url(#S)"/></svg>