<svg xmlns="http://www.w3.org/2000/svg" width="97" height="125"><defs><linearGradient x1="-0.0117490494%" y1="49.9966155%" x2="99.970076%" y2="49.9966155%" id="A"><stop stop-color="#130CB7" offset=".537634%"/><stop stop-color="#285ECD" offset="28.23%"/><stop stop-color="#3AA3DF" offset="53.8%"/><stop stop-color="#47D5ED" offset="75%"/><stop stop-color="#4FF4F5" offset="91.02%"/><stop stop-color="#52FFF8" offset="100%"/></linearGradient><linearGradient x1="61.324534%" y1="21.3683407%" x2="42.1426398%" y2="74.8607331%" id="B"><stop stop-color="#3C8CE7" offset=".537634%"/><stop stop-color="#3A8FE8" offset="2.956713%"/><stop stop-color="#1BC0F4" offset="47.32%"/><stop stop-color="#07DFFC" offset="81.06%"/><stop stop-color="#00EAFF" offset="100%"/></linearGradient><linearGradient x1="-4.68830924%" y1="-0.575679594%" x2="141.13193%" y2="134.255781%" id="C"><stop stop-color="#130CB7" offset=".537634%"/><stop stop-color="#285ECD" offset="28.23%"/><stop stop-color="#3AA3DF" offset="53.8%"/><stop stop-color="#47D5ED" offset="75%"/><stop stop-color="#4FF4F5" offset="91.02%"/><stop stop-color="#52FFF8" offset="100%"/></linearGradient><linearGradient x1="428.987797%" y1="-49.9046243%" x2="11.9828843%" y2="63.3740527%" id="D"><stop stop-color="#3C8CE7" offset=".537634%"/><stop stop-color="#3A8FE8" offset="2.956713%"/><stop stop-color="#1BC0F4" offset="47.32%"/><stop stop-color="#07DFFC" offset="81.06%"/><stop stop-color="#00EAFF" offset="100%"/></linearGradient><linearGradient x1="392.98137%" y1="-27.3939627%" x2="-31.1854985%" y2="63.2698137%" id="E"><stop stop-color="#3C8CE7" offset=".537634%"/><stop stop-color="#3A8FE8" offset="2.956713%"/><stop stop-color="#1BC0F4" offset="47.32%"/><stop stop-color="#07DFFC" offset="81.06%"/><stop stop-color="#00EAFF" offset="100%"/></linearGradient><linearGradient x1="-8.96597717%" y1="-34.0761996%" x2="107.42215%" y2="116.17288%" id="F"><stop stop-color="#B1FFAC" offset="0%"/><stop stop-color="#12FFF7" offset="100%"/></linearGradient><linearGradient x1="-170.293793%" y1="-94.4551546%" x2="753.844138%" y2="524.101546%" id="G"><stop stop-color="#B3FFAB" offset=".537634%"/><stop stop-color="#B1FFAC" offset="1.284804%"/><stop stop-color="#6EFFCC" offset="36.23%"/><stop stop-color="#3CFFE3" offset="65.49%"/><stop stop-color="#1DFFF2" offset="87.6%"/><stop stop-color="#12FFF7" offset="100%"/></linearGradient><linearGradient x1="-272.703226%" y1="-146.680886%" x2="807.941935%" y2="518.139058%" id="H"><stop stop-color="#B3FFAB" offset=".537634%"/><stop stop-color="#B1FFAC" offset="1.284804%"/><stop stop-color="#6EFFCC" offset="36.23%"/><stop stop-color="#3CFFE3" offset="65.49%"/><stop stop-color="#1DFFF2" offset="87.6%"/><stop stop-color="#12FFF7" offset="100%"/></linearGradient><linearGradient x1="-282.573381%" y1="-200.562985%" x2="681.455396%" y2="515.854925%" id="I"><stop stop-color="#B3FFAB" offset=".537634%"/><stop stop-color="#B1FFAC" offset="1.284804%"/><stop stop-color="#6EFFCC" offset="36.23%"/><stop stop-color="#3CFFE3" offset="65.49%"/><stop stop-color="#1DFFF2" offset="87.6%"/><stop stop-color="#12FFF7" offset="100%"/></linearGradient><linearGradient x1="-393.200806%" y1="-261.897403%" x2="687.444355%" y2="517.323377%" id="J"><stop stop-color="#B3FFAB" offset=".537634%"/><stop stop-color="#B1FFAC" offset="1.284804%"/><stop stop-color="#6EFFCC" offset="36.23%"/><stop stop-color="#3CFFE3" offset="65.49%"/><stop stop-color="#1DFFF2" offset="87.6%"/><stop stop-color="#12FFF7" offset="100%"/></linearGradient><linearGradient x1="-481.690083%" y1="-256.318508%" x2="625.747934%" y2="406.664917%" id="K"><stop stop-color="#B3FFAB" offset=".537634%"/><stop stop-color="#B1FFAC" offset="1.284804%"/><stop stop-color="#6EFFCC" offset="36.23%"/><stop stop-color="#3CFFE3" offset="65.49%"/><stop stop-color="#1DFFF2" offset="87.6%"/><stop stop-color="#12FFF7" offset="100%"/></linearGradient><linearGradient x1="-1467.91556%" y1="-326.116258%" x2="1509.86222%" y2="410.080061%" id="L"><stop stop-color="#B3FFAB" offset=".537634%"/><stop stop-color="#B1FFAC" offset="1.284804%"/><stop stop-color="#6EFFCC" offset="36.23%"/><stop stop-color="#3CFFE3" offset="65.49%"/><stop stop-color="#1DFFF2" offset="87.6%"/><stop stop-color="#12FFF7" offset="100%"/></linearGradient><linearGradient x1="-413.183951%" y1="-275.066507%" x2="413.976543%" y2="299.096172%" id="M"><stop stop-color="#B3FFAB" offset=".537634%"/><stop stop-color="#B1FFAC" offset="1.284804%"/><stop stop-color="#6EFFCC" offset="36.23%"/><stop stop-color="#3CFFE3" offset="65.49%"/><stop stop-color="#1DFFF2" offset="87.6%"/><stop stop-color="#12FFF7" offset="100%"/></linearGradient><linearGradient x1="0.0106084151%" y1="50.152459%" x2="99.9317582%" y2="50.152459%" id="N"><stop stop-color="#3C8CE7" offset=".537634%"/><stop stop-color="#3A8FE8" offset="2.956713%"/><stop stop-color="#1BC0F4" offset="47.32%"/><stop stop-color="#07DFFC" offset="81.06%"/><stop stop-color="#00EAFF" offset="100%"/></linearGradient><linearGradient x1="-0.0754098361%" y1="50.1755352%" x2="100.144991%" y2="50.1755352%" id="O"><stop stop-color="#130CB7" offset=".537634%"/><stop stop-color="#285ECD" offset="28.23%"/><stop stop-color="#3AA3DF" offset="53.8%"/><stop stop-color="#47D5ED" offset="75%"/><stop stop-color="#4FF4F5" offset="91.02%"/><stop stop-color="#52FFF8" offset="100%"/></linearGradient><linearGradient x1="39.4072425%" y1="16.4930544%" x2="58.636802%" y2="88.2029933%" id="P"><stop stop-color="#3C8CE7" offset=".537634%"/><stop stop-color="#3A8FE8" offset="2.956713%"/><stop stop-color="#1BC0F4" offset="47.32%"/><stop stop-color="#07DFFC" offset="81.06%"/><stop stop-color="#00EAFF" offset="100%"/></linearGradient></defs><path d="M87.28 124.643L11.328 77.738c-1.35-.81-2.448-2.984-2.448-4.833v-49.1l36.218-9.212c1.193-.292 2.417.13 3.2 1.103C55.55 24.8 91.423 69.953 91.423 71.64v50.505c-.03 1.88-2.793 3.31-4.143 2.498z" fill="url(#A)"/><path d="M87.28 124.643L9.664 78.322c-1.35-.81-2.448-2.984-2.448-4.833V22.984l37.13-8.24c.7-.162 1.412.097 1.883.68 5.775 7.298 43.5 55.08 43.5 56.798v50.505c0 1.85-1.098 2.725-2.448 1.914z" fill="url(#B)"/><path d="M72.53 111.635l-49.934-29.8V22.14l49.934 29.8z" fill="url(#C)"/><path d="M89.728 72.224L50.12 75.305l39.608 47.423z" fill="url(#D)"/><path d="M38.35 69.37L7.185 22.984V73.49z" fill="url(#E)"/><path d="M7.185 73.49l33.268-4.38c2.51-.324 5.022.65 6.685 2.66l42.6 50.96s.47 2.595-2.448 1.914L9.664 78.322s-1.726-1.168-2.48-4.833z" fill="url(#F)"/><path d="M35.526 38.75l-1.412-.843v5.968l-1.79-7.04-1.35-.81V46.6l1.38.616V41.44l1.632 6.487 1.506.68.03-9.86" fill="url(#G)"/><path d="M40.736 41.863l-3.86-2.303v9.73l3.892 1.98v-1.622l-2.48-1.297v-2.465l1.883 1.103v-1.654l-1.883-1.103v-2.238l1.13.68c.063.032.126.065.188.13.063.032.126.065.188.13l.942.55v-1.622" fill="url(#H)"/><path d="M45.946 44.977l-4.3-2.563v1.622l.188.097.565.324c.188.13.377.227.565.324.063.032.094.065.157.097v7.623l1.412.778v-7.6l1.475.876c-.063-.422-.063-1.135-.063-1.59" fill="url(#I)"/><path d="M50.748 47.83l-3.892-2.335v9.18l.44.26.942.55V51.69c.063.032.157.097.22.13.188.097.377.227.534.324l1.13.65v-1.622c-.188-.097-.345-.227-.534-.324l-.565-.357c-.188-.13-.377-.227-.565-.324-.063-.032-.157-.097-.22-.13v-2.14l.44.26c.157.097.314.195.47.26l.47.292 1.13.68V47.83" fill="url(#J)"/><path d="M51.658 48.383v9.277l3.798 2.465v-1.622l-2.385-1.59v-7.688l-1.412-.843" fill="url(#K)"/><path d="M56.585 51.335l.03 9.6 1.38.973v-9.73l-1.412-.843" fill="url(#L)"/><path d="M59.2 52.892l1.632 5.936-1.79 3.795 1.475 1.103 1.004-2.238 1.004 3.73 1.6 1.233-1.82-6.682 1.82-3.892-1.538-.908-1.004 2.173-.9-3.31c-.47-.357-.973-.65-1.475-.94" fill="url(#M)"/><path d="M81.788 35.187l3.803-1.914s-.71 3.6 2.72 3.6S94.465 35.35 97 41.252l-3.617 1.914s.557-4.735-3.988-3.243c-4.545 1.524-8.162-1.88-7.606-4.735z" fill="url(#N)"/><path d="M0 0h3.264s.373 1.947 4.352 1.155c4-.76 8.92 5.6 9.45 8.68l-4.725.957s-1.834-6.963-5.47-6.963C3.264 3.86.528 2.145 0 0z" fill="url(#O)"/><path d="M34.766 106.115l2.957 3.18s-3.078 2.216-5.395 1.574c-2.316-.6-3.75.16-4.023 2.44l-4.054-2.44s2.743-3.02 4.724-2.634c2.012.418 4.48.096 5.79-2.12z" fill="url(#P)"/></svg>