<svg xmlns="http://www.w3.org/2000/svg" width="136" height="106"><defs><linearGradient x1="21.1320896%" y1="129.791369%" x2="92.5242957%" y2="-67.5393883%" id="A"><stop stop-color="#12FFF7" offset="0%"/><stop stop-color="#B1FFAC" offset="100%"/></linearGradient><linearGradient x1="15.4483814%" y1="50.071048%" x2="115.50185%" y2="50.071048%" id="B"><stop stop-color="#130CB7" offset="1%"/><stop stop-color="#285ECD" offset="28%"/><stop stop-color="#3AA3DF" offset="54%"/><stop stop-color="#47D5ED" offset="75%"/><stop stop-color="#4FF4F5" offset="91%"/><stop stop-color="#52FFF8" offset="100%"/></linearGradient><linearGradient x1="-82.8077415%" y1="-17.4046706%" x2="64.5002811%" y2="57.351816%" id="C"><stop stop-color="#00EAFF" offset="0%"/><stop stop-color="#07DFFC" offset="19%"/><stop stop-color="#1BC0F4" offset="53%"/><stop stop-color="#3A8FE8" offset="97%"/><stop stop-color="#3C8CE7" offset="99%"/></linearGradient><linearGradient x1="-82.8050565%" y1="-17.3903192%" x2="64.5075083%" y2="57.351816%" id="D"><stop stop-color="#00EAFF" offset="0%"/><stop stop-color="#07DFFC" offset="19%"/><stop stop-color="#1BC0F4" offset="53%"/><stop stop-color="#3A8FE8" offset="97%"/><stop stop-color="#3C8CE7" offset="99%"/></linearGradient><linearGradient x1="21.1255149%" y1="129.712257%" x2="92.5197307%" y2="-67.5029084%" id="E"><stop stop-color="#12FFF7" offset="0%"/><stop stop-color="#B1FFAC" offset="100%"/></linearGradient><linearGradient x1="15.4187146%" y1="50.071048%" x2="115.501283%" y2="50.071048%" id="F"><stop stop-color="#130CB7" offset="1%"/><stop stop-color="#285ECD" offset="28%"/><stop stop-color="#3AA3DF" offset="54%"/><stop stop-color="#47D5ED" offset="75%"/><stop stop-color="#4FF4F5" offset="91%"/><stop stop-color="#52FFF8" offset="100%"/></linearGradient><linearGradient x1="0%" y1="50.0371747%" x2="100.028531%" y2="50.0371747%" id="G"><stop stop-color="#B3FFAB" offset="1%"/><stop stop-color="#B1FFAC" offset="1%"/><stop stop-color="#6EFFCC" offset="36%"/><stop stop-color="#3CFFE3" offset="65%"/><stop stop-color="#1DFFF2" offset="88%"/><stop stop-color="#12FFF7" offset="100%"/></linearGradient></defs><path d="M121.29 34.454l-3.124-1.954c-23.522-13.56-61.53-13.56-84.906 0s-23.24 35.554.275 49.114c1.098.634 2.225 1.237 3.38 1.81 23.65 11.726 59.213 11.143 81.525-1.81s23.205-33.523 2.85-47.16z" fill="url(#A)"/><path d="M135.837 58.29c0 .3 0 .61-.06.91s-.06.523-.103.79l-.137.9-.163.79a11.37 11.37 0 0 1-.215.857l-.232.797-.292.857-.463 1.234-.712 1.526-.05.103-.8 1.423-.13.223-.858 1.363-.18.25-1.004 1.346-.206.25-.978 1.15-.275.3-1.253 1.303-.25.24-1.013.943-.858.754-.858.686-1.802 1.406-1.02.72-.953.643-1.098.694-1.4.857-1.905 1.054-.55.283-1.545.78-.472.23-2.017.917-.43.18-1.716.694-.61.24-1.922.71-.223.086-2.094.694-1.716.514-.953.283-2.128.566-.54.146-2.73.626-.772.154-1.99.394-2.3.394-.48.07-1.948.283-.695.086-2.137.24h-.798l-2.574.214-1.03.06-2.068.11h-7.054l-1.716-.07-1.167-.05c-.6 0-1.2-.077-1.794-.13l-1.03.07-2.128-.214-.695-.07-2.806-.35-.575-.086-2.266-.36-1.013-.17-1.802-.343-1.013-.214-1.974-.454-1.056-.257-1.948-.514-1.073-.29-.67-.206-1.673-.523-.618-.197-2.446-.857-1.76-.686-1.716-.71-.858-.35-2.446-1.14-3.38-1.81c-11.774-6.823-17.678-15.78-17.618-24.73l-.043 13.43c0 8.94 5.887 17.906 17.72 24.73 1.098.634 2.225 1.234 3.38 1.8.798.403 1.613.78 2.437 1.15l.858.35 1.716.71.318.13 1.45.557.257.094c.72.266 1.45.514 2.18.763l.618.197 1.716.523.67.197.412.13.66.17a64.57 64.57 0 0 0 1.948.514l1.047.257 1.982.446.66.154.343.06 2.806.53 2.283.36c.172 0 .335.05.506.077h.05l2.815.35.67.07 2.154.206h.146l.858.06 1.794.12 1.176.06 1.716.06H80.1c.695 0 1.382-.06 2.077-.103l1.03-.06 2.574-.214h.798c.712-.07 1.425-.154 2.128-.24l.695-.094 1.957-.274.48-.077c.695-.103 1.4-.223 2.085-.35h.206l1.99-.394.78-.154c.9-.197 1.82-.41 2.72-.634l.54-.137 2.137-.574c.318-.086.626-.19.944-.283l1.716-.506.283-.086 1.82-.617.215-.077 1.93-.71.61-.24 1.716-.694.438-.18 2.008-.917.472-.23 1.553-.78.55-.283a57.09 57.09 0 0 0 1.897-1.054l.747-.437.652-.41 1.1-.694.96-.643 1.013-.72c.31-.223.6-.446.858-.67s.644-.49.944-.737l.858-.686.858-.763.37-.317.644-.617c.08-.084.162-.164.25-.24.438-.43.858-.857 1.253-1.303l.275-.31c.335-.377.66-.763.978-1.15l.206-.25.094-.11c.318-.41.618-.857.9-1.226l.18-.257c.31-.446.61-.857.858-1.363l.13-.214.31-.523.49-.857a.52.52 0 0 0 0-.103 27.36 27.36 0 0 0 .721-1.526 17.84 17.84 0 0 0 .343-.857c.05-.13.086-.25.13-.37a21.37 21.37 0 0 0 .283-.857c.086-.257.163-.523.232-.79l.215-.857c0-.163.086-.317.12-.47s0-.214 0-.326c.06-.3.103-.6.146-.857s.07-.523.094-.78.05-.61.07-.91 0-.35 0-.53v-.523l.043-13.43c.12.086.094.437.07.79z" fill="url(#B)"/><path d="M115.602 76.206c-7.363 4.2-8.204 4.586-9.07 4.954-10.418 4.43-23.102 6.31-35.45 5.63-11.568-.91-20.596-3.12-28.165-6.78-.97-.463-1.905-.95-2.815-1.457-20.845-12-20.948-30.97-.858-42.617s52.837-11.65 73.03 0c1.382.814 2.29 1.397 3.158 1.997 7.766 5.357 11.782 11.923 12.014 18.53-.154 7.766-4.102 14.39-11.843 19.74z" fill="url(#C)"/><path d="M100.602 54.463c-7.363 4.19-8.213 4.577-9.07 4.946-10.427 4.43-23.102 6.31-35.45 5.63-11.577-.91-20.596-3.12-28.173-6.78a57.96 57.96 0 0 1-2.815-1.457c-20.836-12-20.948-30.97-.858-42.617s52.837-11.65 73.038 0c1.382.857 2.29 1.397 3.15 1.997 7.723 5.357 11.79 11.923 12.014 18.53-.15 7.77-4.093 14.354-11.834 19.75z" fill="url(#D)"/><path d="M106.29 12.703l-3.124-1.946c-23.522-13.57-61.538-13.57-84.906 0s-23.247 35.53.275 49.114c1.098.657 2.225 1.27 3.38 1.843 23.642 11.726 59.213 11.143 81.525-1.81s23.196-33.557 2.85-47.203zm-9.182 43.26l-.223.13c-.077.05-.154.094-3.364 1.783-.858.403-1.648.78-2.506 1.14C80.778 63.377 68.3 65.23 53.9 64.397c-8.8-.607-17.436-2.815-25.453-6.514-.987-.454-1.845-.934-3.184-1.663l-.215-.12c-19.9-11.46-19.978-30.11-.24-41.53s51.98-11.46 72.257.24a42.48 42.48 0 0 1 2.686 1.714C107.4 21.8 111.346 28.25 111.62 35.88c-.172 6.49-4.05 12.977-14.51 20.083z" fill="url(#E)" fill-rule="nonzero"/><path d="M120.837 36.54c0 .31 0 .61-.07.91s-.06.523-.094.79l-.146.857-.163.79-.215.857-.232.797-.283.857-.472 1.234-.72 1.534-.043.094-.798 1.423-.13.223-.858 1.363-.18.257-1.004 1.337-.206.25-.978 1.15-.275.3-1.253 1.303-.3.283-1.013.943-.858.754-.858.686-.944.746-.858.66-1.013.72-.96.643-1.1.694-1.4.857-1.897 1.054-.55.29-1.553.77-.472.23-2.008.917-.438.18-1.716.694-.6.24-1.93.71-.223.086-2.094.694-1.673.514-.953.283-2.677.71-2.72.626-.772.154-2 .394-2.29.394-.48.07-1.957.283-.695.086-2.128.25h-.798l-2.574.214-1.038.07-2.06.103H58.09l-1.716-.07-1.16-.05-1.802-.12-1.047-.077-2.137-.206-.695-.07-2.798-.36-.584-.086-2.266-.36-.978-.043-1.81-.343-1.004-.214-1.982-.454-1.047-.257-1.948-.514-1.073-.29-2.343-.72-.626-.206-2.18-.754-.257-.103-1.768-.686-1.716-.71-.815-.35-2.437-1.14-3.38-1.81C6.702 53.05.8 44.09.858 35.143V48.574c0 8.95 5.878 17.906 17.72 24.73 1.087.634 2.21 1.234 3.373 1.8.798.403 1.613.78 2.446 1.15l.815.35 1.716.71.318.137c.472.19.96.37 1.45.55l.257.094c.72.266 1.442.514 2.18.763l.618.197 1.716.523.66.197.412.13.66.17a72.11 72.11 0 0 0 1.948.514l1.056.257 1.974.446.67.154.343.06a41.76 41.76 0 0 0 1.802.343l1.004.19 2.274.36.515.077h.05l2.806.35.678.07 2.154.206h.146l.858.06 1.794.12 1.176.06 1.716.06h7.088c.695 0 1.382-.06 2.068-.103l1.03-.06 2.574-.214h.798c.712-.07 1.425-.154 2.137-.24l.695-.094 1.82-.403.48-.07 2.094-.36h.206l2.763-.55a90.44 90.44 0 0 0 2.729-.634l.54-.137 2.137-.574.935-.274 1.716-.514.275-.086a56.57 56.57 0 0 0 1.819-.617l.215-.077 1.93-.71.61-.24 1.716-.694.438-.18 2.017-.917.472-.23 1.545-.78.55-.283a60.6 60.6 0 0 0 1.905-1.054l.738-.437 1.75-1.106.953-.643 1.02-.72 1.802-1.406.858-.686c.3-.23.584-.506.858-.763l.37-.317.644-.617.257-.24c.43-.43.858-.857 1.244-1.303l.275-.31c.343-.377.67-.763.978-1.15a2.88 2.88 0 0 0 .206-.249l.094-.11c.326-.403.626-.857.9-1.226l.18-.257c.318-.446.61-.857.858-1.363l.13-.214.31-.523.48-.857.05-.103a22.24 22.24 0 0 0 .712-1.526l.343-.857.12-.37.292-.857.232-.79.215-.857c0-.163.077-.317.112-.47s0-.214.05-.326l.137-.857c.034-.257.077-.523.103-.78s.05-.61.07-.91 0-.35 0-.53V35.623c.06.214.034.566.017.917z" fill="url(#F)"/><path d="M84.408 46.834l-5.15-2.94-2.386 1.38 5.106 2.95-4.9 2.846-5.15-2.95-6.702 3.9-4.29-2.477 2.386-3.077-23.308-13.483-5.32 1.39-4.402-2.57 6.702-3.89-7.63-4.406 6.78-1.714 5.544 3.206 2.49-1.44-7.638-4.406 7.045-1.714 3.484 1.997 2.24 1.31c6.247-3.12 10.993-2.41 14.39-1.39.953.293 1.867.702 2.72 1.217a8.43 8.43 0 0 1 3.433 3.334c.66 1.39.61 2.51-1.133 4.946 7.346-2.57 12.28-1.09 15.078.523l.197.12c2.763 1.663 3.827 2.81 4.36 5.417s-3.94 5.734-4.17 5.897l5.338 3.086-5.115 2.94zm-13.447-4.97l4.402-2.57c2.025-1.174 3.845-3.917.49-5.854a8.77 8.77 0 0 0-9.68 0l-4.85 2.854 9.637 5.554v.017zm-14.932-8.59l3.802-2.21c1.716-1.01 3.32-3.386.42-5.057-2.534-1.676-5.825-1.676-8.358 0l-4.196 2.47 8.333 4.8z" fill="url(#G)" fill-rule="nonzero"/></svg>