<svg xmlns="http://www.w3.org/2000/svg" xmlns:xlink="http://www.w3.org/1999/xlink" width="188" height="125"><defs><linearGradient x1="12.7584894%" y1="-31.6027332%" x2="96.6277208%" y2="109.920247%" id="A"><stop stop-color="#130CB7" offset=".537634%"/><stop stop-color="#285ECD" offset="28.23%"/><stop stop-color="#3AA3DF" offset="53.8%"/><stop stop-color="#47D5ED" offset="75%"/><stop stop-color="#4FF4F5" offset="91.02%"/><stop stop-color="#52FFF8" offset="100%"/></linearGradient><linearGradient x1="20.0940142%" y1="-21.9202685%" x2="115.771034%" y2="156.603221%" id="B"><stop stop-color="#130CB7" offset=".537634%"/><stop stop-color="#285ECD" offset="28.23%"/><stop stop-color="#3AA3DF" offset="53.8%"/><stop stop-color="#47D5ED" offset="75%"/><stop stop-color="#4FF4F5" offset="91.02%"/><stop stop-color="#52FFF8" offset="100%"/></linearGradient><linearGradient x1="-8.82476247%" y1="-102.712647%" x2="105.783373%" y2="139.444314%" id="C"><stop stop-color="#130CB7" offset=".537634%"/><stop stop-color="#285ECD" offset="28.23%"/><stop stop-color="#3AA3DF" offset="53.8%"/><stop stop-color="#47D5ED" offset="75%"/><stop stop-color="#4FF4F5" offset="91.02%"/><stop stop-color="#52FFF8" offset="100%"/></linearGradient><linearGradient x1="16.2424308%" y1="49.9977373%" x2="140.689807%" y2="49.9977373%" id="D"><stop stop-color="#3C8CE7" offset=".537634%"/><stop stop-color="#3A8FE8" offset="2.956713%"/><stop stop-color="#1BC0F4" offset="47.32%"/><stop stop-color="#07DFFC" offset="81.06%"/><stop stop-color="#00EAFF" offset="100%"/></linearGradient><linearGradient x1="-81.3065606%" y1="-121.268409%" x2="232.685489%" y2="287.28266%" id="E"><stop stop-color="#B3FFAB" offset=".537634%"/><stop stop-color="#B1FFAC" offset="1.284804%"/><stop stop-color="#6EFFCC" offset="36.23%"/><stop stop-color="#3CFFE3" offset="65.49%"/><stop stop-color="#1DFFF2" offset="87.6%"/><stop stop-color="#12FFF7" offset="100%"/></linearGradient><linearGradient x1="-129.839902%" y1="-184.39715%" x2="184.152148%" y2="224.153919%" id="F"><stop stop-color="#B3FFAB" offset=".537634%"/><stop stop-color="#B1FFAC" offset="1.284804%"/><stop stop-color="#6EFFCC" offset="36.23%"/><stop stop-color="#3CFFE3" offset="65.49%"/><stop stop-color="#1DFFF2" offset="87.6%"/><stop stop-color="#12FFF7" offset="100%"/></linearGradient><linearGradient x1="-167.825295%" y1="-233.787173%" x2="146.166755%" y2="174.763895%" id="G"><stop stop-color="#B3FFAB" offset=".537634%"/><stop stop-color="#B1FFAC" offset="1.284804%"/><stop stop-color="#6EFFCC" offset="36.23%"/><stop stop-color="#3CFFE3" offset="65.49%"/><stop stop-color="#1DFFF2" offset="87.6%"/><stop stop-color="#12FFF7" offset="100%"/></linearGradient><linearGradient x1="-41.2059533%" y1="-69.1776722%" x2="272.786097%" y2="339.373397%" id="H"><stop stop-color="#B3FFAB" offset=".537634%"/><stop stop-color="#B1FFAC" offset="1.284804%"/><stop stop-color="#6EFFCC" offset="36.23%"/><stop stop-color="#3CFFE3" offset="65.49%"/><stop stop-color="#1DFFF2" offset="87.6%"/><stop stop-color="#12FFF7" offset="100%"/></linearGradient><linearGradient x1="-24.2286143%" y1="-65.0152143%" x2="157.815761%" y2="217.692027%" id="I"><stop stop-color="#B3FFAB" offset=".537634%"/><stop stop-color="#B1FFAC" offset="1.284804%"/><stop stop-color="#6EFFCC" offset="36.23%"/><stop stop-color="#3CFFE3" offset="65.49%"/><stop stop-color="#1DFFF2" offset="87.6%"/><stop stop-color="#12FFF7" offset="100%"/></linearGradient><linearGradient x1="0.11291785%" y1="50.2050477%" x2="100.066314%" y2="50.2050477%" id="J"><stop stop-color="#130CB7" offset=".537634%"/><stop stop-color="#285ECD" offset="28.23%"/><stop stop-color="#3AA3DF" offset="53.8%"/><stop stop-color="#47D5ED" offset="75%"/><stop stop-color="#4FF4F5" offset="91.02%"/><stop stop-color="#52FFF8" offset="100%"/></linearGradient><linearGradient x1="-5.96065129%" y1="-8.8112066%" x2="99.768839%" y2="102.583068%" id="K"><stop stop-color="#B3FFAB" offset=".537634%"/><stop stop-color="#B1FFAC" offset="1.284804%"/><stop stop-color="#6EFFCC" offset="36.23%"/><stop stop-color="#3CFFE3" offset="65.49%"/><stop stop-color="#1DFFF2" offset="87.6%"/><stop stop-color="#12FFF7" offset="100%"/></linearGradient><linearGradient x1="0.16188056%" y1="49.8896281%" x2="100.108953%" y2="49.8896281%" id="L"><stop stop-color="#130CB7" offset=".537634%"/><stop stop-color="#285ECD" offset="28.23%"/><stop stop-color="#3AA3DF" offset="53.8%"/><stop stop-color="#47D5ED" offset="75%"/><stop stop-color="#4FF4F5" offset="91.02%"/><stop stop-color="#52FFF8" offset="100%"/></linearGradient><linearGradient x1="25.2671396%" y1="5.93584076%" x2="77.333187%" y2="98.8589939%" id="M"><stop stop-color="#B3FFAB" offset=".537634%"/><stop stop-color="#B1FFAC" offset="1.284804%"/><stop stop-color="#6EFFCC" offset="36.23%"/><stop stop-color="#3CFFE3" offset="65.49%"/><stop stop-color="#1DFFF2" offset="87.6%"/><stop stop-color="#12FFF7" offset="100%"/></linearGradient><linearGradient x1="-0.19892842%" y1="49.8422619%" x2="99.8457137%" y2="49.8422619%" id="N"><stop stop-color="#130CB7" offset=".537634%"/><stop stop-color="#285ECD" offset="28.23%"/><stop stop-color="#3AA3DF" offset="53.8%"/><stop stop-color="#47D5ED" offset="75%"/><stop stop-color="#4FF4F5" offset="91.02%"/><stop stop-color="#52FFF8" offset="100%"/></linearGradient><linearGradient x1="0.0443399795%" y1="49.8487461%" x2="99.9138966%" y2="49.8487461%" id="O"><stop stop-color="#130CB7" offset=".537634%"/><stop stop-color="#285ECD" offset="28.23%"/><stop stop-color="#3AA3DF" offset="53.8%"/><stop stop-color="#47D5ED" offset="75%"/><stop stop-color="#4FF4F5" offset="91.02%"/><stop stop-color="#52FFF8" offset="100%"/></linearGradient><linearGradient x1="-0.119924457%" y1="49.7244186%" x2="99.8054769%" y2="49.7244186%" id="P"><stop stop-color="#130CB7" offset=".537634%"/><stop stop-color="#285ECD" offset="28.23%"/><stop stop-color="#3AA3DF" offset="53.8%"/><stop stop-color="#47D5ED" offset="75%"/><stop stop-color="#4FF4F5" offset="91.02%"/><stop stop-color="#52FFF8" offset="100%"/></linearGradient><linearGradient x1="8.64442208%" y1="-21.8813701%" x2="110.466286%" y2="154.201901%" id="Q"><stop stop-color="#B3FFAB" offset=".537634%"/><stop stop-color="#B1FFAC" offset="1.284804%"/><stop stop-color="#6EFFCC" offset="36.23%"/><stop stop-color="#3CFFE3" offset="65.49%"/><stop stop-color="#1DFFF2" offset="87.6%"/><stop stop-color="#12FFF7" offset="100%"/></linearGradient><path id="R" d="M104.41 26.425c-3.15 1.803-8.295 1.803-11.49 0s-3.194-4.75-.044-6.554 8.295-1.803 11.49 0 3.194 4.75.044 6.554z"/><path id="S" d="M126.458 14.85c-3.15 1.803-8.295 1.803-11.49 0s-3.194-4.75-.044-6.554 8.295-1.803 11.49 0 3.194 4.707.044 6.554z"/></defs><g fill-rule="nonzero"><path d="M.3 59.488s-2.154 23.88 5.11 32.138 36.155 33.67 61.667 33.372c0 0 14.065-.255 14.276-15.92.253-15.622 7.898-26.647 28.257-35.84s32.227-8.896 46.503-8.556c14.276.298 30.37-.596 30.707-13.494.296-12.855-2.703-17.622-2.703-17.622l-90.26 22.518L.3 59.488z" fill="url(#A)"/><path d="M119.53 53.096s7.223-2.87 18.14 12.876c0 0 4.703-1.087 19.78-.61s30.193-.826 30.53-13.79c.294-12.92-2.688-18.01-2.688-18.01l-65.76 19.53z" fill="url(#B)"/><path d="M11.605 81.02S13.58 97.56 25.982 108.14c0 0 20.43 15.534 41.112 15.702 0 0 13.998-.252 14.208-15.702.252-15.408 1.093-18.6 1.093-18.6l-70.8-8.523z" fill="url(#C)"/><path d="M164.484 17.814S125.547-4.174 95.042.707 71.528 16.88 51.7 28.765C36.49 37.85-6.473 42.858 2.34 66.97s54.867 42.448 66.73 41.81 11.44-4.287 13.643-15.578 18.98-37.864 41.818-42.15 54.57 0 61.265-10.06c6.737-10.06-21.31-23.177-21.31-23.177z" fill="url(#D)"/><use xlink:href="#R" fill="url(#E)"/><use xlink:href="#S" fill="url(#F)"/><use xlink:href="#R" x="22.048" fill="url(#G)"/><use xlink:href="#S" x="-22.048" fill="url(#H)"/><path d="M77.706 41.96c-4.732 2.7-12.465 2.7-17.24-.042-4.775-2.7-4.817-7.105-.042-9.806 4.732-2.7 12.465-2.7 17.24.042 4.732 2.742 4.775 7.147.042 9.806z" fill="url(#I)"/><path d="M44.365 48.61s1.984 3.42.04 6.758-7.233 4.857-13.308 4.815c-4.67 0-15.54-3.04-11.738-11.573h25.005z" fill="url(#J)"/><path d="M40.372 54.524c-4.976 2.925-13.074 2.925-18.05-.043s-5.02-7.7-.042-10.626 13.074-2.925 18.05.043c5.02 2.968 5.02 7.7.042 10.626z" fill="url(#K)"/><path d="M129.08 35.88s1.985 3.437.04 6.79-8.312 6.025-13.026 5.94-15.838-4.116-12.033-12.687h25.018v-.042z" fill="url(#L)"/><path d="M126.278 41.793c-4.98 2.925-13.082 2.925-18.06-.043-5.022-2.968-5.022-7.7-.042-10.626s13.082-2.925 18.06.043 4.98 7.7.042 10.626z" fill="url(#M)"/><path d="M54.557 59.028s-.16 2.852.6 3.472l5.39 3.472.958-1.777-6.95-5.167z" fill="url(#N)"/><path d="M55.023 68.562s-1.05 2.506-.042 3.634 3.5 2.09 5.172 1.838c.925-.125 7.822-4.51 7.822-4.51l7.57 4.344c.8.25 2.565.334 4.247-.668s1.43-4.135 1.43-4.135l-9.504-3.09H67.68l-12.657 2.6z" fill="url(#O)"/><path d="M81.2 59.028s.22 2.463-.438 3.27-5.83 3.674-5.83 3.674l-2.98-2.826 9.25-4.118z" fill="url(#P)"/><path d="M67.946 60.6l-7.67-4.727s-2.023-1.107-4.51.81c-2.486 1.96-.42 2.938-.42 2.938l6.573 4.003-6.7 4.088s-1.517 1.15.97 2.598 3.624 1.533 5.393.468l6.405-3.875 7.247 4.43s1.643 1.32 4.466-.68c2.78-2 .927-2.938.927-2.938l-6.657-4.046 7.08-4.26s.674-1.405-1.56-2.768c-2.233-1.32-3.96-.937-5.183-.17l-6.363 4.13z" fill="url(#Q)"/></g></svg>