<svg xmlns="http://www.w3.org/2000/svg" width="99" height="125"><defs><linearGradient x1="0.0124706327%" y1="49.9928931%" x2="100.008559%" y2="49.9928931%" id="A"><stop stop-color="#130CB7" offset=".537634%"/><stop stop-color="#285ECD" offset="28.23%"/><stop stop-color="#3AA3DF" offset="53.8%"/><stop stop-color="#47D5ED" offset="75%"/><stop stop-color="#4FF4F5" offset="91.02%"/><stop stop-color="#52FFF8" offset="100%"/></linearGradient><linearGradient x1="-0.0876214856%" y1="50.0146199%" x2="99.9323101%" y2="50.0146199%" id="B"><stop stop-color="#130CB7" offset=".537634%"/><stop stop-color="#285ECD" offset="28.23%"/><stop stop-color="#3AA3DF" offset="53.8%"/><stop stop-color="#47D5ED" offset="75%"/><stop stop-color="#4FF4F5" offset="91.02%"/><stop stop-color="#52FFF8" offset="100%"/></linearGradient><linearGradient x1="70.2304273%" y1="144.184598%" x2="42.8348164%" y2="-10.9610922%" id="C"><stop stop-color="#3C8CE7" offset=".537634%"/><stop stop-color="#3A8FE8" offset="2.956713%"/><stop stop-color="#1BC0F4" offset="47.32%"/><stop stop-color="#07DFFC" offset="81.06%"/><stop stop-color="#00EAFF" offset="100%"/></linearGradient><linearGradient x1="28.1939042%" y1="-72.9424936%" x2="84.0719884%" y2="241.993384%" id="D"><stop stop-color="#130CB7" offset=".537634%"/><stop stop-color="#285ECD" offset="28.23%"/><stop stop-color="#3AA3DF" offset="53.8%"/><stop stop-color="#47D5ED" offset="75%"/><stop stop-color="#4FF4F5" offset="91.02%"/><stop stop-color="#52FFF8" offset="100%"/></linearGradient><linearGradient x1="22.7030325%" y1="-23.5076007%" x2="104.803624%" y2="198.104121%" id="E"><stop stop-color="#130CB7" offset=".537634%"/><stop stop-color="#285ECD" offset="28.23%"/><stop stop-color="#3AA3DF" offset="53.8%"/><stop stop-color="#47D5ED" offset="75%"/><stop stop-color="#4FF4F5" offset="91.02%"/><stop stop-color="#52FFF8" offset="100%"/></linearGradient><linearGradient x1="-8.96597717%" y1="-34.0761996%" x2="107.42215%" y2="116.17288%" id="F"><stop stop-color="#B1FFAC" offset="0%"/><stop stop-color="#12FFF7" offset="100%"/></linearGradient><linearGradient x1="50.2338412%" y1="-4.018466%" x2="48.3871191%" y2="165.799363%" id="G"><stop stop-color="#3C8CE7" offset=".537634%"/><stop stop-color="#3A8FE8" offset="2.956713%"/><stop stop-color="#1BC0F4" offset="47.32%"/><stop stop-color="#07DFFC" offset="81.06%"/><stop stop-color="#00EAFF" offset="100%"/></linearGradient></defs><path d="M89.607 51.758l8.536-4.727s10.796 76.758-54.02 77.5l45.485-72.773z" fill="url(#A)"/><path d="M92.49 94.023s-3.235 4.297-8.887 5.625c0 0-8.458 16.406-17.773 21.094-.04 0 17.46-4.648 26.66-26.72z" fill="url(#B)"/><path d="M89.607 51.758s7.64 77.227-45.485 72.773c0 0-48.292-42.695-43.42-118.906l44.745 8.398 44.16 37.734z" fill="url(#C)"/><path d="M.702 5.625s19.293 10.78 44.745 8.398l8.965-4.922S30.168 11.836 10.25.352L.702 5.625z" fill="url(#D)"/><path d="M45.446 13.984s27.83 30.625 44.16 37.773l8.536-4.727S75.07 35 54.41 9.102l-8.965 4.883z" fill="url(#E)"/><path d="M78.46 56.953s5.924 59.688-35.157 56.25c0 0-37.34-32.97-33.56-91.914 0 0 22.294 7.344 32.935 4.96 7.873 13.516 35.78 30.703 35.78 30.703z" fill="url(#F)"/><path d="M20 44.08l3.055 1.768 4.74 15.48 4.74-10.018 2.977 1.73-6.54 12.886-2.428-1.414zm18.252 10.527l6.227 3.614c3.682 2.12 5.993 5.657 5.993 9.036 0 3.732-2.82 4.007-6.306 2.004l-3.133-1.807v5.343l-2.78-1.6v-16.58zm5.953 12.1c2.076 1.218 3.407.746 3.407-1.02 0-1.925-1.332-3.732-3.407-4.9l-3.212-1.846v5.97l3.212 1.807zM51.5 66l2.916 1.33 9.5 14.562V71.67L67 73.07v14.772l-2.607-1.2-9.8-14.982v10.5l-3.093-1.4z" fill="#2E76D3"/><path d="M79.352 67.365s2.094 49.735-36.183 47.01c0 0-27.65-23.74-33.235-66.04L4 46s7.485 45.26 39.79 76.666c0 0 40.488 7.783 44.21-51.76l-8.648-3.54z" fill="url(#G)"/></svg>