<svg xmlns="http://www.w3.org/2000/svg" width="159" height="123"><defs><linearGradient x1="-54.4684773%" y1="127.660847%" x2="150.234746%" y2="-24.5667631%" id="A"><stop stop-color="#130CB7" offset="1%"/><stop stop-color="#285ECD" offset="28%"/><stop stop-color="#3AA3DF" offset="54%"/><stop stop-color="#47D5ED" offset="75%"/><stop stop-color="#4FF4F5" offset="91%"/><stop stop-color="#52FFF8" offset="100%"/></linearGradient><linearGradient x1="-89.5363322%" y1="-50.5322809%" x2="205.647059%" y2="154.537874%" id="B"><stop stop-color="#130CB7" offset="1%"/><stop stop-color="#285ECD" offset="28%"/><stop stop-color="#3AA3DF" offset="54%"/><stop stop-color="#47D5ED" offset="75%"/><stop stop-color="#4FF4F5" offset="91%"/><stop stop-color="#52FFF8" offset="100%"/></linearGradient><linearGradient x1="-34.1390454%" y1="90.3232305%" x2="119.077196%" y2="16.9025803%" id="C"><stop stop-color="#130CB7" offset="1%"/><stop stop-color="#285ECD" offset="28%"/><stop stop-color="#3AA3DF" offset="54%"/><stop stop-color="#47D5ED" offset="75%"/><stop stop-color="#4FF4F5" offset="91%"/><stop stop-color="#52FFF8" offset="100%"/></linearGradient><linearGradient x1="-38.4404872%" y1="68.1299359%" x2="198.003913%" y2="10.8466638%" id="D"><stop stop-color="#12FFF7" offset="0%"/><stop stop-color="#B1FFAC" offset="100%"/></linearGradient><linearGradient x1="-14.395067%" y1="124.456224%" x2="197.374017%" y2="-88.9782489%" id="E"><stop stop-color="#130CB7" offset="1%"/><stop stop-color="#285ECD" offset="28%"/><stop stop-color="#3AA3DF" offset="54%"/><stop stop-color="#47D5ED" offset="75%"/><stop stop-color="#4FF4F5" offset="91%"/><stop stop-color="#52FFF8" offset="100%"/></linearGradient><linearGradient x1="-67.8719994%" y1="175.623909%" x2="326.716399%" y2="-244.726877%" id="F"><stop stop-color="#130CB7" offset="1%"/><stop stop-color="#285ECD" offset="28%"/><stop stop-color="#3AA3DF" offset="54%"/><stop stop-color="#47D5ED" offset="75%"/><stop stop-color="#4FF4F5" offset="91%"/><stop stop-color="#52FFF8" offset="100%"/></linearGradient><linearGradient x1="-18.3161475%" y1="110.903769%" x2="162.95312%" y2="-75.9421881%" id="G"><stop stop-color="#130CB7" offset="1%"/><stop stop-color="#285ECD" offset="28%"/><stop stop-color="#3AA3DF" offset="54%"/><stop stop-color="#47D5ED" offset="75%"/><stop stop-color="#4FF4F5" offset="91%"/><stop stop-color="#52FFF8" offset="100%"/></linearGradient><linearGradient x1="117.542552%" y1="81.9597902%" x2="-18.2779049%" y2="-0.480454196%" id="H"><stop stop-color="#12FFF7" offset="0%"/><stop stop-color="#B1FFAC" offset="100%"/></linearGradient><linearGradient x1="-69.6523779%" y1="119.302734%" x2="327.105993%" y2="-110.521917%" id="I"><stop stop-color="#130CB7" offset="1%"/><stop stop-color="#285ECD" offset="28%"/><stop stop-color="#3AA3DF" offset="54%"/><stop stop-color="#47D5ED" offset="75%"/><stop stop-color="#4FF4F5" offset="91%"/><stop stop-color="#52FFF8" offset="100%"/></linearGradient><linearGradient x1="-130.461751%" y1="123.804406%" x2="505.720193%" y2="-143.310048%" id="J"><stop stop-color="#130CB7" offset="1%"/><stop stop-color="#285ECD" offset="28%"/><stop stop-color="#3AA3DF" offset="54%"/><stop stop-color="#47D5ED" offset="75%"/><stop stop-color="#4FF4F5" offset="91%"/><stop stop-color="#52FFF8" offset="100%"/></linearGradient><linearGradient x1="-97.8084416%" y1="118.954019%" x2="275.527597%" y2="-55.2123552%" id="K"><stop stop-color="#12FFF7" offset="0%"/><stop stop-color="#B1FFAC" offset="100%"/></linearGradient><linearGradient x1="-74.0524781%" y1="123.258197%" x2="437.414966%" y2="-178.17623%" id="L"><stop stop-color="#130CB7" offset="1%"/><stop stop-color="#285ECD" offset="28%"/><stop stop-color="#3AA3DF" offset="54%"/><stop stop-color="#47D5ED" offset="75%"/><stop stop-color="#4FF4F5" offset="91%"/><stop stop-color="#52FFF8" offset="100%"/></linearGradient><linearGradient x1="-177.874414%" y1="151.373156%" x2="736.507727%" y2="-254.957263%" id="M"><stop stop-color="#130CB7" offset="1%"/><stop stop-color="#285ECD" offset="28%"/><stop stop-color="#3AA3DF" offset="54%"/><stop stop-color="#47D5ED" offset="75%"/><stop stop-color="#4FF4F5" offset="91%"/><stop stop-color="#52FFF8" offset="100%"/></linearGradient><linearGradient x1="-177.87568%" y1="151.264159%" x2="736.50567%" y2="-254.773679%" id="N"><stop stop-color="#130CB7" offset="1%"/><stop stop-color="#285ECD" offset="28%"/><stop stop-color="#3AA3DF" offset="54%"/><stop stop-color="#47D5ED" offset="75%"/><stop stop-color="#4FF4F5" offset="91%"/><stop stop-color="#52FFF8" offset="100%"/></linearGradient><linearGradient x1="-37.0609319%" y1="115.834971%" x2="158.709677%" y2="-32.4557957%" id="O"><stop stop-color="#130CB7" offset="1%"/><stop stop-color="#285ECD" offset="28%"/><stop stop-color="#3AA3DF" offset="54%"/><stop stop-color="#47D5ED" offset="75%"/><stop stop-color="#4FF4F5" offset="91%"/><stop stop-color="#52FFF8" offset="100%"/></linearGradient><linearGradient x1="329.569892%" y1="152.912142%" x2="-104.301075%" y2="-7.6011846%" id="P"><stop stop-color="#130CB7" offset="1%"/><stop stop-color="#285ECD" offset="28%"/><stop stop-color="#3AA3DF" offset="54%"/><stop stop-color="#47D5ED" offset="75%"/><stop stop-color="#4FF4F5" offset="91%"/><stop stop-color="#52FFF8" offset="100%"/></linearGradient><linearGradient x1="-58.3111702%" y1="95.0379014%" x2="142.353723%" y2="3.62501814%" id="Q"><stop stop-color="#130CB7" offset="1%"/><stop stop-color="#285ECD" offset="28%"/><stop stop-color="#3AA3DF" offset="54%"/><stop stop-color="#47D5ED" offset="75%"/><stop stop-color="#4FF4F5" offset="91%"/><stop stop-color="#52FFF8" offset="100%"/></linearGradient><linearGradient x1="-82.5031928%" y1="94.4767442%" x2="207.918263%" y2="-1.67151163%" id="R"><stop stop-color="#130CB7" offset="1%"/><stop stop-color="#285ECD" offset="28%"/><stop stop-color="#3AA3DF" offset="54%"/><stop stop-color="#47D5ED" offset="75%"/><stop stop-color="#4FF4F5" offset="91%"/><stop stop-color="#52FFF8" offset="100%"/></linearGradient><linearGradient x1="240.444444%" y1="60.3463258%" x2="-331.555556%" y2="24.8150633%" id="S"><stop stop-color="#130CB7" offset="1%"/><stop stop-color="#285ECD" offset="28%"/><stop stop-color="#3AA3DF" offset="54%"/><stop stop-color="#47D5ED" offset="75%"/><stop stop-color="#4FF4F5" offset="91%"/><stop stop-color="#52FFF8" offset="100%"/></linearGradient><linearGradient x1="-41.9570442%" y1="164.034119%" x2="133.22812%" y2="-29.4072424%" id="T"><stop stop-color="#130CB7" offset="1%"/><stop stop-color="#285ECD" offset="28%"/><stop stop-color="#3AA3DF" offset="54%"/><stop stop-color="#47D5ED" offset="75%"/><stop stop-color="#4FF4F5" offset="91%"/><stop stop-color="#52FFF8" offset="100%"/></linearGradient><linearGradient x1="-16.4707916%" y1="98.5175202%" x2="116.34981%" y2="-2.39218329%" id="U"><stop stop-color="#130CB7" offset="1%"/><stop stop-color="#285ECD" offset="28%"/><stop stop-color="#3AA3DF" offset="54%"/><stop stop-color="#47D5ED" offset="75%"/><stop stop-color="#4FF4F5" offset="91%"/><stop stop-color="#52FFF8" offset="100%"/></linearGradient><linearGradient x1="-53.5157139%" y1="141.079081%" x2="146.792861%" y2="-59.3906944%" id="V"><stop stop-color="#130CB7" offset="1%"/><stop stop-color="#285ECD" offset="28%"/><stop stop-color="#3AA3DF" offset="54%"/><stop stop-color="#47D5ED" offset="75%"/><stop stop-color="#4FF4F5" offset="91%"/><stop stop-color="#52FFF8" offset="100%"/></linearGradient><linearGradient x1="-55.4647556%" y1="130.90726%" x2="165.531002%" y2="-38.3690629%" id="W"><stop stop-color="#12FFF7" offset="0%"/><stop stop-color="#B1FFAC" offset="100%"/></linearGradient><linearGradient x1="-19.8489889%" y1="148.37476%" x2="110.09628%" y2="-12.1517086%" id="X"><stop stop-color="#52FFF8" offset="0%"/><stop stop-color="#4FF4F5" offset="9%"/><stop stop-color="#47D5ED" offset="25%"/><stop stop-color="#3AA3DF" offset="46%"/><stop stop-color="#285ECD" offset="72%"/><stop stop-color="#130CB7" offset="99%"/></linearGradient><linearGradient x1="45.0045478%" y1="-16.4957529%" x2="60.1119638%" y2="120.825179%" id="Y"><stop stop-color="#130CB7" offset="1%"/><stop stop-color="#285ECD" offset="28%"/><stop stop-color="#3AA3DF" offset="54%"/><stop stop-color="#47D5ED" offset="75%"/><stop stop-color="#4FF4F5" offset="91%"/><stop stop-color="#52FFF8" offset="100%"/></linearGradient><linearGradient x1="-21.2160414%" y1="79.1125541%" x2="132.956016%" y2="10.9307359%" id="Z"><stop stop-color="#130CB7" offset="1%"/><stop stop-color="#285ECD" offset="28%"/><stop stop-color="#3AA3DF" offset="54%"/><stop stop-color="#47D5ED" offset="75%"/><stop stop-color="#4FF4F5" offset="91%"/><stop stop-color="#52FFF8" offset="100%"/></linearGradient><linearGradient x1="-2.793995%" y1="100.307314%" x2="118.849041%" y2="-1.659496%" id="a"><stop stop-color="#130CB7" offset="1%"/><stop stop-color="#285ECD" offset="28%"/><stop stop-color="#3AA3DF" offset="54%"/><stop stop-color="#47D5ED" offset="75%"/><stop stop-color="#4FF4F5" offset="91%"/><stop stop-color="#52FFF8" offset="100%"/></linearGradient><linearGradient x1="-0.354165006%" y1="50.3467406%" x2="100.110642%" y2="50.3467406%" id="b"><stop stop-color="#130CB7" offset="1%"/><stop stop-color="#285ECD" offset="28%"/><stop stop-color="#3AA3DF" offset="54%"/><stop stop-color="#47D5ED" offset="75%"/><stop stop-color="#4FF4F5" offset="91%"/><stop stop-color="#52FFF8" offset="100%"/></linearGradient><linearGradient x1="9.3358396%" y1="87.9017013%" x2="139.849624%" y2="-46.3137996%" id="c"><stop stop-color="#130CB7" offset="1%"/><stop stop-color="#285ECD" offset="28%"/><stop stop-color="#3AA3DF" offset="54%"/><stop stop-color="#47D5ED" offset="75%"/><stop stop-color="#4FF4F5" offset="91%"/><stop stop-color="#52FFF8" offset="100%"/></linearGradient><linearGradient x1="17.6925316%" y1="109.630607%" x2="86.3358843%" y2="-36.2796834%" id="d"><stop stop-color="#130CB7" offset="1%"/><stop stop-color="#285ECD" offset="28%"/><stop stop-color="#3AA3DF" offset="54%"/><stop stop-color="#47D5ED" offset="75%"/><stop stop-color="#4FF4F5" offset="91%"/><stop stop-color="#52FFF8" offset="100%"/></linearGradient><linearGradient x1="-53.2946368%" y1="149.606788%" x2="140.395325%" y2="-37.3137417%" id="e"><stop stop-color="#130CB7" offset="1%"/><stop stop-color="#285ECD" offset="28%"/><stop stop-color="#3AA3DF" offset="54%"/><stop stop-color="#47D5ED" offset="75%"/><stop stop-color="#4FF4F5" offset="91%"/><stop stop-color="#52FFF8" offset="100%"/></linearGradient><linearGradient x1="-35.9873242%" y1="138.136614%" x2="122.162805%" y2="-10.473305%" id="f"><stop stop-color="#130CB7" offset="1%"/><stop stop-color="#285ECD" offset="28%"/><stop stop-color="#3AA3DF" offset="54%"/><stop stop-color="#47D5ED" offset="75%"/><stop stop-color="#4FF4F5" offset="91%"/><stop stop-color="#52FFF8" offset="100%"/></linearGradient><linearGradient x1="-44.5059289%" y1="123.126229%" x2="117.272727%" y2="-32.5535218%" id="g"><stop stop-color="#130CB7" offset="1%"/><stop stop-color="#285ECD" offset="28%"/><stop stop-color="#3AA3DF" offset="54%"/><stop stop-color="#47D5ED" offset="75%"/><stop stop-color="#4FF4F5" offset="91%"/><stop stop-color="#52FFF8" offset="100%"/></linearGradient><linearGradient x1="-105.448718%" y1="151.904579%" x2="133.653846%" y2="-4.8429653%" id="h"><stop stop-color="#B1FFAC" offset="0%"/><stop stop-color="#12FFF7" offset="100%"/></linearGradient></defs><path d="M151.345 29.268c-.883-.103-.537 0-.552 0-1.074-.044-1.214.117-1.273.206v.044c-.068.1-.144.174-.228.25-.064.052-.13.1-.2.147-.06 0-.103.08-.17.117L51.306 86.533l2.302 17.733L151.44 47.53h.037c.05 0 .088-.073.14-.103s.14-.095.2-.147c.063-.06.122-.124.177-.19v-.044l.037-.044.05-.08c.03-.05.055-.105.074-.162.003-.037.003-.073 0-.1a1.1 1.1 0 0 0 0-.162l.066-16.727c.088-.05-.772-.477-.875-.492z" fill="url(#A)"/><path d="M53.697 87.502c-.17.095-.184-3.98-.383-3.914l-.213.066c-.096 0-.19.05-.287.066-.11.027-.224.047-.338.06H51.3c-.153-.017-.305-.04-.456-.073h-.088l-.4-.117h-.074a3.93 3.93 0 0 1-.434-.206L3.862 58.55c-.56-.323-3.244.42-3.244 0L.552 75.277c.048.512.37.958.84 1.167l48.217 27.82c.13.075.266.14.405.198h.066l.25.088h.294l.28.05h.846a2.21 2.21 0 0 0 .309 0h.125l.243-.037h.103l.28-.073.154-.037h.06a3.21 3.21 0 0 0 .559-.242l.118-16.712z" fill="url(#B)"/><path d="M132.948 11.315L148.66 25.78l3.214 2.937c.7.646.544 1.47-.4 2.027l-97.788 56.76a4.42 4.42 0 0 1-4.002 0L1.47 59.7c-1.125-.63-1.133-1.703 0-2.313L99.303.653a4.47 4.47 0 0 1 3.494-.228l5.15 1.85 25.002 9.04z" fill="url(#C)"/><path d="M132.303 10.997L107.27 2l-1.22.73-16.733 18.38c-.566.635-.367 1.402.514 1.906L111.56 35.52a4.48 4.48 0 0 0 3.305.292l31.908-9.698 1.227-.73-15.697-14.386zm-18.018 14.496a7.82 7.82 0 0 1-7.088 0c-1.97-1.117-1.983-2.92 0-4.082a7.84 7.84 0 0 1 7.096 0c1.954 1.132 1.954 2.965-.007 4.082z" fill="url(#D)" fill-rule="nonzero"/><path d="M88 11l-.653 4.343c-.403 2.654-2.413 5.118-5.67 7.033L38.682 47.28c-3.744 2.032-7.9 3.17-12.17 3.327L19 51l69-40z" fill="url(#E)"/><path d="M91.503 36.806c.298.105.497.392.497.714s-.2.61-.497.714l-26.1 15.472c-.76.393-1.657.393-2.417 0l-2.476-1.458c-.303-.102-.508-.39-.508-.718s.205-.616.508-.718l26.086-15.517a2.61 2.61 0 0 1 2.41 0l2.498 1.51z" fill="url(#F)"/><path d="M134 38L65 78l.653-4.34c.41-2.664 2.413-5.123 5.677-7.047l42.983-24.88c3.745-2.026 7.91-3.156 12.17-3.3L134 38z" fill="url(#G)"/><path d="M62.168 64.982L40.406 52.485c-1.03-.522-2.224-.627-3.33-.293L5.044 61.907 5 78.57 45.85 102l.06-16.678L62.684 66.9c.56-.637.368-1.413-.516-1.918z" fill="url(#H)"/><path d="M96.767 64.167c.66-.39 1.19-.075 1.19.703L98 74.902a2.68 2.68 0 0 1-1.182 2.117L65.233 95.833c-.66.39-1.19.075-1.19-.703L64 85.098c.046-.86.484-1.645 1.182-2.117l31.585-18.814z" fill="url(#I)"/><path d="M145.893 38v2.09c.606-.354 1.1-.068 1.107.624v1.663a2.39 2.39 0 0 1-1.099 1.888v2.09L136.045 52 136 43.642 145.893 38z" fill="url(#J)"/><path d="M129.963 46L130 56.533 112.03 67 112 56.467z" fill="url(#K)"/><path d="M101 66.26l8-4.26v2.754L101.008 69z" fill="url(#L)"/><path d="M144 45.662c.003.8-.328 1.56-.865 1.96l-.378.285a.4.4 0 0 1-.506.005c-.157-.118-.253-.338-.25-.575 0-.81.33-1.556.865-1.96l.378-.285a.4.4 0 0 1 .506-.005c.157.118.253.338.25.575z" fill="url(#M)"/><path d="M144 41.662c.006.8-.326 1.56-.865 1.96l-.378.293c-.156.116-.347.115-.503-.002s-.252-.333-.254-.567c-.003-.81.328-1.562.865-1.967l.378-.285a.4.4 0 0 1 .506-.005c.157.118.253.338.25.575z" fill="url(#N)"/><path d="M108.118 88.37l1.105 6.373c0-.05.02-.1.052-.14l9.193-12.26v-6.263l-10.35 12.29z" fill="url(#O)"/><path d="M108.986 92.197l-.92-.528v6.27l.92.52a.78.78 0 0 1 .46.638v-6.27a.78.78 0 0 0-.46-.631z" fill="url(#P)"/><path d="M106.753 90.13l-.23-.1h-.185l-.163-.037h-.43c-.052-.007-.104-.007-.156 0h-.482a1.26 1.26 0 0 0-.178.044h-.045l-.208.095h-.052l-.178.125-7.42 6.43.55 6.6 6.84-5.97c.066-.056.138-.106.215-.147h.045l.215-.095h.045l.2-.05h.096c.1-.007.198-.007.297 0h.37a2.25 2.25 0 0 1 .312.044l.275.073h.052a1.65 1.65 0 0 1 .26.117l1.387.792v-6.27l-1.432-1.643z" fill="url(#Q)"/><path d="M97.464 96.267l-.022 7.003-5.372 3.087-.415-6.88z" fill="url(#R)"/><path d="M91.254 98.9c-.126-.073-.824.183-.824.095v6.263c.012.112.083.21.185.257l1.484.843v-6.27l-.846-1.188z" fill="url(#S)"/><path d="M118.297 75.814c.185.103.237.257.14.396l-9.2 12.26c-.096.132-.045.286.134.39l1.803 1.027-3.11 1.782-1.358-.733a2.34 2.34 0 0 0-2.404.139L97.464 97l-5.372 3.087-1.484-.843c-.208-.117-.237-.308-.082-.447l26.7-23.29c.15-.085.333-.085.482 0l.58.308z" fill="url(#T)"/><path d="M135.955 86h-.052l-9.697 3.227h-.193v.088l-8.428 3.285v-.044c.007.01.007.025 0 .037-.017.005-.035.005-.052 0l-1.01.38-20.59 7.45a.83.83 0 0 1-.193.051c-.064.007-.13.007-.193 0a.82.82 0 0 1-.193 0l-.17-.073-2.16.213v6.263l1.484.85.09.037h.675l22.488-8.565 18.044-6.827h.06v-6.307c.014-.037.05-.063.09-.066z" fill="url(#U)"/><path d="M135.83 86.117c.163-.06.185-.19.045-.27l-.586-.337c-.213-.106-.46-.132-.7-.073l-21.383 5.302c-.23.06-.477.033-.7-.073l-1.35-.777-3.11 1.782.92.528c.697.396.586 1.063-.237 1.37l-10.083 3.82-.32.117-5.372 3.087 1.484.843a.99.99 0 0 0 .779.044l31.525-11.902 9.066-3.46z" fill="url(#V)"/><path d="M112.115 89.44c1.177.582 1.184 1.535 0 2.117-1.33.59-2.904.59-4.232 0-1.177-.582-1.177-1.535 0-2.117 1.33-.59 2.904-.59 4.232 0z" fill="url(#W)"/><path d="M149.99 52.927c-.2 4.337-2.916 8.32-8.02 11.82C132.388 71.394 123.366 78.837 115 87v-3.53c7.984-7.567 16.512-14.52 25.514-20.804 4.447-3.05 6.78-6.354 6.933-9.826.226-5.35-4.79-9.553-4.84-9.604a1.29 1.29 0 0 1-.144-1.758 1.25 1.25 0 0 1 1.726-.229c.277.222 6.072 5.046 5.803 11.68z" fill="url(#X)"/><path d="M146.148 90c-.514-.012-.97-.343-1.148-.834s-.044-1.045.34-1.395c5.876-5.098 13.363-12.872 10.506-21.426-2.93-8.702-14.304-19.04-14.42-19.107-.52-.468-.568-1.276-.11-1.806a1.24 1.24 0 0 1 1.772-.111c.488.43 12.015 10.835 15.135 20.184 3.354 10.025-4.82 18.58-11.256 24.2-.227.198-.517.306-.817.305z" fill="url(#Y)"/><path d="M154.657 108.378l-5.83-3.46h-.16l-16.457 2.044h-.087l5.67 4.8h.138l16.726-3.385z" fill="url(#Z)"/><path d="M135.103 112.63c.003-.015.003-.03 0-.044v-.133l.204-3.97-6.785-2.14v1.704a.82.82 0 0 1 0 .133v.09c.004.032.004.064 0 .096.003.022.003.045 0 .067.004.02.004.04 0 .06v.274l-.05.133c-.014.038-.03.076-.05.11l-.066.126a1.04 1.04 0 0 1-.073.119.74.74 0 0 1-.058.081v.052l-.058.067-.087.104-.08.09-.087.09-.066.052-.044.037-.073.052-.117.074-.102.052-.11.044-9.57 3.363 5.102 4.985 10.757-3.8h.073l.11-.052.11-.074h.036l.073-.06h.036l.066-.06h.044l.08-.09.044-.06v-.044l.036-.044c.002-.015.002-.03 0-.044v-.044c.017-.036.036-.07.058-.104l.058-.09v-.037c.014-.024.026-.05.036-.074l.044-.11v-.163a.48.48 0 0 1 0-.052v-.06c-.003-.015-.003-.03 0-.044v-.09l.5-.57z" fill="url(#a)"/><path d="M134.382 108.622a1.18 1.18 0 0 0-.051-.378.68.68 0 0 0-.292-.393l-5.83-3.46c.234.17.364.45.343.74v1.14l5.83 3.46v-1.11z" fill="url(#b)"/><path d="M117.918 121.244l-5.845-4.452 5.772-3.385 5.86 3.46z" fill="url(#c)"/><path d="M118.865 121.415l-.94-1.163-5.83-3.46v1.844a.94.94 0 0 0 0 .156c.022.063.063.117.117.156l5.83 3.46c-.058-.052.824-.844.824-.993z" fill="url(#d)"/><path d="M148.812 83.156h-.153l-36.222 29.933a.22.22 0 0 0-.058.059v.044c.002.015.002.03 0 .044v.044c-.003.015-.003.03 0 .044v.09a.48.48 0 0 0 0 .052v.09a.43.43 0 0 0 0 .096v1.844l5.83 3.452 2.595-2.763a.43.43 0 0 1 0-.096V116c-.003-.034-.003-.07 0-.104l.044-.096a.56.56 0 0 1 .051-.089l.066-.09.058-.067.073-.067 17.958-15.378h-.138l7.208-6.03.102.06v-.052l.343-.28 7.798-7.074h.138l-5.692-3.578z" fill="url(#e)"/><path d="M154.446 86.652c.175-.11.284-.052.284.104v.74c-.007.26-.11.506-.292.69l-16.42 17.244c-.176.186-.28.43-.292.69v1.69l-3.338 1.956v-1.14c0-.778-.54-1.06-1.173-.69-.085.05-.166.106-.24.17l-9.27 7.66-2.143 1.26-1.028.6-1.028.607-1.574.92v-1.837a1.07 1.07 0 0 1 .379-.741l20.08-16.607c.08-.044 4.825-3.985 4.9-4.044l2.79-2.304 8.374-6.963z" fill="url(#f)"/><path d="M154.796 109.415v-.74c0-.222-.124-.356-.3-.34l-16.464 2.074c-.175 0-.3-.11-.3-.34v-2.222l-3.345 1.956v1.704a2.67 2.67 0 0 1-1.173 2.067c-.077.043-.158.08-.24.11l-9.278 3.222-5.78 3.385v1.844c0 .267.16.4.38.32l36.23-12.585c.162-.092.265-.263.27-.452z" fill="url(#g)"/><path d="M136.492 106.322c1.378-.747 2.508-.15 2.508 1.33-.088 1.637-1.016 3.135-2.492 4.026-1.378.747-2.508.15-2.508-1.33.094-1.636 1.02-3.132 2.492-4.026z" fill="url(#h)"/></svg>