<svg xmlns="http://www.w3.org/2000/svg" xmlns:xlink="http://www.w3.org/1999/xlink" width="729" height="773"><style><![CDATA[.B{fill:#E0E9F8}.C{fill:#fff}.D{fill:#040549}.E{fill:#E3EAFF}.F{fill:#C2C9E9}.G{fill:#F6F6FE}.H{fill:#0cf}.I{fill:#06084F}.J{fill:#5253A6}.K{fill:#A4B5E9}.L{fill:#FF56A9}.M{fill:#9091F3}.N{fill:#FFC359}.O{stroke:#9091F3}.P{fill:#F4885C}.Q{fill:#F7A078}.R{fill:#7736F6}.S{stroke-linejoin:round}.T{stroke-width:1.5}.U{stroke-linecap:round}]]></style><defs><filter x="-2.3%" y="-66.7%" width="104.5%" height="233.3%" id="A"><feGaussianBlur stdDeviation="4" in="SourceGraphic"/></filter><linearGradient x1="49.9720251%" y1="99.9974302%" x2="49.9720251%" y2="0.0093979442%" id="B"><stop stop-color="#222143" offset=".04807692%"/><stop stop-color="#261F7F" offset="100%"/></linearGradient><linearGradient x1="-0.00457435897%" y1="50.0531532%" x2="99.9956923%" y2="50.0531532%" id="C"><stop stop-color="#F577B6" offset="0%"/><stop stop-color="#FF8262" offset="100%"/></linearGradient><path id="D" d="M312.535 748.962h34.072v-6.135c0-9.23-7.65-16.728-17.063-16.728s-17.063 7.5-17.063 16.728v6.135h.053z"/><path id="E" d="M168.89 411.024H124.19c-1.112 0-1.96-.902-1.96-1.963v-43.886c0-1.114.9-1.963 1.96-1.963h44.703c1.112 0 1.96.902 1.96 1.963v43.886c0 1.06-.9 1.963-1.96 1.963z"/><path id="F" d="M160.575 366.714c.477 0 .847.37.847.85s-.37.85-.847.85-.847-.37-.847-.85.37-.85.847-.85z"/><path id="G" d="M345.9 315.24c.477 0 .847.37.847.85s-.37.85-.847.85-.847-.37-.847-.85c0-.425.37-.85.847-.85z"/><path id="H" d="M226.464 323.57h-29.3c-.265 0-.477-.212-.477-.478v-3.13c0-.265.212-.478.477-.478h29.3c.265 0 .477.212.477.478v3.13c0 .265-.212.478-.477.478z"/><path id="I" d="M285.52 327.232h-25.582c-.265 0-.477-.212-.477-.478v-3.13c0-.265.212-.478.477-.478h25.582c.265 0 .477.212.477.478v3.13c0 .265-.212.478-.477.478z"/><path id="J" d="M285.52 336.73h-35.38c-.265 0-.477-.212-.477-.478v-3.13c0-.265.212-.478.477-.478h35.38c.265 0 .477.212.477.478v3.13c0 .265-.212.478-.477.478z"/><path id="K" d="M353.58 273.594h-5.9c-.318 0-.584-.53-.584-1.112 0-.635.265-1.112.584-1.112h5.9c.318 0 .584.53.584 1.112s-.265 1.112-.584 1.112z"/><path id="L" d="M390.033 273.594H356.34c-.318 0-.584-.53-.584-1.112 0-.635.265-1.112.584-1.112h33.694c.318 0 .584.53.584 1.112s-.265 1.112-.584 1.112z"/><path id="M" d="M353.58 305.835h-5.9c-.318 0-.584-.53-.584-1.112 0-.635.265-1.112.584-1.112h5.9c.318 0 .584.53.584 1.112 0 .635-.265 1.112-.584 1.112z"/><path id="N" d="M367.1 305.835h-10.77c-.318 0-.584-.53-.584-1.112 0-.635.265-1.112.584-1.112h10.77c.318 0 .584.53.584 1.112 0 .635-.265 1.112-.584 1.112z"/><path id="O" d="M384.78 305.835h-15.494c-.318 0-.584-.53-.584-1.112 0-.635.265-1.112.584-1.112h15.494c.318 0 .584.53.584 1.112 0 .635-.265 1.112-.584 1.112z"/><path id="P" d="M370.347 287.676h-13.955c-.318 0-.584-.53-.584-1.112 0-.635.265-1.112.584-1.112h13.955c.318 0 .584.53.584 1.112-.053.635-.265 1.112-.584 1.112z"/><path id="Q" d="M377.776 287.676h-5.518c-.318 0-.584-.53-.584-1.112 0-.635.265-1.112.584-1.112h5.518c.318 0 .584.53.584 1.112-.053.635-.265 1.112-.584 1.112z"/><path id="R" d="M370.347 310.23h-13.955c-.318 0-.584-.53-.584-1.112 0-.635.265-1.112.584-1.112h13.955c.318 0 .584.53.584 1.112-.053.582-.265 1.112-.584 1.112z"/><path id="S" d="M377.776 310.23h-5.518c-.318 0-.584-.53-.584-1.112 0-.635.265-1.112.584-1.112h5.518c.318 0 .584.53.584 1.112-.053.582-.265 1.112-.584 1.112z"/><path id="T" d="M101.017 283.717c0 1.574-1.272 2.877-2.8 2.877s-2.8-1.303-2.8-2.877 1.272-2.877 2.8-2.877 2.8 1.25 2.8 2.877z"/></defs><g transform="translate(1)" fill="none"><ellipse fill="#16153F" fill-rule="nonzero" opacity=".684" filter="url(#A)" cx="393" cy="754" rx="265" ry="9"/><path d="M175.665 553C78.684 553 0 474.223 0 377s78.63-176 175.665-176h357.622c46.798 0 84.713-37.985 84.713-84.87V0" class="O"/><path d="M561.572 751.736h-8.113l-34.783-135.843h13.044zm-95.23 0h-8.113l-2.068-135.843h13.044zm-103.29 0h8.06l34.836-135.843h-13.097z" class="I"/><path d="M587.925 456.53c-1.113 0-2.12.687-2.545 1.64-.053.053-.106.16-.16.264-4.03 5.656-21.05 30.87-23.807 59.147-3.128 32.084 3.287 45.88 5.833 52.593 2.916 7.664 3.87 41.97-31.496 41.97h-78.474c-1.007.053-1.75.9-1.75 1.85s.742 1.797 1.75 1.85h-17.7l-1.113-2.167s2.704-.37 6.575-1.586c5.992-1.903 14.687-5.92 20.36-13.9 2.44-3.49 4.348-7.717 5.143-12.844 1.06-6.554.37-14.536-3.022-24.314-13.15-38.057 3.393-83.673 9.862-99.107a8.92 8.92 0 0 1 8.219-5.444h102.335v.053z" class="J"/><path d="M455.473 614.043c0 1.004.742 1.797 1.75 1.85h82.504c35.367 0 34.36-34.304 31.496-41.97-2.545-6.713-8.96-20.51-5.833-52.593s24.71-60.3 24.71-60.3c.37-.476.636-1.057.636-1.744a2.77 2.77 0 0 0-2.757-2.749c-1.113 0-2.12.687-2.545 1.64-3.712 5.074-21.21 30.7-24.02 59.36-3.128 32.084 3.287 45.88 5.833 52.593 2.916 7.664 3.87 41.97-31.496 41.97h-78.474c-1.007.16-1.803.95-1.803 1.956z" class="G"/><path d="M372.968 615.893h90.617c1.06 0 1.91-.846 1.91-1.903s-.848-1.903-1.91-1.903h-90.617c-1.06 0-1.91.846-1.91 1.903.053 1.057.9 1.903 1.91 1.903z" fill="#ccc"/><path d="M458 89v48l-2.5-.053-2.5.053V89h5z" class="J"/><path d="M456 221c11.047 0 20-8.953 20-20h-40c0 11.047 8.953 20 20 20z" class="C"/><path d="M400 192h112v8H400z" class="D"/><path d="M458.274 137c14.542.578 27.656 6.68 37.333 16.25C505.76 163.347 512 177.23 512 192.638V201H400v-8.362c0-29.975 23.85-54.43 53.726-55.638" class="O"/><path d="M334 753h-6.294L304 558h14.8z" class="I"/><path d="M329.063 726.1h51.67v22.863h-51.67z" class="M"/><use xlink:href="#D" class="G"/><path d="M355.326 728.3h25.407v-18.25h-22.84z" class="M"/><path d="M316.547 752.843h60.174c2.193 0 3.958-1.73 3.958-3.88h-68.144c0 2.15 1.82 3.88 4.012 3.88zM381 587.246c0 11.18 8.7 20.45 19.862 21.14l69.943 4.504c24.43 1.748 45.195-17.537 45.195-41.962V566H402.243c-11.737.053-21.243 9.537-21.243 21.246z" fill="#231F20"/><path d="M355 714.275L385.028 727l31.505-125.394c6.07-12.354.528-27.36-12.085-32.714-12.665-5.355-27.178 1.06-31.77 14.103L355 714.275z" class="I"/><path d="M411.063 748.962h51.616l-3.637-22.863h-47.98z" class="M"/><use xlink:href="#D" x="82" class="G"/><path d="M433.688 728.3h25.353l-3.69-18.25h-25.353z" class="M"/><path d="M398.493 752.843h60.228c2.193 0 3.958-1.73 3.958-3.88h-68.144c0 2.15 1.765 3.88 3.958 3.88z" fill="#231F20"/><path d="M433.708 547.4c-5.757-1.79-9.362-7.376-8.61-13.223l11.837-94.355c.968-7.692 8.824-12.59 16.356-10.22 5.757 1.79 9.362 7.376 8.61 13.223l-11.837 94.355c-.915 7.692-8.824 12.59-16.356 10.22z" class="G"/><path d="M523 536.114c-.053 6.574-5.476 11.886-12.174 11.886l-103.507-.263-.32-18.934 103.294-4.786c6.964-.368 12.76 5.207 12.706 12.097z" fill="#EEF1F7"/><path d="M358.746 548H421v-14.817h-12.642l-14.926-3.812c-2.443-.644-5.046-.43-7.383.483L352 543.652c1.222 2.63 3.824 4.348 6.746 4.348z" class="P"/><path d="M438 566h102l-17.195-130.256c0-4.44-3.62-8.035-8.092-8.035L493.26 422h-28.162l-14.427 5.71c-4.472 0-8.092 3.595-8.092 8.035L438 566z" fill="url(#B)"/><g stroke="#B5D3EB"><circle cx="482" cy="448" r="2"/><circle cx="482" cy="465" r="2"/></g><path d="M477.473 438c7.456 0 13.527-5.96 13.527-13.396v-49.207c0-7.384-6.07-13.396-13.527-13.396H464v62.604c0 7.384 6.018 13.396 13.473 13.396z" class="Q"/><g class="D"><path d="M433 375h6v27h-6z"/><path d="M441 381h-1.044c-4.376 0-7.956-3.78-7.956-8.515V362h9v19z"/><circle cx="459" cy="367" r="26"/></g><path d="M436 378.462v21.13c0 12.378 9.848 22.41 22 22.41s22-10.03 22-22.41v-21.13c0-12.378-9.848-22.462-22-22.462-6.076 0-11.576 2.508-15.557 6.563-3.93 4.055-6.443 9.71-6.443 15.9z" class="Q"/><path d="M475 353v32h16v-15.76c0-8.975-7.158-16.24-16-16.24z" class="D"/><circle cx="484.5" cy="387.5" r="6.5" class="P"/><g class="I"><path d="M404 587.246c0 11.18 8.7 20.45 19.862 21.14l69.943 4.504c24.43 1.748 45.195-17.537 45.195-41.962V566H425.243c-11.737.053-21.243 9.537-21.243 21.246z"/><path d="M430.034 719H463l-19.737-127.64c.8-13.765-10.19-25.36-24.11-25.36-13.87 0-24.91 11.594-24.11 25.36L430.034 719z"/></g><path d="M535.555 548c-5.948 0-11.1-4.25-12.215-10.094l-18.1-94.137c-1.487-7.65 4.408-14.77 12.215-14.77 5.948 0 11.1 4.25 12.215 10.094l18.1 94.138c1.487 7.65-4.408 14.77-12.215 14.77z" class="G"/><path d="M379.746 548H442v-14.817h-12.642l-14.926-3.812c-2.443-.644-5.046-.43-7.383.483L373 543.652c1.222 2.63 3.878 4.348 6.746 4.348z" class="Q"/><path d="M549 536.114c-.053 6.574-5.476 11.886-12.174 11.886l-103.506-.263-.32-18.934 103.293-4.786c6.964-.368 12.812 5.207 12.706 12.097z" class="G"/><g class="D"><path d="M457.026 426c-12.7 0-23.026-10.38-23.026-23.262V398h46v4.738C480 415.62 469.725 426 457.026 426z"/><path d="M459 402h-17v-4.034c0-1.66 1.158-2.966 2.632-2.966h11.737c1.474 0 2.632 1.305 2.632 2.966V402z"/></g><path d="M456.47 409h-3.943c-2.504 0-4.53-2.235-4.53-5h13c0 2.765-2.025 5-4.53 5z" fill="#E6E6E6"/><g class="D"><path d="M474 375h6v27h-6z"/><path d="M479 381h-1.044c-4.376 0-7.956-3.78-7.956-8.515V362h9v19z"/></g><g class="P"><path d="M448.334 394c-1.484 0-2.597-1.405-2.28-2.8l2.332-9.42a2.32 2.32 0 0 1 2.279-1.77c1.484 0 2.597 1.405 2.28 2.8l-2.332 9.42a2.32 2.32 0 0 1-2.279 1.77z"/><path d="M450.864 395H447v-4h8c-.054 2.21-1.905 4-4.136 4z"/></g><g class="D"><circle cx="459" cy="386" r="2"/><circle cx="438" cy="386" r="2"/><path d="M465.1 372h-6.222c-.494 0-.9-.444-.9-1s.395-1 .9-1h6.222c.494 0 .9.444.9 1-.05.6-.444 1-.9 1zm-24 0h-6.222c-.494 0-.9-.444-.9-1s.395-1 .9-1h6.222c.494 0 .9.444.9 1 0 .6-.395 1-.9 1z"/></g><path d="M480.062 371h-5.13c-.525 0-.933-.437-.933-1s.408-1 .933-1h5.13c.525 0 .933.438.933 1 .058.563-.408 1-.933 1zm0 3h-5.13c-.525 0-.933-.437-.933-1s.408-1 .933-1h5.13c.525 0 .933.438.933 1 .058.5-.408 1-.933 1zm-20.995 38h-5.133c-.525 0-.933-.437-.933-1s.408-1 .933-1h5.133c.525 0 .933.438.933 1s-.408 1-.933 1z" fill="#4D4D4D"/><path d="M477 444l22-20.648-6.715-8.352L477 427.036z" class="J"/><path d="M477.5 441v41m-33.5 1.5h66" stroke="#B5D3EB"/><g class="J"><path d="M174.186 558h443.63c2.857 0 5.185-2.245 5.185-5s-2.328-5-5.185-5h-443.63c-2.857 0-5.185 2.245-5.185 5-.053 2.755 2.275 5 5.185 5z"/><path d="M464 553c0-2.755 2.328-5 5.185-5h148.63c2.857 0 5.185 2.245 5.185 5s-2.328 5-5.185 5H469.238c-2.9 0-5.238-2.245-5.238-5z"/></g><path d="M183 753h6.294L213 558h-14.738zm286 0h6.346L499 558h-14.738zm139 0h-6.346L578 558h14.738z" class="I"/><path d="M264.48 516.22h146.866a4.96 4.96 0 0 0 4.959-4.971L396.26 406.34a4.96 4.96 0 0 0-4.959-4.971H244.434a4.96 4.96 0 0 0-4.959 4.971l20.046 104.91c-.053 2.75 2.216 4.97 4.96 4.97z" fill="#7575B8"/><path d="M317.55 502.8h35.028c3.218 0 5.803-2.59 5.803-5.817v-13.06c0-3.226-2.585-5.817-5.803-5.817H317.55c-3.218 0-5.803 2.59-5.803 5.817v13.06c.053 3.226 2.638 5.817 5.803 5.817z" fill="#EDEDFD"/><g class="J"><path d="M292.387 543.4h31.44l25.744-52.455h-31.44z"/><path d="M292.387 547.736h76.334a2.14 2.14 0 1 0 0-4.336h-76.334v4.336zm57.765-56.368h-32.55a1.76 1.76 0 0 1-1.741-1.745 1.76 1.76 0 0 1 1.741-1.745h32.602a1.76 1.76 0 0 1 1.741 1.745c0 .952-.8 1.745-1.794 1.745zm50.59-85.028a4.96 4.96 0 0 0-4.959-4.971h-4.537a4.96 4.96 0 0 1 4.959 4.971l20.046 104.9a4.96 4.96 0 0 1-4.959 4.971h4.537a4.96 4.96 0 0 0 4.959-4.971l-20.046-104.9zM223.993 525L220 523.673l13.892-39.286c.383-1.062 1.586-1.646 2.68-1.274s1.695 1.54 1.313 2.6L223.993 525z"/><path d="M227 521.196L220.625 523l-12.5-44.725c-.523-1.804.523-3.66 2.3-4.138 1.777-.53 3.606.53 4.076 2.334l12.5 44.725z"/></g><path d="M210 505h29v43h-29z" class="D"/><path d="M401 201l-52 52m163-52l52 52" stroke="#E9E9FD"/><path d="M230.808 370.852v-1.698c0-2.706-2.278-4.935-5.032-4.935h-52.647c-2.807 0-5.032 2.23-5.032 4.935v88.833H293.57v-82.252c0-2.706-2.278-4.935-5.032-4.935h-57.732v.053z" fill="#5966D6"/><path d="M173.658 377.9h115.464v80.98H173.658z" class="C"/><path d="M363.91 417.02H117.197c-3.178 0-5.72-2.6-5.72-5.73V246.943a5.74 5.74 0 0 1 5.72-5.731H363.91c3.178 0 5.72 2.6 5.72 5.73v164.292c.053 3.184-2.542 5.784-5.72 5.784z" fill="#CEDFE7"/><use xlink:href="#E" class="C"/><g class="F"><use xlink:href="#F"/><use xlink:href="#F" x="3.125"/><use xlink:href="#F" x="6.25"/></g><path d="M124.612 371.224h43.802v34.81h-43.802z" class="B"/><g class="C"><path d="M127.578 403.17h39.247l-9.534-16.132-7.574 12.577-10.063-18.15z"/><ellipse cx="152.737" cy="379.449" rx="4.025" ry="4.033"/><path d="M229.27 395.9H184.57c-1.112 0-1.96-.902-1.96-1.963V350.05c0-1.114.9-1.963 1.96-1.963h44.703c1.112 0 1.96.902 1.96 1.963v43.886c0 1.06-.847 1.963-1.96 1.963z"/></g><g class="F"><use xlink:href="#F" x="60.38" y="-15.114"/><use xlink:href="#F" x="63.505" y="-15.114"/><use xlink:href="#F" x="66.63" y="-15.114"/></g><path d="M185.045 356.1h43.802v34.81h-43.802z" class="B"/><g class="C"><path d="M187.958 388.046h39.3l-9.587-16.132-7.52 12.577-10.116-18.15z"/><ellipse cx="213.17" cy="364.326" rx="4.025" ry="4.033"/><path d="M351.09 359.603H306.39c-1.112 0-1.96-.902-1.96-1.963v-43.886c0-1.114.9-1.963 1.96-1.963h44.703c1.112 0 1.96.902 1.96 1.963v43.886c0 1.06-.9 1.963-1.96 1.963z"/></g><g class="F"><path d="M342.776 315.24c.477 0 .847.37.847.85s-.37.85-.847.85-.847-.37-.847-.85c-.053-.425.37-.85.847-.85z"/><use xlink:href="#G"/><use xlink:href="#G" x="3.126"/></g><path d="M306.812 319.803h43.802v34.81h-43.802z" class="B"/><g class="C"><path d="M309.778 351.696h39.247l-9.534-16.132-7.574 12.63-10.063-18.15z"/><ellipse cx="334.937" cy="328.028" rx="4.025" ry="4.033"/><path d="M229.27 343.948H184.57c-1.112 0-1.96-.902-1.96-1.963v-28.762c0-1.114.9-1.963 1.96-1.963h44.703c1.112 0 1.96.902 1.96 1.963v28.762c0 1.06-.847 1.963-1.96 1.963z"/></g><path d="M226.04 338.854H187.8c-.636 0-1.218-.53-1.218-1.22v-8.12c0-.637.53-1.22 1.218-1.22h38.24c.636 0 1.218.53 1.218 1.22v8.12c-.053.7-.583 1.22-1.218 1.22z" class="B"/><g class="F"><use xlink:href="#F" x="60.38" y="-51.952"/><use xlink:href="#F" x="63.505" y="-51.952"/><use xlink:href="#F" x="66.63" y="-51.952"/></g><ellipse cx="190.13" cy="321.608" rx="3.231" ry="3.237" class="K"/><use xlink:href="#H" class="B"/><path d="M290.18 408.477H245.48c-1.112 0-1.96-.902-1.96-1.963V377.75c0-1.114.9-1.963 1.96-1.963h44.703c1.112 0 1.96.902 1.96 1.963v28.762a1.92 1.92 0 0 1-1.96 1.963z" class="C"/><path d="M286.95 403.382H248.7c-.636 0-1.218-.53-1.218-1.22v-8.12c0-.637.53-1.22 1.218-1.22h38.24c.636 0 1.218.53 1.218 1.22v8.12c-.053.7-.583 1.22-1.218 1.22z" class="B"/><g class="F"><use xlink:href="#F" x="121.29" y="12.586"/><use xlink:href="#F" x="124.425" y="12.586"/><use xlink:href="#F" x="127.54" y="12.586"/></g><ellipse cx="251.04" cy="386.136" rx="3.231" ry="3.237" class="K"/><use xlink:href="#H" x="60.91" y="64.583" class="B"/><path d="M351.568 399.402h-44.703c-1.112 0-1.96-.902-1.96-1.963v-28.762c0-1.114.9-1.963 1.96-1.963h44.703c1.112 0 1.96.902 1.96 1.963v28.762c.053 1.114-.847 1.963-1.96 1.963z" class="C"/><path d="M348.337 394.308h-38.24c-.636 0-1.218-.53-1.218-1.22v-8.12c0-.637.53-1.22 1.218-1.22h38.24c.636 0 1.218.53 1.218 1.22v8.12c-.053.7-.583 1.22-1.218 1.22z" class="B"/><g class="F"><use xlink:href="#F" x="182.678" y="3.502"/><use xlink:href="#F" x="185.803" y="3.502"/><use xlink:href="#F" x="188.928" y="3.502"/></g><ellipse cx="312.427" cy="377.061" rx="3.231" ry="3.237" class="K"/><use xlink:href="#H" x="122.296" y="55.508" class="B"/><path d="M369.682 255.54v-8.65a5.74 5.74 0 0 0-5.72-5.731h-246.765c-3.178 0-5.72 2.6-5.72 5.73v8.65h258.206z" class="R"/><path d="M111.477 274.59h258.206v29.452H111.477z" fill="url(#C)"/><path d="M348.496 270.982h-214.35a2.85 2.85 0 0 1-2.86-2.866v-5.996a2.85 2.85 0 0 1 2.86-2.866h214.35a2.85 2.85 0 0 1 2.86 2.866v5.996a2.85 2.85 0 0 1-2.86 2.866z" class="C"/><g stroke="#8DAEE6" class="S T"><path d="M365.286 261.536h-9.375m9.375 3.6h-9.375m9.375 3.554h-9.375" class="U"/><path d="M120.746 260.475l-4.237 3.13a.98.98 0 0 0-.265.637v5.2c0 .318.265.637.636.637h2.49c.318 0 .636-.265.636-.637v-3.3c0-.7.477-1.38 1.165-1.486.847-.106 1.59.53 1.59 1.38v3.396c0 .318.265.637.636.637h2.49c.318 0 .636-.265.636-.637v-5.2a.98.98 0 0 0-.265-.637l-4.237-3.13c-.424-.37-.953-.37-1.27 0z"/></g><g stroke="#E0E9F8" class="S T"><ellipse cx="137.324" cy="264.88" rx="2.86" ry="2.866"/><path d="M140.13 268.223l-1.006-1.114" class="U"/></g><path d="M304.588 295.074H176.57c-.9 0-1.59-.743-1.59-1.592v-8.278c0-.902.742-1.592 1.59-1.592h128.017c.9 0 1.59.743 1.59 1.592v8.278c0 .85-.69 1.592-1.59 1.592z" class="C"/><path d="M304.588 283.56h-10.964v11.515h10.964c.9 0 1.59-.743 1.59-1.592v-8.278c0-.902-.69-1.645-1.59-1.645z" class="B"/><g stroke="#C2C9E9" class="S T"><ellipse cx="299.926" cy="289.131" rx="2.489" ry="2.494"/><path d="M302.3 291.997l-.794-.955" class="U"/></g><path d="M181.92 267.162h-34.798c-.265 0-.477-.212-.477-.478v-3.13c0-.265.212-.478.477-.478h34.798c.265 0 .477.212.477.478v3.13c0 .265-.212.478-.477.478z" class="B"/><path d="M290.18 369.207H245.48c-1.112 0-1.96-.902-1.96-1.963v-54.02c0-1.114.9-1.963 1.96-1.963h44.703c1.112 0 1.96.902 1.96 1.963v54.02c0 1.06-.847 1.963-1.96 1.963z" class="C"/><path d="M277.682 316.83h10.275c.583 0 1.006-.478 1.006-1.008 0-.584-.477-1.008-1.006-1.008h-10.275c-.583 0-1.006.478-1.006 1.008-.053.584.424 1.008 1.006 1.008z" class="B"/><ellipse cx="252.894" cy="325.268" rx="3.231" ry="3.237" class="R"/><use xlink:href="#I" class="B"/><use xlink:href="#J" class="K"/><ellipse cx="252.894" cy="350.794" rx="3.231" ry="3.237" class="R"/><use xlink:href="#I" y="25.568" class="B"/><use xlink:href="#J" y="25.58" class="K"/><path d="M345 261.696l.69 1.433c.16.318.477.584.847.637l1.59.212c.265.053.37.37.212.584l-1.165 1.114c-.265.265-.37.637-.318 1.008l.265 1.592c.053.265-.265.478-.477.37l-1.43-.743c-.318-.16-.742-.16-1.06 0l-1.43.743c-.265.106-.53-.106-.477-.37l.265-1.592c.053-.37-.053-.743-.318-1.008l-1.165-1.114c-.212-.212-.106-.53.212-.584l1.59-.212c.37-.053.69-.265.847-.637l.69-1.433c.16-.212.53-.212.636 0z" fill="#CEDFE7"/><path d="M229.007 388.046l-1.854 5.04h-54.025c-2.807 0-5.032 2.23-5.032 4.935v62.724c0 2.706 2.278 4.935 5.032 4.935h115.358c2.807 0 5.032-2.23 5.032-4.935v-71.002c0-2.706-2.278-4.935-5.032-4.935h-54.713c-2.12 0-4.025 1.274-4.767 3.237z" fill="#2F3787"/><use xlink:href="#E" y="-51.952" class="C"/><g class="F"><use xlink:href="#F" y="-51.952"/><use xlink:href="#F" x="3.125" y="-51.952"/><use xlink:href="#F" x="6.25" y="-51.952"/></g><path d="M124.612 319.272h43.802v34.81h-43.802z" class="B"/><g class="C"><path d="M127.578 351.218h39.247l-9.534-16.132-7.574 12.577-10.063-18.15z"/><ellipse cx="152.737" cy="327.497" rx="4.025" ry="4.033"/></g><path d="M416.352 373h-78.703a4.66 4.66 0 0 1-4.648-4.655v-104.7a4.66 4.66 0 0 1 4.648-4.655h78.703a4.66 4.66 0 0 1 4.648 4.655v104.7c0 2.592-2.06 4.655-4.648 4.655z" fill="#544DB8"/><g class="H"><use xlink:href="#K"/><use xlink:href="#L"/></g><path d="M367.1 278.306h-10.77c-.318 0-.584-.53-.584-1.112 0-.635.265-1.112.584-1.112h10.77c.318 0 .584.53.584 1.112s-.265 1.112-.584 1.112z" class="L"/><g class="E"><path d="M384.78 278.306h-15.494c-.318 0-.584-.53-.584-1.112 0-.635.265-1.112.584-1.112h15.494c.318 0 .584.53.584 1.112s-.265 1.112-.584 1.112z"/><use xlink:href="#L" y="27.582"/></g><use xlink:href="#M" class="H"/><use xlink:href="#N" class="E"/><g class="L"><use xlink:href="#O"/><path d="M398.416 282.965H356.34c-.318 0-.584-.53-.584-1.112 0-.635.265-1.112.584-1.112h42.078c.318 0 .584.53.584 1.112 0 .635-.265 1.112-.584 1.112z"/></g><path d="M389.608 287.676h-9.816a.59.59 0 0 1-.584-.582v-1.06a.59.59 0 0 1 .584-.582h9.816a.59.59 0 0 1 .584.582v1.06a.59.59 0 0 1-.584.582z" class="H"/><use xlink:href="#P" class="E"/><use xlink:href="#Q" class="H"/><g class="E"><use xlink:href="#K" y="18.636"/><path d="M398.416 292.23H356.34c-.318 0-.584-.53-.584-1.112 0-.635.265-1.112.584-1.112h42.078c.318 0 .584.53.584 1.112s-.265 1.112-.584 1.112z"/><use xlink:href="#K" y="36.636"/><path d="M393.694 310.23h-13.796c-.37 0-.7-.318-.7-.688v-.847c0-.37.318-.688.7-.688h13.796c.37 0 .7.318.7.688v.847c.053.37-.265.688-.7.688z"/><use xlink:href="#R"/><use xlink:href="#S"/></g><use xlink:href="#M" y="8.895" class="N"/><path d="M363.66 314.73h-7.27c-.318 0-.584-.53-.584-1.112 0-.635.265-1.112.584-1.112h7.27c.318 0 .584.53.584 1.112-.053.635-.318 1.112-.584 1.112zm-15.96-17.8c-.318 0-.584-.53-.584-1.112 0-.635.265-1.112.584-1.112h5.9c.318 0 .584.53.584 1.112 0 .635-.265 1.112-.584 1.112" class="H"/><path d="M395.657 296.94H379.95c-.424 0-.743-.318-.743-.74v-.794c0-.424.318-.74.743-.74h15.706c.424 0 .743.318.743.74v.794a.8.8 0 0 1-.743.741z" class="E"/><g class="N"><use xlink:href="#R" y="-13.29"/><use xlink:href="#S" y="-13.29"/></g><g class="E"><use xlink:href="#L" y="46.006"/><use xlink:href="#N" y="18.425"/><use xlink:href="#O" y="18.425"/><path d="M390.033 347.13H356.34c-.318 0-.584-.53-.584-1.112 0-.635.265-1.112.584-1.112h33.694c.318 0 .584.53.584 1.112 0 .635-.265 1.112-.584 1.112z"/></g><use xlink:href="#M" y="46.005" class="L"/><use xlink:href="#N" y="46.005" class="H"/><use xlink:href="#O" y="46.005" class="E"/><g class="L"><use xlink:href="#M" y="23.135"/><path d="M386.424 328.97h-29.98c-.37 0-.7-.318-.7-.688v-.9c0-.37.318-.688.7-.688h29.98c.37 0 .7.318.7.688v.9c0 .37-.318.688-.7.688z"/></g><g class="E"><use xlink:href="#K" y="60.088"/><use xlink:href="#R" y="23.452"/><use xlink:href="#S" y="23.452"/><use xlink:href="#K" y="64.641"/><path d="M394.5 338.235h-37.94c-.424 0-.743-.318-.743-.74v-.74c0-.424.318-.74.743-.74h37.94c.424 0 .743.318.743.74v.74a.76.76 0 0 1-.743.741z"/><use xlink:href="#M" y="50.347"/><path d="M398.363 356.182h-18.57c-.318 0-.584-.53-.584-1.112 0-.635.265-1.112.584-1.112h18.57c.318 0 .584.53.584 1.112 0 .635-.265 1.112-.584 1.112z"/><use xlink:href="#P" y="68.506"/><use xlink:href="#Q" y="68.506"/></g><path d="M381.224 360.735h-24.833a.61.61 0 0 1-.637-.635v-1.006c0-.318.265-.635.637-.635h24.833a.61.61 0 0 1 .637.635v1.006a.61.61 0 0 1-.637.635z" class="N"/><path d="M396.612 342.894h-16.66c-.424 0-.796-.37-.796-.794v-.688c0-.424.37-.794.796-.794h16.66c.424 0 .796.37.796.794v.74c0 .424-.37.74-.796.74z" class="L"/><g class="N"><use xlink:href="#P" y="55.218"/><use xlink:href="#Q" y="55.218"/></g><circle fill="#FF4DD1" cx="414.946" cy="262" r="18.786"/><path d="M413.555 260.234l-7.44 2.73 7.44 2.73v2.783l-10.65-4.068v-2.9l10.65-4.068zm2.462-2.784l10.65 4.068v2.9l-10.65 4.068v-2.783l7.44-2.73-7.44-2.73z" fill="#F9FBFC"/><path d="M186.62 365.053H124.22c-5.062 0-9.166 4.12-9.166 9.2s4.103 9.2 9.166 9.2h4.583l4.423 4.44 4.423-4.44h48.92c5.063 0 9.166-4.12 9.166-9.2.053-5.08-4.05-9.2-9.112-9.2z" fill="#9570EE"/><path d="M168.77 377.195h-41.033c-.586 0-1.013-.48-1.013-1.016 0-.588.48-1.016 1.013-1.016h41.033c.586 0 1.012.48 1.012 1.016 0 .588-.48 1.016-1.012 1.016zm-12.844-5.67h-28.243c-.586 0-1.013-.48-1.013-1.016 0-.588.48-1.016 1.013-1.016h28.243c.586 0 1.012.48 1.012 1.016a.98.98 0 0 1-1.012 1.016z" class="C"/><path d="M147.992 293H86.33c-4.984 0-9.066-4.126-9.066-9.283 0-5.103 4.03-9.283 9.066-9.283h61.66c4.984 0 9.066 4.126 9.066 9.283 0 5.103-4.082 9.283-9.066 9.283z" class="E"/><use xlink:href="#T" fill="#FFC240"/><use xlink:href="#T" x="19.458" fill="#90C240"/><use xlink:href="#T" x="37.379" fill="#EB4F24"/><ellipse cx="570.096" cy="343.394" rx="33.799" ry="34.182" class="D"/><g class="O"><ellipse cx="564.218" cy="343.394" rx="33.799" ry="34.182"/><path d="M563.956 317.598v25.53l-12.123 12.314"/></g><path d="M727.026 366c1.3 0 1.3-2 0-2-1.368 0-1.368 2 0 2z" class="D"/></g></svg>