<svg xmlns="http://www.w3.org/2000/svg" width="27" height="22"><path d="M26.278 2.732a10.35 10.35 0 0 1-3.052.861c1.098-.676 1.94-1.748 2.337-3.025-1.028.626-2.164 1.08-3.377 1.326C21.22.83 19.837.167 18.307.167c-2.933 0-5.313 2.45-5.313 5.47a5.6 5.6 0 0 0 .137 1.246C8.714 6.653 4.798 4.478 2.175 1.165c-.458.81-.72 1.75-.72 2.753 0 1.897.938 3.57 2.364 4.552-.87-.027-1.69-.275-2.41-.682v.067c0 2.65 1.832 4.862 4.265 5.363a5.05 5.05 0 0 1-1.4.192c-.342 0-.677-.033-1-.097.677 2.172 2.638 3.754 4.965 3.797a10.47 10.47 0 0 1-6.601 2.343 10.6 10.6 0 0 1-1.268-.075 14.76 14.76 0 0 0 8.147 2.455c9.777 0 15.122-8.333 15.122-15.562 0-.238-.005-.476-.014-.71a10.93 10.93 0 0 0 2.65-2.831" fill="#1BC7DF" fill-rule="evenodd"/></svg>