<svg xmlns="http://www.w3.org/2000/svg" width="1440" height="438"><defs><linearGradient x1="99.7470631%" y1="8.62655775%" x2="-40.8467783%" y2="127.910271%" id="A"><stop stop-color="#25407B" offset="0%"/><stop stop-color="#251E47" stop-opacity="0" offset="100%"/></linearGradient><linearGradient x1="101.446875%" y1="-8.67389735%" x2="36.224358%" y2="62.2470243%" id="B"><stop stop-color="#25407B" offset="0%"/><stop stop-color="#251E47" stop-opacity="0" offset="100%"/></linearGradient><linearGradient x1="105.752683%" y1="14.8751169%" x2="-4.67417446%" y2="68.214887%" id="C"><stop stop-color="#fff" offset="0%"/><stop stop-color="#251E47" stop-opacity="0" offset="100%"/></linearGradient><linearGradient x1="107.649181%" y1="5.22157619%" x2="57.4199809%" y2="35.421234%" id="D"><stop stop-color="#fff" offset="0%"/><stop stop-color="#251E47" stop-opacity="0" offset="100%"/></linearGradient><linearGradient x1="101.438053%" y1="80.6291178%" x2="29.2235333%" y2="13.3508409%" id="E"><stop stop-color="#fff" offset="0%"/><stop stop-color="#251E47" stop-opacity="0" offset="100%"/></linearGradient><linearGradient x1="81.7305829%" y1="81.6263838%" x2="-13.7171083%" y2="-31.5027675%" id="F"><stop stop-color="#fff" offset="0%"/><stop stop-color="#251E47" stop-opacity="0" offset="100%"/></linearGradient><linearGradient x1="145.371327%" y1="-14.7797169%" x2="-8.96452616%" y2="104.893012%" id="G"><stop stop-color="#fff" offset="0%"/><stop stop-color="#251E47" stop-opacity="0" offset="100%"/></linearGradient><linearGradient x1="101.341541%" y1="14.9467111%" x2="36.0012423%" y2="46.6315781%" id="H"><stop stop-color="#FFEBBF" offset="0%"/><stop stop-color="#251E47" stop-opacity="0" offset="100%"/></linearGradient><linearGradient x1="116.963295%" y1="-22.097538%" x2="14.8990038%" y2="120.76698%" id="I"><stop stop-color="#fff" offset="0%"/><stop stop-color="#251E47" stop-opacity="0" offset="100%"/></linearGradient><linearGradient x1="119.839951%" y1="90.6264723%" x2="-77.8119776%" y2="-19.0500698%" id="J"><stop stop-color="#FFAA3F" offset="0%"/><stop stop-color="#fff" offset="100%"/></linearGradient><linearGradient x1="111.340536%" y1="90.9109866%" x2="-62.6783331%" y2="-19.8116728%" id="K"><stop stop-color="#FFAA3F" offset="0%"/><stop stop-color="#fff" offset="100%"/></linearGradient><linearGradient x1="73.9528458%" y1="143.292661%" x2="2.29764159%" y2="-59.8351569%" id="L"><stop stop-color="#4E54C8" offset="0%"/><stop stop-color="#8F94FB" offset="100%"/></linearGradient><linearGradient x1="55.68622%" y1="-6.24261912%" x2="38.6480762%" y2="158.163719%" id="M"><stop stop-color="#FFAA3F" offset="0%"/><stop stop-color="#fff" offset="100%"/></linearGradient><linearGradient x1="54.956681%" y1="-6.64444146%" x2="39.7514182%" y2="158.740527%" id="N"><stop stop-color="#FFAA3F" offset="0%"/><stop stop-color="#fff" offset="100%"/></linearGradient><linearGradient x1="52.5187561%" y1="-11.8111954%" x2="44.8186386%" y2="168.117454%" id="O"><stop stop-color="#4E54C8" offset="0%"/><stop stop-color="#8F94FB" offset="100%"/></linearGradient><linearGradient x1="35.8515284%" y1="52.807098%" x2="-32.3199622%" y2="62.8528926%" id="P"><stop stop-color="#4E54C8" offset="0%"/><stop stop-color="#8F94FB" offset="100%"/></linearGradient><linearGradient x1="44.6802333%" y1="53.0449956%" x2="-32.478952%" y2="68.0700907%" id="Q"><stop stop-color="#4E54C8" offset="0%"/><stop stop-color="#8F94FB" offset="100%"/></linearGradient><linearGradient x1="45.6186721%" y1="6.7579316%" x2="58.0337151%" y2="68.843892%" id="R"><stop stop-color="#4E54C8" offset="0%"/><stop stop-color="#8F94FB" offset="100%"/></linearGradient><linearGradient x1="-8.96597717%" y1="-34.0761996%" x2="107.42215%" y2="116.17288%" id="S"><stop stop-color="#B1FFAC" offset="0%"/><stop stop-color="#12FFF7" offset="100%"/></linearGradient><linearGradient x1="34.8774609%" y1="31.322355%" x2="-39.7515297%" y2="-77.0276597%" id="T"><stop stop-color="#4E54C8" offset="0%"/><stop stop-color="#8F94FB" offset="100%"/></linearGradient><linearGradient x1="107.843874%" y1="-6.15576076%" x2="17.3041759%" y2="62.7187194%" id="U"><stop stop-color="#fff" offset="0%"/><stop stop-color="#fff" stop-opacity="0" offset="100%"/></linearGradient><linearGradient x1="31.0362239%" y1="144.22529%" x2="11.8826669%" y2="239.948896%" id="V"><stop stop-color="#FFAA3F" offset="0%"/><stop stop-color="#fff" offset="100%"/></linearGradient><linearGradient x1="68.4575157%" y1="-1.99846398%" x2="5.11465361%" y2="176.205975%" id="W"><stop stop-color="#FFAA3F" offset="0%"/><stop stop-color="#fff" offset="100%"/></linearGradient><linearGradient x1="53.3169537%" y1="-85.8263972%" x2="50.1849643%" y2="41.3658867%" id="X"><stop stop-color="#fff" offset="0%"/><stop stop-color="#D4E5FF" offset="99.87%"/></linearGradient><linearGradient x1="130.566311%" y1="-9.44882695%" x2="19.9325749%" y2="76.6349445%" id="Y"><stop stop-color="#fff" offset="0%"/><stop stop-color="#fff" stop-opacity="0" offset="100%"/></linearGradient><linearGradient x1="163.740495%" y1="-8.26247772%" x2="0.193719565%" y2="78.036635%" id="Z"><stop stop-color="#fff" offset="0%"/><stop stop-color="#fff" stop-opacity="0" offset="100%"/></linearGradient><linearGradient x1="84.8588693%" y1="-7.97601174%" x2="41.0505113%" y2="81.8130885%" id="a"><stop stop-color="#fff" offset="0%"/><stop stop-color="#fff" stop-opacity="0" offset="100%"/></linearGradient><linearGradient x1="34.9964962%" y1="124.482694%" x2="15.8349993%" y2="220.246685%" id="b"><stop stop-color="#FFAA3F" offset="0%"/><stop stop-color="#fff" offset="100%"/></linearGradient><linearGradient x1="61.7724868%" y1="-12.8990502%" x2="29.2111833%" y2="159.901286%" id="c"><stop stop-color="#FFAA3F" offset="0%"/><stop stop-color="#fff" offset="100%"/></linearGradient><linearGradient x1="53.2533172%" y1="-85.9317639%" x2="50.1190127%" y2="41.3667124%" id="d"><stop stop-color="#fff" offset="0%"/><stop stop-color="#D4E5FF" offset="99.87%"/></linearGradient><linearGradient x1="130.274263%" y1="-9.7574983%" x2="19.7834592%" y2="76.4326531%" id="e"><stop stop-color="#fff" offset="0%"/><stop stop-color="#fff" stop-opacity="0" offset="100%"/></linearGradient><linearGradient x1="164.392423%" y1="-8.11112511%" x2="0.470700136%" y2="78.1290977%" id="f"><stop stop-color="#fff" offset="0%"/><stop stop-color="#fff" stop-opacity="0" offset="100%"/></linearGradient><linearGradient x1="84.7747981%" y1="-7.35392707%" x2="41.0181907%" y2="81.7805116%" id="g"><stop stop-color="#fff" offset="0%"/><stop stop-color="#fff" stop-opacity="0" offset="100%"/></linearGradient><linearGradient x1="115.408722%" y1="9.06676891%" x2="6.90317198%" y2="83.6837119%" id="h"><stop stop-color="#fff" offset="0%"/><stop stop-color="#fff" stop-opacity="0" offset="100%"/></linearGradient><linearGradient x1="154.355929%" y1="153.369463%" x2="51.6304049%" y2="50.6557238%" id="i"><stop stop-color="#fff" offset="0%"/><stop stop-color="#fff" stop-opacity="0" offset="100%"/></linearGradient><linearGradient x1="364.532653%" y1="-213.845918%" x2="-258.234694%" y2="309.042857%" id="j"><stop stop-color="#FFEBBF" offset="0%"/><stop stop-color="#251E47" stop-opacity="0" offset="100%"/></linearGradient><linearGradient x1="364.908163%" y1="-214.571429%" x2="-257.859184%" y2="308.318367%" id="k"><stop stop-color="#FFEBBF" offset="0%"/><stop stop-color="#251E47" stop-opacity="0" offset="100%"/></linearGradient><linearGradient x1="364.891837%" y1="-214.502041%" x2="-257.876531%" y2="308.387755%" id="l"><stop stop-color="#FFEBBF" offset="0%"/><stop stop-color="#251E47" stop-opacity="0" offset="100%"/></linearGradient><linearGradient x1="365.061224%" y1="-213.978571%" x2="-257.706122%" y2="308.911224%" id="m"><stop stop-color="#FFEBBF" offset="0%"/><stop stop-color="#251E47" stop-opacity="0" offset="100%"/></linearGradient><linearGradient x1="365.005102%" y1="-214.434694%" x2="-257.763265%" y2="308.455102%" id="n"><stop stop-color="#FFEBBF" offset="0%"/><stop stop-color="#251E47" stop-opacity="0" offset="100%"/></linearGradient><linearGradient x1="364.392857%" y1="-214.744898%" x2="-258.37449%" y2="308.144898%" id="o"><stop stop-color="#FFEBBF" offset="0%"/><stop stop-color="#251E47" stop-opacity="0" offset="100%"/></linearGradient><linearGradient x1="364.607143%" y1="-213.845918%" x2="-258.160204%" y2="309.042857%" id="p"><stop stop-color="#FFEBBF" offset="0%"/><stop stop-color="#251E47" stop-opacity="0" offset="100%"/></linearGradient><linearGradient x1="364.490816%" y1="-214.387755%" x2="-258.276531%" y2="308.502041%" id="q"><stop stop-color="#FFEBBF" offset="0%"/><stop stop-color="#251E47" stop-opacity="0" offset="100%"/></linearGradient><linearGradient x1="364.552041%" y1="-213.917347%" x2="-258.216327%" y2="308.971429%" id="r"><stop stop-color="#FFEBBF" offset="0%"/><stop stop-color="#251E47" stop-opacity="0" offset="100%"/></linearGradient><linearGradient x1="364.636735%" y1="-213.815306%" x2="-258.129592%" y2="309.07449%" id="s"><stop stop-color="#FFEBBF" offset="0%"/><stop stop-color="#251E47" stop-opacity="0" offset="100%"/></linearGradient><linearGradient x1="364.710204%" y1="-214.633673%" x2="-258.056122%" y2="308.255102%" id="t"><stop stop-color="#FFEBBF" offset="0%"/><stop stop-color="#251E47" stop-opacity="0" offset="100%"/></linearGradient><linearGradient x1="364.910204%" y1="-214.667347%" x2="-257.858163%" y2="308.222449%" id="u"><stop stop-color="#FFEBBF" offset="0%"/><stop stop-color="#251E47" stop-opacity="0" offset="100%"/></linearGradient><linearGradient x1="364.969388%" y1="-213.797959%" x2="-257.796939%" y2="309.092857%" id="v"><stop stop-color="#FFEBBF" offset="0%"/><stop stop-color="#251E47" stop-opacity="0" offset="100%"/></linearGradient><linearGradient x1="364.937755%" y1="-214.265306%" x2="-257.829592%" y2="308.62449%" id="w"><stop stop-color="#FFEBBF" offset="0%"/><stop stop-color="#251E47" stop-opacity="0" offset="100%"/></linearGradient><linearGradient x1="364.442857%" y1="-214.153061%" x2="-258.32449%" y2="308.736735%" id="x"><stop stop-color="#FFEBBF" offset="0%"/><stop stop-color="#251E47" stop-opacity="0" offset="100%"/></linearGradient><linearGradient x1="364.473469%" y1="-213.919388%" x2="-258.293878%" y2="308.970408%" id="y"><stop stop-color="#FFEBBF" offset="0%"/><stop stop-color="#251E47" stop-opacity="0" offset="100%"/></linearGradient><linearGradient x1="364.970408%" y1="-214.515306%" x2="-257.794898%" y2="308.37449%" id="z"><stop stop-color="#FFEBBF" offset="0%"/><stop stop-color="#251E47" stop-opacity="0" offset="100%"/></linearGradient><linearGradient x1="-26.5146314%" y1="50.0055495%" x2="133.106836%" y2="50.0055495%" id="AA"><stop stop-color="#25407B" offset="0%"/><stop stop-color="#251E47" stop-opacity="0" offset="100%"/></linearGradient><linearGradient x1="9.13738123%" y1="35.1387213%" x2="91.1621732%" y2="64.0186804%" id="AB"><stop stop-color="#008BAA" offset="0%"/><stop stop-color="#3B9ED7" stop-opacity="0" offset="100%"/></linearGradient><linearGradient x1="9.72832977%" y1="34.6264108%" x2="90.7118998%" y2="64.1607377%" id="AC"><stop stop-color="#00BFA7" offset="0%"/><stop stop-color="#15C0B8" offset="12.86%"/><stop stop-color="#4AC1E5" offset="39.24%"/><stop stop-color="#6AC2FF" offset="53.59%"/><stop stop-color="#3B9ED7" stop-opacity="0" offset="100%"/></linearGradient><linearGradient x1="9.0604622%" y1="35.2142647%" x2="91.1129765%" y2="64.1032377%" id="AD"><stop stop-color="#008BAA" offset="0%"/><stop stop-color="#3B9ED7" stop-opacity="0" offset="100%"/></linearGradient><linearGradient x1="9.59176188%" y1="35.0241794%" x2="90.6325129%" y2="64.4515913%" id="AE"><stop stop-color="#F5FFAA" offset="0%"/><stop stop-color="#E0F6B7" offset="10.14%"/><stop stop-color="#AADED8" offset="31.08%"/><stop stop-color="#6AC2FF" offset="53.59%"/><stop stop-color="#3B9ED7" stop-opacity="0" offset="100%"/></linearGradient><linearGradient x1="7.8225928%" y1="37.9128675%" x2="92.1523506%" y2="61.7880989%" id="AF"><stop stop-color="#008BAA" offset="0%"/><stop stop-color="#3B9ED7" stop-opacity="0" offset="100%"/></linearGradient><linearGradient x1="8.58528003%" y1="37.8044878%" x2="91.8868832%" y2="62.0778372%" id="AG"><stop stop-color="#FF7F94" offset="0%"/><stop stop-color="#FA949B" offset="10.9%"/><stop stop-color="#EDC9AD" offset="33.25%"/><stop stop-color="#E0FFBF" offset="53.59%"/><stop stop-color="#3B9ED7" stop-opacity="0" offset="100%"/></linearGradient><linearGradient x1="9.13436201%" y1="35.087613%" x2="91.2001343%" y2="63.8850203%" id="AH"><stop stop-color="#008BAA" offset="0%"/><stop stop-color="#3B9ED7" stop-opacity="0" offset="100%"/></linearGradient><linearGradient x1="9.67399433%" y1="34.5385244%" x2="90.640304%" y2="64.0432704%" id="AI"><stop stop-color="#94FFDC" offset="0%"/><stop stop-color="#A9F3E0" offset="12.75%"/><stop stop-color="#DED3EB" offset="38.91%"/><stop stop-color="#FFBFF2" offset="53.59%"/><stop stop-color="#3B9ED7" stop-opacity="0" offset="100%"/></linearGradient><linearGradient x1="9.14957166%" y1="35.0337738%" x2="91.1743637%" y2="63.9137329%" id="AJ"><stop stop-color="#008BAA" offset="0%"/><stop stop-color="#3B9ED7" stop-opacity="0" offset="100%"/></linearGradient><linearGradient x1="9.54109593%" y1="34.7899206%" x2="90.524862%" y2="64.324319%" id="AK"><stop stop-color="#00BFA7" offset="0%"/><stop stop-color="#15C0B8" offset="12.86%"/><stop stop-color="#4AC1E5" offset="39.24%"/><stop stop-color="#6AC2FF" offset="53.59%"/><stop stop-color="#3B9ED7" stop-opacity="0" offset="100%"/></linearGradient></defs><path d="M802.227 571.8c90.6-1.562 117.43-3.982 184.613-64.808 25.67-23.2 44.554-53.33 57.116-85.578 11.86-30.374 18.18-64.418 8.973-95.73-14.513-49.27-65.62-81.205-116.73-86.28s-101.826 12.025-148.408 33.732c-46.504 21.707-90.98 48.41-139.747 64.574-119.382 39.666-248.985 12.415-374.063-1.093-39.56-4.216-82.163-6.403-116.26 13.977-17.478 10.463-31.21 26.158-42.76 42.867-21.3 30.92-36.205 69.415-26.997 105.8 11.47 45.444 56.024 74.022 99.25 92.06 148.174 62.075 317.805 54.19 473 12.805 46.894-12.415 93.555-27.875 142-32.326" opacity=".24" fill="url(#A)"/><path d="M280.658 280.495c65.958 19.51 139 38.553 202.785 7.804 24.325-11.706 45.53-30.203 62.683-51.742 16.14-20.29 29.237-44.64 30.328-70.395 1.793-40.582-27.288-76.482-63.073-91.935-35.708-15.453-76.717-14.126-115.855-8.273s-77.964 15.843-117.258 17.013C184.06 85.7 96.974 35.518 9.8-3.192-17.8-15.444-48.118-26.84-77.9-19.112-93.103-15.2-106.98-6.47-119.533 3.598c-23.155 18.574-43.504 44.25-45.92 73.907-3.04 36.992 22.142 68.756 48.884 92.325 91.842 80.774 216.585 113.474 339.3 117.61 37.19 1.25 74.768.156 110.943 7.804" opacity=".24" fill="url(#B)"/><path d="M541.958 266.687l-89.403 8.952c-1.794-11.832-14.12-23.275-30.58-26-21.532-3.66-32.922 3.27-40.41 9.73-29.333-50.676-133.56-65.544-183.253 7.862 0 0-58.5-111.86-209.31-60.95v231.35h308.23s37.758 5.37 40.567-24.832c0 0 31.283 16.892 74.893 1.168 32.375-11.676 38.07-58.77 38.07-58.77L556 304.285l-14.042-37.598z" fill="url(#C)" opacity=".5"/><path d="M538.086 256.72l-108.242 6.553s-28.152-48.913-92.177-30.112c0 0-87.732-89.244-201.12-7.8 0 0-20.354-94.393-147.546-67.557v279.6h283.394s84.925 20.283 111.36-10.22c0 0 61.685 10.22 85.003-56.87L560 315.227l-21.914-58.508z" fill="url(#D)" opacity=".5"/><path d="M518 280.83c-6.553-2.4-97.9-45.83-97.9-45.83l25.43 30.5L280 242.82l187.14 45.132c-.624-1.78-13.807-32.668-13.807-32.668L518 280.83z" fill="url(#E)"/><path d="M526 202l-53.878-68.376-2.417 20.466L423 117l54.502 58.732 4.132-16.232z" fill="url(#F)"/><path d="M586 351l-17.63 34.776-11.675-9.237L544 419l16.377-28.566 16.612 11.023z" fill="url(#G)"/><path d="M537.34 279.157l-97.77 15.18s-9.9-23.04-37.766-26.855c-27.856-3.892-40.107 19.15-40.107 19.15s-43.384-53.087-123.832-56.122-119.384 45.147-119.384 45.147S84.926 209.102-13 227.083l1.248 210.556h264.284s106.9 14.01 119.54-47.87c0 0 62.345 11.987 77.25-47.87l96.678-42.9-8.66-19.85z" fill="url(#H)"/><path d="M488 323l-59.402 66.552-35.407-22.836L284 431l110.44-39.65 33.61 22.836z" fill="url(#I)"/><path d="M597.72 161.304l9.745 26.24-6.627 2.18-8.732-23.748z" fill="url(#J)"/><path d="M577.216 177.81l6.86 18.376-6.627 2.258-6.16-16.585z" fill="url(#K)"/><path d="M624.07 167.3s-36.564-36.595-62.837-34.57c-24.012 1.87-103.922 43.68-103.766 55.127s59.484-21.256 71.5-15.105 25.727 20.244 25.727 20.244L624.07 167.3z" fill="url(#L)"/><path d="M667.417 349.42l-9.745-26.318-6.393 2.647L660 349.497z" fill="url(#M)"/><path d="M641.066 350.198l-6.783-18.453-6.47 2.647 6.16 16.585z" fill="url(#N)"/><path d="M683.4 327.696s-3.898 51.545-25.18 67.118c-19.412 14.17-107.352 34.337-114.68 25.617s59.016-22.502 64.162-34.96 6.315-32.08 6.315-32.08l69.385-25.695z" fill="url(#O)"/><path d="M563.105 242.125l-25.26 14.25s-5.145 35.35 21.673 58.475l29-4.282-25.415-68.44z" fill="url(#P)"/><path d="M578.93 229.745l-30.25 17.052s-6.16 42.28 25.883 69.843l34.615-5.14-30.25-81.756z" fill="url(#Q)"/><path d="M976.766 129.302s-72.972-53.647-422.237 75.45c0 0 1.48 36.907 15.514 74.748 15.202 41.11 36.954 66.806 36.954 66.806 349.265-128.863 369.77-217.003 369.77-217.003z" fill="url(#R)"/><g fill="url(#S)"><path d="M876.118 120.037s-17.307 49.21 30.25 81.756c0 0 59.016-38.23 70.4-72.5 0 0-23.544-18.142-100.648-9.266z"/><path d="M658.06 244.54c-7.484-20.244-12.708-43.915-6.16-73.502L670 165.353c-9.667 43.214 4.366 78.096 17.775 99.197 14.58 22.892 32.588 36.44 32.744 36.595l-16.996 6.852c-.702-.545-16.606-12.38-31.808-36.128-4.756-7.475-9.667-16.663-13.643-27.33z"/><path d="M490.913 307.608c-.78-2.024 7.406-6.93 9.433-7.708l123.802-45.705c2.027-.78 4.366.31 5.067 2.336.78 2.024-.312 4.36-2.34 5.06l-123.802 45.705c-2.027.78-11.382 2.336-12.162.31z"/></g><path d="M568.094 274.827l56.054-20.71-62.135-5.295c.078 0 2.183 15.495 6.08 26.006z" fill="url(#T)"/><path d="M976.766 129.302S741.012 306.44 556.712 220.947c0 0 3.352 61.044 50.207 125.36.078.078 324.552-113.835 369.847-217.003z" fill="url(#U)" opacity=".5"/><ellipse fill="#4D55C8" transform="matrix(.997879 -.065098 .065098 .997879 758.349487 149.386405)" cx="30.044" cy="30.45" rx="27.521" ry="27.953"/><ellipse fill="url(#V)" cx="796.598" cy="179.29" rx="26.039" ry="26.006"/><ellipse fill="url(#W)" cx="796.052" cy="175.474" rx="26.039" ry="26.006"/><ellipse fill="url(#X)" cx="796.052" cy="175.474" rx="22.219" ry="22.191"/><path d="M809.072 157.4l-15.826 40.02s-7.64-1.324-11.07-4.905l17.93-39.01c.078.078 5.925 1.246 8.966 3.893z" fill="url(#Y)" opacity=".8"/><path d="M810.787 158.81l-14.11 38.853s1.95 0 3.43-.31l12.708-36.595s-.546-.623-2.027-1.947z" fill="url(#Z)"/><path d="M816.634 173.917c.624 5.528-5.145 6.385-6.003 2.492-.312-1.48-3.04-10.278-9.59-12.614s-14.5 2.647-16.372 4.672c-2.963 3.115-7.718-1.1-4.6-5.528 2.34-3.426 14.5-10.51 24.012-5.995 10.213 4.827 12.318 15.417 12.552 16.974z" fill="url(#a)"/><ellipse fill="#4D55C8" transform="matrix(.997879 -.065098 .065098 .997879 723.228078 174.295014)" cx="18.347" cy="18.693" rx="16.84" ry="17.052"/><ellipse fill="url(#b)" cx="746.547" cy="192.682" rx="15.904" ry="15.884"/><ellipse fill="url(#c)" cx="746.235" cy="190.346" rx="15.904" ry="15.884"/><ellipse fill="url(#d)" cx="746.235" cy="190.346" rx="13.565" ry="13.548"/><path d="M754.188 179.29l-9.667 24.45s-4.678-.856-6.783-2.96l10.993-23.826c0-.078 3.586.7 5.457 2.336z" fill="url(#e)" opacity=".8"/><path d="M755.2 180.07l-8.654 23.748s1.17 0 2.105-.156l7.718-22.347c.078 0-.234-.467-1.17-1.246z" fill="url(#f)"/><path d="M758.787 189.335c.4 3.426-3.118 3.893-3.664 1.557-.156-.934-1.87-6.307-5.847-7.708s-8.888 1.635-10.057 2.803c-1.793 1.947-4.678-.623-2.807-3.426 1.48-2.102 8.888-6.463 14.657-3.66 6.315 2.96 7.562 9.42 7.718 10.434z" fill="url(#g)"/><path d="M624.07 167.3l-9.98 3.66s-29.547-31.7-51.454-32.235c-21.985-.545-100.102 41.11-105.17 48.976 0 0-3.04-4.127 23.7-20.322s66.58-35.272 82.483-34.882c15.826.545 36.018 11.68 60.42 34.805z" fill="url(#h)" opacity=".3"/><path d="M646.367 341.4s8.654 39.32-23.232 55.75c-31.964 16.43-79.52 23.203-79.52 23.203s1.56 4.05 23.388 1.168 78.975-16.273 91.292-26.707c12.318-10.51 18.477-22.814 25.18-67.118l-37.11 13.704z" fill="url(#i)"/><circle fill="url(#j)" cx="307" cy="276" r="4"/><circle fill="url(#k)" cx="202" cy="209" r="4"/><circle fill="url(#l)" cx="461" cy="221" r="4"/><circle fill="url(#m)" cx="484" cy="412" r="4"/><circle fill="url(#n)" cx="393" cy="428" r="4"/><circle fill="url(#o)" cx="182" cy="394" r="4"/><circle fill="url(#p)" cx="149" cy="276" r="4"/><circle fill="url(#q)" cx="50" cy="166" r="4"/><circle fill="url(#r)" cx="46" cy="408" r="4"/><circle fill="url(#s)" cx="34" cy="297" r="4"/><circle fill="url(#t)" cx="1000" cy="185" r="4"/><circle fill="url(#u)" cx="1242" cy="378" r="4"/><circle fill="url(#v)" cx="923" cy="378" r="4"/><circle fill="url(#w)" cx="708" cy="122" r="4"/><circle fill="url(#x)" cx="1383" cy="328" r="4"/><circle fill="url(#y)" cx="738" cy="407" r="4"/><circle fill="url(#z)" cx="1238" cy="243" r="4"/><path d="M1059.652 187.57c-4.835 15.855-1.17 42.49 5.07 53.892 12.634 22.885 42.115 31.008 68.164 30.07s50.382-13.043 72.297-27.102c21.915-14.137 42.505-30.54 65.902-42.02 57.323-28.118 124.395-23.197 188.27-24.993 20.2-.547 41.803-2.343 57.557-14.996 8.033-6.483 13.96-15.308 18.562-24.525 8.58-17.027 13.492-37.412 6.395-55.064-8.813-22.104-33.224-33.43-56.153-39.6-78.77-21.088-163.546-5.624-238.807 25.853-22.773 9.53-33.926 27.102-58.57 28.352-24.723 1.25-104.74 11.638-128.684 90.133z" opacity=".24" fill="url(#AA)"/><path d="M1156.685 179.428l-41.47 28.702c-1.89 1.265-4.407.633-5.587-1.265s-.63-4.507 1.26-5.693L1153.93 175l2.754 4.428z" fill="url(#AB)" opacity=".24"/><path d="M1149.367 182.433l-35.725 24.037a2.12 2.12 0 0 1-2.911-.633c-.63-1.028-.315-2.372.63-3.005l36.51-22.693 1.495 2.293z" fill="url(#AC)"/><path d="M889.61 288.062l-61.67 42.605c-2.817 1.805-6.496.942-8.296-1.883-1.8-2.903-.94-6.67 1.878-8.474l64.017-38.838 4.07 6.59z" fill="url(#AD)" opacity=".24"/><path d="M878.73 292.455l-53.14 35.7c-1.487.942-3.365.47-4.304-1.02s-.47-3.452 1.017-4.472l54.313-33.738 2.113 3.53z" fill="url(#AE)"/><path d="M1171 356.482l-38.405 28.36c-1.784 1.236-4.112.773-5.353-1.005-1.164-1.777-.698-4.173 1.01-5.41l39.957-26.04 2.793 4.095z" fill="url(#AF)" opacity=".24"/><path d="M1164.095 359.495l-33.13 23.8c-.93.618-2.172.386-2.793-.54s-.388-2.164.543-2.86l33.905-22.564 1.474 2.164z" fill="url(#AG)"/><path d="M1356.922 260.32l-39.607 27.5c-1.793 1.18-4.2.63-5.302-1.257s-.624-4.32 1.247-5.5L1354.35 256l2.573 4.32z" fill="url(#AH)" opacity=".24"/><path d="M1349.983 263.15l-34.07 23.02c-.936.63-2.183.314-2.807-.63s-.312-2.28.624-2.83l34.85-21.764 1.403 2.2z" fill="url(#AI)"/><path d="M244.303 104.636l-40.8 28.05c-1.858 1.236-4.335.618-5.497-1.236s-.62-4.405 1.24-5.564l42.348-25.577 2.7 4.327z" fill="url(#AJ)" opacity=".24"/><path d="M237.18 107.495l-35.148 23.49c-1.006.618-2.245.31-2.865-.618-.62-1.005-.3-2.318.62-2.936l35.923-22.177 1.47 2.24z" fill="url(#AK)"/></svg>