<svg xmlns="http://www.w3.org/2000/svg" xmlns:xlink="http://www.w3.org/1999/xlink" width="1165" height="830"><defs><linearGradient x1="31.7333333%" y1="103.2%" x2="55.6%" y2="33.7333333%" id="A"><stop stop-color="#70F1F7" offset="0%"/><stop stop-color="#5995FF" offset="100%"/></linearGradient><linearGradient x1="31.7333333%" y1="103.2%" x2="55.6%" y2="33.6%" id="B"><stop stop-color="#70F1F7" offset="0%"/><stop stop-color="#5995FF" offset="100%"/></linearGradient><linearGradient x1="31.6%" y1="103.2%" x2="55.6%" y2="33.7333333%" id="C"><stop stop-color="#70F1F7" offset="0%"/><stop stop-color="#5995FF" offset="100%"/></linearGradient><linearGradient x1="33.1068677%" y1="97.5833333%" x2="66.9254791%" y2="2.41666667%" id="D"><stop stop-color="#70F1F7" offset="0%"/><stop stop-color="#5995FF" offset="100%"/></linearGradient><linearGradient x1="47.2%" y1="64%" x2="52.8%" y2="36%" id="E"><stop stop-color="#70F1F7" offset="0%"/><stop stop-color="#5995FF" offset="100%"/></linearGradient><linearGradient x1="33.6666667%" y1="97.6666667%" x2="66.3333333%" y2="2.33333333%" id="F"><stop stop-color="#70F1F7" offset="0%"/><stop stop-color="#5995FF" offset="100%"/></linearGradient><linearGradient x1="45.5641444%" y1="59.0640038%" x2="52.5640715%" y2="39.0642121%" id="G"><stop stop-color="#70F1F7" offset="0%"/><stop stop-color="#5995FF" offset="100%"/></linearGradient><linearGradient x1="47.75%" y1="59%" x2="52.25%" y2="41%" id="H"><stop stop-color="#70F1F7" offset="0%"/><stop stop-color="#5995FF" offset="100%"/></linearGradient><linearGradient x1="2.78836162%" y1="-27.2514721%" x2="74.2293038%" y2="89.6432283%" id="I"><stop stop-color="#8755FF" offset="0%"/><stop stop-color="#5995FF" stop-opacity="0" offset="100%"/></linearGradient><linearGradient x1="2.79086199%" y1="-27.2491757%" x2="74.2345737%" y2="89.6490815%" id="J"><stop stop-color="#8755FF" offset="0%"/><stop stop-color="#5995FF" stop-opacity="0" offset="100%"/></linearGradient><linearGradient x1="2.80658251%" y1="-27.2430117%" x2="74.2335437%" y2="89.641569%" id="K"><stop stop-color="#8755FF" offset="0%"/><stop stop-color="#5995FF" stop-opacity="0" offset="100%"/></linearGradient><linearGradient x1="2.78969957%" y1="-27.2378909%" x2="74.218271%" y2="89.6535868%" id="L"><stop stop-color="#8755FF" offset="0%"/><stop stop-color="#5995FF" stop-opacity="0" offset="100%"/></linearGradient><linearGradient x1="107.556714%" y1="-105.150215%" x2="39.6995708%" y2="77.7590435%" id="M"><stop stop-color="#8755FF" offset="0%"/><stop stop-color="#5995FF" stop-opacity="0" offset="100%"/></linearGradient><linearGradient x1="32.8480518%" y1="97.5833333%" x2="66.6666632%" y2="2.41666667%" id="N"><stop stop-color="#70F1F7" offset="0%"/><stop stop-color="#5995FF" offset="100%"/></linearGradient><linearGradient x1="34.6666667%" y1="97.3333333%" x2="67.6666667%" y2="2.33333333%" id="O"><stop stop-color="#70F1F7" offset="0%"/><stop stop-color="#5995FF" offset="100%"/></linearGradient><linearGradient x1="33.6666667%" y1="97.6666667%" x2="66.3333333%" y2="2.66666667%" id="P"><stop stop-color="#70F1F7" offset="0%"/><stop stop-color="#5995FF" offset="100%"/></linearGradient><linearGradient x1="32.6666667%" y1="97.6666667%" x2="65.6666667%" y2="2.33333333%" id="Q"><stop stop-color="#70F1F7" offset="0%"/><stop stop-color="#5995FF" offset="100%"/></linearGradient><linearGradient x1="2.79418446%" y1="-27.2432985%" x2="74.2276238%" y2="89.6524307%" id="R"><stop stop-color="#8755FF" offset="0%"/><stop stop-color="#5995FF" stop-opacity="0" offset="100%"/></linearGradient><linearGradient x1="2.79579858%" y1="-27.2474513%" x2="74.22768%" y2="89.6509113%" id="S"><stop stop-color="#8755FF" offset="0%"/><stop stop-color="#5995FF" stop-opacity="0" offset="100%"/></linearGradient><linearGradient x1="33.0205957%" y1="97.5833333%" x2="66.8392071%" y2="2.41666667%" id="T"><stop stop-color="#70F1F7" offset="0%"/><stop stop-color="#5995FF" offset="100%"/></linearGradient><linearGradient x1="33.3333333%" y1="97.6666667%" x2="66%" y2="2.33333333%" id="U"><stop stop-color="#70F1F7" offset="0%"/><stop stop-color="#5995FF" offset="100%"/></linearGradient><linearGradient x1="30.1511232%" y1="83.8463944%" x2="70.6388818%" y2="16.2664269%" id="V"><stop stop-color="#70F1F7" offset="0%"/><stop stop-color="#5995FF" offset="100%"/></linearGradient><linearGradient x1="41.7777342%" y1="164.031145%" x2="58.2120072%" y2="-64.006664%" id="W"><stop stop-color="#70F1F7" offset="0%"/><stop stop-color="#5995FF" stop-opacity="0" offset="100%"/></linearGradient><path id="X" d="M1129.062 90.348c.62 0 1.123-.504 1.123-1.125s-.503-1.125-1.123-1.125-1.123.504-1.123 1.125.503 1.125 1.123 1.125z"/></defs><g fill="url(#A)"><ellipse cx="1078.711" cy="28.304" rx="2.808" ry="2.812"/><ellipse cx="752.6" cy="116.395" rx="2.808" ry="2.812"/><ellipse cx="510.286" cy="42.925" rx="2.808" ry="2.812"/></g><ellipse fill="url(#B)" cx="229.391" cy="171.436" rx="2.808" ry="2.812"/><ellipse fill="url(#C)" cx="818.068" cy="262.166" rx="2.808" ry="2.812"/><ellipse fill="url(#A)" cx="256.749" cy="37.301" rx="2.808" ry="2.812"/><ellipse fill="url(#B)" cx="58.4" cy="410.186" rx="2.808" ry="2.812"/><ellipse fill="url(#A)" cx="69.87" cy="117.715" rx="2.808" ry="2.812"/><path d="M402.06 68.98c5.78 0 5.788-8.997 0-8.997s-5.788 8.997 0 8.997z" fill="url(#D)"/><path d="M688.817 13.87h1.497c.62 0 1.123-.504 1.123-1.125s-.503-1.125-1.123-1.125h-1.497c-.62 0-1.123.504-1.123 1.125s.503 1.125 1.123 1.125z" fill="url(#E)"/><g fill="url(#F)"><use xlink:href="#X"/><use xlink:href="#X" x="-215.63" y="-68.23"/><use xlink:href="#X" x="-721.012" y="126.712"/></g><path d="M143.798 44.192l-.75-.75a1.12 1.12 0 0 0-1.56.028c-.428.428-.44 1.12-.028 1.562l.75.75a1.12 1.12 0 0 0 1.1.323c.398-.102.71-.413.8-.81s-.022-.82-.323-1.1z" fill="url(#G)"/><g fill="url(#F)"><use xlink:href="#X" x="-1027.986" y="161.952"/><use xlink:href="#X" x="-1127.565" y="-32.99"/><use xlink:href="#X" x="-336.922" y="18.744"/></g><path d="M1140.292 2.624h.75c.62 0 1.123-.504 1.123-1.125s-.503-1.125-1.123-1.125h-.75c-.62 0-1.123.504-1.123 1.125s.503 1.125 1.123 1.125z" fill="url(#H)"/><use xlink:href="#X" x="-469.444" y="41.237" fill="url(#F)"/><ellipse fill="url(#I)" cx="61.207" cy="224.235" rx="43.231" ry="43.292"/><ellipse fill="url(#J)" cx="104.438" cy="230.241" rx="31.79" ry="31.835"/><ellipse fill="url(#K)" cx="1117.809" cy="54.254" rx="33.213" ry="33.26"/><ellipse fill="url(#L)" cx="1081.017" cy="58.865" rx="24.423" ry="24.458"/><ellipse fill="url(#M)" opacity=".5" cx="1140.292" cy="426.809" rx="24.423" ry="24.458"/><path d="M1010.765 317.604c5.78 0 5.788-8.997 0-8.997s-5.788 8.997 0 8.997z" fill="url(#N)"/><use xlink:href="#X" x="-752.825" y="68.687" fill="url(#F)"/><use xlink:href="#X" x="-1115.585" y="240.752" fill="url(#O)"/><use xlink:href="#X" x="-29.604" y="434.179" fill="url(#P)"/><use xlink:href="#X" x="-223.866" y="43.944" fill="url(#Q)"/><ellipse fill="url(#R)" cx="1007.306" cy="262.166" rx="65.917" ry="66.01"/><ellipse fill="url(#S)" cx="931.633" cy="245.641" rx="48.472" ry="48.54"/><path d="M408.798 735.528c5.78 0 5.788-8.997 0-8.997s-5.788 8.997 0 8.997z" fill="url(#T)"/><g fill="url(#U)"><use xlink:href="#X" x="-994.292" y="578.825"/><use xlink:href="#X" x="-52.41" y="688.292"/><use xlink:href="#X" x="-46.422" y="580.325"/></g><path d="M496.8 828.83l1.497-4.5c.464-1.372-1.7-1.964-2.164-.6l-1.497 4.5c-.464 1.372 1.7 1.964 2.164.6z" fill="url(#V)"/><g fill="url(#W)"><path d="M938.61 38.808l-143.753 28.41c-1.415.277-.816 2.452.6 2.167L939.2 40.975c1.415-.277.816-2.452-.6-2.167z"/><path d="M272.135 712.375l-143.753 28.41c-1.415.277-.816 2.452.6 2.167l143.753-28.41c1.415-.277.816-2.452-.6-2.167z"/></g></svg>